<?xml version="1.0" encoding="utf-8"?>
<!-- Generator: Adobe Illustrator 16.0.0, SVG Export Plug-In . SVG Version: 6.00 Build 0)  -->
<!DOCTYPE svg PUBLIC "-//W3C//DTD SVG 1.1//EN" "http://www.w3.org/Graphics/SVG/1.1/DTD/svg11.dtd">
<svg version="1.1" id="Layer_1" xmlns="http://www.w3.org/2000/svg" xmlns:xlink="http://www.w3.org/1999/xlink" x="0px" y="0px"
	 width="16px" height="16px" viewBox="0 0 16 16" enable-background="new 0 0 16 16" xml:space="preserve">
<g enable-background="new    ">
	<path fill="#FFFFFF" d="M1.852,12.155c0.381-0.905,1.281-1.864,2.699-2.877c1.231-0.881,2.027-1.512,2.39-1.893
		c0.556-0.594,0.834-1.243,0.834-1.949c0-0.574-0.159-1.053-0.478-1.434C6.978,3.622,6.522,3.432,5.928,3.432
		c-0.812,0-1.365,0.303-1.659,0.908C4.101,4.69,4.001,5.246,3.97,6.008H1.374c0.044-1.155,0.253-2.089,0.628-2.802
		c0.713-1.355,1.979-2.033,3.799-2.033c1.438,0,2.583,0.398,3.433,1.195c0.852,0.796,1.276,1.851,1.276,3.162
		c0,1.006-0.3,1.899-0.901,2.68c-0.395,0.52-1.042,1.097-1.943,1.734l-1.07,0.759c-0.67,0.475-1.128,0.818-1.375,1.03
		c-0.247,0.213-0.454,0.46-0.623,0.74h5.932v2.353H1.224C1.249,13.852,1.458,12.961,1.852,12.155z"/>
</g>
</svg>
