<?xml version="1.0" encoding="utf-8"?>
<!-- Generator: Adobe Illustrator 16.0.0, SVG Export Plug-In . SVG Version: 6.00 Build 0)  -->
<!DOCTYPE svg PUBLIC "-//W3C//DTD SVG 1.1//EN" "http://www.w3.org/Graphics/SVG/1.1/DTD/svg11.dtd">
<svg version="1.1" id="Layer_1" xmlns="http://www.w3.org/2000/svg" xmlns:xlink="http://www.w3.org/1999/xlink" x="0px" y="0px"
	 width="16px" height="16px" viewBox="0 0 16 16" enable-background="new 0 0 16 16" xml:space="preserve">
<g enable-background="new    ">
	<path fill="#FFFFFF" d="M3.754,10.656c0,0.543,0.087,0.993,0.262,1.35c0.324,0.655,0.913,0.983,1.767,0.983
		c0.523,0,0.98-0.18,1.369-0.538c0.39-0.359,0.584-0.877,0.584-1.552c0-0.893-0.361-1.489-1.083-1.789
		C6.242,8.941,5.595,8.857,4.71,8.857V6.945c0.866-0.013,1.469-0.097,1.812-0.253C7.113,6.43,7.409,5.899,7.409,5.1
		c0-0.519-0.151-0.94-0.454-1.266C6.653,3.51,6.228,3.347,5.68,3.347c-0.629,0-1.092,0.2-1.388,0.6
		c-0.296,0.4-0.438,0.935-0.425,1.603H1.374C1.399,4.874,1.515,4.234,1.72,3.628c0.219-0.53,0.562-1.021,1.03-1.471
		C3.1,1.838,3.515,1.595,3.995,1.426s1.07-0.253,1.769-0.253c1.298,0,2.345,0.336,3.14,1.008c0.797,0.671,1.193,1.572,1.193,2.703
		c0,0.8-0.236,1.475-0.711,2.024C9.086,7.252,8.773,7.485,8.449,7.61c0.244,0,0.594,0.21,1.049,0.628
		c0.682,0.631,1.021,1.493,1.021,2.587c0,1.149-0.397,2.159-1.193,3.031c-0.795,0.871-1.974,1.307-3.534,1.307
		c-1.922,0-3.258-0.627-4.006-1.883c-0.394-0.669-0.612-1.543-0.656-2.624H3.754z"/>
</g>
</svg>
