<?xml version="1.0" encoding="utf-8"?>
<!-- Generator: Adobe Illustrator 16.0.0, SVG Export Plug-In . SVG Version: 6.00 Build 0)  -->
<!DOCTYPE svg PUBLIC "-//W3C//DTD SVG 1.1//EN" "http://www.w3.org/Graphics/SVG/1.1/DTD/svg11.dtd">
<svg version="1.1" id="Layer_1" xmlns="http://www.w3.org/2000/svg" xmlns:xlink="http://www.w3.org/1999/xlink" x="0px" y="0px"
	 width="16px" height="16px" viewBox="0 0 16 16" enable-background="new 0 0 16 16" xml:space="preserve">
<g enable-background="new    ">
	<path fill="#FFFFFF" d="M7.662,4.659c0-0.219-0.084-0.459-0.253-0.722C7.122,3.513,6.688,3.3,6.106,3.3
		c-0.869,0-1.487,0.487-1.855,1.462C4.051,5.3,3.914,6.093,3.839,7.143C4.17,6.749,4.554,6.461,4.991,6.28
		c0.438-0.182,0.937-0.272,1.5-0.272c1.206,0,2.195,0.41,2.966,1.229s1.156,1.864,1.156,3.139c0,1.269-0.377,2.387-1.133,3.354
		c-0.756,0.969-1.931,1.453-3.524,1.453c-1.712,0-2.974-0.716-3.786-2.146c-0.631-1.118-0.947-2.562-0.947-4.329
		c0-1.037,0.044-1.88,0.131-2.53C1.512,5.021,1.814,4.06,2.264,3.291c0.388-0.656,0.895-1.184,1.523-1.584
		c0.628-0.399,1.379-0.6,2.254-0.6c1.262,0,2.268,0.323,3.018,0.97c0.749,0.646,1.171,1.508,1.265,2.582H7.662z M4.495,12.314
		c0.394,0.463,0.893,0.693,1.5,0.693c0.593,0,1.06-0.223,1.401-0.67c0.34-0.446,0.511-1.025,0.511-1.738
		c0-0.793-0.194-1.4-0.581-1.822C6.937,8.355,6.462,8.145,5.9,8.145c-0.456,0-0.859,0.138-1.209,0.413
		c-0.525,0.405-0.787,1.062-0.787,1.968C3.904,11.256,4.101,11.853,4.495,12.314z"/>
</g>
</svg>
