<?xml version="1.0" encoding="utf-8"?>
<!-- Generator: Adobe Illustrator 16.0.0, SVG Export Plug-In . SVG Version: 6.00 Build 0)  -->
<!DOCTYPE svg PUBLIC "-//W3C//DTD SVG 1.1//EN" "http://www.w3.org/Graphics/SVG/1.1/DTD/svg11.dtd">
<svg version="1.1" id="Layer_1" xmlns="http://www.w3.org/2000/svg" xmlns:xlink="http://www.w3.org/1999/xlink" x="0px" y="0px"
	 width="16px" height="16px" viewBox="0 0 16 16" enable-background="new 0 0 16 16" xml:space="preserve">
<g enable-background="new    ">
	<path fill="#FFFFFF" d="M1.647,8.988C1.992,8.37,2.496,7.904,3.161,7.592c-0.659-0.438-1.086-0.91-1.284-1.42
		C1.679,5.663,1.581,5.187,1.581,4.743c0-0.987,0.372-1.829,1.117-2.525s1.797-1.045,3.156-1.045c1.358,0,2.41,0.349,3.155,1.045
		s1.118,1.538,1.118,2.525c0,0.443-0.1,0.92-0.296,1.429c-0.196,0.51-0.623,0.951-1.278,1.326c0.671,0.375,1.176,0.872,1.516,1.49
		c0.338,0.618,0.508,1.309,0.508,2.071c0,1.143-0.424,2.116-1.271,2.919c-0.847,0.803-2.03,1.204-3.55,1.204
		s-2.67-0.401-3.452-1.204C1.521,13.176,1.13,12.202,1.13,11.06C1.13,10.297,1.303,9.606,1.647,8.988z M4.424,12.437
		c0.347,0.369,0.826,0.553,1.438,0.553s1.092-0.184,1.438-0.553c0.347-0.368,0.52-0.887,0.52-1.556c0-0.693-0.177-1.22-0.529-1.579
		c-0.353-0.358-0.83-0.538-1.429-0.538s-1.076,0.18-1.429,0.538c-0.353,0.359-0.529,0.886-0.529,1.579
		C3.904,11.55,4.078,12.068,4.424,12.437z M4.594,6.252c0.304,0.312,0.725,0.469,1.264,0.469c0.545,0,0.966-0.156,1.264-0.469
		c0.298-0.312,0.447-0.715,0.447-1.209c0-0.537-0.149-0.957-0.447-1.26C6.824,3.479,6.403,3.328,5.858,3.328
		c-0.539,0-0.96,0.151-1.264,0.455c-0.304,0.303-0.456,0.723-0.456,1.26C4.139,5.537,4.291,5.939,4.594,6.252z"/>
</g>
</svg>
