<?xml version="1.0" encoding="utf-8"?>
<!DOCTYPE svg PUBLIC "-//W3C//DTD SVG 1.1 Tiny//EN" "http://www.w3.org/Graphics/SVG/1.1/DTD/svg11-tiny.dtd">
<svg version="1.1" baseProfile="tiny" id="Layer_1" xmlns="http://www.w3.org/2000/svg" xmlns:xlink="http://www.w3.org/1999/xlink" x="0px" y="0px" width="16px" height="16px" viewBox="0 0 500 500" xml:space="preserve">
	<path d="M500 375v35.714q0 7.254-5.301 12.556t-12.556 5.301h-464.286q-7.254 0-12.556-5.301t-5.301-12.556v-35.714q0-7.254 5.301-12.556t12.556-5.301h464.286q7.254 0 12.556 5.301t5.301 12.556zM392.857 267.857v35.714q0 7.254-5.301 12.556t-12.556 5.301h-357.143q-7.254 0-12.556-5.301t-5.301-12.556v-35.714q0-7.254 5.301-12.556t12.556-5.301h357.143q7.254 0 12.556 5.301t5.301 12.556zM464.286 160.714v35.714q0 7.254-5.301 12.556t-12.556 5.301h-428.571q-7.254 0-12.556-5.301t-5.301-12.556v-35.714q0-7.254 5.301-12.556t12.556-5.301h428.571q7.254 0 12.556 5.301t5.301 12.556zM357.143 53.571v35.714q0 7.254-5.301 12.556t-12.556 5.301h-321.429q-7.254 0-12.556-5.301t-5.301-12.556v-35.714q0-7.254 5.301-12.556t12.556-5.301h321.429q7.254 0 12.556 5.301t5.301 12.556z" fill="#ffffff" />
</svg>
