<?xml version="1.0" encoding="utf-8"?>
<!DOCTYPE svg PUBLIC "-//W3C//DTD SVG 1.1 Tiny//EN" "http://www.w3.org/Graphics/SVG/1.1/DTD/svg11-tiny.dtd">
<svg version="1.1" baseProfile="tiny" id="Layer_1" xmlns="http://www.w3.org/2000/svg" xmlns:xlink="http://www.w3.org/1999/xlink" x="0px" y="0px" width="16px" height="16px" viewBox="0 0 500 500" xml:space="preserve">
	<path d="M178.571 392.857q0-14.788-10.463-25.251t-25.251-10.463-25.251 10.463-10.463 25.251 10.463 25.251 25.251 10.463 25.251-10.463 10.463-25.251zM71.429 250h107.143v-71.429h-44.085q-3.906 0.558-6.138 2.511l-54.409 54.409q-1.953 3.348-2.511 6.138v8.371zM428.571 392.857q0-14.788-10.463-25.251t-25.251-10.463-25.251 10.463-10.463 25.251 10.463 25.251 25.251 10.463 25.251-10.463 10.463-25.251zM464.286 205.357v-53.571q0-3.906-2.511-6.417t-6.417-2.511h-62.5v-62.5q0-3.906-2.511-6.417t-6.417-2.511h-53.571q-3.906 0-6.417 2.511t-2.511 6.417v62.5h-62.5q-3.906 0-6.417 2.511t-2.511 6.417v53.571q0 3.906 2.511 6.417t6.417 2.511h62.5v62.5q0 3.906 2.511 6.417t6.417 2.511h53.571q3.906 0 6.417-2.511t2.511-6.417v-62.5h62.5q3.906 0 6.417-2.511t2.511-6.417zM535.714 53.571v321.429q0 7.254-5.301 12.556t-12.556 5.301h-53.571q0 29.576-20.926 50.502t-50.502 20.926-50.502-20.926-20.926-50.502h-107.143q0 29.576-20.926 50.502t-50.502 20.926-50.502-20.926-20.926-50.502h-35.714q-7.254 0-12.556-5.301t-5.301-12.556 5.301-12.556 12.556-5.301v-116.071q0-7.254 3.627-16.183t8.929-14.23l55.246-55.246q5.301-5.301 14.23-8.929t16.183-3.627h44.643v-89.286q0-7.254 5.301-12.556t12.556-5.301h321.429q7.254 0 12.556 5.301t5.301 12.556z" fill="#ffffff" />
</svg>
