<?xml version="1.0" encoding="utf-8"?>
<!DOCTYPE svg PUBLIC "-//W3C//DTD SVG 1.1 Tiny//EN" "http://www.w3.org/Graphics/SVG/1.1/DTD/svg11-tiny.dtd">
<svg version="1.1" baseProfile="tiny" id="Layer_1" xmlns="http://www.w3.org/2000/svg" xmlns:xlink="http://www.w3.org/1999/xlink" x="0px" y="0px" width="16px" height="16px" viewBox="0 0 500 500" xml:space="preserve">
	<path d="M267.857 71.429q0-7.254-5.301-12.556t-12.556-5.301-12.556 5.301-5.301 12.556 5.301 12.556 12.556 5.301 12.556-5.301 5.301-12.556zM500 330.357v98.214q0 6.138-5.581 8.371-2.232 0.558-3.348 0.558-3.627 0-6.417-2.511l-25.949-25.949q-33.203 39.899-88.867 63.198t-119.838 23.298-119.838-23.298-88.867-63.198l-25.949 25.949q-2.511 2.511-6.417 2.511-1.116 0-3.348-0.558-5.581-2.232-5.581-8.371v-98.214q0-3.906 2.511-6.417t6.417-2.511h98.214q6.138 0 8.371 5.581 2.232 5.301-1.953 9.766l-27.902 27.902q18.694 25.391 52.874 42.829t75.753 23.019v-180.524h-53.571q-7.254 0-12.556-5.301t-5.301-12.556v-35.714q0-7.254 5.301-12.556t12.556-5.301h53.571v-45.48q-16.183-9.487-25.949-25.809t-9.766-35.854q0-29.576 20.926-50.502t50.502-20.926 50.502 20.926 20.926 50.502q0 19.531-9.766 35.854t-25.949 25.809v45.48h53.571q7.254 0 12.556 5.301t5.301 12.556v35.714q0 7.254-5.301 12.556t-12.556 5.301h-53.571v180.524q41.574-5.581 75.753-23.019t52.874-42.829l-27.902-27.902q-4.185-4.464-1.953-9.766 2.232-5.581 8.371-5.581h98.214q3.906 0 6.417 2.511t2.511 6.417z" fill="#ffffff" />
</svg>
