<?xml version="1.0" encoding="utf-8"?>
<!DOCTYPE svg PUBLIC "-//W3C//DTD SVG 1.1 Tiny//EN" "http://www.w3.org/Graphics/SVG/1.1/DTD/svg11-tiny.dtd">
<svg version="1.1" baseProfile="tiny" id="Layer_1" xmlns="http://www.w3.org/2000/svg" xmlns:xlink="http://www.w3.org/1999/xlink" x="0px" y="0px" width="16px" height="16px" viewBox="0 0 500 500" xml:space="preserve">
	<path d="M137.556 134.766q4.464 0 7.673-3.208t3.208-7.673-3.208-7.673-7.673-3.208-7.534 3.208-3.069 7.673 3.069 7.673 7.534 3.208zM255.301 134.766q4.464 0 7.534-3.208t3.069-7.673-3.069-7.673-7.534-3.208-7.673 3.208-3.208 7.673 3.208 7.673 7.673 3.208zM28.739 186.105q11.719 0 20.089 8.371t8.371 20.089v119.978q0 11.998-8.231 20.368t-20.229 8.371-20.368-8.371-8.371-20.368v-119.978q0-11.719 8.371-20.089t20.368-8.371zM324.498 191.406v185.826q0 12.835-8.929 21.763t-21.484 8.929h-20.926v63.337q0 11.998-8.371 20.368t-20.368 8.371-20.368-8.371-8.371-20.368v-63.337h-38.504v63.337q0 11.998-8.371 20.368t-20.368 8.371q-11.719 0-20.089-8.371t-8.371-20.368l-0.279-63.337h-20.647q-12.835 0-21.763-8.929t-8.929-21.763v-185.826h256.138zM259.766 78.404q29.855 15.346 47.712 42.829t17.857 60.128h-258.091q0-32.645 17.857-60.128t47.991-42.829l-19.81-36.551q-1.953-3.627 1.395-5.581 3.627-1.674 5.581 1.674l20.089 36.831q26.507-11.719 56.083-11.719t56.083 11.719l20.089-36.831q1.953-3.348 5.581-1.674 3.348 1.953 1.395 5.581zM392.857 214.565v119.978q0 11.998-8.371 20.368t-20.368 8.371q-11.719 0-20.089-8.371t-8.371-20.368v-119.978q0-11.998 8.371-20.229t20.089-8.231q11.998 0 20.368 8.231t8.371 20.229z" fill="#ffffff" />
</svg>
