<?xml version="1.0" encoding="utf-8"?>
<!DOCTYPE svg PUBLIC "-//W3C//DTD SVG 1.1 Tiny//EN" "http://www.w3.org/Graphics/SVG/1.1/DTD/svg11-tiny.dtd">
<svg version="1.1" baseProfile="tiny" id="Layer_1" xmlns="http://www.w3.org/2000/svg" xmlns:xlink="http://www.w3.org/1999/xlink" x="0px" y="0px" width="16px" height="16px" viewBox="0 0 500 500" xml:space="preserve">
	<path d="M174.944 383.929q0 3.627-2.79 6.417l-13.951 13.951q-2.79 2.79-6.417 2.79t-6.417-2.79l-130.022-130.022q-2.79-2.79-2.79-6.417t2.79-6.417l130.022-130.022q2.79-2.79 6.417-2.79t6.417 2.79l13.951 13.951q2.79 2.79 2.79 6.417t-2.79 6.417l-109.654 109.654 109.654 109.654q2.79 2.79 2.79 6.417zM282.087 383.929q0 3.627-2.79 6.417l-13.951 13.951q-2.79 2.79-6.417 2.79t-6.417-2.79l-130.022-130.022q-2.79-2.79-2.79-6.417t2.79-6.417l130.022-130.022q2.79-2.79 6.417-2.79t6.417 2.79l13.951 13.951q2.79 2.79 2.79 6.417t-2.79 6.417l-109.654 109.654 109.654 109.654q2.79 2.79 2.79 6.417z" fill="#ffffff" />
</svg>
