<?xml version="1.0" encoding="utf-8"?>
<!DOCTYPE svg PUBLIC "-//W3C//DTD SVG 1.1 Tiny//EN" "http://www.w3.org/Graphics/SVG/1.1/DTD/svg11-tiny.dtd">
<svg version="1.1" baseProfile="tiny" id="Layer_1" xmlns="http://www.w3.org/2000/svg" xmlns:xlink="http://www.w3.org/1999/xlink" x="0px" y="0px" width="16px" height="16px" viewBox="0 0 500 500" xml:space="preserve">
	<path d="M388.672 339.007q-10.882 34.877-34.319 69.754-35.993 54.688-71.708 54.688-13.672 0-39.063-8.929-23.996-8.929-42.132-8.929-17.020 0-39.621 9.208-22.601 9.487-36.831 9.487-42.411 0-83.984-72.266-41.016-72.824-41.016-140.346 0-63.616 31.529-104.353 31.25-40.179 79.241-40.179 20.089 0 49.386 8.371 29.018 8.371 38.504 8.371 12.556 0 39.899-9.487 28.46-9.487 48.27-9.487 33.203 0 59.431 18.136 14.509 10.044 29.018 27.902-22.042 18.694-31.808 32.924-18.136 26.228-18.136 57.757 0 34.598 19.252 62.221t44.085 35.156zM283.761 11.719q0 17.020-8.091 37.946-8.371 20.926-25.949 38.504-15.067 15.067-30.134 20.089-10.324 3.069-29.018 4.743 0.837-41.574 21.763-71.708 20.647-29.855 69.754-41.294 0.279 0.837 0.698 3.069t0.698 3.069q0 1.116 0.14 2.79t0.14 2.79z" fill="#ffffff" />
</svg>
