<?xml version="1.0" encoding="utf-8"?>
<!DOCTYPE svg PUBLIC "-//W3C//DTD SVG 1.1 Tiny//EN" "http://www.w3.org/Graphics/SVG/1.1/DTD/svg11-tiny.dtd">
<svg version="1.1" baseProfile="tiny" id="Layer_1" xmlns="http://www.w3.org/2000/svg" xmlns:xlink="http://www.w3.org/1999/xlink" x="0px" y="0px" width="16px" height="16px" viewBox="0 0 500 500" xml:space="preserve">
	<path d="M303.571 232.143q0-7.254-5.301-12.556t-12.556-5.301h-71.429q-7.254 0-12.556 5.301t-5.301 12.556 5.301 12.556 12.556 5.301h71.429q7.254 0 12.556-5.301t5.301-12.556zM464.286 178.571v267.857q0 7.254-5.301 12.556t-12.556 5.301h-392.857q-7.254 0-12.556-5.301t-5.301-12.556v-267.857q0-7.254 5.301-12.556t12.556-5.301h392.857q7.254 0 12.556 5.301t5.301 12.556zM482.143 53.571v71.429q0 7.254-5.301 12.556t-12.556 5.301h-428.571q-7.254 0-12.556-5.301t-5.301-12.556v-71.429q0-7.254 5.301-12.556t12.556-5.301h428.571q7.254 0 12.556 5.301t5.301 12.556z" fill="#ffffff" />
</svg>
