<?xml version="1.0" encoding="utf-8"?>
<!DOCTYPE svg PUBLIC "-//W3C//DTD SVG 1.1 Tiny//EN" "http://www.w3.org/Graphics/SVG/1.1/DTD/svg11-tiny.dtd">
<svg version="1.1" baseProfile="tiny" id="Layer_1" xmlns="http://www.w3.org/2000/svg" xmlns:xlink="http://www.w3.org/1999/xlink" x="0px" y="0px" width="16px" height="16px" viewBox="0 0 500 500" xml:space="preserve">
	<path d="M500 250q0 7.254-5.301 12.556l-71.429 71.429q-5.301 5.301-12.556 5.301t-12.556-5.301-5.301-12.556v-35.714h-285.714v35.714q0 7.254-5.301 12.556t-12.556 5.301-12.556-5.301l-71.429-71.429q-5.301-5.301-5.301-12.556t5.301-12.556l71.429-71.429q5.301-5.301 12.556-5.301t12.556 5.301 5.301 12.556v35.714h285.714v-35.714q0-7.254 5.301-12.556t12.556-5.301 12.556 5.301l71.429 71.429q5.301 5.301 5.301 12.556z" fill="#ffffff" />
</svg>
