<?xml version="1.0" encoding="utf-8"?>
<!DOCTYPE svg PUBLIC "-//W3C//DTD SVG 1.1 Tiny//EN" "http://www.w3.org/Graphics/SVG/1.1/DTD/svg11-tiny.dtd">
<svg version="1.1" baseProfile="tiny" id="Layer_1" xmlns="http://www.w3.org/2000/svg" xmlns:xlink="http://www.w3.org/1999/xlink" x="0px" y="0px" width="16px" height="16px" viewBox="0 0 500 500" xml:space="preserve">
	<path d="M410.714 267.857q0 15.067-10.324 25.391l-181.641 181.641q-10.882 10.324-25.391 10.324-14.23 0-25.112-10.324l-20.926-20.926q-10.603-10.603-10.603-25.391t10.603-25.391l81.752-81.752h-196.429q-14.509 0-23.577-10.463t-9.068-25.251v-35.714q0-14.788 9.068-25.251t23.577-10.463h196.429l-81.752-82.031q-10.603-10.044-10.603-25.112t10.603-25.112l20.926-20.926q10.603-10.603 25.112-10.603 14.788 0 25.391 10.603l181.641 181.641q10.324 9.766 10.324 25.112z" fill="#ffffff" />
</svg>
