<?xml version="1.0" encoding="utf-8"?>
<!DOCTYPE svg PUBLIC "-//W3C//DTD SVG 1.1 Tiny//EN" "http://www.w3.org/Graphics/SVG/1.1/DTD/svg11-tiny.dtd">
<svg version="1.1" baseProfile="tiny" id="Layer_1" xmlns="http://www.w3.org/2000/svg" xmlns:xlink="http://www.w3.org/1999/xlink" x="0px" y="0px" width="16px" height="16px" viewBox="0 0 500 500" xml:space="preserve">
	<path d="M321.429 250q0 3.906-2.511 6.417l-89.286 89.286q-2.511 2.511-6.417 2.511-3.627 0-6.278-2.651t-2.651-6.278v-53.571h-98.214q-3.627 0-6.278-2.651t-2.651-6.278v-53.571q0-3.627 2.651-6.278t6.278-2.651h98.214v-53.571q0-3.906 2.511-6.417t6.417-2.511q3.348 0 6.696 2.79l89.007 89.007q2.511 2.511 2.511 6.417zM366.071 250q0-41.294-20.368-76.172t-55.246-55.246-76.172-20.368-76.172 20.368-55.246 55.246-20.368 76.172 20.368 76.172 55.246 55.246 76.172 20.368 76.172-20.368 55.246-55.246 20.368-76.172zM428.571 250q0 58.315-28.739 107.562t-77.985 77.985-107.562 28.739-107.562-28.739-77.985-77.985-28.739-107.562 28.739-107.562 77.985-77.985 107.562-28.739 107.562 28.739 77.985 77.985 28.739 107.562z" fill="#ffffff" />
</svg>
