<?xml version="1.0" encoding="utf-8"?>
<!DOCTYPE svg PUBLIC "-//W3C//DTD SVG 1.1 Tiny//EN" "http://www.w3.org/Graphics/SVG/1.1/DTD/svg11-tiny.dtd">
<svg version="1.1" baseProfile="tiny" id="Layer_1" xmlns="http://www.w3.org/2000/svg" xmlns:xlink="http://www.w3.org/1999/xlink" x="0px" y="0px" width="16px" height="16px" viewBox="0 0 500 500" xml:space="preserve">
	<path d="M196.429 89.286q0 7.254-5.301 12.556t-12.556 5.301h-35.714v285.714h35.714q7.254 0 12.556 5.301t5.301 12.556-5.301 12.556l-71.429 71.429q-5.301 5.301-12.556 5.301t-12.556-5.301l-71.429-71.429q-5.301-5.301-5.301-12.556t5.301-12.556 12.556-5.301h35.714v-285.714h-35.714q-7.254 0-12.556-5.301t-5.301-12.556 5.301-12.556l71.429-71.429q5.301-5.301 12.556-5.301t12.556 5.301l71.429 71.429q5.301 5.301 5.301 12.556z" fill="#ffffff" />
</svg>
