<?xml version="1.0" encoding="utf-8"?>
<!DOCTYPE svg PUBLIC "-//W3C//DTD SVG 1.1 Tiny//EN" "http://www.w3.org/Graphics/SVG/1.1/DTD/svg11-tiny.dtd">
<svg version="1.1" baseProfile="tiny" id="Layer_1" xmlns="http://www.w3.org/2000/svg" xmlns:xlink="http://www.w3.org/1999/xlink" x="0px" y="0px" width="16px" height="16px" viewBox="0 0 500 500" xml:space="preserve">
	<path d="M311.942 244.419q-2.232 5.581-8.371 5.581h-53.571v98.214q0 3.906-2.511 6.417t-6.417 2.511h-53.571q-3.906 0-6.417-2.511t-2.511-6.417v-98.214h-53.571q-3.906 0-6.417-2.511t-2.511-6.417q0-3.348 2.79-6.696l89.007-89.007q3.069-2.511 6.417-2.511t6.417 2.511l89.286 89.286q4.185 4.464 1.953 9.766zM214.286 98.214q-41.294 0-76.172 20.368t-55.246 55.246-20.368 76.172 20.368 76.172 55.246 55.246 76.172 20.368 76.172-20.368 55.246-55.246 20.368-76.172-20.368-76.172-55.246-55.246-76.172-20.368zM428.571 250q0 58.315-28.739 107.562t-77.985 77.985-107.562 28.739-107.562-28.739-77.985-77.985-28.739-107.562 28.739-107.562 77.985-77.985 107.562-28.739 107.562 28.739 77.985 77.985 28.739 107.562z" fill="#ffffff" />
</svg>
