<?xml version="1.0" encoding="utf-8"?>
<!DOCTYPE svg PUBLIC "-//W3C//DTD SVG 1.1 Tiny//EN" "http://www.w3.org/Graphics/SVG/1.1/DTD/svg11-tiny.dtd">
<svg version="1.1" baseProfile="tiny" id="Layer_1" xmlns="http://www.w3.org/2000/svg" xmlns:xlink="http://www.w3.org/1999/xlink" x="0px" y="0px" width="16px" height="16px" viewBox="0 0 500 500" xml:space="preserve">
	<path d="M449.498 270.926q0 14.23-10.324 25.112l-20.926 20.926q-10.603 10.603-25.391 10.603-15.067 0-25.112-10.603l-82.031-81.752v196.429q0 14.509-10.463 23.577t-25.251 9.068h-35.714q-14.788 0-25.251-9.068t-10.463-23.577v-196.429l-82.031 81.752q-10.044 10.603-25.112 10.603t-25.112-10.603l-20.926-20.926q-10.603-10.603-10.603-25.112 0-14.788 10.603-25.391l181.641-181.641q9.766-10.324 25.112-10.324 15.067 0 25.391 10.324l181.641 181.641q10.324 10.882 10.324 25.391z" fill="#ffffff" />
</svg>
