<?xml version="1.0" encoding="utf-8"?>
<!-- Generated by IcoMoon.io -->
<!DOCTYPE svg PUBLIC "-//W3C//DTD SVG 1.1//EN" "http://www.w3.org/Graphics/SVG/1.1/DTD/svg11.dtd">
<svg version="1.1" xmlns="http://www.w3.org/2000/svg" xmlns:xlink="http://www.w3.org/1999/xlink" width="500" height="500" viewBox="0 0 500 500">
	<path d="M428.571 250v35.714q0 14.788-9.068 25.251t-23.577 10.463h-196.429l81.752 82.031q10.603 10.044 10.603 25.112t-10.603 25.112l-20.926 21.206q-10.324 10.324-25.112 10.324-14.509 0-25.391-10.324l-181.641-181.919q-10.324-10.324-10.324-25.112 0-14.509 10.324-25.391l181.641-181.362q10.603-10.603 25.391-10.603 14.509 0 25.112 10.603l20.926 20.647q10.603 10.603 10.603 25.391t-10.603 25.391l-81.752 81.752h196.429q14.509 0 23.577 10.463t9.068 25.251z" fill="#000000" />
</svg>
