<?xml version="1.0" encoding="utf-8"?>
<!DOCTYPE svg PUBLIC "-//W3C//DTD SVG 1.1 Tiny//EN" "http://www.w3.org/Graphics/SVG/1.1/DTD/svg11-tiny.dtd">
<svg version="1.1" baseProfile="tiny" id="Layer_1" xmlns="http://www.w3.org/2000/svg" xmlns:xlink="http://www.w3.org/1999/xlink" x="0px" y="0px" width="16px" height="16px" viewBox="0 0 500 500" xml:space="preserve">
	<path d="M357.143 267.857v-35.714q0-7.254-5.301-12.556t-12.556-5.301h-140.067l52.734-52.734q5.301-5.301 5.301-12.556t-5.301-12.556l-25.391-25.391q-5.022-5.022-12.556-5.022t-12.556 5.022l-126.395 126.395q-5.022 5.022-5.022 12.556t5.022 12.556l126.395 126.395q5.022 5.022 12.556 5.022t12.556-5.022l25.391-25.391q5.022-5.022 5.022-12.556t-5.022-12.556l-52.734-52.734h140.067q7.254 0 12.556-5.301t5.301-12.556zM428.571 250q0 58.315-28.739 107.562t-77.985 77.985-107.562 28.739-107.562-28.739-77.985-77.985-28.739-107.562 28.739-107.562 77.985-77.985 107.562-28.739 107.562 28.739 77.985 77.985 28.739 107.562z" fill="#ffffff" />
</svg>
