<?xml version="1.0" encoding="utf-8"?>
<!DOCTYPE svg PUBLIC "-//W3C//DTD SVG 1.1 Tiny//EN" "http://www.w3.org/Graphics/SVG/1.1/DTD/svg11-tiny.dtd">
<svg version="1.1" baseProfile="tiny" id="Layer_1" xmlns="http://www.w3.org/2000/svg" xmlns:xlink="http://www.w3.org/1999/xlink" x="0px" y="0px" width="16px" height="16px" viewBox="0 0 500 500" xml:space="preserve">
	<path d="M357.98 150.949l-99.051 99.051 99.051 99.051 40.179-40.179q8.091-8.649 19.531-3.906 10.882 4.743 10.882 16.462v125q0 7.254-5.301 12.556t-12.556 5.301h-125q-11.719 0-16.462-11.161-4.743-10.882 3.906-19.252l40.179-40.179-99.051-99.051-99.051 99.051 40.179 40.179q8.649 8.371 3.906 19.252-4.743 11.161-16.462 11.161h-125q-7.254 0-12.556-5.301t-5.301-12.556v-125q0-11.719 11.161-16.462 10.882-4.743 19.252 3.906l40.179 40.179 99.051-99.051-99.051-99.051-40.179 40.179q-5.301 5.301-12.556 5.301-3.348 0-6.696-1.395-11.161-4.743-11.161-16.462v-125q0-7.254 5.301-12.556t12.556-5.301h125q11.719 0 16.462 11.161 4.743 10.882-3.906 19.252l-40.179 40.179 99.051 99.051 99.051-99.051-40.179-40.179q-8.649-8.371-3.906-19.252 4.743-11.161 16.462-11.161h125q7.254 0 12.556 5.301t5.301 12.556v125q0 11.719-10.882 16.462-3.627 1.395-6.976 1.395-7.254 0-12.556-5.301z" fill="#ffffff" />
</svg>
