<?xml version="1.0" encoding="utf-8"?>
<!DOCTYPE svg PUBLIC "-//W3C//DTD SVG 1.1 Tiny//EN" "http://www.w3.org/Graphics/SVG/1.1/DTD/svg11-tiny.dtd">
<svg version="1.1" baseProfile="tiny" id="Layer_1" xmlns="http://www.w3.org/2000/svg" xmlns:xlink="http://www.w3.org/1999/xlink" x="0px" y="0px" width="16px" height="16px" viewBox="0 0 500 500" xml:space="preserve">
	<path d="M413.504 292.969q12.835 7.254 16.602 21.624t-3.488 27.204l-17.857 30.692q-7.254 12.835-21.624 16.602t-27.204-3.488l-74.219-42.69v85.659q0 14.509-10.603 25.112t-25.112 10.603h-35.714q-14.509 0-25.112-10.603t-10.603-25.112v-85.659l-74.219 42.69q-12.835 7.254-27.204 3.488t-21.624-16.602l-17.857-30.692q-7.254-12.835-3.488-27.204t16.602-21.624l74.219-42.969-74.219-42.969q-12.835-7.254-16.602-21.624t3.488-27.204l17.857-30.692q7.254-12.835 21.624-16.602t27.204 3.488l74.219 42.69v-85.659q0-14.509 10.603-25.112t25.112-10.603h35.714q14.509 0 25.112 10.603t10.603 25.112v85.659l74.219-42.69q12.835-7.254 27.204-3.488t21.624 16.602l17.857 30.692q7.254 12.835 3.488 27.204t-16.602 21.624l-74.219 42.969z" fill="#ffffff" />
</svg>
