<?xml version="1.0" encoding="utf-8"?>
<!DOCTYPE svg PUBLIC "-//W3C//DTD SVG 1.1 Tiny//EN" "http://www.w3.org/Graphics/SVG/1.1/DTD/svg11-tiny.dtd">
<svg version="1.1" baseProfile="tiny" id="Layer_1" xmlns="http://www.w3.org/2000/svg" xmlns:xlink="http://www.w3.org/1999/xlink" x="0px" y="0px" width="16px" height="16px" viewBox="0 0 500 500" xml:space="preserve">
	<path d="M366.071 249.163q0-44.922-24.274-82.31l-210.379 210.101q38.226 24.833 82.868 24.833 30.971 0 59.012-12.137t48.41-32.505 32.366-48.688 11.998-59.292zM87.333 332.589l210.659-210.379q-37.667-25.391-83.706-25.391-41.294 0-76.172 20.368t-55.246 55.524-20.368 76.451q0 45.201 24.833 83.426zM428.571 249.163q0 43.806-17.020 83.706t-45.62 68.638-68.359 45.759-83.287 17.020-83.287-17.020-68.359-45.759-45.62-68.638-17.020-83.706 17.020-83.566 45.62-68.499 68.359-45.759 83.287-17.020 83.287 17.020 68.359 45.759 45.62 68.499 17.020 83.566z" fill="#ffffff" />
</svg>
