<?xml version="1.0" encoding="utf-8"?>
<!-- Generated by IcoMoon.io -->
<!DOCTYPE svg PUBLIC "-//W3C//DTD SVG 1.1//EN" "http://www.w3.org/Graphics/SVG/1.1/DTD/svg11.dtd">
<svg version="1.1" xmlns="http://www.w3.org/2000/svg" xmlns:xlink="http://www.w3.org/1999/xlink" width="464" height="500" viewBox="0 0 464 500">
	<path d="M449.498 232.143q0 14.788-10.324 25.112l-181.641 181.919q-10.882 10.324-25.391 10.324-14.788 0-25.112-10.324l-181.641-181.919q-10.603-10.044-10.603-25.112 0-14.788 10.603-25.391l20.647-20.926q10.882-10.324 25.391-10.324 14.788 0 25.112 10.324l82.031 82.031v-196.429q0-14.509 10.603-25.112t25.112-10.603h35.714q14.509 0 25.112 10.603t10.603 25.112v196.429l82.031-82.031q10.324-10.324 25.112-10.324 14.509 0 25.391 10.324l20.926 20.926q10.324 10.882 10.324 25.391z" fill="#000000" />
</svg>
