<?xml version="1.0" encoding="utf-8"?>
<!-- Generated by IcoMoon.io -->
<!DOCTYPE svg PUBLIC "-//W3C//DTD SVG 1.1//EN" "http://www.w3.org/Graphics/SVG/1.1/DTD/svg11.dtd">
<svg version="1.1" xmlns="http://www.w3.org/2000/svg" xmlns:xlink="http://www.w3.org/1999/xlink" width="536" height="500" viewBox="0 0 536 500">
	<path d="M142.857 285.714v107.143h-71.429v-107.143h71.429zM250 142.857v250h-71.429v-250h71.429zM357.143 214.286v178.571h-71.429v-178.571h71.429zM464.286 107.143v285.714h-71.429v-285.714h71.429zM500 419.643v-339.286q0-3.627-2.651-6.278t-6.278-2.651h-446.429q-3.627 0-6.278 2.651t-2.651 6.278v339.286q0 3.627 2.651 6.278t6.278 2.651h446.429q3.627 0 6.278-2.651t2.651-6.278zM535.714 80.357v339.286q0 18.415-13.114 31.529t-31.529 13.114h-446.429q-18.415 0-31.529-13.114t-13.114-31.529v-339.286q0-18.415 13.114-31.529t31.529-13.114h446.429q18.415 0 31.529 13.114t13.114 31.529z" fill="#000000" />
</svg>
