<?xml version="1.0" encoding="utf-8"?>
<!DOCTYPE svg PUBLIC "-//W3C//DTD SVG 1.1 Tiny//EN" "http://www.w3.org/Graphics/SVG/1.1/DTD/svg11-tiny.dtd">
<svg version="1.1" baseProfile="tiny" id="Layer_1" xmlns="http://www.w3.org/2000/svg" xmlns:xlink="http://www.w3.org/1999/xlink" x="0px" y="0px" width="16px" height="16px" viewBox="0 0 500 500" xml:space="preserve">
	<path d="M17.578 428.571h-17.578v-392.857h17.578v392.857zM35.156 428.292h-8.929v-392.578h8.929v392.578zM61.384 428.292h-8.649v-392.578h8.649v392.578zM105.19 428.292h-8.649v-392.578h8.649v392.578zM148.996 428.292h-17.299v-392.578h17.299v392.578zM184.152 428.292h-8.649v-392.578h8.649v392.578zM201.73 428.292h-8.649v-392.578h8.649v392.578zM219.308 428.292h-8.649v-392.578h8.649v392.578zM263.114 428.292h-17.578v-392.578h17.578v392.578zM306.919 428.292h-17.578v-392.578h17.578v392.578zM342.076 428.292h-17.578v-392.578h17.578v392.578zM377.232 428.292h-17.578v-392.578h17.578v392.578zM403.46 428.292h-17.578v-392.578h17.578v392.578zM456.194 428.292h-26.228v-392.578h26.228v392.578zM473.772 428.292h-8.929v-392.578h8.929v392.578zM500 428.571h-17.578v-392.857h17.578v392.857z" fill="#ffffff" />
</svg>
