<?xml version="1.0" encoding="utf-8"?>
<!DOCTYPE svg PUBLIC "-//W3C//DTD SVG 1.1 Tiny//EN" "http://www.w3.org/Graphics/SVG/1.1/DTD/svg11-tiny.dtd">
<svg version="1.1" baseProfile="tiny" id="Layer_1" xmlns="http://www.w3.org/2000/svg" xmlns:xlink="http://www.w3.org/1999/xlink" x="0px" y="0px" width="16px" height="16px" viewBox="0 0 500 500" xml:space="preserve">
	<path d="M236.607 473.214q0-4.464-4.464-4.464-16.462 0-28.32-11.858t-11.858-28.32q0-4.464-4.464-4.464t-4.464 4.464q0 20.368 14.37 34.738t34.738 14.37q4.464 0 4.464-4.464zM464.286 392.857q0 14.509-10.603 25.112t-25.112 10.603h-125q0 29.576-20.926 50.502t-50.502 20.926-50.502-20.926-20.926-50.502h-125q-14.509 0-25.112-10.603t-10.603-25.112q53.013-44.922 80.078-110.91t27.065-139.090q0-46.038 26.786-73.103t73.661-32.645q-2.232-5.022-2.232-10.324 0-11.161 7.813-18.973t18.973-7.813 18.973 7.813 7.813 18.973q0 5.301-2.232 10.324 46.875 5.581 73.661 32.645t26.786 73.103q0 73.103 27.065 139.090t80.078 110.91z" fill="#ffffff" />
</svg>
