<?xml version="1.0" encoding="utf-8"?>
<!DOCTYPE svg PUBLIC "-//W3C//DTD SVG 1.1 Tiny//EN" "http://www.w3.org/Graphics/SVG/1.1/DTD/svg11-tiny.dtd">
<svg version="1.1" baseProfile="tiny" id="Layer_1" xmlns="http://www.w3.org/2000/svg" xmlns:xlink="http://www.w3.org/1999/xlink" x="0px" y="0px" width="16px" height="16px" viewBox="0 0 500 500" xml:space="preserve">
	<path d="M236.607 242.746q0-11.998-11.44-18.415t-21.484-0.279q-11.998 5.581-11.858 20.229t12.137 19.671q10.882 6.417 22.601-1.116t10.044-20.089zM258.929 238.281q2.232 18.415-10.044 33.761t-30.692 17.020-33.203-11.161-15.625-31.529q-0.558-13.672 7.115-25.949t20.229-17.857q19.531-8.649 39.481 2.79t22.74 32.924zM306.919 129.185q-5.581 5.859-14.927 9.487t-14.788 4.464-17.718 2.232q-43.248 5.581-90.402 0-12.277-1.674-17.578-2.651t-14.648-4.464-15.207-9.068q3.627-5.301 10.044-8.649t11.161-4.325 13.114-2.372q55.246-9.766 113.839-0.279 9.208 1.395 14.23 2.372t11.998 4.464 10.882 8.789zM318.638 337.333q0-1.953 1.535-7.394t0.837-8.929-4.883-4.604q-44.922 29.576-101.841 29.576t-102.121-29.576l-3.348 1.674-1.395 3.348q7.254 42.969 11.44 58.594 13.114 22.601 56.919 30.134 69.476 12.835 119.419-14.788 9.487-5.301 13.672-14.37t6.278-23.856 3.488-19.81zM354.911 143.973q2.511-14.788-2.232-20.926-11.998-15.346-43.248-24.554-60.268-17.578-135.882-10.044-36.831 3.348-63.058 12.835-10.603 4.185-16.602 6.976t-13.114 9.487-8.231 15.067q2.232 18.973 5.301 38.504t8.091 47.712 6.696 38.226q0.279 1.395 1.395 8.649t1.953 10.044 3.348 7.534 6.138 7.813q29.297 22.321 79.241 27.902 72.266 7.813 122.768-17.578 6.696-3.627 11.021-6.417t8.649-8.091 5.441-11.161q13.393-74.498 22.321-131.976zM428.571 116.071v267.857q0 33.203-23.577 56.78t-56.78 23.577h-267.857q-33.203 0-56.78-23.577t-23.577-56.78v-267.857q0-33.203 23.577-56.78t56.78-23.577h267.857q33.203 0 56.78 23.577t23.577 56.78z" fill="#ffffff" />
</svg>
