<?xml version="1.0" encoding="utf-8"?>
<!DOCTYPE svg PUBLIC "-//W3C//DTD SVG 1.1 Tiny//EN" "http://www.w3.org/Graphics/SVG/1.1/DTD/svg11-tiny.dtd">
<svg version="1.1" baseProfile="tiny" id="Layer_1" xmlns="http://www.w3.org/2000/svg" xmlns:xlink="http://www.w3.org/1999/xlink" x="0px" y="0px" width="16px" height="16px" viewBox="0 0 500 500" xml:space="preserve">
	<path d="M227.399 239.676q2.232 17.578-14.090 28.181t-31.11 1.674q-10.882-4.743-14.927-16.183t-0.14-22.879 14.509-16.183q10.044-5.022 20.229-3.348t17.857 9.905 7.673 18.833zM258.371 233.817q-3.906-29.855-31.529-45.759t-54.966-3.627q-17.578 7.813-28.042 24.693t-9.626 36.133q1.116 25.391 21.624 43.248t46.177 15.625q25.391-2.232 42.411-23.438t13.951-46.875zM325.056 82.589q-5.581-7.534-15.625-12.417t-16.183-6.138-19.81-3.488q-81.194-13.114-157.924 0.558-11.998 1.953-18.415 3.348t-15.346 6.138-13.951 11.998q8.371 7.813 21.206 12.695t20.508 6.138 24.414 3.208q63.616 8.091 125 0.279 17.578-2.232 24.972-3.348t20.229-5.999 20.926-12.974zM340.96 371.373q-2.232 7.254-4.325 21.345t-3.906 23.438-7.952 19.531-16.183 15.765q-23.996 13.393-52.874 19.95t-56.362 6.138-56.222-5.162q-12.835-2.232-22.74-5.022t-21.345-7.534-20.368-12.137-14.509-17.16q-6.976-26.786-15.904-81.473l1.674-4.464 5.022-2.511q62.221 41.294 141.323 41.294t141.602-41.294q5.859 1.674 6.696 6.417t-1.395 12.556-2.232 10.324zM391.462 103.237q-7.254 46.596-30.971 182.757-1.395 8.371-7.534 15.625t-12.137 11.161-15.207 8.649q-70.313 35.156-170.201 24.554-69.196-7.534-109.933-38.784-4.185-3.348-7.115-7.394t-4.743-9.766-2.511-9.487-1.674-11.021-1.535-9.766q-2.511-13.951-7.394-41.853t-7.813-45.062-6.557-41.155-6.138-44.085q0.837-7.254 4.883-13.532t8.789-10.463 12.556-8.371 12.835-6.278 13.393-5.162q34.877-12.835 87.333-17.857 105.748-10.324 188.616 13.951 43.248 12.835 59.989 34.040 4.464 5.581 4.604 14.23t-1.535 15.067z" fill="#ffffff" />
</svg>
