<?xml version="1.0" encoding="utf-8"?>
<!DOCTYPE svg PUBLIC "-//W3C//DTD SVG 1.1 Tiny//EN" "http://www.w3.org/Graphics/SVG/1.1/DTD/svg11-tiny.dtd">
<svg version="1.1" baseProfile="tiny" id="Layer_1" xmlns="http://www.w3.org/2000/svg" xmlns:xlink="http://www.w3.org/1999/xlink" x="0px" y="0px" width="16px" height="16px" viewBox="0 0 500 500" xml:space="preserve">
	<path d="M325.614 178.571q5.022 50.781-36.551 71.987 32.645 7.813 48.828 28.739t12.556 59.71q-1.953 19.81-9.068 34.877t-17.997 24.833-27.065 16.323-33.901 9.626-40.597 4.185v71.149h-42.969v-70.034q-22.321 0-34.040-0.279v70.313h-42.969v-71.149q-5.022 0-15.067-0.14t-15.346-0.14h-55.804l8.649-51.060h30.971q13.951 0 16.183-14.23v-112.165h4.464q-1.674-0.279-4.464-0.279v-80.078q-3.627-18.973-24.833-18.973h-30.971v-45.759l59.152 0.279q17.857 0 27.065-0.279v-70.313h42.969v68.917q22.879-0.558 34.040-0.558v-68.359h42.969v70.313q22.042 1.953 39.063 6.278t31.529 12.556 23.019 21.763 10.184 31.948zM265.625 330.636q0-10.044-4.185-17.857t-10.324-12.835-16.043-8.51-18.276-5.162-20.647-2.511-19.252-0.837-17.997 0.279-13.253 0.279v94.308q2.232 0 10.324 0.14t13.393 0.14 14.788-0.418 16.323-1.116 15.904-2.372 15.485-3.906 13.253-5.859 11.021-8.371 6.836-11.161 2.651-14.23zM245.815 197.824q0-9.208-3.488-16.323t-8.51-11.719-13.393-7.813-15.346-4.604-17.16-2.232-16.183-0.698-15.067 0.279-11.021 0.14v85.659q1.395 0 9.626 0.14t12.974 0 13.951-0.558 15.346-1.535 14.37-3.069 13.532-5.162 10.324-7.534 7.534-10.742 2.511-14.23z" fill="#ffffff" />
</svg>
