<?xml version="1.0" encoding="utf-8"?>
<!DOCTYPE svg PUBLIC "-//W3C//DTD SVG 1.1 Tiny//EN" "http://www.w3.org/Graphics/SVG/1.1/DTD/svg11-tiny.dtd">
<svg version="1.1" baseProfile="tiny" id="Layer_1" xmlns="http://www.w3.org/2000/svg" xmlns:xlink="http://www.w3.org/1999/xlink" x="0px" y="0px" width="16px" height="16px" viewBox="0 0 500 500" xml:space="preserve">
	<path d="M154.855 424.386q21.206 8.929 39.063 8.929 36.551 0 60.268-11.44t34.040-31.529q10.603-19.531 10.603-50.502 0-31.808-11.44-50.223-16.183-26.228-39.341-35.156-22.321-8.929-68.917-8.929-20.647 0-28.181 2.79v40.179l-0.279 48.27 0.837 75.335q0 4.185 3.348 12.277zM150.949 216.239q11.998 1.953 30.413 1.953 48.828 0 73.661-18.136t24.833-62.5q0-31.25-23.716-52.176-23.438-20.926-71.149-20.926-14.509 0-36.272 3.627 0 12.277 0.558 21.484 1.953 34.040 1.674 77.846l-0.279 27.344q0 11.998 0.279 21.484zM0 464.286l0.558-26.228q12.556-2.511 18.973-3.348 21.484-3.348 34.319-8.649 4.743-7.534 5.859-14.23 2.511-18.415 2.511-54.129l-0.558-138.672q-1.395-71.429-2.511-112.723-0.279-24.274-3.069-30.413-0.279-1.116-3.348-3.348-5.022-3.348-19.252-4.185-8.371-0.558-31.808-3.627l-1.116-23.159 72.544-1.674 106.027-3.627 12.556-0.279q1.395 0 3.906-0.14t3.906-0.14q0.279 0 5.999 0.14t11.3 0.14h20.647q24.554 0 53.292 7.534 11.998 3.627 26.786 10.882 15.904 8.091 28.46 21.206 12.277 13.114 18.136 29.018t5.859 34.040q0 19.531-8.929 35.714t-26.507 29.297q-7.254 5.581-41.853 21.484 49.386 11.44 74.498 40.737 25.669 29.576 25.669 65.848 0 21.206-8.091 44.922-5.859 17.299-19.81 32.645-18.415 20.089-39.063 30.134-20.368 10.044-56.641 16.741-22.879 4.185-55.246 3.069l-54.966-1.116q-23.438-0.558-83.147 3.069-9.208 0.837-75.893 3.069z" fill="#ffffff" />
</svg>
