<?xml version="1.0" encoding="utf-8"?>
<!DOCTYPE svg PUBLIC "-//W3C//DTD SVG 1.1 Tiny//EN" "http://www.w3.org/Graphics/SVG/1.1/DTD/svg11-tiny.dtd">
<svg version="1.1" baseProfile="tiny" id="Layer_1" xmlns="http://www.w3.org/2000/svg" xmlns:xlink="http://www.w3.org/1999/xlink" x="0px" y="0px" width="16px" height="16px" viewBox="0 0 500 500" xml:space="preserve">
	<path d="M246.931 157.924q5.022 5.581 1.953 12.277l-150.669 322.824q-3.627 6.976-11.719 6.976-1.116 0-3.906-0.558-4.743-1.395-7.115-5.301t-1.255-8.371l54.966-225.446-113.281 28.181q-1.116 0.279-3.348 0.279-5.022 0-8.649-3.069-5.022-4.185-3.627-10.882l56.083-230.19q1.116-3.906 4.464-6.417t7.813-2.511h91.518q5.301 0 8.929 3.488t3.627 8.231q0 2.232-1.395 5.022l-47.712 129.185 110.491-27.344q2.232-0.558 3.348-0.558 5.301 0 9.487 4.185z" fill="#ffffff" />
</svg>
