<?xml version="1.0" encoding="utf-8"?>
<!DOCTYPE svg PUBLIC "-//W3C//DTD SVG 1.1 Tiny//EN" "http://www.w3.org/Graphics/SVG/1.1/DTD/svg11-tiny.dtd">
<svg version="1.1" baseProfile="tiny" id="Layer_1" xmlns="http://www.w3.org/2000/svg" xmlns:xlink="http://www.w3.org/1999/xlink" x="0px" y="0px" width="16px" height="16px" viewBox="0 0 500 500" xml:space="preserve">
	<path d="M457.31 133.371q11.161 15.904 5.022 35.993l-76.73 252.79q-5.301 17.857-21.345 29.995t-34.18 12.137h-257.534q-21.484 0-41.434-14.927t-27.762-36.691q-6.696-18.694-0.558-35.435 0-1.116 0.837-7.534t1.116-10.324q0.279-2.232-0.837-5.999t-0.837-5.441q0.558-3.069 2.232-5.859t4.604-6.557 4.604-6.557q6.417-10.603 12.556-25.53t8.371-25.53q0.837-2.79 0.14-8.371t-0.14-7.813q0.837-3.069 4.743-7.812t4.743-6.417q5.859-10.044 11.719-25.669t6.976-25.112q0.279-2.511-0.698-8.929t0.14-7.813q1.116-3.627 6.138-8.51t6.138-6.278q5.301-7.254 11.858-23.577t7.673-26.925q0.279-2.232-0.837-7.115t-0.558-7.394q0.558-2.232 2.511-5.022t5.022-6.417 4.743-5.859q2.232-3.348 4.604-8.51t4.185-9.766 4.464-10.044 5.441-8.929 7.394-6.557 10.044-3.208 13.253 1.535l-0.279 0.837q10.603-2.511 14.23-2.511h212.333q20.647 0 31.808 15.625t5.022 36.272l-76.451 252.79q-10.044 33.203-19.95 42.829t-35.854 9.626h-242.466q-7.534 0-10.603 4.185-3.069 4.464-0.279 11.998 6.696 19.531 40.179 19.531h257.534q8.091 0 15.625-4.325t9.766-11.579l83.706-275.391q1.953-6.138 1.395-15.904 10.603 4.185 16.462 11.998zM160.435 133.929q-1.116 3.627 0.558 6.278t5.581 2.651h169.643q3.627 0 7.115-2.651t4.604-6.278l5.859-17.857q1.116-3.627-0.558-6.278t-5.581-2.651h-169.643q-3.627 0-7.115 2.651t-4.604 6.278zM137.277 205.357q-1.116 3.627 0.558 6.278t5.581 2.651h169.643q3.627 0 7.115-2.651t4.604-6.278l5.859-17.857q1.116-3.627-0.558-6.278t-5.581-2.651h-169.643q-3.627 0-7.115 2.651t-4.604 6.278z" fill="#ffffff" />
</svg>
