<?xml version="1.0" encoding="utf-8"?>
<!DOCTYPE svg PUBLIC "-//W3C//DTD SVG 1.1 Tiny//EN" "http://www.w3.org/Graphics/SVG/1.1/DTD/svg11-tiny.dtd">
<svg version="1.1" baseProfile="tiny" id="Layer_1" xmlns="http://www.w3.org/2000/svg" xmlns:xlink="http://www.w3.org/1999/xlink" x="0px" y="0px" width="16px" height="16px" viewBox="0 0 500 500" xml:space="preserve">
	<path d="M321.429 71.429h-285.714v346.54l142.857-136.998 24.833 23.716 118.024 113.281v-346.54zM324.777 35.714q6.417 0 12.277 2.511 9.208 3.627 14.648 11.44t5.441 17.299v359.654q0 9.487-5.441 17.299t-14.648 11.44q-5.301 2.232-12.277 2.232-13.393 0-23.159-8.929l-123.047-118.304-123.047 118.304q-10.044 9.208-23.159 9.208-6.417 0-12.277-2.511-9.208-3.627-14.648-11.44t-5.441-17.299v-359.654q0-9.487 5.441-17.299t14.648-11.44q5.859-2.511 12.277-2.511h292.411z" fill="#ffffff" />
</svg>
