<?xml version="1.0" encoding="utf-8"?>
<!DOCTYPE svg PUBLIC "-//W3C//DTD SVG 1.1 Tiny//EN" "http://www.w3.org/Graphics/SVG/1.1/DTD/svg11-tiny.dtd">
<svg version="1.1" baseProfile="tiny" id="Layer_1" xmlns="http://www.w3.org/2000/svg" xmlns:xlink="http://www.w3.org/1999/xlink" x="0px" y="0px" width="16px" height="16px" viewBox="0 0 500 500" xml:space="preserve">
	<path d="M178.571 71.429h142.857v-35.714h-142.857v35.714zM500 250v133.929q0 18.415-13.114 31.529t-31.529 13.114h-410.714q-18.415 0-31.529-13.114t-13.114-31.529v-133.929h187.5v44.643q0 7.254 5.301 12.556t12.556 5.301h89.286q7.254 0 12.556-5.301t5.301-12.556v-44.643h187.5zM285.714 250v35.714h-71.429v-35.714h71.429zM500 116.071v107.143h-500v-107.143q0-18.415 13.114-31.529t31.529-13.114h98.214v-44.643q0-11.161 7.813-18.973t18.973-7.813h160.714q11.161 0 18.973 7.813t7.813 18.973v44.643h98.214q18.415 0 31.529 13.114t13.114 31.529z" fill="#ffffff" />
</svg>
