<?xml version="1.0" encoding="utf-8"?>
<!DOCTYPE svg PUBLIC "-//W3C//DTD SVG 1.1 Tiny//EN" "http://www.w3.org/Graphics/SVG/1.1/DTD/svg11-tiny.dtd">
<svg version="1.1" baseProfile="tiny" id="Layer_1" xmlns="http://www.w3.org/2000/svg" xmlns:xlink="http://www.w3.org/1999/xlink" x="0px" y="0px" width="16px" height="16px" viewBox="0 0 500 500" xml:space="preserve">
	<path d="M455.357 267.857q0 7.254-5.301 12.556t-12.556 5.301h-62.5q0 47.712-18.694 80.915l58.036 58.315q5.301 5.301 5.301 12.556t-5.301 12.556q-5.022 5.301-12.556 5.301t-12.556-5.301l-55.246-54.966q-1.395 1.395-4.185 3.627t-11.719 7.952-18.136 10.184-22.879 8.091-27.065 3.627v-250h-35.714v250q-14.23 0-28.32-3.767t-24.274-9.208-18.415-10.882-12.137-9.068l-4.185-3.906-51.060 57.757q-5.581 5.859-13.393 5.859-6.696 0-11.998-4.464-5.301-5.022-5.72-12.417t4.325-12.974l56.362-63.337q-16.183-31.808-16.183-76.451h-62.5q-7.254 0-12.556-5.301t-5.301-12.556 5.301-12.556 12.556-5.301h62.5v-82.031l-48.27-48.27q-5.301-5.301-5.301-12.556t5.301-12.556 12.556-5.301 12.556 5.301l48.27 48.27h235.491l48.27-48.27q5.301-5.301 12.556-5.301t12.556 5.301 5.301 12.556-5.301 12.556l-48.27 48.27v82.031h62.5q7.254 0 12.556 5.301t5.301 12.556zM321.429 107.143h-178.571q0-37.109 26.088-63.198t63.198-26.088 63.198 26.088 26.088 63.198z" fill="#ffffff" />
</svg>
