<?xml version="1.0" encoding="utf-8"?>
<!DOCTYPE svg PUBLIC "-//W3C//DTD SVG 1.1 Tiny//EN" "http://www.w3.org/Graphics/SVG/1.1/DTD/svg11-tiny.dtd">
<svg version="1.1" baseProfile="tiny" id="Layer_1" xmlns="http://www.w3.org/2000/svg" xmlns:xlink="http://www.w3.org/1999/xlink" x="0px" y="0px" width="16px" height="16px" viewBox="0 0 500 500" xml:space="preserve">
	<path d="M464.286 178.571q14.788 0 25.251 10.463t10.463 25.251-10.463 25.251-25.251 10.463v107.143q0 14.509-10.603 25.112t-25.112 10.603q-116.351-96.819-226.562-106.027-16.183 5.301-25.391 18.415t-8.649 28.042 11.161 25.809q-5.581 9.208-6.417 18.276t1.674 16.183 9.347 15.346 13.393 13.951 17.16 14.090q-8.091 16.183-31.11 23.159t-47.015 3.208-36.831-15.485q-1.953-6.417-8.231-24.414t-8.929-26.367-6.417-24.833-4.185-28.181 0.977-27.483 6.138-30.832h-34.040q-18.415 0-31.529-13.114t-13.114-31.529v-53.571q0-18.415 13.114-31.529t31.529-13.114h133.929q121.373 0 250-107.143 14.509 0 25.112 10.603t10.603 25.112v107.143zM428.571 347.098v-266.183q-109.933 84.263-214.286 95.703v75.335q105.19 11.719 214.286 95.145z" fill="#ffffff" />
</svg>
