<?xml version="1.0" encoding="utf-8"?>
<!DOCTYPE svg PUBLIC "-//W3C//DTD SVG 1.1 Tiny//EN" "http://www.w3.org/Graphics/SVG/1.1/DTD/svg11-tiny.dtd">
<svg version="1.1" baseProfile="tiny" id="Layer_1" xmlns="http://www.w3.org/2000/svg" xmlns:xlink="http://www.w3.org/1999/xlink" x="0px" y="0px" width="16px" height="16px" viewBox="0 0 500 500" xml:space="preserve">
	<path d="M285.714 250q0 29.576-20.926 50.502t-50.502 20.926-50.502-20.926-20.926-50.502 20.926-50.502 50.502-20.926 50.502 20.926 20.926 50.502zM321.429 250q0-44.364-31.39-75.753t-75.753-31.39-75.753 31.39-31.39 75.753 31.39 75.753 75.753 31.39 75.753-31.39 31.39-75.753zM357.143 250q0 59.152-41.853 101.004t-101.004 41.853-101.004-41.853-41.853-101.004 41.853-101.004 101.004-41.853 101.004 41.853 41.853 101.004zM392.857 250q0-36.272-14.23-69.336t-38.086-56.919-56.919-38.086-69.336-14.23-69.336 14.23-56.919 38.086-38.086 56.919-14.23 69.336 14.23 69.336 38.086 56.919 56.919 38.086 69.336 14.23 69.336-14.23 56.919-38.086 38.086-56.919 14.23-69.336zM428.571 250q0 58.315-28.739 107.562t-77.985 77.985-107.562 28.739-107.562-28.739-77.985-77.985-28.739-107.562 28.739-107.562 77.985-77.985 107.562-28.739 107.562 28.739 77.985 77.985 28.739 107.562z" fill="#ffffff" />
</svg>
