<?xml version="1.0" encoding="utf-8"?>
<!DOCTYPE svg PUBLIC "-//W3C//DTD SVG 1.1 Tiny//EN" "http://www.w3.org/Graphics/SVG/1.1/DTD/svg11-tiny.dtd">
<svg version="1.1" baseProfile="tiny" id="Layer_1" xmlns="http://www.w3.org/2000/svg" xmlns:xlink="http://www.w3.org/1999/xlink" x="0px" y="0px" width="16px" height="16px" viewBox="0 0 500 500" xml:space="preserve">
	<path d="M35.714 464.286h80.357v-80.357h-80.357v80.357zM133.929 464.286h89.286v-80.357h-89.286v80.357zM35.714 366.071h80.357v-89.286h-80.357v89.286zM133.929 366.071h89.286v-89.286h-89.286v89.286zM35.714 258.929h80.357v-80.357h-80.357v80.357zM241.071 464.286h89.286v-80.357h-89.286v80.357zM133.929 258.929h89.286v-80.357h-89.286v80.357zM348.214 464.286h80.357v-80.357h-80.357v80.357zM241.071 366.071h89.286v-89.286h-89.286v89.286zM142.857 125v-80.357q0-3.627-2.651-6.278t-6.278-2.651h-17.857q-3.627 0-6.278 2.651t-2.651 6.278v80.357q0 3.627 2.651 6.278t6.278 2.651h17.857q3.627 0 6.278-2.651t2.651-6.278zM348.214 366.071h80.357v-89.286h-80.357v89.286zM241.071 258.929h89.286v-80.357h-89.286v80.357zM348.214 258.929h80.357v-80.357h-80.357v80.357zM357.143 125v-80.357q0-3.627-2.651-6.278t-6.278-2.651h-17.857q-3.627 0-6.278 2.651t-2.651 6.278v80.357q0 3.627 2.651 6.278t6.278 2.651h17.857q3.627 0 6.278-2.651t2.651-6.278zM464.286 107.143v357.143q0 14.509-10.603 25.112t-25.112 10.603h-392.857q-14.509 0-25.112-10.603t-10.603-25.112v-357.143q0-14.509 10.603-25.112t25.112-10.603h35.714v-26.786q0-18.415 13.114-31.529t31.529-13.114h17.857q18.415 0 31.529 13.114t13.114 31.529v26.786h107.143v-26.786q0-18.415 13.114-31.529t31.529-13.114h17.857q18.415 0 31.529 13.114t13.114 31.529v26.786h35.714q14.509 0 25.112 10.603t10.603 25.112z" fill="#ffffff" />
</svg>
