<?xml version="1.0" encoding="utf-8"?>
<!DOCTYPE svg PUBLIC "-//W3C//DTD SVG 1.1 Tiny//EN" "http://www.w3.org/Graphics/SVG/1.1/DTD/svg11-tiny.dtd">
<svg version="1.1" baseProfile="tiny" id="Layer_1" xmlns="http://www.w3.org/2000/svg" xmlns:xlink="http://www.w3.org/1999/xlink" x="0px" y="0px" width="16px" height="16px" viewBox="0 0 500 500" xml:space="preserve">
	<path d="M35.714 464.286h392.857v-285.714h-392.857v285.714zM142.857 125v-80.357q0-3.906-2.511-6.417t-6.417-2.511h-17.857q-3.906 0-6.417 2.511t-2.511 6.417v80.357q0 3.906 2.511 6.417t6.417 2.511h17.857q3.906 0 6.417-2.511t2.511-6.417zM357.143 125v-80.357q0-3.906-2.511-6.417t-6.417-2.511h-17.857q-3.906 0-6.417 2.511t-2.511 6.417v80.357q0 3.906 2.511 6.417t6.417 2.511h17.857q3.906 0 6.417-2.511t2.511-6.417zM464.286 107.143v357.143q0 14.509-10.603 25.112t-25.112 10.603h-392.857q-14.509 0-25.112-10.603t-10.603-25.112v-357.143q0-14.509 10.603-25.112t25.112-10.603h35.714v-26.786q0-18.415 13.114-31.529t31.529-13.114h17.857q18.415 0 31.529 13.114t13.114 31.529v26.786h107.143v-26.786q0-18.415 13.114-31.529t31.529-13.114h17.857q18.415 0 31.529 13.114t13.114 31.529v26.786h35.714q14.509 0 25.112 10.603t10.603 25.112z" fill="#ffffff" />
</svg>
