<?xml version="1.0" encoding="utf-8"?>
<!DOCTYPE svg PUBLIC "-//W3C//DTD SVG 1.1 Tiny//EN" "http://www.w3.org/Graphics/SVG/1.1/DTD/svg11-tiny.dtd">
<svg version="1.1" baseProfile="tiny" id="Layer_1" xmlns="http://www.w3.org/2000/svg" xmlns:xlink="http://www.w3.org/1999/xlink" x="0px" y="0px" width="16px" height="16px" viewBox="0 0 500 500" xml:space="preserve">
	<path d="M258.929 232.143q0-3.906-2.511-6.417t-6.417-2.511q-18.415 0-31.529 13.114t-13.114 31.529q0 3.906 2.511 6.417t6.417 2.511 6.417-2.511 2.511-6.417q0-11.161 7.813-18.973t18.973-7.813q3.906 0 6.417-2.511t2.511-6.417zM321.429 268.415q0 29.576-20.926 50.502t-50.502 20.926-50.502-20.926-20.926-50.502 20.926-50.502 50.502-20.926 50.502 20.926 20.926 50.502zM35.714 428.571h428.571v-35.714h-428.571v35.714zM357.143 268.415q0-44.364-31.39-75.753t-75.753-31.39-75.753 31.39-31.39 75.753 31.39 75.753 75.753 31.39 75.753-31.39 31.39-75.753zM71.429 89.286h107.143v-35.714h-107.143v35.714zM35.714 142.857h428.571v-71.429h-231.027l-17.857 35.714h-179.688v35.714zM500 71.429v357.143q0 14.788-10.463 25.251t-25.251 10.463h-428.571q-14.788 0-25.251-10.463t-10.463-25.251v-357.143q0-14.788 10.463-25.251t25.251-10.463h428.571q14.788 0 25.251 10.463t10.463 25.251z" fill="#ffffff" />
</svg>
