<?xml version="1.0" encoding="utf-8"?>
<!DOCTYPE svg PUBLIC "-//W3C//DTD SVG 1.1 Tiny//EN" "http://www.w3.org/Graphics/SVG/1.1/DTD/svg11-tiny.dtd">
<svg version="1.1" baseProfile="tiny" id="Layer_1" xmlns="http://www.w3.org/2000/svg" xmlns:xlink="http://www.w3.org/1999/xlink" x="0px" y="0px" width="16px" height="16px" viewBox="0 0 500 500" xml:space="preserve">
	<path d="M267.857 187.5q33.203 0 56.78 23.577t23.577 56.78-23.577 56.78-56.78 23.577-56.78-23.577-23.577-56.78 23.577-56.78 56.78-23.577zM464.286 71.429q29.576 0 50.502 20.926t20.926 50.502v250q0 29.576-20.926 50.502t-50.502 20.926h-392.857q-29.576 0-50.502-20.926t-20.926-50.502v-250q0-29.576 20.926-50.502t50.502-20.926h62.5l14.23-37.946q5.301-13.672 19.392-23.577t28.878-9.905h142.857q14.788 0 28.878 9.905t19.392 23.577l14.23 37.946h62.5zM267.857 392.857q51.618 0 88.309-36.691t36.691-88.309-36.691-88.309-88.309-36.691-88.309 36.691-36.691 88.309 36.691 88.309 88.309 36.691z" fill="#ffffff" />
</svg>
