<?xml version="1.0" encoding="utf-8"?>
<!DOCTYPE svg PUBLIC "-//W3C//DTD SVG 1.1 Tiny//EN" "http://www.w3.org/Graphics/SVG/1.1/DTD/svg11-tiny.dtd">
<svg version="1.1" baseProfile="tiny" id="Layer_1" xmlns="http://www.w3.org/2000/svg" xmlns:xlink="http://www.w3.org/1999/xlink" x="0px" y="0px" width="16px" height="16px" viewBox="0 0 500 500" xml:space="preserve">
	<path d="M383.929 250l38.504 37.667q8.371 7.813 5.581 19.531-3.348 11.44-14.509 14.23l-52.456 13.393 14.788 51.897q3.348 11.44-5.301 19.531-8.091 8.649-19.531 5.301l-51.897-14.788-13.393 52.456q-2.79 11.161-14.23 14.509-3.348 0.558-5.301 0.558-8.649 0-14.23-6.138l-37.667-38.504-37.667 38.504q-7.813 8.371-19.531 5.581-11.44-3.069-14.23-14.509l-13.393-52.456-51.897 14.788q-11.44 3.348-19.531-5.301-8.649-8.091-5.301-19.531l14.788-51.897-52.456-13.393q-11.161-2.79-14.509-14.23-2.79-11.719 5.581-19.531l38.504-37.667-38.504-37.667q-8.371-7.813-5.581-19.531 3.348-11.44 14.509-14.23l52.456-13.393-14.788-51.897q-3.348-11.44 5.301-19.531 8.091-8.649 19.531-5.301l51.897 14.788 13.393-52.456q2.79-11.44 14.23-14.23 11.44-3.348 19.531 5.301l37.667 38.784 37.667-38.784q8.091-8.371 19.531-5.301 11.44 2.79 14.23 14.23l13.393 52.456 51.897-14.788q11.44-3.348 19.531 5.301 8.649 8.091 5.301 19.531l-14.788 51.897 52.456 13.393q11.161 2.79 14.509 14.23 2.79 11.719-5.581 19.531z" fill="#ffffff" />
</svg>
