<?xml version="1.0" encoding="utf-8"?>
<!DOCTYPE svg PUBLIC "-//W3C//DTD SVG 1.1 Tiny//EN" "http://www.w3.org/Graphics/SVG/1.1/DTD/svg11-tiny.dtd">
<svg version="1.1" baseProfile="tiny" id="Layer_1" xmlns="http://www.w3.org/2000/svg" xmlns:xlink="http://www.w3.org/1999/xlink" x="0px" y="0px" width="16px" height="16px" viewBox="0 0 500 500" xml:space="preserve">
	<path d="M191.127 362.444l171.317-171.317q5.301-5.301 5.301-12.556t-5.301-12.556l-28.46-28.46q-5.301-5.301-12.556-5.301t-12.556 5.301l-130.301 130.301-58.873-58.873q-5.301-5.301-12.556-5.301t-12.556 5.301l-28.46 28.46q-5.301 5.301-5.301 12.556t5.301 12.556l99.888 99.888q5.301 5.301 12.556 5.301t12.556-5.301zM428.571 116.071v267.857q0 33.203-23.577 56.78t-56.78 23.577h-267.857q-33.203 0-56.78-23.577t-23.577-56.78v-267.857q0-33.203 23.577-56.78t56.78-23.577h267.857q33.203 0 56.78 23.577t23.577 56.78z" fill="#ffffff" />
</svg>
