<?xml version="1.0" encoding="utf-8"?>
<!DOCTYPE svg PUBLIC "-//W3C//DTD SVG 1.1 Tiny//EN" "http://www.w3.org/Graphics/SVG/1.1/DTD/svg11-tiny.dtd">
<svg version="1.1" baseProfile="tiny" id="Layer_1" xmlns="http://www.w3.org/2000/svg" xmlns:xlink="http://www.w3.org/1999/xlink" x="0px" y="0px" width="16px" height="16px" viewBox="0 0 500 500" xml:space="preserve">
	<path d="M326.73 226.841l-117.746 117.746q-5.301 5.301-12.556 5.301t-12.556-5.301l-82.031-82.031q-5.301-5.301-5.301-12.556t5.301-12.556l28.46-28.46q5.301-5.301 12.556-5.301t12.556 5.301l41.016 41.016 76.73-76.73q5.301-5.301 12.556-5.301t12.556 5.301l28.46 28.46q5.301 5.301 5.301 12.556t-5.301 12.556zM366.071 250q0-41.294-20.368-76.172t-55.246-55.246-76.172-20.368-76.172 20.368-55.246 55.246-20.368 76.172 20.368 76.172 55.246 55.246 76.172 20.368 76.172-20.368 55.246-55.246 20.368-76.172zM428.571 250q0 58.315-28.739 107.562t-77.985 77.985-107.562 28.739-107.562-28.739-77.985-77.985-28.739-107.562 28.739-107.562 77.985-77.985 107.562-28.739 107.562 28.739 77.985 77.985 28.739 107.562z" fill="#ffffff" />
</svg>
