<?xml version="1.0" encoding="utf-8"?>
<!DOCTYPE svg PUBLIC "-//W3C//DTD SVG 1.1 Tiny//EN" "http://www.w3.org/Graphics/SVG/1.1/DTD/svg11-tiny.dtd">
<svg version="1.1" baseProfile="tiny" id="Layer_1" xmlns="http://www.w3.org/2000/svg" xmlns:xlink="http://www.w3.org/1999/xlink" x="0px" y="0px" width="16px" height="16px" viewBox="0 0 500 500" xml:space="preserve">
	<path d="M392.857 259.487v88.728q0 33.203-23.577 56.78t-56.78 23.577h-232.143q-33.203 0-56.78-23.577t-23.577-56.78v-232.143q0-33.203 23.577-56.78t56.78-23.577h232.143q17.578 0 32.645 6.976 4.185 1.953 5.022 6.417 0.837 4.743-2.511 8.091l-13.672 13.672q-2.79 2.79-6.417 2.79-0.837 0-2.511-0.558-6.417-1.674-12.556-1.674h-232.143q-18.415 0-31.529 13.114t-13.114 31.529v232.143q0 18.415 13.114 31.529t31.529 13.114h232.143q18.415 0 31.529-13.114t13.114-31.529v-70.871q0-3.627 2.511-6.138l17.857-17.857q2.79-2.79 6.417-2.79 1.674 0 3.348 0.837 5.581 2.232 5.581 8.091zM457.31 123.047l-227.121 227.121q-6.696 6.696-15.904 6.696t-15.904-6.696l-119.978-119.978q-6.696-6.696-6.696-15.904t6.696-15.904l30.692-30.692q6.696-6.696 15.904-6.696t15.904 6.696l73.382 73.382 180.524-180.524q6.696-6.696 15.904-6.696t15.904 6.696l30.692 30.692q6.696 6.696 6.696 15.904t-6.696 15.904z" fill="#ffffff" />
</svg>
