<?xml version="1.0" encoding="utf-8"?>
<!DOCTYPE svg PUBLIC "-//W3C//DTD SVG 1.1 Tiny//EN" "http://www.w3.org/Graphics/SVG/1.1/DTD/svg11-tiny.dtd">
<svg version="1.1" baseProfile="tiny" id="Layer_1" xmlns="http://www.w3.org/2000/svg" xmlns:xlink="http://www.w3.org/1999/xlink" x="0px" y="0px" width="16px" height="16px" viewBox="0 0 500 500" xml:space="preserve">
	<path d="M358.259 204.799q0-7.813-5.022-12.835l-25.391-25.112q-5.301-5.301-12.556-5.301t-12.556 5.301l-113.839 113.56-63.058-63.058q-5.301-5.301-12.556-5.301t-12.556 5.301l-25.391 25.112q-5.022 5.022-5.022 12.835 0 7.534 5.022 12.556l101.004 101.004q5.301 5.301 12.556 5.301 7.534 0 12.835-5.301l151.507-151.507q5.022-5.022 5.022-12.556zM428.571 250q0 58.315-28.739 107.562t-77.985 77.985-107.562 28.739-107.562-28.739-77.985-77.985-28.739-107.562 28.739-107.562 77.985-77.985 107.562-28.739 107.562 28.739 77.985 77.985 28.739 107.562z" fill="#ffffff" />
</svg>
