<?xml version="1.0" encoding="utf-8"?>
<!DOCTYPE svg PUBLIC "-//W3C//DTD SVG 1.1 Tiny//EN" "http://www.w3.org/Graphics/SVG/1.1/DTD/svg11-tiny.dtd">
<svg version="1.1" baseProfile="tiny" id="Layer_1" xmlns="http://www.w3.org/2000/svg" xmlns:xlink="http://www.w3.org/1999/xlink" x="0px" y="0px" width="16px" height="16px" viewBox="0 0 500 500" xml:space="preserve">
	<path d="M325.056 317.801l28.46-28.46q5.301-5.301 5.301-12.556t-5.301-12.556l-126.674-126.674q-5.301-5.301-12.556-5.301t-12.556 5.301l-126.674 126.674q-5.301 5.301-5.301 12.556t5.301 12.556l28.46 28.46q5.301 5.301 12.556 5.301t12.556-5.301l85.659-85.659 85.659 85.659q5.301 5.301 12.556 5.301t12.556-5.301zM428.571 250q0 58.315-28.739 107.562t-77.985 77.985-107.562 28.739-107.562-28.739-77.985-77.985-28.739-107.562 28.739-107.562 77.985-77.985 107.562-28.739 107.562 28.739 77.985 77.985 28.739 107.562z" fill="#ffffff" />
</svg>
