<?xml version="1.0" encoding="utf-8"?>
<!DOCTYPE svg PUBLIC "-//W3C//DTD SVG 1.1 Tiny//EN" "http://www.w3.org/Graphics/SVG/1.1/DTD/svg11-tiny.dtd">
<svg version="1.1" baseProfile="tiny" id="Layer_1" xmlns="http://www.w3.org/2000/svg" xmlns:xlink="http://www.w3.org/1999/xlink" x="0px" y="0px" width="16px" height="16px" viewBox="0 0 500 500" xml:space="preserve">
	<path d="M214.286 464.286h250v-178.571h-116.071q-11.161 0-18.973-7.813t-7.813-18.973v-116.071h-107.143v321.429zM285.714 62.5v-17.857q0-3.627-2.651-6.278t-6.278-2.651h-196.429q-3.627 0-6.278 2.651t-2.651 6.278v17.857q0 3.627 2.651 6.278t6.278 2.651h196.429q3.627 0 6.278-2.651t2.651-6.278zM357.143 250h83.426l-83.426-83.426v83.426zM500 285.714v187.5q0 11.161-7.813 18.973t-18.973 7.813h-267.857q-11.161 0-18.973-7.813t-7.813-18.973v-44.643h-151.786q-11.161 0-18.973-7.813t-7.813-18.973v-375q0-11.161 7.813-18.973t18.973-7.813h303.571q11.161 0 18.973 7.813t7.813 18.973v91.518q5.859 3.627 10.044 7.812l113.839 113.839q7.813 7.813 13.393 21.206t5.581 24.554z" fill="#ffffff" />
</svg>
