<?xml version="1.0" encoding="utf-8"?>
<!DOCTYPE svg PUBLIC "-//W3C//DTD SVG 1.1 Tiny//EN" "http://www.w3.org/Graphics/SVG/1.1/DTD/svg11-tiny.dtd">
<svg version="1.1" baseProfile="tiny" id="Layer_1" xmlns="http://www.w3.org/2000/svg" xmlns:xlink="http://www.w3.org/1999/xlink" x="0px" y="0px" width="16px" height="16px" viewBox="0 0 500 500" xml:space="preserve">
	<path d="M535.714 321.429q0 44.364-31.39 75.753t-75.753 31.39h-303.571q-51.618 0-88.309-36.691t-36.691-88.309q0-36.831 19.81-67.383t52.176-45.62q-0.558-7.813-0.558-11.998 0-59.152 41.853-101.004t101.004-41.853q44.085 0 79.938 24.554t52.316 64.174q19.531-17.299 46.317-17.299 29.576 0 50.502 20.926t20.926 50.502q0 20.926-11.44 38.504 35.993 8.371 59.431 37.528t23.438 66.825z" fill="#ffffff" />
</svg>
