<?xml version="1.0" encoding="utf-8"?>
<!DOCTYPE svg PUBLIC "-//W3C//DTD SVG 1.1 Tiny//EN" "http://www.w3.org/Graphics/SVG/1.1/DTD/svg11-tiny.dtd">
<svg version="1.1" baseProfile="tiny" id="Layer_1" xmlns="http://www.w3.org/2000/svg" xmlns:xlink="http://www.w3.org/1999/xlink" x="0px" y="0px" width="16px" height="16px" viewBox="0 0 500 500" xml:space="preserve">
	<path d="M357.143 241.071q0-3.906-2.511-6.417l-98.214-98.214q-2.511-2.511-6.417-2.511t-6.417 2.511l-97.935 97.935q-2.79 3.348-2.79 6.696 0 3.906 2.511 6.417t6.417 2.511h62.5v98.214q0 3.627 2.651 6.278t6.278 2.651h53.571q3.627 0 6.278-2.651t2.651-6.278v-98.214h62.5q3.627 0 6.278-2.651t2.651-6.278zM535.714 321.429q0 44.364-31.39 75.753t-75.753 31.39h-303.571q-51.618 0-88.309-36.691t-36.691-88.309q0-36.272 19.531-66.964t52.456-46.038q-0.558-8.371-0.558-11.998 0-59.152 41.853-101.004t101.004-41.853q43.527 0 79.66 24.274t52.595 64.453q19.81-17.299 46.317-17.299 29.576 0 50.502 20.926t20.926 50.502q0 21.206-11.44 38.504 36.272 8.649 59.57 37.807t23.298 66.546z" fill="#ffffff" />
</svg>
