<?xml version="1.0" encoding="utf-8"?>
<!DOCTYPE svg PUBLIC "-//W3C//DTD SVG 1.1 Tiny//EN" "http://www.w3.org/Graphics/SVG/1.1/DTD/svg11-tiny.dtd">
<svg version="1.1" baseProfile="tiny" id="Layer_1" xmlns="http://www.w3.org/2000/svg" xmlns:xlink="http://www.w3.org/1999/xlink" x="0px" y="0px" width="16px" height="16px" viewBox="0 0 500 500" xml:space="preserve">
	<path d="M80.357 410.714q0-11.161-7.813-18.973t-18.973-7.813-18.973 7.813-7.813 18.973 7.813 18.973 18.973 7.813 18.973-7.813 7.813-18.973zM80.357 89.286q0-11.161-7.813-18.973t-18.973-7.813-18.973 7.813-7.813 18.973 7.813 18.973 18.973 7.813 18.973-7.813 7.813-18.973zM258.929 125q0-11.161-7.813-18.973t-18.973-7.813-18.973 7.813-7.813 18.973 7.813 18.973 18.973 7.813 18.973-7.813 7.813-18.973zM285.714 125q0 14.509-7.254 26.925t-19.531 19.392q-0.558 80.078-63.058 115.513-18.973 10.603-56.641 22.601-35.714 11.161-47.293 19.81t-11.579 27.902v7.254q12.277 6.976 19.531 19.392t7.254 26.925q0 22.321-15.625 37.946t-37.946 15.625-37.946-15.625-15.625-37.946q0-14.509 7.254-26.925t19.531-19.392v-228.794q-12.277-6.976-19.531-19.392t-7.254-26.925q0-22.321 15.625-37.946t37.946-15.625 37.946 15.625 15.625 37.946q0 14.509-7.254 26.925t-19.531 19.392v138.672q15.067-7.254 42.969-15.904 15.346-4.743 24.414-8.231t19.671-8.649 16.462-11.021 11.3-14.23 7.813-19.392 2.372-25.53q-12.277-6.976-19.531-19.392t-7.254-26.925q0-22.321 15.625-37.946t37.946-15.625 37.946 15.625 15.625 37.946z" fill="#ffffff" />
</svg>
