<?xml version="1.0" encoding="utf-8"?>
<!DOCTYPE svg PUBLIC "-//W3C//DTD SVG 1.1 Tiny//EN" "http://www.w3.org/Graphics/SVG/1.1/DTD/svg11-tiny.dtd">
<svg version="1.1" baseProfile="tiny" id="Layer_1" xmlns="http://www.w3.org/2000/svg" xmlns:xlink="http://www.w3.org/1999/xlink" x="0px" y="0px" width="16px" height="16px" viewBox="0 0 500 500" xml:space="preserve">
	<path d="M172.154 390.346l-13.951 13.951q-2.79 2.79-6.417 2.79t-6.417-2.79l-130.022-130.022q-2.79-2.79-2.79-6.417t2.79-6.417l130.022-130.022q2.79-2.79 6.417-2.79t6.417 2.79l13.951 13.951q2.79 2.79 2.79 6.417t-2.79 6.417l-109.654 109.654 109.654 109.654q2.79 2.79 2.79 6.417t-2.79 6.417zM337.054 92.634l-104.074 360.212q-1.116 3.627-4.325 5.441t-6.557 0.698l-17.299-4.743q-3.627-1.116-5.441-4.325t-0.698-6.836l104.074-360.212q1.116-3.627 4.325-5.441t6.557-0.698l17.299 4.743q3.627 1.116 5.441 4.325t0.698 6.836zM520.368 274.274l-130.022 130.022q-2.79 2.79-6.417 2.79t-6.417-2.79l-13.951-13.951q-2.79-2.79-2.79-6.417t2.79-6.417l109.654-109.654-109.654-109.654q-2.79-2.79-2.79-6.417t2.79-6.417l13.951-13.951q2.79-2.79 6.417-2.79t6.417 2.79l130.022 130.022q2.79 2.79 2.79 6.417t-2.79 6.417z" fill="#ffffff" />
</svg>
