<?xml version="1.0" encoding="utf-8"?>
<!DOCTYPE svg PUBLIC "-//W3C//DTD SVG 1.1 Tiny//EN" "http://www.w3.org/Graphics/SVG/1.1/DTD/svg11-tiny.dtd">
<svg version="1.1" baseProfile="tiny" id="Layer_1" xmlns="http://www.w3.org/2000/svg" xmlns:xlink="http://www.w3.org/1999/xlink" x="0px" y="0px" width="16px" height="16px" viewBox="0 0 500 500" xml:space="preserve">
	<path d="M464.286 178.571q0-22.321-15.625-37.946t-37.946-15.625h-17.857v107.143h17.857q22.321 0 37.946-15.625t15.625-37.946zM0 392.857h500q0 29.576-20.926 50.502t-50.502 20.926h-357.143q-29.576 0-50.502-20.926t-20.926-50.502zM517.857 178.571q0 44.364-31.39 75.753t-75.753 31.39h-17.857v8.929q0 25.669-18.415 44.085t-44.085 18.415h-196.429q-25.669 0-44.085-18.415t-18.415-44.085v-205.357q0-7.254 5.301-12.556t12.556-5.301h321.429q44.364 0 75.753 31.39t31.39 75.753z" fill="#ffffff" />
</svg>
