<?xml version="1.0" encoding="utf-8"?>
<!DOCTYPE svg PUBLIC "-//W3C//DTD SVG 1.1 Tiny//EN" "http://www.w3.org/Graphics/SVG/1.1/DTD/svg11-tiny.dtd">
<svg version="1.1" baseProfile="tiny" id="Layer_1" xmlns="http://www.w3.org/2000/svg" xmlns:xlink="http://www.w3.org/1999/xlink" x="0px" y="0px" width="16px" height="16px" viewBox="0 0 500 500" xml:space="preserve">
	<path d="M196.429 107.143q-42.69 0-79.799 14.509t-59.012 39.341-21.903 53.292q0 22.879 14.788 44.085t41.574 36.831l27.065 15.625-9.766 23.438q9.487-5.581 17.299-10.882l12.277-8.649 14.788 2.79q21.763 3.906 42.69 3.906 42.69 0 79.799-14.509t59.012-39.341 21.903-53.292-21.903-53.292-59.012-39.341-79.799-14.509zM196.429 71.429q53.292 0 98.633 19.113t71.568 52.037 26.228 71.708-26.228 71.708-71.568 52.037-98.633 19.113q-23.996 0-49.107-4.464-34.598 24.554-77.567 35.714-10.044 2.511-23.996 4.464h-0.837q-3.069 0-5.72-2.232t-3.208-5.859q-0.279-0.837-0.279-1.813t0.14-1.813 0.558-1.674l0.698-1.395t0.977-1.535 1.116-1.395 1.255-1.395 1.116-1.255q1.395-1.674 6.417-6.976t7.254-8.231 6.278-8.091 6.976-10.742 5.72-12.277q-34.598-20.089-54.409-49.386t-19.81-62.5q0-38.784 26.228-71.708t71.568-52.037 98.633-19.113zM425.781 397.601q2.79 6.696 5.72 12.277t6.976 10.742 6.278 8.091 7.254 8.231 6.417 6.976q0.279 0.279 1.116 1.255t1.255 1.395 1.116 1.395 0.977 1.535l0.698 1.395t0.558 1.674 0.14 1.813-0.279 1.813q-0.837 3.906-3.627 6.138t-6.138 1.953q-13.951-1.953-23.996-4.464-42.969-11.161-77.567-35.714-25.112 4.464-49.107 4.464-75.614 0-131.696-36.831 16.183 1.116 24.554 1.116 44.922 0 86.216-12.556t73.661-35.993q34.877-25.669 53.571-59.152t18.694-70.871q0-21.484-6.417-42.411 35.993 19.81 56.919 49.665t20.926 64.174q0 33.482-19.81 62.64t-54.409 49.247z" fill="#ffffff" />
</svg>
