<?xml version="1.0" encoding="utf-8"?>
<!DOCTYPE svg PUBLIC "-//W3C//DTD SVG 1.1 Tiny//EN" "http://www.w3.org/Graphics/SVG/1.1/DTD/svg11-tiny.dtd">
<svg version="1.1" baseProfile="tiny" id="Layer_1" xmlns="http://www.w3.org/2000/svg" xmlns:xlink="http://www.w3.org/1999/xlink" x="0px" y="0px" width="16px" height="16px" viewBox="0 0 500 500" xml:space="preserve">
	<path d="M500 250q0 48.549-33.482 89.704t-90.96 65.011-125.558 23.856q-19.531 0-40.458-2.232-55.246 48.828-128.348 67.522-13.672 3.906-31.808 6.138-4.743 0.558-8.51-2.511t-4.883-8.091v-0.279q-0.837-1.116-0.14-3.348t0.558-2.79 1.255-2.651l1.674-2.511t1.953-2.372 2.232-2.511q1.953-2.232 8.649-9.626t9.626-10.603 8.649-11.021 9.068-14.23 7.534-16.462 7.254-21.206q-43.806-24.833-69.057-61.384t-25.251-78.404q0-36.272 19.81-69.336t53.292-57.059 79.799-38.086 97.098-14.090q68.081 0 125.558 23.856t90.96 65.011 33.482 89.704z" fill="#ffffff" />
</svg>
