<?xml version="1.0" encoding="utf-8"?>
<!DOCTYPE svg PUBLIC "-//W3C//DTD SVG 1.1 Tiny//EN" "http://www.w3.org/Graphics/SVG/1.1/DTD/svg11-tiny.dtd">
<svg version="1.1" baseProfile="tiny" id="Layer_1" xmlns="http://www.w3.org/2000/svg" xmlns:xlink="http://www.w3.org/1999/xlink" x="0px" y="0px" width="16px" height="16px" viewBox="0 0 500 500" xml:space="preserve">
	<path d="M214.286 267.857v125q0 7.254-5.301 12.556t-12.556 5.301-12.556-5.301l-40.179-40.179-92.634 92.634q-2.79 2.79-6.417 2.79t-6.417-2.79l-31.808-31.808q-2.79-2.79-2.79-6.417t2.79-6.417l92.634-92.634-40.179-40.179q-5.301-5.301-5.301-12.556t5.301-12.556 12.556-5.301h125q7.254 0 12.556 5.301t5.301 12.556zM424.944 80.357q0 3.627-2.79 6.417l-92.634 92.634 40.179 40.179q5.301 5.301 5.301 12.556t-5.301 12.556-12.556 5.301h-125q-7.254 0-12.556-5.301t-5.301-12.556v-125q0-7.254 5.301-12.556t12.556-5.301 12.556 5.301l40.179 40.179 92.634-92.634q2.79-2.79 6.417-2.79t6.417 2.79l31.808 31.808q2.79 2.79 2.79 6.417z" fill="#ffffff" />
</svg>
