<?xml version="1.0" encoding="utf-8"?>
<!DOCTYPE svg PUBLIC "-//W3C//DTD SVG 1.1 Tiny//EN" "http://www.w3.org/Graphics/SVG/1.1/DTD/svg11-tiny.dtd">
<svg version="1.1" baseProfile="tiny" id="Layer_1" xmlns="http://www.w3.org/2000/svg" xmlns:xlink="http://www.w3.org/1999/xlink" x="0px" y="0px" width="16px" height="16px" viewBox="0 0 500 500" xml:space="preserve">
	<path d="M491.071 35.714q18.415 0 31.529 13.114t13.114 31.529v339.286q0 18.415-13.114 31.529t-31.529 13.114h-446.429q-18.415 0-31.529-13.114t-13.114-31.529v-339.286q0-18.415 13.114-31.529t31.529-13.114h446.429zM44.643 71.429q-3.627 0-6.278 2.651t-2.651 6.278v62.5h464.286v-62.5q0-3.627-2.651-6.278t-6.278-2.651h-446.429zM491.071 428.571q3.627 0 6.278-2.651t2.651-6.278v-169.643h-464.286v169.643q0 3.627 2.651 6.278t6.278 2.651h446.429zM71.429 392.857v-35.714h71.429v35.714h-71.429zM178.571 392.857v-35.714h107.143v35.714h-107.143z" fill="#ffffff" />
</svg>
