<?xml version="1.0" encoding="utf-8"?>
<!DOCTYPE svg PUBLIC "-//W3C//DTD SVG 1.1 Tiny//EN" "http://www.w3.org/Graphics/SVG/1.1/DTD/svg11-tiny.dtd">
<svg version="1.1" baseProfile="tiny" id="Layer_1" xmlns="http://www.w3.org/2000/svg" xmlns:xlink="http://www.w3.org/1999/xlink" x="0px" y="0px" width="16px" height="16px" viewBox="0 0 500 500" xml:space="preserve">
	<path d="M155.413 357.143h166.016v-166.016zM142.857 344.587l166.016-166.016h-166.016v166.016zM464.286 366.071v53.571q0 3.906-2.511 6.417t-6.417 2.511h-62.5v62.5q0 3.906-2.511 6.417t-6.417 2.511h-53.571q-3.906 0-6.417-2.511t-2.511-6.417v-62.5h-241.071q-3.906 0-6.417-2.511t-2.511-6.417v-241.071h-62.5q-3.906 0-6.417-2.511t-2.511-6.417v-53.571q0-3.906 2.511-6.417t6.417-2.511h62.5v-62.5q0-3.906 2.511-6.417t6.417-2.511h53.571q3.906 0 6.417 2.511t2.511 6.417v62.5h237.444l68.638-68.917q2.79-2.511 6.417-2.511t6.417 2.511q2.511 2.79 2.511 6.417t-2.511 6.417l-68.917 68.638v237.444h62.5q3.906 0 6.417 2.511t2.511 6.417z" fill="#ffffff" />
</svg>
