<?xml version="1.0" encoding="utf-8"?>
<!DOCTYPE svg PUBLIC "-//W3C//DTD SVG 1.1 Tiny//EN" "http://www.w3.org/Graphics/SVG/1.1/DTD/svg11-tiny.dtd">
<svg version="1.1" baseProfile="tiny" id="Layer_1" xmlns="http://www.w3.org/2000/svg" xmlns:xlink="http://www.w3.org/1999/xlink" x="0px" y="0px" width="16px" height="16px" viewBox="0 0 500 500" xml:space="preserve">
	<path d="M333.984 285.714h-30.413q-7.254 0-12.556-5.301t-5.301-12.556v-35.714q0-7.254 5.301-12.556t12.556-5.301h30.413q-8.929-30.134-31.39-52.595t-52.595-31.39v30.413q0 7.254-5.301 12.556t-12.556 5.301h-35.714q-7.254 0-12.556-5.301t-5.301-12.556v-30.413q-30.134 8.929-52.595 31.39t-31.39 52.595h30.413q7.254 0 12.556 5.301t5.301 12.556v35.714q0 7.254-5.301 12.556t-12.556 5.301h-30.413q8.929 30.134 31.39 52.595t52.595 31.39v-30.413q0-7.254 5.301-12.556t12.556-5.301h35.714q7.254 0 12.556 5.301t5.301 12.556v30.413q30.134-8.929 52.595-31.39t31.39-52.595zM428.571 232.143v35.714q0 7.254-5.301 12.556t-12.556 5.301h-39.899q-10.324 44.922-43.108 77.707t-77.707 43.108v39.899q0 7.254-5.301 12.556t-12.556 5.301h-35.714q-7.254 0-12.556-5.301t-5.301-12.556v-39.899q-44.922-10.324-77.707-43.108t-43.108-77.707h-39.899q-7.254 0-12.556-5.301t-5.301-12.556v-35.714q0-7.254 5.301-12.556t12.556-5.301h39.899q10.324-44.922 43.108-77.707t77.707-43.108v-39.899q0-7.254 5.301-12.556t12.556-5.301h35.714q7.254 0 12.556 5.301t5.301 12.556v39.899q44.922 10.324 77.707 43.108t43.108 77.707h39.899q7.254 0 12.556 5.301t5.301 12.556z" fill="#ffffff" />
</svg>
