<?xml version="1.0" encoding="utf-8"?>
<!DOCTYPE svg PUBLIC "-//W3C//DTD SVG 1.1 Tiny//EN" "http://www.w3.org/Graphics/SVG/1.1/DTD/svg11-tiny.dtd">
<svg version="1.1" baseProfile="tiny" id="Layer_1" xmlns="http://www.w3.org/2000/svg" xmlns:xlink="http://www.w3.org/1999/xlink" x="0px" y="0px" width="16px" height="16px" viewBox="0 0 500 500" xml:space="preserve">
	<path d="M178.571 17.857v178.571q0 17.020-9.905 30.971t-25.809 19.531v217.355q0 14.509-10.603 25.112t-25.112 10.603h-35.714q-14.509 0-25.112-10.603t-10.603-25.112v-217.355q-15.904-5.581-25.809-19.531t-9.905-30.971v-178.571q0-7.254 5.301-12.556t12.556-5.301 12.556 5.301 5.301 12.556v116.071q0 7.254 5.301 12.556t12.556 5.301 12.556-5.301 5.301-12.556v-116.071q0-7.254 5.301-12.556t12.556-5.301 12.556 5.301 5.301 12.556v116.071q0 7.254 5.301 12.556t12.556 5.301 12.556-5.301 5.301-12.556v-116.071q0-7.254 5.301-12.556t12.556-5.301 12.556 5.301 5.301 12.556zM392.857 17.857v446.429q0 14.509-10.603 25.112t-25.112 10.603h-35.714q-14.509 0-25.112-10.603t-10.603-25.112v-142.857h-62.5q-3.627 0-6.278-2.651t-2.651-6.278v-223.214q0-36.831 26.228-63.058t63.058-26.228h71.429q7.254 0 12.556 5.301t5.301 12.556z" fill="#ffffff" />
</svg>
