<?xml version="1.0" encoding="utf-8"?>
<!DOCTYPE svg PUBLIC "-//W3C//DTD SVG 1.1 Tiny//EN" "http://www.w3.org/Graphics/SVG/1.1/DTD/svg11-tiny.dtd">
<svg version="1.1" baseProfile="tiny" id="Layer_1" xmlns="http://www.w3.org/2000/svg" xmlns:xlink="http://www.w3.org/1999/xlink" x="0px" y="0px" width="16px" height="16px" viewBox="0 0 500 500" xml:space="preserve">
	<path d="M107.143 321.429q0-14.788-10.463-25.251t-25.251-10.463-25.251 10.463-10.463 25.251 10.463 25.251 25.251 10.463 25.251-10.463 10.463-25.251zM160.714 196.429q0-14.788-10.463-25.251t-25.251-10.463-25.251 10.463-10.463 25.251 10.463 25.251 25.251 10.463 25.251-10.463 10.463-25.251zM280.134 330.636l28.181-106.585q1.674-7.254-2.093-13.532t-10.742-8.231-13.393 1.813-8.371 11.021l-28.181 106.585q-16.741 1.395-29.855 12.137t-17.578 27.483q-5.581 21.484 5.581 40.737t32.645 24.833 40.737-5.581 24.833-32.645q4.464-16.741-1.674-32.645t-20.089-25.391zM464.286 321.429q0-14.788-10.463-25.251t-25.251-10.463-25.251 10.463-10.463 25.251 10.463 25.251 25.251 10.463 25.251-10.463 10.463-25.251zM285.714 142.857q0-14.788-10.463-25.251t-25.251-10.463-25.251 10.463-10.463 25.251 10.463 25.251 25.251 10.463 25.251-10.463 10.463-25.251zM410.714 196.429q0-14.788-10.463-25.251t-25.251-10.463-25.251 10.463-10.463 25.251 10.463 25.251 25.251 10.463 25.251-10.463 10.463-25.251zM500 321.429q0 72.824-39.341 134.766-5.301 8.091-15.067 8.091h-391.183q-9.766 0-15.067-8.091-39.341-61.663-39.341-134.766 0-50.781 19.81-97.098t53.292-79.799 79.799-53.292 97.098-19.81 97.098 19.81 79.799 53.292 53.292 79.799 19.81 97.098z" fill="#ffffff" />
</svg>
