<?xml version="1.0" encoding="utf-8"?>
<!DOCTYPE svg PUBLIC "-//W3C//DTD SVG 1.1 Tiny//EN" "http://www.w3.org/Graphics/SVG/1.1/DTD/svg11-tiny.dtd">
<svg version="1.1" baseProfile="tiny" id="Layer_1" xmlns="http://www.w3.org/2000/svg" xmlns:xlink="http://www.w3.org/1999/xlink" x="0px" y="0px" width="16px" height="16px" viewBox="0 0 500 500" xml:space="preserve">
	<path d="M107.143 151.786v160.714q0 3.627-2.651 6.278t-6.278 2.651q-3.906 0-6.417-2.511l-80.357-80.357q-2.511-2.511-2.511-6.417t2.511-6.417l80.357-80.357q2.511-2.511 6.417-2.511 3.627 0 6.278 2.651t2.651 6.278zM500 366.071v53.571q0 3.627-2.651 6.278t-6.278 2.651h-482.143q-3.627 0-6.278-2.651t-2.651-6.278v-53.571q0-3.627 2.651-6.278t6.278-2.651h482.143q3.627 0 6.278 2.651t2.651 6.278zM500 258.929v53.571q0 3.627-2.651 6.278t-6.278 2.651h-303.571q-3.627 0-6.278-2.651t-2.651-6.278v-53.571q0-3.627 2.651-6.278t6.278-2.651h303.571q3.627 0 6.278 2.651t2.651 6.278zM500 151.786v53.571q0 3.627-2.651 6.278t-6.278 2.651h-303.571q-3.627 0-6.278-2.651t-2.651-6.278v-53.571q0-3.627 2.651-6.278t6.278-2.651h303.571q3.627 0 6.278 2.651t2.651 6.278zM500 44.643v53.571q0 3.627-2.651 6.278t-6.278 2.651h-482.143q-3.627 0-6.278-2.651t-2.651-6.278v-53.571q0-3.627 2.651-6.278t6.278-2.651h482.143q3.627 0 6.278 2.651t2.651 6.278z" fill="#ffffff" />
</svg>
