<?xml version="1.0" encoding="utf-8"?>
<!DOCTYPE svg PUBLIC "-//W3C//DTD SVG 1.1 Tiny//EN" "http://www.w3.org/Graphics/SVG/1.1/DTD/svg11-tiny.dtd">
<svg version="1.1" baseProfile="tiny" id="Layer_1" xmlns="http://www.w3.org/2000/svg" xmlns:xlink="http://www.w3.org/1999/xlink" x="0px" y="0px" width="16px" height="16px" viewBox="0 0 500 500" xml:space="preserve">
	<path d="M500 276.786v-232.143q0-3.627-2.651-6.278t-6.278-2.651h-446.429q-3.627 0-6.278 2.651t-2.651 6.278v232.143q0 3.627 2.651 6.278t6.278 2.651h446.429q3.627 0 6.278-2.651t2.651-6.278zM535.714 44.643v303.571q0 18.415-13.114 31.529t-31.529 13.114h-151.786q0 10.324 4.464 21.624t8.929 19.81 4.464 12.137q0 7.254-5.301 12.556t-12.556 5.301h-142.857q-7.254 0-12.556-5.301t-5.301-12.556q0-3.906 4.464-12.277t8.929-19.531 4.464-21.763h-151.786q-18.415 0-31.529-13.114t-13.114-31.529v-303.571q0-18.415 13.114-31.529t31.529-13.114h446.429q18.415 0 31.529 13.114t13.114 31.529z" fill="#ffffff" />
</svg>
