<?xml version="1.0" encoding="utf-8"?>
<!DOCTYPE svg PUBLIC "-//W3C//DTD SVG 1.1 Tiny//EN" "http://www.w3.org/Graphics/SVG/1.1/DTD/svg11-tiny.dtd">
<svg version="1.1" baseProfile="tiny" id="Layer_1" xmlns="http://www.w3.org/2000/svg" xmlns:xlink="http://www.w3.org/1999/xlink" x="0px" y="0px" width="16px" height="16px" viewBox="0 0 500 500" xml:space="preserve">
	<path d="M357.143 375q0-7.254-5.301-12.556t-12.556-5.301-12.556 5.301-5.301 12.556 5.301 12.556 12.556 5.301 12.556-5.301 5.301-12.556zM428.571 375q0-7.254-5.301-12.556t-12.556-5.301-12.556 5.301-5.301 12.556 5.301 12.556 12.556 5.301 12.556-5.301 5.301-12.556zM464.286 312.5v89.286q0 11.161-7.813 18.973t-18.973 7.813h-410.714q-11.161 0-18.973-7.813t-7.813-18.973v-89.286q0-11.161 7.813-18.973t18.973-7.813h129.743l37.667 37.946q16.183 15.625 37.946 15.625t37.946-15.625l37.946-37.946h129.464q11.161 0 18.973 7.813t7.813 18.973zM373.605 153.739q4.743 11.44-3.906 19.531l-125 125q-5.022 5.301-12.556 5.301t-12.556-5.301l-125-125q-8.649-8.091-3.906-19.531 4.743-10.882 16.462-10.882h71.429v-125q0-7.254 5.301-12.556t12.556-5.301h71.429q7.254 0 12.556 5.301t5.301 12.556v125h71.429q11.719 0 16.462 10.882z" fill="#ffffff" />
</svg>
