<?xml version="1.0" encoding="utf-8"?>
<!DOCTYPE svg PUBLIC "-//W3C//DTD SVG 1.1 Tiny//EN" "http://www.w3.org/Graphics/SVG/1.1/DTD/svg11-tiny.dtd">
<svg version="1.1" baseProfile="tiny" id="Layer_1" xmlns="http://www.w3.org/2000/svg" xmlns:xlink="http://www.w3.org/1999/xlink" x="0px" y="0px" width="16px" height="16px" viewBox="0 0 500 500" xml:space="preserve">
	<path d="M285.714 418.527q-11.719-67.243-39.063-138.951h-0.558l-0.558 0.279q-4.464 1.674-11.998 4.604t-28.181 13.672-38.226 22.879-36.551 31.948-28.739 41.294l-4.185-3.069q51.339 41.853 116.629 41.853 36.831 0 71.429-14.509zM234.096 249.163q-5.859-13.672-14.788-30.971-86.774 25.949-187.779 25.949-0.279 1.953-0.279 5.859 0 34.598 12.277 65.988t34.598 56.222q13.951-24.833 34.458-46.457t39.76-34.738 36.412-22.601 27.762-13.393l10.324-3.627q1.116-0.279 3.627-0.977t3.627-1.255zM204.241 190.011q-33.482-59.431-68.081-105.469-38.504 18.136-65.29 51.897t-35.714 75.893q84.263 0 169.085-22.321zM395.089 279.018q-58.594-16.741-114.118-8.091 24.274 66.685 35.714 130.859 30.971-20.926 51.618-52.874t26.786-69.894zM170.48 72.266q-0.279 0-0.558 0.279 0.279-0.279 0.558-0.279zM335.101 112.723q-51.618-45.759-120.815-45.759-21.206 0-43.248 5.301 36.551 47.433 68.638 106.585 19.252-7.254 36.272-16.88t26.925-17.16 18.276-15.904 10.463-11.3zM397.321 248.047q-0.837-64.732-41.574-114.397l-0.279 0.279q-2.511 3.348-5.301 6.836t-12.137 12.417-19.81 16.88-27.902 18.136-36.691 17.997q6.976 14.788 12.277 26.507 0.558 1.674 1.813 4.883t2.093 4.604q10.044-1.395 20.787-1.953t20.508-0.558 19.252 0.418 17.857 1.116 15.765 1.535 13.393 1.813 10.184 1.674 6.976 1.255zM428.571 250q0 58.315-28.739 107.562t-77.985 77.985-107.562 28.739-107.562-28.739-77.985-77.985-28.739-107.562 28.739-107.562 77.985-77.985 107.562-28.739 107.562 28.739 77.985 77.985 28.739 107.562z" fill="#ffffff" />
</svg>
