<?xml version="1.0" encoding="utf-8"?>
<!DOCTYPE svg PUBLIC "-//W3C//DTD SVG 1.1 Tiny//EN" "http://www.w3.org/Graphics/SVG/1.1/DTD/svg11-tiny.dtd">
<svg version="1.1" baseProfile="tiny" id="Layer_1" xmlns="http://www.w3.org/2000/svg" xmlns:xlink="http://www.w3.org/1999/xlink" x="0px" y="0px" width="16px" height="16px" viewBox="0 0 500 500" xml:space="preserve">
	<path d="M112.165 197.266l137.835 85.101-95.424 79.52-136.719-89.007zM387.277 352.121v30.134l-136.719 81.752v0.279l-0.279-0.279-0.279 0.279v-0.279l-136.44-81.752v-30.134l41.016 26.786 95.424-79.241v-0.558l0.279 0.279 0.279-0.279v0.558l95.703 79.241zM154.576 32.924l95.424 79.52-137.835 84.821-94.308-75.335zM387.835 197.266l94.308 75.614-136.44 89.007-95.703-79.52zM345.703 32.924l136.44 89.007-94.308 75.335-137.835-84.821z" fill="#ffffff" />
</svg>
