<?xml version="1.0" encoding="utf-8"?>
<!DOCTYPE svg PUBLIC "-//W3C//DTD SVG 1.1 Tiny//EN" "http://www.w3.org/Graphics/SVG/1.1/DTD/svg11-tiny.dtd">
<svg version="1.1" baseProfile="tiny" id="Layer_1" xmlns="http://www.w3.org/2000/svg" xmlns:xlink="http://www.w3.org/1999/xlink" x="0px" y="0px" width="16px" height="16px" viewBox="0 0 500 500" xml:space="preserve">
	<path d="M247.768 330.357l32.366-32.366-42.411-42.411-32.366 32.366v15.625h26.786v26.786h15.625zM370.536 129.464q-4.464-4.464-9.208 0.279l-97.656 97.656q-4.743 4.743-0.279 9.208t9.208-0.279l97.656-97.656q4.743-4.743 0.279-9.208zM392.857 295.201v53.013q0 33.203-23.577 56.78t-56.78 23.577h-232.143q-33.203 0-56.78-23.577t-23.577-56.78v-232.143q0-33.203 23.577-56.78t56.78-23.577h232.143q17.578 0 32.645 6.976 4.185 1.953 5.022 6.417 0.837 4.743-2.511 8.091l-13.672 13.672q-3.906 3.906-8.929 2.232-6.417-1.674-12.556-1.674h-232.143q-18.415 0-31.529 13.114t-13.114 31.529v232.143q0 18.415 13.114 31.529t31.529 13.114h232.143q18.415 0 31.529-13.114t13.114-31.529v-35.156q0-3.627 2.511-6.138l17.857-17.857q4.185-4.185 9.766-1.953t5.581 8.091zM366.071 89.286l80.357 80.357-187.5 187.5h-80.357v-80.357zM489.956 126.116l-25.669 25.669-80.357-80.357 25.669-25.669q7.813-7.813 18.973-7.813t18.973 7.813l42.411 42.411q7.813 7.813 7.813 18.973t-7.813 18.973z" fill="#ffffff" />
</svg>
