<?xml version="1.0" encoding="utf-8"?>
<!DOCTYPE svg PUBLIC "-//W3C//DTD SVG 1.1 Tiny//EN" "http://www.w3.org/Graphics/SVG/1.1/DTD/svg11-tiny.dtd">
<svg version="1.1" baseProfile="tiny" id="Layer_1" xmlns="http://www.w3.org/2000/svg" xmlns:xlink="http://www.w3.org/1999/xlink" x="0px" y="0px" width="16px" height="16px" viewBox="0 0 500 500" xml:space="preserve">
	<path d="M107.143 348.214v53.571q0 11.161-7.813 18.973t-18.973 7.813h-53.571q-11.161 0-18.973-7.813t-7.813-18.973v-53.571q0-11.161 7.813-18.973t18.973-7.813h53.571q11.161 0 18.973 7.813t7.813 18.973zM107.143 205.357v53.571q0 11.161-7.813 18.973t-18.973 7.813h-53.571q-11.161 0-18.973-7.813t-7.813-18.973v-53.571q0-11.161 7.813-18.973t18.973-7.813h53.571q11.161 0 18.973 7.813t7.813 18.973zM107.143 62.5v53.571q0 11.161-7.813 18.973t-18.973 7.813h-53.571q-11.161 0-18.973-7.813t-7.813-18.973v-53.571q0-11.161 7.813-18.973t18.973-7.813h53.571q11.161 0 18.973 7.813t7.813 18.973z" fill="#ffffff" />
</svg>
