<?xml version="1.0" encoding="utf-8"?>
<!DOCTYPE svg PUBLIC "-//W3C//DTD SVG 1.1 Tiny//EN" "http://www.w3.org/Graphics/SVG/1.1/DTD/svg11-tiny.dtd">
<svg version="1.1" baseProfile="tiny" id="Layer_1" xmlns="http://www.w3.org/2000/svg" xmlns:xlink="http://www.w3.org/1999/xlink" x="0px" y="0px" width="16px" height="16px" viewBox="0 0 500 500" xml:space="preserve">
	<path d="M464.286 419.643v-214.286q-8.929 10.044-19.252 18.415-74.777 57.478-118.862 94.308-14.23 11.998-23.159 18.694t-24.135 13.532-28.599 6.836h-0.558q-13.393 0-28.599-6.836t-24.135-13.532-23.159-18.694q-44.085-36.831-118.862-94.308-10.324-8.371-19.252-18.415v214.286q0 3.627 2.651 6.278t6.278 2.651h410.714q3.627 0 6.278-2.651t2.651-6.278zM464.286 126.395v-6.836t-0.14-3.627-0.837-3.488-1.535-2.511-2.511-2.093-3.906-0.698h-410.714q-3.627 0-6.278 2.651t-2.651 6.278q0 46.875 41.016 79.241 53.851 42.411 111.886 88.449 1.674 1.395 9.766 8.231t12.835 10.463 12.417 8.789 14.090 7.673 11.998 2.511h0.558q5.581 0 11.998-2.511t14.090-7.673 12.417-8.789 12.835-10.463 9.766-8.231q58.036-46.038 111.886-88.449 15.067-11.998 28.042-32.227t12.974-36.691zM500 116.071v303.571q0 18.415-13.114 31.529t-31.529 13.114h-410.714q-18.415 0-31.529-13.114t-13.114-31.529v-303.571q0-18.415 13.114-31.529t31.529-13.114h410.714q18.415 0 31.529 13.114t13.114 31.529z" fill="#ffffff" />
</svg>
