<?xml version="1.0" encoding="utf-8"?>
<!DOCTYPE svg PUBLIC "-//W3C//DTD SVG 1.1 Tiny//EN" "http://www.w3.org/Graphics/SVG/1.1/DTD/svg11-tiny.dtd">
<svg version="1.1" baseProfile="tiny" id="Layer_1" xmlns="http://www.w3.org/2000/svg" xmlns:xlink="http://www.w3.org/1999/xlink" x="0px" y="0px" width="16px" height="16px" viewBox="0 0 500 500" xml:space="preserve">
	<path d="M500 198.103v221.54q0 18.415-13.114 31.529t-31.529 13.114h-410.714q-18.415 0-31.529-13.114t-13.114-31.529v-221.54q12.277 13.672 28.181 24.274 101.004 68.638 138.672 96.261 15.904 11.719 25.809 18.276t26.367 13.393 30.692 6.836h0.558q14.23 0 30.692-6.836t26.367-13.393 25.809-18.276q47.433-34.319 138.951-96.261 15.904-10.882 27.902-24.274zM500 116.071q0 22.042-13.672 42.132t-34.040 34.319q-104.911 72.824-130.581 90.681-2.79 1.953-11.858 8.51t-15.067 10.603-14.509 9.068-16.043 7.534-13.951 2.511h-0.558q-6.417 0-13.951-2.511t-16.043-7.534-14.509-9.068-15.067-10.603-11.858-8.51q-25.391-17.857-73.103-50.921t-57.199-39.76q-17.299-11.719-32.645-32.227t-15.346-38.086q0-21.763 11.579-36.272t33.063-14.509h410.714q18.136 0 31.39 13.114t13.253 31.529z" fill="#ffffff" />
</svg>
