<?xml version="1.0" encoding="utf-8"?>
<!DOCTYPE svg PUBLIC "-//W3C//DTD SVG 1.1 Tiny//EN" "http://www.w3.org/Graphics/SVG/1.1/DTD/svg11-tiny.dtd">
<svg version="1.1" baseProfile="tiny" id="Layer_1" xmlns="http://www.w3.org/2000/svg" xmlns:xlink="http://www.w3.org/1999/xlink" x="0px" y="0px" width="16px" height="16px" viewBox="0 0 500 500" xml:space="preserve">
	<path d="M272.321 364.676l9.766 44.364q0.837 3.348-0.837 6.278t-4.743 4.046l-1.395 0.279q-1.116 0.558-2.93 0.977t-4.464 1.255-5.999 1.535-7.115 1.395-8.371 1.395-9.347 1.255-10.184 0.837-10.742 0.279q-65.29 0-114.118-36.412t-66.406-98.075h-26.507q-3.627 0-6.278-2.651t-2.651-6.278v-31.529q0-3.627 2.651-6.278t6.278-2.651h18.415q-0.558-15.904 0.279-29.297h-18.694q-3.906 0-6.417-2.511t-2.511-6.417v-31.808q0-3.906 2.511-6.417t6.417-2.511h27.344q18.694-58.594 67.941-94.308t111.747-35.714q28.46 0 54.129 6.417 3.069 0.837 5.581 4.185 1.674 3.069 0.837 6.696l-11.998 44.364q-0.837 3.627-3.906 5.441t-6.696 0.698l-1.116-0.279q-1.116-0.279-3.208-0.698l-4.883-0.977t-6.278-0.977-7.254-0.837-8.091-0.698-8.231-0.279q-35.156 0-63.058 17.857t-41.853 49.107h130.581q4.464 0 6.976 3.348 2.79 3.348 1.953 7.254l-6.696 31.808q-1.395 7.254-8.929 7.254h-136.161q-0.837 10.324 0 29.297h128.069q4.185 0 6.976 3.348 2.511 3.348 1.674 7.534l-6.696 31.25q-0.558 3.069-3.069 5.162t-5.581 2.093h-107.98q13.393 32.645 41.713 51.758t63.755 19.113q5.022 0 10.044-0.418t9.347-0.977 8.231-1.255 6.836-1.395 5.162-1.255l3.348-0.837 1.395-0.558q3.627-1.395 7.254 0.558 3.348 1.953 4.185 5.859z" fill="#ffffff" />
</svg>
