<?xml version="1.0" encoding="utf-8"?>
<!DOCTYPE svg PUBLIC "-//W3C//DTD SVG 1.1 Tiny//EN" "http://www.w3.org/Graphics/SVG/1.1/DTD/svg11-tiny.dtd">
<svg version="1.1" baseProfile="tiny" id="Layer_1" xmlns="http://www.w3.org/2000/svg" xmlns:xlink="http://www.w3.org/1999/xlink" x="0px" y="0px" width="16px" height="16px" viewBox="0 0 500 500" xml:space="preserve">
	<path d="M214.286 35.714q58.315 0 107.562 28.739t77.985 77.985 28.739 107.562-28.739 107.562-77.985 77.985-107.562 28.739-107.562-28.739-77.985-77.985-28.739-107.562 28.739-107.562 77.985-77.985 107.562-28.739zM250 383.649v-53.013q0-3.906-2.511-6.557t-6.138-2.651h-53.571q-3.627 0-6.417 2.79t-2.79 6.417v53.013q0 3.627 2.79 6.417t6.417 2.79h53.571q3.627 0 6.138-2.651t2.511-6.557zM249.442 287.667l5.022-173.27q0-3.348-2.79-5.022-2.79-2.232-6.696-2.232h-61.384q-3.906 0-6.696 2.232-2.79 1.674-2.79 5.022l4.743 173.27q0 2.79 2.79 4.883t6.696 2.093h51.618q3.906 0 6.557-2.093t2.93-4.883z" fill="#ffffff" />
</svg>
