<?xml version="1.0" encoding="utf-8"?>
<!DOCTYPE svg PUBLIC "-//W3C//DTD SVG 1.1 Tiny//EN" "http://www.w3.org/Graphics/SVG/1.1/DTD/svg11-tiny.dtd">
<svg version="1.1" baseProfile="tiny" id="Layer_1" xmlns="http://www.w3.org/2000/svg" xmlns:xlink="http://www.w3.org/1999/xlink" x="0px" y="0px" width="16px" height="16px" viewBox="0 0 500 500" xml:space="preserve">
	<path d="M285.714 383.649v-53.013q0-3.906-2.651-6.557t-6.278-2.651h-53.571q-3.627 0-6.278 2.651t-2.651 6.557v53.013q0 3.906 2.651 6.557t6.278 2.651h53.571q3.627 0 6.278-2.651t2.651-6.557zM285.156 279.297l5.022-128.069q0-3.348-2.79-5.301-3.627-3.069-6.696-3.069h-61.384q-3.069 0-6.696 3.069-2.79 1.953-2.79 5.859l4.743 127.511q0 2.79 2.79 4.604t6.696 1.813h51.618q3.906 0 6.557-1.813t2.93-4.604zM281.25 18.694l214.286 392.857q9.766 17.578-0.558 35.156-4.743 8.091-12.974 12.835t-17.718 4.743h-428.571q-9.487 0-17.718-4.743t-12.974-12.835q-10.324-17.578-0.558-35.156l214.286-392.857q4.743-8.649 13.114-13.672t18.136-5.022 18.136 5.022 13.114 13.672z" fill="#ffffff" />
</svg>
