<?xml version="1.0" encoding="utf-8"?>
<!-- Generated by IcoMoon.io -->
<!DOCTYPE svg PUBLIC "-//W3C//DTD SVG 1.1//EN" "http://www.w3.org/Graphics/SVG/1.1/DTD/svg11.dtd">
<svg version="1.1" xmlns="http://www.w3.org/2000/svg" xmlns:xlink="http://www.w3.org/1999/xlink" width="179" height="500" viewBox="0 0 179 500">
	<path d="M142.857 348.214v62.5q0 7.254-5.301 12.556t-12.556 5.301h-71.429q-7.254 0-12.556-5.301t-5.301-12.556v-62.5q0-7.254 5.301-12.556t12.556-5.301h71.429q7.254 0 12.556 5.301t5.301 12.556zM151.228 53.571l-7.813 214.286q-0.279 7.254-5.72 12.556t-12.695 5.301h-71.429q-7.254 0-12.695-5.301t-5.72-12.556l-7.813-214.286q-0.279-7.254 4.883-12.556t12.417-5.301h89.286q7.254 0 12.417 5.301t4.883 12.556z" fill="#000000" />
</svg>
