<?xml version="1.0" encoding="utf-8"?>
<!DOCTYPE svg PUBLIC "-//W3C//DTD SVG 1.1 Tiny//EN" "http://www.w3.org/Graphics/SVG/1.1/DTD/svg11-tiny.dtd">
<svg version="1.1" baseProfile="tiny" id="Layer_1" xmlns="http://www.w3.org/2000/svg" xmlns:xlink="http://www.w3.org/1999/xlink" x="0px" y="0px" width="16px" height="16px" viewBox="0 0 500 500" xml:space="preserve">
	<path d="M392.857 258.929v89.286q0 33.203-23.577 56.78t-56.78 23.577h-232.143q-33.203 0-56.78-23.577t-23.577-56.78v-232.143q0-33.203 23.577-56.78t56.78-23.577h196.429q3.906 0 6.417 2.511t2.511 6.417v17.857q0 3.906-2.511 6.417t-6.417 2.511h-196.429q-18.415 0-31.529 13.114t-13.114 31.529v232.143q0 18.415 13.114 31.529t31.529 13.114h232.143q18.415 0 31.529-13.114t13.114-31.529v-89.286q0-3.906 2.511-6.417t6.417-2.511h17.857q3.906 0 6.417 2.511t2.511 6.417zM500 17.857v142.857q0 7.254-5.301 12.556t-12.556 5.301-12.556-5.301l-49.107-49.107-181.919 181.919q-2.79 2.79-6.417 2.79t-6.417-2.79l-31.808-31.808q-2.79-2.79-2.79-6.417t2.79-6.417l181.919-181.919-49.107-49.107q-5.301-5.301-5.301-12.556t5.301-12.556 12.556-5.301h142.857q7.254 0 12.556 5.301t5.301 12.556z" fill="#ffffff" />
</svg>
