<?xml version="1.0" encoding="utf-8"?>
<!DOCTYPE svg PUBLIC "-//W3C//DTD SVG 1.1 Tiny//EN" "http://www.w3.org/Graphics/SVG/1.1/DTD/svg11-tiny.dtd">
<svg version="1.1" baseProfile="tiny" id="Layer_1" xmlns="http://www.w3.org/2000/svg" xmlns:xlink="http://www.w3.org/1999/xlink" x="0px" y="0px" width="16px" height="16px" viewBox="0 0 500 500" xml:space="preserve">
	<path d="M127.79 246.373q-20.647-45.201-20.647-103.516h-71.429v26.786q0 21.763 26.367 45.201t65.708 31.529zM428.571 169.643v-26.786h-71.429q0 58.315-20.647 103.516 39.341-8.091 65.708-31.529t26.367-45.201zM464.286 133.929v35.714q0 19.81-11.579 39.899t-31.25 36.272-48.27 27.204-60.128 12.417q-11.719 15.067-26.507 26.507-10.603 9.487-14.648 20.229t-4.046 24.972q0 15.067 8.51 25.391t27.204 10.324q20.926 0 37.249 12.695t16.323 31.948v17.857q0 3.906-2.511 6.417t-6.417 2.511h-232.143q-3.906 0-6.417-2.511t-2.511-6.417v-17.857q0-19.252 16.323-31.948t37.249-12.695q18.694 0 27.204-10.324t8.51-25.391q0-14.23-4.046-24.972t-14.648-20.229q-14.788-11.44-26.507-26.507-31.529-1.395-60.128-12.417t-48.27-27.204-31.25-36.272-11.579-39.899v-35.714q0-11.161 7.813-18.973t18.973-7.813h80.357v-26.786q0-18.415 13.114-31.529t31.529-13.114h160.714q18.415 0 31.529 13.114t13.114 31.529v26.786h80.357q11.161 0 18.973 7.813t7.813 18.973z" fill="#ffffff" />
</svg>
