<?xml version="1.0" encoding="utf-8"?>
<!DOCTYPE svg PUBLIC "-//W3C//DTD SVG 1.1 Tiny//EN" "http://www.w3.org/Graphics/SVG/1.1/DTD/svg11-tiny.dtd">
<svg version="1.1" baseProfile="tiny" id="Layer_1" xmlns="http://www.w3.org/2000/svg" xmlns:xlink="http://www.w3.org/1999/xlink" x="0px" y="0px" width="16px" height="16px" viewBox="0 0 500 500" xml:space="preserve">
	<path d="M154.855 372.489l21.763-39.341q-24.274-17.578-37.946-44.364t-13.672-56.641q0-33.761 17.020-62.779-63.895 32.645-106.306 98.493 46.596 71.987 119.141 104.632zM263.393 160.714q0-5.581-3.906-9.487t-9.487-3.906q-34.877 0-59.849 24.972t-24.972 59.849q0 5.581 3.906 9.487t9.487 3.906 9.487-3.906 3.906-9.487q0-23.996 17.020-41.016t41.016-17.020q5.581 0 9.487-3.906t3.906-9.487zM364.676 107.422q0 1.953-0.279 2.511-29.297 52.456-87.891 157.924t-88.169 158.203l-13.672 24.833q-2.79 4.464-7.813 4.464-3.348 0-37.388-19.531-4.464-2.79-4.464-7.813 0-3.348 12.277-24.274-39.899-18.136-73.521-48.27t-58.175-68.359q-5.581-8.649-5.581-19.252t5.581-19.252q42.69-65.569 106.027-103.516t138.393-37.946q24.833 0 50.223 4.743l15.067-27.065q2.79-4.464 7.813-4.464 1.395 0 5.022 1.674t8.649 4.325 9.208 5.162 8.789 5.162 5.441 3.208q4.464 2.79 4.464 7.534zM375 232.143q0 38.784-22.042 70.731t-58.315 45.898l78.125-140.067q2.232 12.556 2.232 23.438zM500 267.857q0 9.766-5.581 19.252-10.882 17.857-30.413 40.458-41.853 47.991-96.958 74.498t-117.048 26.507l20.647-36.831q59.152-5.022 109.515-38.226t84.124-85.659q-32.087-49.944-78.683-82.031l17.578-31.25q26.507 17.857 50.921 42.69t40.318 51.339q5.581 9.487 5.581 19.252z" fill="#ffffff" />
</svg>
