<?xml version="1.0" encoding="utf-8"?>
<!-- Generated by IcoMoon.io -->
<!DOCTYPE svg PUBLIC "-//W3C//DTD SVG 1.1//EN" "http://www.w3.org/Graphics/SVG/1.1/DTD/svg11.dtd">
<svg version="1.1" xmlns="http://www.w3.org/2000/svg" xmlns:xlink="http://www.w3.org/1999/xlink" width="500" height="500" viewBox="0 0 500 500">
	<path d="M464.286 267.857q-42.411-65.848-106.306-98.493 17.020 29.018 17.020 62.779 0 51.618-36.691 88.309t-88.309 36.691-88.309-36.691-36.691-88.309q0-33.761 17.020-62.779-63.895 32.645-106.306 98.493 37.109 57.199 93.052 91.099t121.233 33.901 121.233-33.901 93.052-91.099zM263.393 160.714q0-5.581-3.906-9.487t-9.487-3.906q-34.877 0-59.849 24.972t-24.972 59.849q0 5.581 3.906 9.487t9.487 3.906 9.487-3.906 3.906-9.487q0-23.996 17.020-41.016t41.016-17.020q5.581 0 9.487-3.906t3.906-9.487zM500 267.857q0 9.487-5.581 19.252-39.063 64.174-105.050 102.818t-139.37 38.644-139.37-38.784-105.050-102.679q-5.581-9.766-5.581-19.252t5.581-19.252q39.063-63.895 105.050-102.679t139.37-38.784 139.37 38.784 105.050 102.679q5.581 9.766 5.581 19.252z" fill="#000000" />
</svg>
