<?xml version="1.0" encoding="utf-8"?>
<!DOCTYPE svg PUBLIC "-//W3C//DTD SVG 1.1 Tiny//EN" "http://www.w3.org/Graphics/SVG/1.1/DTD/svg11-tiny.dtd">
<svg version="1.1" baseProfile="tiny" id="Layer_1" xmlns="http://www.w3.org/2000/svg" xmlns:xlink="http://www.w3.org/1999/xlink" x="0px" y="0px" width="16px" height="16px" viewBox="0 0 500 500" xml:space="preserve">
	<path d="M464.286 160.714v71.429q0 7.254-5.301 12.556t-12.556 5.301h-17.857q-7.254 0-12.556-5.301t-5.301-12.556v-71.429q0-29.576-20.926-50.502t-50.502-20.926-50.502 20.926-20.926 50.502v53.571h26.786q11.161 0 18.973 7.813t7.813 18.973v160.714q0 11.161-7.813 18.973t-18.973 7.813h-267.857q-11.161 0-18.973-7.813t-7.813-18.973v-160.714q0-11.161 7.813-18.973t18.973-7.813h187.5v-53.571q0-51.618 36.691-88.309t88.309-36.691 88.309 36.691 36.691 88.309z" fill="#ffffff" />
</svg>
