<?xml version="1.0" encoding="utf-8"?>
<!DOCTYPE svg PUBLIC "-//W3C//DTD SVG 1.1 Tiny//EN" "http://www.w3.org/Graphics/SVG/1.1/DTD/svg11-tiny.dtd">
<svg version="1.1" baseProfile="tiny" id="Layer_1" xmlns="http://www.w3.org/2000/svg" xmlns:xlink="http://www.w3.org/1999/xlink" x="0px" y="0px" width="16px" height="16px" viewBox="0 0 500 500" xml:space="preserve">
	<path d="M487.444 39.341q5.301-5.301 8.929-3.627t3.627 8.929v410.714q0 7.254-3.627 8.929t-8.929-3.627l-198.103-198.103q-2.511-2.511-3.627-5.301v198.103q0 7.254-3.627 8.929t-8.929-3.627l-198.103-198.103q-2.511-2.511-3.627-5.301v189.174q0 7.254-5.301 12.556t-12.556 5.301h-35.714q-7.254 0-12.556-5.301t-5.301-12.556v-392.857q0-7.254 5.301-12.556t12.556-5.301h35.714q7.254 0 12.556 5.301t5.301 12.556v189.174q1.116-3.069 3.627-5.301l198.103-198.103q5.301-5.301 8.929-3.627t3.627 8.929v198.103q1.116-3.069 3.627-5.301z" fill="#ffffff" />
</svg>
