<?xml version="1.0" encoding="utf-8"?>
<!DOCTYPE svg PUBLIC "-//W3C//DTD SVG 1.1 Tiny//EN" "http://www.w3.org/Graphics/SVG/1.1/DTD/svg11-tiny.dtd">
<svg version="1.1" baseProfile="tiny" id="Layer_1" xmlns="http://www.w3.org/2000/svg" xmlns:xlink="http://www.w3.org/1999/xlink" x="0px" y="0px" width="16px" height="16px" viewBox="0 0 500 500" xml:space="preserve">
	<path d="M357.143 294.643q0 11.161-7.813 18.973t-18.973 7.813q-14.23 0-22.321-11.998l-63.337-95.145h-12.556v36.831l68.917 114.676q2.511 4.185 2.511 9.208 0 7.254-5.301 12.556t-12.556 5.301h-53.571v75.893q0 12.835-9.208 22.042t-22.042 9.208h-44.643q-12.835 0-22.042-9.208t-9.208-22.042v-75.893h-53.571q-7.254 0-12.556-5.301t-5.301-12.556q0-5.022 2.511-9.208l68.917-114.676v-36.831h-12.556l-63.337 95.145q-8.091 11.998-22.321 11.998-11.161 0-18.973-7.813t-7.813-18.973q0-8.091 4.464-14.788l71.429-107.143q20.368-29.855 49.107-29.855h107.143q28.739 0 49.107 29.855l71.429 107.143q4.464 6.696 4.464 14.788zM241.071 71.429q0 25.949-18.276 44.224t-44.224 18.276-44.224-18.276-18.276-44.224 18.276-44.224 44.224-18.276 44.224 18.276 18.276 44.224z" fill="#ffffff" />
</svg>
