<?xml version="1.0" encoding="utf-8"?>
<!DOCTYPE svg PUBLIC "-//W3C//DTD SVG 1.1 Tiny//EN" "http://www.w3.org/Graphics/SVG/1.1/DTD/svg11-tiny.dtd">
<svg version="1.1" baseProfile="tiny" id="Layer_1" xmlns="http://www.w3.org/2000/svg" xmlns:xlink="http://www.w3.org/1999/xlink" x="0px" y="0px" width="16px" height="16px" viewBox="0 0 500 500" xml:space="preserve">
	<path d="M535.714 267.857q-0.279 8.929-80.357 26.786l-98.214 8.929-62.5 17.857h-17.857l-81.752 98.214h19.252q7.254 0 12.556 1.255t5.301 3.208-5.301 3.208-12.556 1.255h-89.286v-8.929h17.857v-116.071h-44.643l-53.571 62.5h-26.786l-8.929-8.929v-53.571h8.929v-8.929h35.714v-2.232l-53.571-6.696v-35.714l53.571-6.696v-2.232h-35.714v-8.929h-8.929v-53.571l8.929-8.929h26.786l53.571 62.5h44.643v-116.071h-17.857v-8.929h89.286q7.254 0 12.556 1.255t5.301 3.208-5.301 3.208-12.556 1.255h-19.252l81.752 98.214h17.857l62.5 17.857 98.214 8.929q72.824 16.183 80.078 25.949z" fill="#ffffff" />
</svg>
