<?xml version="1.0" encoding="utf-8"?>
<!DOCTYPE svg PUBLIC "-//W3C//DTD SVG 1.1 Tiny//EN" "http://www.w3.org/Graphics/SVG/1.1/DTD/svg11-tiny.dtd">
<svg version="1.1" baseProfile="tiny" id="Layer_1" xmlns="http://www.w3.org/2000/svg" xmlns:xlink="http://www.w3.org/1999/xlink" x="0px" y="0px" width="16px" height="16px" viewBox="0 0 500 500" xml:space="preserve">
	<path d="M473.214 107.143q11.161 0 18.973 7.813t7.813 18.973v339.286q0 11.161-7.813 18.973t-18.973 7.813h-267.857q-11.161 0-18.973-7.813t-7.813-18.973v-80.357h-151.786q-11.161 0-18.973-7.813t-7.813-18.973v-187.5q0-11.161 5.581-24.554t13.393-21.206l113.839-113.839q7.813-7.813 21.206-13.393t24.554-5.581h116.071q11.161 0 18.973 7.813t7.813 18.973v91.518q18.973-11.161 35.714-11.161h116.071zM321.429 166.574l-83.426 83.426h83.426v-83.426zM142.857 59.431l-83.426 83.426h83.426v-83.426zM197.544 239.956l88.169-88.169v-116.071h-107.143v116.071q0 11.161-7.813 18.973t-18.973 7.813h-116.071v178.571h142.857v-71.429q0-11.161 5.581-24.554t13.393-21.206zM464.286 464.286v-321.429h-107.143v116.071q0 11.161-7.813 18.973t-18.973 7.813h-116.071v178.571h250z" fill="#ffffff" />
</svg>
