<?xml version="1.0" encoding="utf-8"?>
<!DOCTYPE svg PUBLIC "-//W3C//DTD SVG 1.1 Tiny//EN" "http://www.w3.org/Graphics/SVG/1.1/DTD/svg11-tiny.dtd">
<svg version="1.1" baseProfile="tiny" id="Layer_1" xmlns="http://www.w3.org/2000/svg" xmlns:xlink="http://www.w3.org/1999/xlink" x="0px" y="0px" width="16px" height="16px" viewBox="0 0 500 500" xml:space="preserve">
	<path d="M285.714 330.357v17.857q0 3.906-2.511 6.417t-6.417 2.511h-196.429q-3.906 0-6.417-2.511t-2.511-6.417v-17.857q0-3.906 2.511-6.417t6.417-2.511h196.429q3.906 0 6.417 2.511t2.511 6.417zM285.714 258.929v17.857q0 3.906-2.511 6.417t-6.417 2.511h-196.429q-3.906 0-6.417-2.511t-2.511-6.417v-17.857q0-3.906 2.511-6.417t6.417-2.511h196.429q3.906 0 6.417 2.511t2.511 6.417zM35.714 428.571h285.714v-214.286h-116.071q-11.161 0-18.973-7.813t-7.813-18.973v-116.071h-142.857v357.143zM214.286 178.571h104.911q-2.79-8.091-6.138-11.44l-87.333-87.333q-3.348-3.348-11.44-6.138v104.911zM357.143 187.5v250q0 11.161-7.813 18.973t-18.973 7.813h-303.571q-11.161 0-18.973-7.813t-7.813-18.973v-375q0-11.161 7.813-18.973t18.973-7.813h178.571q11.161 0 24.554 5.581t21.206 13.393l87.054 87.054q7.813 7.813 13.393 21.206t5.581 24.554z" fill="#ffffff" />
</svg>
