<?xml version="1.0" encoding="utf-8"?>
<!DOCTYPE svg PUBLIC "-//W3C//DTD SVG 1.1 Tiny//EN" "http://www.w3.org/Graphics/SVG/1.1/DTD/svg11-tiny.dtd">
<svg version="1.1" baseProfile="tiny" id="Layer_1" xmlns="http://www.w3.org/2000/svg" xmlns:xlink="http://www.w3.org/1999/xlink" x="0px" y="0px" width="16px" height="16px" viewBox="0 0 500 500" xml:space="preserve">
	<path d="M285.714 383.929v-17.857q0-3.906-2.511-6.417t-6.417-2.511h-196.429q-3.906 0-6.417 2.511t-2.511 6.417v17.857q0 3.906 2.511 6.417t6.417 2.511h196.429q3.906 0 6.417-2.511t2.511-6.417zM285.714 312.5v-17.857q0-3.906-2.511-6.417t-6.417-2.511h-196.429q-3.906 0-6.417 2.511t-2.511 6.417v17.857q0 3.906 2.511 6.417t6.417 2.511h196.429q3.906 0 6.417-2.511t2.511-6.417zM357.143 214.286v223.214q0 11.161-7.813 18.973t-18.973 7.813h-303.571q-11.161 0-18.973-7.813t-7.813-18.973v-375q0-11.161 7.813-18.973t18.973-7.813h151.786v151.786q0 11.161 7.813 18.973t18.973 7.813h151.786zM356.306 178.571h-142.020v-142.020q22.879 4.185 36.831 18.136l87.054 87.054q13.951 13.951 18.136 36.831z" fill="#ffffff" />
</svg>
