<?xml version="1.0" encoding="utf-8"?>
<!-- Generated by IcoMoon.io -->
<!DOCTYPE svg PUBLIC "-//W3C//DTD SVG 1.1//EN" "http://www.w3.org/Graphics/SVG/1.1/DTD/svg11.dtd">
<svg version="1.1" xmlns="http://www.w3.org/2000/svg" xmlns:xlink="http://www.w3.org/1999/xlink" width="357" height="500" viewBox="0 0 357 500">
	<path d="M35.714 428.571h285.714v-214.286h-116.071q-11.161 0-18.973-7.813t-7.813-18.973v-116.071h-142.857v357.143zM214.286 178.571h104.911q-2.79-8.091-6.138-11.44l-87.333-87.333q-3.348-3.348-11.44-6.138v104.911zM357.143 187.5v250q0 11.161-7.813 18.973t-18.973 7.813h-303.571q-11.161 0-18.973-7.813t-7.813-18.973v-375q0-11.161 7.813-18.973t18.973-7.813h178.571q11.161 0 24.554 5.581t21.206 13.393l87.054 87.054q7.813 7.813 13.393 21.206t5.581 24.554z" fill="#000000" />
</svg>
