<?xml version="1.0" encoding="utf-8"?>
<!DOCTYPE svg PUBLIC "-//W3C//DTD SVG 1.1 Tiny//EN" "http://www.w3.org/Graphics/SVG/1.1/DTD/svg11-tiny.dtd">
<svg version="1.1" baseProfile="tiny" id="Layer_1" xmlns="http://www.w3.org/2000/svg" xmlns:xlink="http://www.w3.org/1999/xlink" x="0px" y="0px" width="16px" height="16px" viewBox="0 0 500 500" xml:space="preserve">
	<path d="M107.143 446.429v-35.714q0-7.254-5.301-12.556t-12.556-5.301h-35.714q-7.254 0-12.556 5.301t-5.301 12.556v35.714q0 7.254 5.301 12.556t12.556 5.301h35.714q7.254 0 12.556-5.301t5.301-12.556zM107.143 339.286v-35.714q0-7.254-5.301-12.556t-12.556-5.301h-35.714q-7.254 0-12.556 5.301t-5.301 12.556v35.714q0 7.254 5.301 12.556t12.556 5.301h35.714q7.254 0 12.556-5.301t5.301-12.556zM107.143 232.143v-35.714q0-7.254-5.301-12.556t-12.556-5.301h-35.714q-7.254 0-12.556 5.301t-5.301 12.556v35.714q0 7.254 5.301 12.556t12.556 5.301h35.714q7.254 0 12.556-5.301t5.301-12.556zM392.857 446.429v-142.857q0-7.254-5.301-12.556t-12.556-5.301h-214.286q-7.254 0-12.556 5.301t-5.301 12.556v142.857q0 7.254 5.301 12.556t12.556 5.301h214.286q7.254 0 12.556-5.301t5.301-12.556zM107.143 125v-35.714q0-7.254-5.301-12.556t-12.556-5.301h-35.714q-7.254 0-12.556 5.301t-5.301 12.556v35.714q0 7.254 5.301 12.556t12.556 5.301h35.714q7.254 0 12.556-5.301t5.301-12.556zM500 446.429v-35.714q0-7.254-5.301-12.556t-12.556-5.301h-35.714q-7.254 0-12.556 5.301t-5.301 12.556v35.714q0 7.254 5.301 12.556t12.556 5.301h35.714q7.254 0 12.556-5.301t5.301-12.556zM392.857 232.143v-142.857q0-7.254-5.301-12.556t-12.556-5.301h-214.286q-7.254 0-12.556 5.301t-5.301 12.556v142.857q0 7.254 5.301 12.556t12.556 5.301h214.286q7.254 0 12.556-5.301t5.301-12.556zM500 339.286v-35.714q0-7.254-5.301-12.556t-12.556-5.301h-35.714q-7.254 0-12.556 5.301t-5.301 12.556v35.714q0 7.254 5.301 12.556t12.556 5.301h35.714q7.254 0 12.556-5.301t5.301-12.556zM500 232.143v-35.714q0-7.254-5.301-12.556t-12.556-5.301h-35.714q-7.254 0-12.556 5.301t-5.301 12.556v35.714q0 7.254 5.301 12.556t12.556 5.301h35.714q7.254 0 12.556-5.301t5.301-12.556zM500 125v-35.714q0-7.254-5.301-12.556t-12.556-5.301h-35.714q-7.254 0-12.556 5.301t-5.301 12.556v35.714q0 7.254 5.301 12.556t12.556 5.301h35.714q7.254 0 12.556-5.301t5.301-12.556zM535.714 80.357v375q0 18.415-13.114 31.529t-31.529 13.114h-446.429q-18.415 0-31.529-13.114t-13.114-31.529v-375q0-18.415 13.114-31.529t31.529-13.114h446.429q18.415 0 31.529 13.114t13.114 31.529z" fill="#ffffff" />
</svg>
