<?xml version="1.0" encoding="utf-8"?>
<!DOCTYPE svg PUBLIC "-//W3C//DTD SVG 1.1 Tiny//EN" "http://www.w3.org/Graphics/SVG/1.1/DTD/svg11-tiny.dtd">
<svg version="1.1" baseProfile="tiny" id="Layer_1" xmlns="http://www.w3.org/2000/svg" xmlns:xlink="http://www.w3.org/1999/xlink" x="0px" y="0px" width="16px" height="16px" viewBox="0 0 500 500" xml:space="preserve">
	<path d="M142.857 53.571q0-7.254-5.301-12.556t-12.556-5.301-12.556 5.301-5.301 12.556 5.301 12.556 12.556 5.301 12.556-5.301 5.301-12.556zM392.857 44.643v89.286q0 4.464-3.348 6.976-2.232 1.953-5.581 1.953-1.116 0-1.953-0.279l-125-26.786q-3.069-0.558-5.022-3.069t-1.953-5.581h-71.429v28.46q30.971 6.417 51.2 30.971t20.229 56.641v223.214q0 7.254-5.301 12.556t-12.556 5.301h-142.857q-7.254 0-12.556-5.301t-5.301-12.556v-223.214q0-29.576 17.438-53.153t45.062-31.948v-30.971h-8.929q-16.462 0-32.087 6.557t-25.53 14.788-18.415 18.555-11.3 14.927-3.906 6.836q-4.743 9.766-15.904 9.766-4.464 0-8.091-1.953-6.417-3.348-8.789-10.324t0.977-13.672q1.395-2.79 4.046-7.254t10.463-14.927 16.88-19.531 23.716-18.694 30.273-14.648q-6.976-11.719-6.976-23.996 0-18.415 13.114-31.529t31.529-13.114 31.529 13.114 13.114 31.529q0 9.208-3.906 17.857h84.263q0-3.069 1.953-5.581t5.022-3.069l125-26.786q0.837-0.279 1.953-0.279 3.348 0 5.581 1.953 3.348 2.511 3.348 6.976z" fill="#ffffff" />
</svg>
