<?xml version="1.0" encoding="utf-8"?>
<!DOCTYPE svg PUBLIC "-//W3C//DTD SVG 1.1 Tiny//EN" "http://www.w3.org/Graphics/SVG/1.1/DTD/svg11-tiny.dtd">
<svg version="1.1" baseProfile="tiny" id="Layer_1" xmlns="http://www.w3.org/2000/svg" xmlns:xlink="http://www.w3.org/1999/xlink" x="0px" y="0px" width="16px" height="16px" viewBox="0 0 500 500" xml:space="preserve">
	<path d="M392.857 473.214v17.857q0 3.627-2.651 6.278t-6.278 2.651h-375q-3.627 0-6.278-2.651t-2.651-6.278v-17.857q0-3.627 2.651-6.278t6.278-2.651h375q3.627 0 6.278 2.651t2.651 6.278zM321.429 178.571q0 21.763-6.836 40.179t-17.857 31.39-24.414 24.554-26.786 21.624-24.414 20.089-17.857 22.74-6.836 26.925q0 26.786 18.694 62.5l-1.116-0.279 0.279 0.279q-25.112-11.44-44.643-23.159t-38.644-27.902-31.668-34.18-20.229-41.992-7.673-51.339q0-21.763 6.836-40.179t17.857-31.39 24.414-24.554 26.786-21.624 24.414-20.089 17.857-22.74 6.836-26.925q0-26.228-18.415-62.5l0.837 0.279-0.279-0.279q25.112 11.44 44.643 23.159t38.644 27.902 31.668 34.18 20.229 41.992 7.673 51.339z" fill="#ffffff" />
</svg>
