<?xml version="1.0" encoding="utf-8"?>
<!DOCTYPE svg PUBLIC "-//W3C//DTD SVG 1.1 Tiny//EN" "http://www.w3.org/Graphics/SVG/1.1/DTD/svg11-tiny.dtd">
<svg version="1.1" baseProfile="tiny" id="Layer_1" xmlns="http://www.w3.org/2000/svg" xmlns:xlink="http://www.w3.org/1999/xlink" x="0px" y="0px" width="16px" height="16px" viewBox="0 0 500 500" xml:space="preserve">
	<path d="M232.143 279.018v-53.571q-50.502 4.464-107.143 32.645v51.618q57.199-26.786 107.143-30.692zM232.143 162.388v-54.966q-47.991 2.232-107.143 35.156v52.734q59.989-30.971 107.143-32.924zM464.286 291.574v-51.339q-65.569 32.366-107.143 19.81v-62.5q-5.581-1.674-10.882-4.185-1.395-0.837-9.208-4.743t-9.626-4.743-8.789-4.185-9.626-4.325-9.068-3.627-10.044-3.488-9.766-2.372-11.021-2.093-11.021-1.116-12.277-0.558q-6.417 0-13.672 0.837v61.942h5.301q28.46 0 53.711 8.091t55.106 22.879q5.301 2.511 10.882 4.185v52.456q11.719 4.743 25.391 4.743 33.482 0 81.752-25.669zM464.286 172.433v-52.734q-47.154 25.391-85.379 25.391-12.556 0-21.763-2.232v54.688q41.294 11.719 107.143-25.112zM89.286 71.429q0 9.766-4.883 17.857t-12.974 12.835v353.237q0 3.906-2.511 6.417t-6.417 2.511h-17.857q-3.906 0-6.417-2.511t-2.511-6.417v-353.237q-8.091-4.743-12.974-12.835t-4.883-17.857q0-14.788 10.463-25.251t25.251-10.463 25.251 10.463 10.463 25.251zM500 89.286v212.891q0 10.882-9.766 15.904-2.79 1.395-4.743 2.511-60.826 32.366-102.958 32.366-24.554 0-44.085-9.766l-7.813-3.906q-17.857-9.208-27.623-13.393t-25.391-8.091-31.808-3.906q-28.46 0-65.708 12.277t-63.755 28.46q-4.185 2.511-9.208 2.511-4.464 0-8.929-2.232-8.929-5.301-8.929-15.625v-207.031q0-9.766 8.649-15.346 9.766-5.859 21.903-11.858t31.808-14.509 42.55-13.812 43.248-5.301q31.25 0 58.315 8.649t58.315 23.996q10.603 5.301 24.833 5.301 34.040 0 86.496-31.25 6.138-3.348 8.649-4.743 8.649-4.464 17.299 0.558 8.649 5.581 8.649 15.346z" fill="#ffffff" />
</svg>
