<?xml version="1.0" encoding="utf-8"?>
<!DOCTYPE svg PUBLIC "-//W3C//DTD SVG 1.1 Tiny//EN" "http://www.w3.org/Graphics/SVG/1.1/DTD/svg11-tiny.dtd">
<svg version="1.1" baseProfile="tiny" id="Layer_1" xmlns="http://www.w3.org/2000/svg" xmlns:xlink="http://www.w3.org/1999/xlink" x="0px" y="0px" width="16px" height="16px" viewBox="0 0 500 500" xml:space="preserve">
	<path d="M464.286 291.574v-171.875q-47.154 25.391-85.379 25.391-22.879 0-40.458-8.929-27.902-13.672-51.339-21.345t-49.665-7.673q-48.27 0-112.444 35.435v167.132q68.359-31.529 120.815-31.529 15.346 0 28.878 2.093t27.344 7.254 21.484 8.649 23.019 11.021l7.813 3.906q12.277 6.138 28.181 6.138 33.482 0 81.752-25.669zM89.286 71.429q0 9.766-4.883 17.857t-12.974 12.835v353.237q0 3.906-2.511 6.417t-6.417 2.511h-17.857q-3.906 0-6.417-2.511t-2.511-6.417v-353.237q-8.091-4.743-12.974-12.835t-4.883-17.857q0-14.788 10.463-25.251t25.251-10.463 25.251 10.463 10.463 25.251zM500 89.286v212.891q0 10.882-9.766 15.904-2.79 1.395-4.743 2.511-60.826 32.366-102.958 32.366-24.554 0-44.085-9.766l-7.813-3.906q-17.857-9.208-27.623-13.393t-25.391-8.091-31.808-3.906q-28.46 0-65.708 12.277t-63.755 28.46q-4.185 2.511-9.208 2.511-4.464 0-8.929-2.232-8.929-5.301-8.929-15.625v-207.031q0-9.766 8.649-15.346 9.766-5.859 21.903-11.858t31.808-14.509 42.55-13.812 43.248-5.301q31.25 0 58.315 8.649t58.315 23.996q10.603 5.301 24.833 5.301 34.040 0 86.496-31.25 6.138-3.348 8.649-4.743 8.649-4.464 17.299 0.558 8.649 5.581 8.649 15.346z" fill="#ffffff" />
</svg>
