<?xml version="1.0" encoding="utf-8"?>
<!DOCTYPE svg PUBLIC "-//W3C//DTD SVG 1.1 Tiny//EN" "http://www.w3.org/Graphics/SVG/1.1/DTD/svg11-tiny.dtd">
<svg version="1.1" baseProfile="tiny" id="Layer_1" xmlns="http://www.w3.org/2000/svg" xmlns:xlink="http://www.w3.org/1999/xlink" x="0px" y="0px" width="16px" height="16px" viewBox="0 0 500 500" xml:space="preserve">
	<path d="M89.286 71.429q0 20.089-17.857 30.692v353.237q0 3.627-2.651 6.278t-6.278 2.651h-17.857q-3.627 0-6.278-2.651t-2.651-6.278v-353.237q-17.857-10.603-17.857-30.692 0-14.788 10.463-25.251t25.251-10.463 25.251 10.463 10.463 25.251zM500 89.286v212.891q0 6.976-3.488 10.742t-11.021 7.673q-59.989 32.366-102.958 32.366-17.020 0-34.458-6.138t-30.273-13.393-32.227-13.393-39.76-6.138q-53.571 0-129.464 40.737-4.743 2.511-9.208 2.511-7.254 0-12.556-5.301t-5.301-12.556v-207.031q0-8.929 8.649-15.346 5.859-3.906 22.042-11.998 65.848-33.482 117.466-33.482 29.855 0 55.804 8.091t61.105 24.554q10.603 5.301 24.554 5.301 15.067 0 32.785-5.859t30.692-13.114 24.554-13.114 15.207-5.859q7.254 0 12.556 5.301t5.301 12.556z" fill="#ffffff" />
</svg>
