<?xml version="1.0" encoding="utf-8"?>
<!-- Generated by IcoMoon.io -->
<!DOCTYPE svg PUBLIC "-//W3C//DTD SVG 1.1//EN" "http://www.w3.org/Graphics/SVG/1.1/DTD/svg11.dtd">
<svg version="1.1" xmlns="http://www.w3.org/2000/svg" xmlns:xlink="http://www.w3.org/1999/xlink" width="500" height="500" viewBox="0 0 500 500">
	<path d="M348.214 35.714q33.203 0 56.78 23.577t23.577 56.78v267.857q0 33.203-23.577 56.78t-56.78 23.577h-267.857q-33.203 0-56.78-23.577t-23.577-56.78v-267.857q0-33.203 23.577-56.78t56.78-23.577h267.857zM194.754 250q0-24.554-17.299-41.853t-41.853-17.299-41.853 17.299-17.299 41.853 17.299 41.853 41.853 17.299 41.853-17.299 17.299-41.853zM352.121 250q0-24.554-17.299-41.853t-41.853-17.299-41.853 17.299-17.299 41.853 17.299 41.853 41.853 17.299 41.853-17.299 17.299-41.853z" fill="#000000" />
</svg>
