<?xml version="1.0" encoding="utf-8"?>
<!DOCTYPE svg PUBLIC "-//W3C//DTD SVG 1.1 Tiny//EN" "http://www.w3.org/Graphics/SVG/1.1/DTD/svg11-tiny.dtd">
<svg version="1.1" baseProfile="tiny" id="Layer_1" xmlns="http://www.w3.org/2000/svg" xmlns:xlink="http://www.w3.org/1999/xlink" x="0px" y="0px" width="16px" height="16px" viewBox="0 0 500 500" xml:space="preserve">
	<path d="M428.571 366.071v-196.429q0-11.161-7.813-18.973t-18.973-7.813h-196.429q-11.161 0-18.973-7.813t-7.813-18.973v-17.857q0-11.161-7.813-18.973t-18.973-7.813h-89.286q-11.161 0-18.973 7.813t-7.813 18.973v267.857q0 11.161 7.813 18.973t18.973 7.813h339.286q11.161 0 18.973-7.813t7.813-18.973zM464.286 169.643v196.429q0 25.669-18.415 44.085t-44.085 18.415h-339.286q-25.669 0-44.085-18.415t-18.415-44.085v-267.857q0-25.669 18.415-44.085t44.085-18.415h89.286q25.669 0 44.085 18.415t18.415 44.085v8.929h187.5q25.669 0 44.085 18.415t18.415 44.085z" fill="#ffffff" />
</svg>
