<?xml version="1.0" encoding="utf-8"?>
<!DOCTYPE svg PUBLIC "-//W3C//DTD SVG 1.1 Tiny//EN" "http://www.w3.org/Graphics/SVG/1.1/DTD/svg11-tiny.dtd">
<svg version="1.1" baseProfile="tiny" id="Layer_1" xmlns="http://www.w3.org/2000/svg" xmlns:xlink="http://www.w3.org/1999/xlink" x="0px" y="0px" width="16px" height="16px" viewBox="0 0 500 500" xml:space="preserve">
	<path d="M496.931 259.766q0-9.766-14.788-9.766h-303.571q-11.161 0-23.856 5.999t-19.95 14.648l-82.031 101.284q-5.022 6.696-5.022 11.161 0 9.766 14.788 9.766h303.571q11.161 0 23.996-6.138t19.81-14.788l82.031-101.284q5.022-6.138 5.022-10.882zM178.571 214.286h214.286v-44.643q0-11.161-7.813-18.973t-18.973-7.813h-160.714q-11.161 0-18.973-7.813t-7.813-18.973v-17.857q0-11.161-7.813-18.973t-18.973-7.813h-89.286q-11.161 0-18.973 7.813t-7.813 18.973v238.002l71.429-87.891q12.277-14.788 32.366-24.414t39.063-9.626zM532.645 259.766q0 17.299-12.835 33.482l-82.31 101.284q-11.998 14.788-32.366 24.414t-39.063 9.626h-303.571q-25.669 0-44.085-18.415t-18.415-44.085v-267.857q0-25.669 18.415-44.085t44.085-18.415h89.286q25.669 0 44.085 18.415t18.415 44.085v8.929h151.786q25.669 0 44.085 18.415t18.415 44.085v44.643h53.571q15.067 0 27.623 6.836t18.694 19.671q4.185 8.929 4.185 18.973z" fill="#ffffff" />
</svg>
