<?xml version="1.0" encoding="utf-8"?>
<!-- Generated by IcoMoon.io -->
<!DOCTYPE svg PUBLIC "-//W3C//DTD SVG 1.1//EN" "http://www.w3.org/Graphics/SVG/1.1/DTD/svg11.dtd">
<svg version="1.1" xmlns="http://www.w3.org/2000/svg" xmlns:xlink="http://www.w3.org/1999/xlink" width="536" height="500" viewBox="0 0 536 500">
	<path d="M524.274 265.625q0 8.649-8.649 18.415l-93.75 110.491q-11.998 14.23-33.622 24.135t-40.039 9.905h-303.571q-9.487 0-16.88-3.627t-7.394-11.998q0-8.649 8.649-18.415l93.75-110.491q11.998-14.23 33.622-24.135t40.039-9.905h303.571q9.487 0 16.88 3.627t7.394 11.998zM428.571 169.643v44.643h-232.143q-26.228 0-54.966 13.253t-45.759 33.343l-95.424 112.165q0-1.116-0.14-3.488t-0.14-3.488v-267.857q0-25.669 18.415-44.085t44.085-18.415h89.286q25.669 0 44.085 18.415t18.415 44.085v8.929h151.786q25.669 0 44.085 18.415t18.415 44.085z" fill="#000000" />
</svg>
