<?xml version="1.0" encoding="utf-8"?>
<!DOCTYPE svg PUBLIC "-//W3C//DTD SVG 1.1 Tiny//EN" "http://www.w3.org/Graphics/SVG/1.1/DTD/svg11-tiny.dtd">
<svg version="1.1" baseProfile="tiny" id="Layer_1" xmlns="http://www.w3.org/2000/svg" xmlns:xlink="http://www.w3.org/1999/xlink" x="0px" y="0px" width="16px" height="16px" viewBox="0 0 500 500" xml:space="preserve">
	<path d="M202.288 155.971l-47.433 125.558q20.368 0.279 42.829 0.558t33.203 0.418 14.648 0.14l8.091-0.558q-8.929-26.507-25.669-67.243-14.788-36.831-25.669-58.873zM5.859 464.286h-5.859l0.558-22.042q6.138-1.953 22.321-5.022 24.833-4.464 30.692-8.649 5.581-4.464 13.393-18.973l66.127-171.875 78.125-202.009h35.714l3.069 5.859 57.199 133.929q28.739 67.522 34.598 82.868 10.882 28.46 26.786 65.569 7.254 16.183 18.136 45.759 6.696 18.694 18.136 41.574 6.138 13.672 9.766 15.904 6.138 5.301 19.252 6.417 13.114 1.674 28.739 7.534 1.674 10.882 1.674 15.904 0 3.906-0.279 7.254-22.321 0-53.571-2.232-25.949-2.232-52.734-2.232-22.042 0-37.667 0.558l-55.804 3.069-16.183 0.558q0-12.556 1.116-21.763l36.551-7.813q15.625-3.627 18.973-6.417 3.348-3.348 3.348-7.534t-1.674-8.929l-13.114-31.808-25.669-63.616-125.558-0.558q-8.091 18.136-29.018 76.451-6.417 17.857-6.417 23.438 0 8.649 4.743 11.998 7.254 5.859 28.739 8.929 0.837 0 3.767 0.558t8.371 1.395 11.3 1.674q0.279 7.813 0.279 16.183 0 4.743-0.558 7.534-18.415 0-97.377-5.581l-13.393 2.232q-22.601 3.906-46.596 3.906z" fill="#ffffff" />
</svg>
