<?xml version="1.0" encoding="utf-8"?>
<!DOCTYPE svg PUBLIC "-//W3C//DTD SVG 1.1 Tiny//EN" "http://www.w3.org/Graphics/SVG/1.1/DTD/svg11-tiny.dtd">
<svg version="1.1" baseProfile="tiny" id="Layer_1" xmlns="http://www.w3.org/2000/svg" xmlns:xlink="http://www.w3.org/1999/xlink" x="0px" y="0px" width="16px" height="16px" viewBox="0 0 500 500" xml:space="preserve">
	<path d="M413.784 285.714l-163.784 163.784q-14.509 14.788-35.575 14.788t-35.854-14.788l-163.784-163.784q-14.788-14.788-14.788-35.714t14.788-35.714l163.784-163.784q14.788-14.788 35.714-14.788t35.714 14.788l73.94 73.94-111.049 111.328-52.456-52.456q-11.719-11.719-27.623-11.719-16.462 0-27.902 11.44l-33.482 33.761q-11.719 11.161-11.719 27.623 0 16.183 11.719 27.902l113.281 113.839q8.371 7.813 18.694 10.324l1.674 1.116h7.813q16.741 0 27.623-11.44l172.712-172.712 0.558 0.837q14.788 14.788 14.788 35.714t-14.788 35.714zM392.299 111.049l33.482 33.482q3.906 4.185 3.906 10.044t-3.906 10.044l-203.683 203.683q-4.743 4.185-10.324 4.185v0q-1.116 0-1.674-0.279-5.022-0.558-8.371-3.906l-113.56-113.839q-3.906-4.185-3.906-10.044t3.906-9.766l33.761-33.482q3.627-4.185 9.766-4.185t10.044 4.185l70.313 70.313 160.156-160.435q4.185-4.185 10.044-4.185t10.044 4.185z" fill="#ffffff" />
</svg>
