<?xml version="1.0" encoding="utf-8"?>
<!DOCTYPE svg PUBLIC "-//W3C//DTD SVG 1.1 Tiny//EN" "http://www.w3.org/Graphics/SVG/1.1/DTD/svg11-tiny.dtd">
<svg version="1.1" baseProfile="tiny" id="Layer_1" xmlns="http://www.w3.org/2000/svg" xmlns:xlink="http://www.w3.org/1999/xlink" x="0px" y="0px" width="16px" height="16px" viewBox="0 0 500 500" xml:space="preserve">
	<path d="M316.406 342.913q2.232 6.976-1.116 13.532t-10.324 8.789-13.672-1.116-8.929-10.603q-6.976-22.321-25.809-36.133t-42.271-13.812-42.271 13.812-25.809 36.133q-2.232 7.254-8.789 10.603t-13.532 1.116q-7.254-2.232-10.603-8.789t-1.116-13.532q10.324-33.761 38.504-54.409t63.616-20.647 63.616 20.647 38.504 54.409zM178.571 178.571q0 14.788-10.463 25.251t-25.251 10.463-25.251-10.463-10.463-25.251 10.463-25.251 25.251-10.463 25.251 10.463 10.463 25.251zM321.429 178.571q0 14.788-10.463 25.251t-25.251 10.463-25.251-10.463-10.463-25.251 10.463-25.251 25.251-10.463 25.251 10.463 10.463 25.251zM392.857 250q0-36.272-14.23-69.336t-38.086-56.919-56.919-38.086-69.336-14.23-69.336 14.23-56.919 38.086-38.086 56.919-14.23 69.336 14.23 69.336 38.086 56.919 56.919 38.086 69.336 14.23 69.336-14.23 56.919-38.086 38.086-56.919 14.23-69.336zM428.571 250q0 58.315-28.739 107.562t-77.985 77.985-107.562 28.739-107.562-28.739-77.985-77.985-28.739-107.562 28.739-107.562 77.985-77.985 107.562-28.739 107.562 28.739 77.985 77.985 28.739 107.562z" fill="#ffffff" />
</svg>
