<?xml version="1.0" encoding="utf-8"?>
<!DOCTYPE svg PUBLIC "-//W3C//DTD SVG 1.1 Tiny//EN" "http://www.w3.org/Graphics/SVG/1.1/DTD/svg11-tiny.dtd">
<svg version="1.1" baseProfile="tiny" id="Layer_1" xmlns="http://www.w3.org/2000/svg" xmlns:xlink="http://www.w3.org/1999/xlink" x="0px" y="0px" width="16px" height="16px" viewBox="0 0 500 500" xml:space="preserve">
	<path d="M232.143 303.571v-35.714q0-3.906-2.511-6.417t-6.417-2.511h-53.571v-53.571q0-3.906-2.511-6.417t-6.417-2.511h-35.714q-3.906 0-6.417 2.511t-2.511 6.417v53.571h-53.571q-3.906 0-6.417 2.511t-2.511 6.417v35.714q0 3.906 2.511 6.417t6.417 2.511h53.571v53.571q0 3.906 2.511 6.417t6.417 2.511h35.714q3.906 0 6.417-2.511t2.511-6.417v-53.571h53.571q3.906 0 6.417-2.511t2.511-6.417zM392.857 321.429q0-14.788-10.463-25.251t-25.251-10.463-25.251 10.463-10.463 25.251 10.463 25.251 25.251 10.463 25.251-10.463 10.463-25.251zM464.286 250q0-14.788-10.463-25.251t-25.251-10.463-25.251 10.463-10.463 25.251 10.463 25.251 25.251 10.463 25.251-10.463 10.463-25.251zM535.714 285.714q0 59.152-41.853 101.004t-101.004 41.853q-53.571 0-94.308-35.714h-61.384q-40.737 35.714-94.308 35.714-59.152 0-101.004-41.853t-41.853-101.004 41.853-101.004 101.004-41.853h250q59.152 0 101.004 41.853t41.853 101.004z" fill="#ffffff" />
</svg>
