<?xml version="1.0" encoding="utf-8"?>
<!DOCTYPE svg PUBLIC "-//W3C//DTD SVG 1.1 Tiny//EN" "http://www.w3.org/Graphics/SVG/1.1/DTD/svg11-tiny.dtd">
<svg version="1.1" baseProfile="tiny" id="Layer_1" xmlns="http://www.w3.org/2000/svg" xmlns:xlink="http://www.w3.org/1999/xlink" x="0px" y="0px" width="16px" height="16px" viewBox="0 0 500 500" xml:space="preserve">
	<path d="M494.141 428.571q0 14.788-10.324 25.112l-29.855 30.134q-10.882 10.324-25.391 10.324-14.788 0-25.112-10.324l-101.284-101.563q-10.603-10.044-10.603-25.112 0-14.788 11.998-26.786l-71.429-71.429-35.156 35.156q-3.906 3.906-9.487 3.906t-9.487-3.906q0.558 0.558 3.488 3.348t3.488 3.627 2.79 3.208 2.79 3.767 1.674 3.767 1.535 4.604 0.418 5.022q0 10.603-7.813 18.973-0.837 0.837-4.604 5.022t-5.301 5.72-5.162 4.604-6.138 4.325-6.138 2.511-7.254 1.255q-11.161 0-18.973-7.813l-113.839-113.839q-7.813-7.813-7.813-18.973 0-3.627 1.255-7.254t2.511-6.138 4.325-6.138 4.604-5.162 5.72-5.301 5.022-4.604q8.371-7.813 18.973-7.813 2.79 0 5.022 0.418t4.604 1.535 3.767 1.674 3.767 2.79 3.208 2.79 3.627 3.488 3.348 3.488q-3.906-3.906-3.906-9.487t3.906-9.487l97.098-97.098q3.906-3.906 9.487-3.906t9.487 3.906q-0.558-0.558-3.488-3.348t-3.488-3.627-2.79-3.208-2.79-3.767-1.674-3.767-1.535-4.604-0.418-5.022q0-10.603 7.813-18.973 0.837-0.837 4.604-5.022t5.301-5.72 5.162-4.604 6.138-4.325 6.138-2.511 7.254-1.255q11.161 0 18.973 7.813l113.839 113.839q7.813 7.813 7.813 18.973 0 3.627-1.255 7.254t-2.511 6.138-4.325 6.138-4.604 5.162-5.72 5.301-5.022 4.604q-8.371 7.813-18.973 7.813-2.79 0-5.022-0.418t-4.604-1.535-3.767-1.674-3.767-2.79-3.208-2.79-3.627-3.488-3.348-3.488q3.906 3.906 3.906 9.487t-3.906 9.487l-35.156 35.156 71.429 71.429q11.998-11.998 26.786-11.998 14.509 0 25.391 10.324l101.284 101.284q10.324 10.882 10.324 25.391z" fill="#ffffff" />
</svg>
