<?xml version="1.0" encoding="utf-8"?>
<!DOCTYPE svg PUBLIC "-//W3C//DTD SVG 1.1 Tiny//EN" "http://www.w3.org/Graphics/SVG/1.1/DTD/svg11-tiny.dtd">
<svg version="1.1" baseProfile="tiny" id="Layer_1" xmlns="http://www.w3.org/2000/svg" xmlns:xlink="http://www.w3.org/1999/xlink" x="0px" y="0px" width="16px" height="16px" viewBox="0 0 500 500" xml:space="preserve">
	<path d="M284.598 317.243v102.399q0 3.906-2.511 6.417t-6.417 2.511h-266.741q-3.906 0-6.417-2.511t-2.511-6.417v-41.853q0-3.627 2.651-6.278t6.278-2.651h27.065v-106.864h-26.507q-3.906 0-6.417-2.651t-2.511-6.278v-36.551q0-3.906 2.511-6.417t6.417-2.511h26.507v-62.221q0-47.712 34.458-78.683t87.751-30.971q51.618 0 93.471 34.877 2.511 2.232 2.79 5.72t-1.953 6.278l-28.739 35.435q-2.511 3.069-6.138 3.348-3.627 0.558-6.417-1.953-1.395-1.395-7.254-5.301t-19.252-8.929-25.949-5.022q-23.716 0-38.226 13.114t-14.509 34.319v59.989h85.101q3.627 0 6.278 2.511t2.651 6.417v36.551q0 3.627-2.651 6.278t-6.278 2.651h-85.101v105.748h115.513v-50.502q0-3.627 2.511-6.278t6.417-2.651h45.201q3.906 0 6.417 2.651t2.511 6.278z" fill="#ffffff" />
</svg>
