<?xml version="1.0" encoding="utf-8"?>
<!DOCTYPE svg PUBLIC "-//W3C//DTD SVG 1.1 Tiny//EN" "http://www.w3.org/Graphics/SVG/1.1/DTD/svg11-tiny.dtd">
<svg version="1.1" baseProfile="tiny" id="Layer_1" xmlns="http://www.w3.org/2000/svg" xmlns:xlink="http://www.w3.org/1999/xlink" x="0px" y="0px" width="16px" height="16px" viewBox="0 0 500 500" xml:space="preserve">
	<path d="M250 250q0-29.576-20.926-50.502t-50.502-20.926-50.502 20.926-20.926 50.502 20.926 50.502 50.502 20.926 50.502-20.926 20.926-50.502zM464.286 392.857q0-14.509-10.603-25.112t-25.112-10.603-25.112 10.603-10.603 25.112q0 14.788 10.463 25.251t25.251 10.463 25.251-10.463 10.463-25.251zM464.286 107.143q0-14.509-10.603-25.112t-25.112-10.603-25.112 10.603-10.603 25.112q0 14.788 10.463 25.251t25.251 10.463 25.251-10.463 10.463-25.251zM357.143 224.609v51.618q0 2.79-1.953 5.441t-4.464 2.93l-43.248 6.696q-3.069 9.766-8.929 21.206 9.487 13.393 25.112 32.087 1.953 2.79 1.953 5.581 0 3.348-1.953 5.301-6.417 8.371-23.019 24.972t-21.903 16.602q-3.069 0-5.859-1.953l-32.087-25.112q-10.324 5.301-21.484 8.649-3.069 30.134-6.417 43.248-1.953 6.696-8.371 6.696h-51.897q-3.069 0-5.581-2.093t-2.79-4.883l-6.417-42.69q-9.487-2.79-20.926-8.649l-32.924 24.833q-1.953 1.953-5.581 1.953-3.069 0-5.859-2.232-40.179-37.109-40.179-44.643 0-2.511 1.953-5.301 2.79-3.906 11.44-14.788t13.114-17.020q-6.417-12.277-9.766-22.879l-42.411-6.696q-2.79-0.279-4.743-2.651t-1.953-5.441v-51.618q0-2.79 1.953-5.441t4.464-2.93l43.248-6.696q3.069-9.766 8.929-21.206-9.487-13.393-25.112-32.087-1.953-3.069-1.953-5.581 0-3.348 1.953-5.581 6.138-8.371 22.879-24.833t22.042-16.462q3.069 0 5.859 1.953l32.087 25.112q9.487-5.022 21.484-8.929 3.069-30.134 6.417-42.969 1.953-6.696 8.371-6.696h51.897q3.069 0 5.581 2.093t2.79 4.883l6.417 42.69q9.487 2.79 20.926 8.649l32.924-24.833q2.232-1.953 5.581-1.953 3.069 0 5.859 2.232 40.179 37.109 40.179 44.643 0 2.511-1.953 5.301-3.348 4.464-11.719 15.067t-12.556 16.741q6.417 13.393 9.487 22.879l42.411 6.417q2.79 0.558 4.743 2.93t1.953 5.441zM535.714 373.326v39.063q0 4.464-41.574 8.649-3.348 7.534-8.371 14.509 14.23 31.529 14.23 38.504 0 1.116-1.116 1.953-34.040 19.81-34.598 19.81-2.232 0-12.835-13.114t-14.509-18.973q-5.581 0.558-8.371 0.558t-8.371-0.558q-3.906 5.859-14.509 18.973t-12.835 13.114q-0.558 0-34.598-19.81-1.116-0.837-1.116-1.953 0-6.976 14.23-38.504-5.022-6.976-8.371-14.509-41.574-4.185-41.574-8.649v-39.063q0-4.464 41.574-8.649 3.627-8.091 8.371-14.509-14.23-31.529-14.23-38.504 0-1.116 1.116-1.953 1.116-0.558 9.766-5.581t16.462-9.487 8.371-4.464q2.232 0 12.835 12.974t14.509 18.833q5.581-0.558 8.371-0.558t8.371 0.558q14.23-19.81 25.669-31.25l1.674-0.558q1.116 0 34.598 19.531 1.116 0.837 1.116 1.953 0 6.976-14.23 38.504 4.743 6.417 8.371 14.509 41.574 4.185 41.574 8.649zM535.714 87.612v39.062q0 4.464-41.574 8.649-3.348 7.534-8.371 14.509 14.23 31.529 14.23 38.504 0 1.116-1.116 1.953-34.040 19.81-34.598 19.81-2.232 0-12.835-13.114t-14.509-18.973q-5.581 0.558-8.371 0.558t-8.371-0.558q-3.906 5.859-14.509 18.973t-12.835 13.114q-0.558 0-34.598-19.81-1.116-0.837-1.116-1.953 0-6.976 14.23-38.504-5.022-6.976-8.371-14.509-41.574-4.185-41.574-8.649v-39.063q0-4.464 41.574-8.649 3.627-8.091 8.371-14.509-14.23-31.529-14.23-38.504 0-1.116 1.116-1.953 1.116-0.558 9.766-5.581t16.462-9.487 8.371-4.464q2.232 0 12.835 12.974t14.509 18.833q5.581-0.558 8.371-0.558t8.371 0.558q14.23-19.81 25.669-31.25l1.674-0.558q1.116 0 34.598 19.531 1.116 0.837 1.116 1.953 0 6.976-14.23 38.504 4.743 6.417 8.371 14.509 41.574 4.185 41.574 8.649z" fill="#ffffff" />
</svg>
