<?xml version="1.0" encoding="utf-8"?>
<!DOCTYPE svg PUBLIC "-//W3C//DTD SVG 1.1 Tiny//EN" "http://www.w3.org/Graphics/SVG/1.1/DTD/svg11-tiny.dtd">
<svg version="1.1" baseProfile="tiny" id="Layer_1" xmlns="http://www.w3.org/2000/svg" xmlns:xlink="http://www.w3.org/1999/xlink" x="0px" y="0px" width="16px" height="16px" viewBox="0 0 500 500" xml:space="preserve">
	<path d="M285.714 250q0-29.576-20.926-50.502t-50.502-20.926-50.502 20.926-20.926 50.502 20.926 50.502 50.502 20.926 50.502-20.926 20.926-50.502zM428.571 219.587v61.942q0 3.348-2.232 6.417t-5.581 3.627l-51.618 7.813q-5.301 15.067-10.882 25.391 9.766 13.951 29.855 38.504 2.79 3.348 2.79 6.976t-2.511 6.417q-7.534 10.324-27.623 30.134t-26.228 19.81q-3.348 0-7.254-2.511l-38.504-30.134q-12.277 6.417-25.391 10.603-4.464 37.946-8.091 51.897-1.953 7.813-10.044 7.813h-61.942q-3.906 0-6.836-2.372t-3.208-5.999l-7.813-51.339q-13.672-4.464-25.112-10.324l-39.341 29.855q-2.79 2.511-6.976 2.511-3.906 0-6.976-3.069-35.156-31.808-46.038-46.875-1.953-2.79-1.953-6.417 0-3.348 2.232-6.417 4.185-5.859 14.23-18.555t15.067-19.671q-7.534-13.951-11.44-27.623l-51.060-7.534q-3.627-0.558-5.859-3.488t-2.232-6.557v-61.942q0-3.348 2.232-6.417t5.301-3.627l51.897-7.813q3.906-12.835 10.882-25.669-11.161-15.904-29.855-38.504-2.79-3.348-2.79-6.696 0-2.79 2.511-6.417 7.254-10.044 27.483-29.995t26.367-19.95q3.627 0 7.254 2.79l38.504 29.855q12.277-6.417 25.391-10.603 4.464-37.946 8.091-51.897 1.953-7.813 10.044-7.813h61.942q3.906 0 6.836 2.372t3.208 5.999l7.813 51.339q13.672 4.464 25.112 10.324l39.621-29.855q2.511-2.511 6.696-2.511 3.627 0 6.976 2.79 35.993 33.203 46.038 47.433 1.953 2.232 1.953 6.138 0 3.348-2.232 6.417-4.185 5.859-14.23 18.555t-15.067 19.671q7.254 13.951 11.44 27.344l51.060 7.813q3.627 0.558 5.859 3.488t2.232 6.557z" fill="#ffffff" />
</svg>
