<?xml version="1.0" encoding="utf-8"?>
<!DOCTYPE svg PUBLIC "-//W3C//DTD SVG 1.1 Tiny//EN" "http://www.w3.org/Graphics/SVG/1.1/DTD/svg11-tiny.dtd">
<svg version="1.1" baseProfile="tiny" id="Layer_1" xmlns="http://www.w3.org/2000/svg" xmlns:xlink="http://www.w3.org/1999/xlink" x="0px" y="0px" width="16px" height="16px" viewBox="0 0 500 500" xml:space="preserve">
	<path d="M258.929 378.348v-199.777h-89.286v199.777q0 6.976 5.022 10.742t12.835 3.767h53.571q7.813 0 12.835-3.767t5.022-10.742zM131.696 142.857h54.409l-35.156-44.922q-7.254-8.649-19.252-8.649-11.161 0-18.973 7.813t-7.813 18.973 7.813 18.973 18.973 7.813zM323.661 116.071q0-11.161-7.813-18.973t-18.973-7.813q-11.998 0-19.252 8.649l-34.877 44.922h54.129q11.161 0 18.973-7.813t7.813-18.973zM428.571 187.5v89.286q0 3.906-2.511 6.417t-6.417 2.511h-26.786v116.071q0 11.161-7.813 18.973t-18.973 7.813h-303.571q-11.161 0-18.973-7.813t-7.813-18.973v-116.071h-26.786q-3.906 0-6.417-2.511t-2.511-6.417v-89.286q0-3.906 2.511-6.417t6.417-2.511h122.768q-25.949 0-44.224-18.276t-18.276-44.224 18.276-44.224 44.224-18.276q29.855 0 46.875 21.484l35.714 46.038 35.714-46.038q17.020-21.484 46.875-21.484 25.949 0 44.224 18.276t18.276 44.224-18.276 44.224-44.224 18.276h122.768q3.906 0 6.417 2.511t2.511 6.417z" fill="#ffffff" />
</svg>
