<?xml version="1.0" encoding="utf-8"?>
<!DOCTYPE svg PUBLIC "-//W3C//DTD SVG 1.1 Tiny//EN" "http://www.w3.org/Graphics/SVG/1.1/DTD/svg11-tiny.dtd">
<svg version="1.1" baseProfile="tiny" id="Layer_1" xmlns="http://www.w3.org/2000/svg" xmlns:xlink="http://www.w3.org/1999/xlink" x="0px" y="0px" width="16px" height="16px" viewBox="0 0 500 500" xml:space="preserve">
	<path d="M109.933 377.232q-2.232 2.511-5.581-0.837-3.627-3.069-1.116-5.301 2.232-2.511 5.581 0.837 3.348 3.069 1.116 5.301zM98.214 360.212q2.511 3.348 0 5.301-2.232 1.674-4.743-1.953t0-5.022q2.511-1.953 4.743 1.674zM81.194 343.471q-1.395 1.953-3.627 0.558-2.79-1.395-1.953-3.348 0.837-1.395 3.627-0.558 2.79 1.395 1.953 3.348zM89.844 352.958q-1.674 1.953-4.464-0.837-2.511-3.069-0.558-4.464 1.674-1.674 4.464 0.837 2.511 3.069 0.558 4.464zM125.837 384.208q-1.116 3.348-5.301 1.674-4.743-1.116-3.627-4.185t5.301-1.953q4.464 1.395 3.627 4.464zM143.415 385.603q0 3.069-4.464 3.069-4.743 0.558-4.743-3.069 0-3.069 4.464-3.069 4.743-0.558 4.743 3.069zM159.598 382.813q0.558 2.79-3.906 3.906t-5.022-2.232 3.906-4.185q4.464-0.558 5.022 2.511zM428.571 116.071v267.857q0 33.203-23.577 56.78t-56.78 23.577h-62.5q-4.464 0-6.836-0.279t-5.441-1.395-4.464-4.046-1.395-7.673v-66.685q0-27.065-14.509-39.621 15.904-1.674 28.599-5.022t26.228-10.882 22.601-18.555 14.788-29.297 5.72-41.992q0-33.761-22.042-57.478 10.324-25.391-2.232-56.919-7.813-2.511-22.601 3.069t-25.669 12.277l-10.603 6.696q-25.949-7.254-53.571-7.254t-53.571 7.254q-4.464-3.069-11.858-7.534t-23.298-10.742-23.996-3.767q-12.277 31.529-1.953 56.919-22.042 23.716-22.042 57.478 0 23.716 5.72 41.853t14.648 29.297 22.461 18.694 26.228 10.882 28.599 5.022q-11.161 10.044-13.672 28.739-5.859 2.79-12.556 4.185t-15.904 1.395-18.276-5.999-15.485-17.438q-5.301-8.929-13.532-14.509t-13.812-6.696l-5.581-0.837q-5.859 0-8.091 1.255t-1.395 3.208 2.511 3.906 3.627 3.348l1.953 1.395q6.138 2.79 12.137 10.603t8.789 14.23l2.79 6.417q3.627 10.603 12.277 17.16t18.694 8.371 19.392 1.953 15.485-0.977l6.417-1.116q0 10.603 0.14 28.739t0.14 18.973q0 6.138-3.069 9.347t-6.138 3.627-9.208 0.418h-62.5q-33.203 0-56.78-23.577t-23.577-56.78v-267.857q0-33.203 23.577-56.78t56.78-23.577h267.857q33.203 0 56.78 23.577t23.577 56.78z" fill="#ffffff" />
</svg>
