<?xml version="1.0" encoding="utf-8"?>
<!DOCTYPE svg PUBLIC "-//W3C//DTD SVG 1.1 Tiny//EN" "http://www.w3.org/Graphics/SVG/1.1/DTD/svg11-tiny.dtd">
<svg version="1.1" baseProfile="tiny" id="Layer_1" xmlns="http://www.w3.org/2000/svg" xmlns:xlink="http://www.w3.org/1999/xlink" x="0px" y="0px" width="16px" height="16px" viewBox="0 0 500 500" xml:space="preserve">
	<path d="M428.571 250q0 70.034-40.876 125.977t-105.608 77.427q-7.534 1.395-11.021-1.953t-3.488-8.371v-58.873q0-27.065-14.509-39.621 15.904-1.674 28.599-5.022t26.228-10.882 22.601-18.555 14.788-29.297 5.72-41.992q0-33.761-22.042-57.478 10.324-25.391-2.232-56.919-7.813-2.511-22.601 3.069t-25.669 12.277l-10.603 6.696q-25.949-7.254-53.571-7.254t-53.571 7.254q-4.464-3.069-11.858-7.534t-23.298-10.742-23.996-3.767q-12.277 31.529-1.953 56.919-22.042 23.716-22.042 57.478 0 23.716 5.72 41.853t14.648 29.297 22.461 18.694 26.228 10.882 28.599 5.022q-11.161 10.044-13.672 28.739-5.859 2.79-12.556 4.185t-15.904 1.395-18.276-5.999-15.485-17.438q-5.301-8.929-13.532-14.509t-13.812-6.696l-5.581-0.837q-5.859 0-8.091 1.255t-1.395 3.208 2.511 3.906 3.627 3.348l1.953 1.395q6.138 2.79 12.137 10.603t8.789 14.23l2.79 6.417q3.627 10.603 12.277 17.16t18.694 8.371 19.392 1.953 15.485-0.977l6.417-1.116q0 10.603 0.14 24.833t0.14 15.067q0 5.022-3.627 8.371t-11.161 1.953q-64.732-21.484-105.608-77.427t-40.876-125.977q0-58.315 28.739-107.562t77.985-77.985 107.562-28.739 107.562 28.739 77.985 77.985 28.739 107.562z" fill="#ffffff" />
</svg>
