<?xml version="1.0" encoding="utf-8"?>
<!DOCTYPE svg PUBLIC "-//W3C//DTD SVG 1.1 Tiny//EN" "http://www.w3.org/Graphics/SVG/1.1/DTD/svg11-tiny.dtd">
<svg version="1.1" baseProfile="tiny" id="Layer_1" xmlns="http://www.w3.org/2000/svg" xmlns:xlink="http://www.w3.org/1999/xlink" x="0px" y="0px" width="16px" height="16px" viewBox="0 0 500 500" xml:space="preserve">
	<path d="M178.571 339.286q0 11.161-3.488 22.879t-11.998 21.206-20.229 9.487-20.229-9.487-11.998-21.206-3.488-22.879 3.488-22.879 11.998-21.206 20.229-9.487 20.229 9.487 11.998 21.206 3.488 22.879zM357.143 339.286q0 11.161-3.488 22.879t-11.998 21.206-20.229 9.487-20.229-9.487-11.998-21.206-3.488-22.879 3.488-22.879 11.998-21.206 20.229-9.487 20.229 9.487 11.998 21.206 3.488 22.879zM401.786 339.286q0-33.482-19.252-56.919t-52.176-23.438q-11.44 0-54.409 5.859-19.81 3.069-43.806 3.069t-43.806-3.069q-42.411-5.859-54.409-5.859-32.924 0-52.176 23.438t-19.252 56.919q0 24.554 8.929 42.829t22.601 28.739 34.040 16.741 39.063 8.231 41.574 1.953h46.875q22.879 0 41.574-1.953t39.063-8.231 34.040-16.741 22.601-28.739 8.929-42.829zM464.286 290.179q0 57.757-17.020 92.355-10.603 21.484-29.437 37.109t-39.341 23.996-47.433 13.253-47.852 6.138-46.596 1.255q-21.763 0-39.621-0.837t-41.155-3.488-42.55-8.371-38.226-14.37-33.761-22.601-23.996-32.087q-17.299-34.319-17.299-92.355 0-66.127 37.946-110.491-7.534-22.879-7.534-47.433 0-32.366 14.23-60.826 30.134 0 53.013 11.021t52.734 34.458q41.016-9.766 86.216-9.766 41.294 0 78.125 8.929 29.297-22.879 52.176-33.761t52.734-10.882q14.23 28.46 14.23 60.826 0 24.274-7.534 46.875 37.946 44.643 37.946 111.049z" fill="#ffffff" />
</svg>
