<?xml version="1.0" encoding="utf-8"?>
<!DOCTYPE svg PUBLIC "-//W3C//DTD SVG 1.1 Tiny//EN" "http://www.w3.org/Graphics/SVG/1.1/DTD/svg11-tiny.dtd">
<svg version="1.1" baseProfile="tiny" id="Layer_1" xmlns="http://www.w3.org/2000/svg" xmlns:xlink="http://www.w3.org/1999/xlink" x="0px" y="0px" width="16px" height="16px" viewBox="0 0 500 500" xml:space="preserve">
	<path d="M215.681 363.281l97.656-131.976q4.464-6.138 6.836-16.462t-1.674-23.716-17.16-22.042q-11.161-7.254-23.159-7.115t-20.508 4.883-15.207 12.556q-10.044 11.161-26.786 11.161-16.462 0-26.507-11.161-6.696-7.813-15.207-12.556t-20.508-4.883-23.438 7.115q-12.835 8.649-16.88 22.042t-1.674 23.716 6.836 16.462zM428.571 250q0 58.315-28.739 107.562t-77.985 77.985-107.562 28.739-107.562-28.739-77.985-77.985-28.739-107.562 28.739-107.562 77.985-77.985 107.562-28.739 107.562 28.739 77.985 77.985 28.739 107.562z" fill="#ffffff" />
</svg>
