<?xml version="1.0" encoding="utf-8"?>
<!DOCTYPE svg PUBLIC "-//W3C//DTD SVG 1.1 Tiny//EN" "http://www.w3.org/Graphics/SVG/1.1/DTD/svg11-tiny.dtd">
<svg version="1.1" baseProfile="tiny" id="Layer_1" xmlns="http://www.w3.org/2000/svg" xmlns:xlink="http://www.w3.org/1999/xlink" x="0px" y="0px" width="16px" height="16px" viewBox="0 0 500 500" xml:space="preserve">
	<path d="M474.051 51.897q0 9.766-11.998 21.763l-176.339 176.339v214.286h89.286q7.254 0 12.556 5.301t5.301 12.556-5.301 12.556-12.556 5.301h-250q-7.254 0-12.556-5.301t-5.301-12.556 5.301-12.556 12.556-5.301h89.286v-214.286l-176.339-176.339q-11.998-11.998-11.998-21.763 0-6.417 5.022-10.184t10.603-4.883 11.998-1.116h392.857q6.417 0 11.998 1.116t10.603 4.883 5.022 10.184z" fill="#ffffff" />
</svg>
