<?xml version="1.0" encoding="utf-8"?>
<!DOCTYPE svg PUBLIC "-//W3C//DTD SVG 1.1 Tiny//EN" "http://www.w3.org/Graphics/SVG/1.1/DTD/svg11-tiny.dtd">
<svg version="1.1" baseProfile="tiny" id="Layer_1" xmlns="http://www.w3.org/2000/svg" xmlns:xlink="http://www.w3.org/1999/xlink" x="0px" y="0px" width="16px" height="16px" viewBox="0 0 500 500" xml:space="preserve">
	<path d="M285.714 392.857h178.571v-35.714h-178.571v35.714zM178.571 250h285.714v-35.714h-285.714v35.714zM357.143 107.143h107.143v-35.714h-107.143v35.714zM500 339.286v71.429q0 7.254-5.301 12.556t-12.556 5.301h-464.286q-7.254 0-12.556-5.301t-5.301-12.556v-71.429q0-7.254 5.301-12.556t12.556-5.301h464.286q7.254 0 12.556 5.301t5.301 12.556zM500 196.429v71.429q0 7.254-5.301 12.556t-12.556 5.301h-464.286q-7.254 0-12.556-5.301t-5.301-12.556v-71.429q0-7.254 5.301-12.556t12.556-5.301h464.286q7.254 0 12.556 5.301t5.301 12.556zM500 53.571v71.429q0 7.254-5.301 12.556t-12.556 5.301h-464.286q-7.254 0-12.556-5.301t-5.301-12.556v-71.429q0-7.254 5.301-12.556t12.556-5.301h464.286q7.254 0 12.556 5.301t5.301 12.556z" fill="#ffffff" />
</svg>
