<?xml version="1.0" encoding="utf-8"?>
<!DOCTYPE svg PUBLIC "-//W3C//DTD SVG 1.1 Tiny//EN" "http://www.w3.org/Graphics/SVG/1.1/DTD/svg11-tiny.dtd">
<svg version="1.1" baseProfile="tiny" id="Layer_1" xmlns="http://www.w3.org/2000/svg" xmlns:xlink="http://www.w3.org/1999/xlink" x="0px" y="0px" width="16px" height="16px" viewBox="0 0 500 500" xml:space="preserve">
	<path d="M214.286 35.714q58.315 0 107.562 28.739t77.985 77.985 28.739 107.562-28.739 107.562-77.985 77.985-107.562 28.739-107.562-28.739-77.985-77.985-28.739-107.562 28.739-107.562 77.985-77.985 107.562-28.739zM290.737 181.083q-0.558 0.279-2.651 2.651t-3.767 2.651q0.558 0 1.255-1.395t1.395-3.069 0.977-1.953q1.674-1.953 6.138-4.185 3.906-1.674 14.509-3.348 9.487-2.232 14.23 3.069-0.558-0.558 2.651-3.627t4.046-3.348q0.837-0.558 4.185-1.255t4.185-2.093l0.558-6.138q-3.348 0.279-4.883-1.953t-1.813-5.859q0 0.558-1.674 2.232 0-1.953-1.255-2.232t-3.208 0.279-2.511 0.279q-2.79-0.837-4.185-2.093t-2.232-4.604-1.116-4.185q-0.558-1.395-2.651-2.93t-2.651-2.93q-0.279-0.558-0.698-1.535t-0.837-1.813-1.116-1.535-1.535-0.698-1.953 1.395-2.093 2.79-1.255 1.395q-0.837-0.558-1.674-0.418t-1.255 0.279-1.255 0.837-1.395 0.977q-0.837 0.558-2.372 0.837t-2.372 0.558q4.185-1.395-0.279-3.069-2.79-1.116-4.464-0.837 2.511-1.116 2.093-3.348t-2.372-3.906h1.395q-0.279-1.116-2.372-2.372t-4.883-2.372-3.627-1.674q-2.232-1.395-9.487-2.651t-9.208-0.14q-1.395 1.674-1.255 2.93t1.116 3.906 0.977 3.488q0.279 1.674-1.535 3.627t-1.813 3.348q0 1.953 3.906 4.325t2.79 5.999q-0.837 2.232-4.464 4.464t-4.464 3.348q-1.395 2.232-0.418 5.162t2.93 4.604q0.558 0.558 0.418 1.116t-0.977 1.255-1.535 1.116-1.813 0.977l-0.837 0.558q-3.069 1.395-5.72-1.674t-3.767-7.254q-1.953-6.976-4.464-8.371-6.417-2.232-8.091 0.279-1.395-3.627-11.44-7.254-6.976-2.511-16.183-1.116 1.674-0.279 0-4.185-1.953-4.185-5.301-3.348 0.837-1.674 1.116-4.883t0.279-3.767q0.837-3.627 3.348-6.417 0.279-0.279 1.953-2.372t2.651-3.767 0.14-1.674q9.766 1.116 13.951-3.069 1.395-1.395 3.208-4.743t2.93-4.743q2.511-1.674 3.906-1.535t4.046 1.535 4.046 1.395q3.906 0.279 4.325-3.069t-2.093-5.581q3.348 0.279 0.837-4.743-1.395-1.953-2.232-2.511-3.348-1.116-7.534 1.395-2.232 1.116 0.558 2.232-0.279-0.279-2.651 2.93t-4.604 4.883-4.464-1.395q-0.279-0.279-1.535-3.767t-2.651-3.767q-2.232 0-4.464 4.185 0.837-2.232-3.069-4.185t-6.696-2.232q5.301-3.348-2.232-7.534-1.953-1.116-5.72-1.395t-5.441 1.116q-1.395 1.953-1.535 3.208t1.395 2.232 2.93 1.535 3.208 1.116 2.372 0.837q3.906 2.79 2.232 3.906-0.558 0.279-2.372 0.977t-3.208 1.255-1.674 1.116q-0.837 1.116 0 3.906t-0.558 3.906q-1.395-1.395-2.511-4.883t-1.953-4.604q1.953 2.511-6.976 1.674l-2.79-0.279q-1.116 0-4.464 0.558t-5.72 0.279-3.767-2.232q-1.116-2.232 0-5.581 0.279-1.116 1.116-0.558-1.116-0.837-3.069-2.651t-2.79-2.372q-12.835 4.185-26.228 11.44 1.674 0.279 3.348-0.279 1.395-0.558 3.627-1.813t2.79-1.535q9.487-3.906 11.719-1.953l1.395-1.395q3.906 4.464 5.581 6.976-1.953-1.116-8.371-0.279-5.581 1.674-6.138 3.348 1.953 3.348 1.395 5.022-1.116-0.837-3.208-2.79t-4.046-3.069-4.185-1.395q-4.464 0-6.138 0.279-40.737 22.321-65.569 61.942 1.953 1.953 3.348 2.232 1.116 0.279 1.395 2.511t0.698 3.069 3.208-0.837q2.511 2.232 0.837 5.301 0.279-0.279 12.277 7.534 5.301 4.743 5.859 5.859 0.837 3.069-2.79 5.022-0.279-0.558-2.511-2.511t-2.511-1.116q-0.837 1.395 0.14 5.162t2.93 3.488q-1.953 0-2.651 4.464t-0.698 9.905-0.279 6.557l0.558 0.279q-0.837 3.348 1.535 9.626t5.999 5.441q-3.627 0.837 5.581 11.998 1.674 2.232 2.232 2.511 0.837 0.558 3.348 2.093t4.185 2.79 2.79 2.93q1.116 1.395 2.79 6.278t3.906 6.557q-0.558 1.674 2.651 5.581t2.93 6.417q-0.279 0-0.698 0.279t-0.698 0.279q0.837 1.953 4.325 3.906t4.325 3.627q0.279 0.837 0.558 2.79t0.837 3.069 2.232 0.558q0.558-5.581-6.696-17.299-4.185-6.976-4.743-8.091-0.837-1.395-1.535-4.325t-1.255-4.046q0.558 0 1.674 0.418t2.372 0.977 2.093 1.116 0.558 0.837q-0.837 1.953 0.558 4.883t3.348 5.162 4.743 5.301 3.348 3.627q1.674 1.674 3.906 5.441t0 3.767q2.511 0 5.581 2.79t4.743 5.581q1.395 2.232 2.232 7.254t1.395 6.696q0.558 1.953 2.372 3.767t3.488 2.651l4.464 2.232t3.627 1.953q1.395 0.558 5.162 2.93t5.999 3.208q2.79 1.116 4.464 1.116t4.046-0.698 3.767-0.977q4.185-0.558 8.091 4.185t5.859 5.859q10.044 5.301 15.346 3.069-0.558 0.279 0.14 2.093t2.232 4.325 2.511 4.046 1.535 2.372q1.395 1.674 5.022 4.185t5.022 4.185q1.674-1.116 1.953-2.511-0.837 2.232 1.953 5.581t5.022 2.79q3.906-0.837 3.906-8.929-8.649 4.185-13.672-5.022 0-0.279-0.698-1.535t-1.116-2.372-0.698-2.372 0-2.093 1.395-0.837q2.511 0 2.79-0.977t-0.558-3.488-1.116-3.627q-0.279-2.232-3.069-5.581t-3.348-4.185q-1.395 2.511-4.464 2.232t-4.464-2.511q0 0.279-0.418 1.535t-0.418 1.813q-3.627 0-4.185-0.279 0.279-0.837 0.698-4.883t0.977-6.278q0.279-1.116 1.535-3.348t2.093-4.046 1.116-3.488-1.255-2.651-4.883-0.698q-5.301 0.279-7.254 5.581-0.279 0.837-0.837 2.93t-1.395 3.208-2.511 1.953q-1.953 0.837-6.696 0.558t-6.696-1.395q-3.627-2.232-6.278-8.091t-2.651-10.324q0-2.79 0.698-7.394t0.837-6.976-1.535-6.836q0.837-0.558 2.511-2.651t2.79-2.93q0.558-0.279 1.255-0.418t1.255 0 1.116-0.418 0.837-1.674q-0.279-0.279-1.116-0.837-0.837-0.837-1.116-0.837 1.953 0.837 7.952-0.418t7.673 0.418q4.185 3.069 6.138-0.558 0-0.279-0.698-2.651t-0.14-3.767q1.395 7.534 8.091 2.511 0.837 0.837 4.325 1.395t4.883 1.395q0.837 0.558 1.953 1.535t1.535 1.255 1.395-0.14 2.372-1.813q2.79 3.906 3.348 6.696 3.069 11.161 5.301 12.277 1.953 0.837 3.069 0.558t1.255-2.651 0-3.906-0.418-3.488l-0.279-2.232v-5.022l-0.279-2.232q-4.185-0.837-5.162-3.348t0.418-5.162 4.185-5.162q0.279-0.279 2.232-0.977t4.325-1.813 3.488-2.232q5.859-5.301 4.185-9.766 1.953 0 3.069-2.511-0.279 0-1.395-0.837t-2.093-1.395-1.255-0.558q2.511-1.395 0.558-4.464 1.395-0.837 2.093-3.069t2.093-2.79q2.511 3.348 5.859 0.558 1.953-2.232 0.279-4.464 1.395-1.953 5.72-2.93t5.162-2.651q1.953 0.558 2.232-0.558t0.279-3.348 0.837-3.348q1.116-1.395 4.185-2.511t3.627-1.395l4.743-3.069q0.837-1.116 0-1.116 5.022 0.558 8.649-3.069 2.79-3.069-1.674-5.581 0.837-1.674-0.837-2.651t-4.185-1.535q0.837-0.279 3.208-0.14t2.93-0.418q4.185-2.79-1.953-4.464-4.743-1.395-11.998 3.348zM245.257 425.781q57.478-10.044 97.935-52.734-0.837-0.837-3.488-1.255t-3.488-0.977q-5.022-1.953-6.696-2.232 0.279-1.953-0.698-3.627t-2.232-2.511-3.488-2.232-3.069-1.953q-0.558-0.558-1.953-1.674t-1.953-1.535-2.093-1.255-2.372-0.558-2.79 0.279l-0.837 0.279q-0.837 0.279-1.535 0.698t-1.535 0.837-1.116 0.837 0 0.698q-5.859-4.743-10.044-6.138-1.395-0.279-3.069-1.535t-2.93-1.953-2.79-0.418-3.208 1.953q-1.395 1.395-1.674 4.185t-0.558 3.627q-1.953-1.395 0-4.883t0.558-5.162q-0.837-1.674-2.93-1.255t-3.348 1.255-3.208 2.372-2.511 1.813-2.372 1.535-2.372 2.093q-0.837 1.116-1.674 3.348t-1.395 3.069q-0.558-1.116-3.208-1.813t-2.651-1.535q0.558 2.79 1.116 9.766t1.395 10.603q1.953 8.649-3.348 13.393-7.534 6.976-8.091 11.161-1.116 6.138 3.348 7.254 0 1.953-2.232 5.72t-1.953 5.999q0 1.674 0.558 4.464z" fill="#ffffff" />
</svg>
