<?xml version="1.0" encoding="utf-8"?>
<!DOCTYPE svg PUBLIC "-//W3C//DTD SVG 1.1 Tiny//EN" "http://www.w3.org/Graphics/SVG/1.1/DTD/svg11-tiny.dtd">
<svg version="1.1" baseProfile="tiny" id="Layer_1" xmlns="http://www.w3.org/2000/svg" xmlns:xlink="http://www.w3.org/1999/xlink" x="0px" y="0px" width="16px" height="16px" viewBox="0 0 500 500" xml:space="preserve">
	<path d="M189.174 444.476q0 10.603-2.79 19.81h-106.027q-26.507 0-47.852-15.765t-28.878-41.155q6.696-12.556 19.252-21.624t27.902-13.812 29.855-6.696 29.855-1.953q8.929 0 13.672 0.558 1.674 1.116 8.51 5.859t9.208 6.417 8.649 6.417 8.929 7.115 7.673 7.115 7.394 8.231 5.859 8.51 4.883 9.626 2.651 10.044 1.255 11.3zM107.422 346.54q-65.29 1.953-107.422 23.716v-120.815q28.739 32.924 76.172 32.924 8.929 0 19.531-1.395-5.859 17.020-5.859 23.996 0 18.694 17.578 41.574zM155.692 203.962q0 27.902-12.137 44.782t-39.202 16.88q-14.23 0-27.065-7.254t-21.763-18.833-15.625-26.088-9.905-29.018-3.208-27.623q0-26.786 14.37-46.038t40.318-19.252q18.415 0 33.203 11.44t23.438 29.018 13.114 36.272 4.464 35.714zM428.571 178.571v205.357q0 33.203-23.577 56.78t-56.78 23.577h-130.581q10.882-20.368 10.882-43.806 0-18.415-6.138-34.18t-15.485-25.949-20.089-19.81-20.089-16.602-15.485-15.207-6.138-16.602q0-10.044 6.417-18.973t15.625-17.16 18.276-17.997 15.485-25.949 6.417-36.551-7.394-40.597-21.066-33.063q-1.674-1.674-3.906-3.069t-3.488-2.093-2.79-2.651-2.93-4.743h37.667l37.667-17.857h-121.931q-38.504 0-68.22 10.742t-50.921 37.249q0-35.156 22.601-59.431t57.757-24.274h267.857q33.203 0 56.78 23.577t23.577 56.78v26.786h-71.429v-71.429h-35.714v71.429h-71.429v35.714h71.429v71.429h35.714v-71.429h71.429z" fill="#ffffff" />
</svg>
