<?xml version="1.0" encoding="utf-8"?>
<!DOCTYPE svg PUBLIC "-//W3C//DTD SVG 1.1 Tiny//EN" "http://www.w3.org/Graphics/SVG/1.1/DTD/svg11-tiny.dtd">
<svg version="1.1" baseProfile="tiny" id="Layer_1" xmlns="http://www.w3.org/2000/svg" xmlns:xlink="http://www.w3.org/1999/xlink" x="0px" y="0px" width="16px" height="16px" viewBox="0 0 500 500" xml:space="preserve">
	<path d="M244.419 408.761q0-5.859-1.255-11.3t-2.651-10.044-4.883-9.626-5.859-8.51-7.394-8.231-7.673-7.115-8.929-7.115-8.649-6.417-9.208-6.417-8.51-5.859q-4.743-0.558-13.951-0.558-15.067 0-29.576 1.953t-30.134 6.976-27.344 12.835-19.252 20.926-7.534 29.855q0 18.973 9.905 33.901t25.949 23.438 33.622 12.695 35.435 4.185q16.462 0 31.39-3.488t28.042-10.882 20.787-20.508 7.673-30.692zM210.938 168.248q0-16.741-4.604-35.575t-13.114-36.412-23.438-29.018-33.343-11.44q-25.949 0-40.179 19.252t-14.23 46.038q0 13.114 3.208 27.623t9.905 29.018 15.625 26.088 21.763 18.833 27.065 7.254q27.065 0 39.202-16.88t12.137-44.782zM174.386 35.714h121.931l-37.667 22.042h-37.667q19.81 12.556 30.692 35.156t10.882 47.154q0 20.647-6.417 36.691t-15.625 25.809-18.415 17.997-15.625 17.020-6.417 18.833q0 7.254 4.604 14.23t11.998 13.393 16.323 13.393 17.857 15.485 16.323 18.415 11.998 23.716 4.604 29.715q0 44.643-39.062 78.683-42.411 36.551-117.188 36.551-16.462 0-33.343-2.79t-34.040-9.347-30.273-16.183-21.484-24.833-8.371-33.901q0-17.020 10.324-37.667 8.929-17.857 26.786-30.832t40.458-19.81 43.248-10.044 41.853-3.767q-17.857-23.159-17.857-41.574 0-3.348 0.558-6.557t1.395-5.441 2.232-5.999 1.953-5.999q-11.161 1.395-19.531 1.395-41.574 0-71.289-27.344t-29.715-68.638q0-39.063 26.507-69.894t65.29-39.481q26.228-5.581 52.176-5.581zM464.286 107.143v35.714h-71.429v71.429h-35.714v-71.429h-71.429v-35.714h71.429v-71.429h35.714v71.429h71.429z" fill="#ffffff" />
</svg>
