<?xml version="1.0" encoding="utf-8"?>
<!DOCTYPE svg PUBLIC "-//W3C//DTD SVG 1.1 Tiny//EN" "http://www.w3.org/Graphics/SVG/1.1/DTD/svg11-tiny.dtd">
<svg version="1.1" baseProfile="tiny" id="Layer_1" xmlns="http://www.w3.org/2000/svg" xmlns:xlink="http://www.w3.org/1999/xlink" x="0px" y="0px" width="16px" height="16px" viewBox="0 0 500 500" xml:space="preserve">
	<path d="M165.458 250q-45.201 1.395-73.94 35.714h-37.388q-22.879 0-38.504-11.3t-15.625-33.063q0-98.493 34.598-98.493 1.674 0 12.137 5.859t27.204 11.858 33.203 5.999q18.694 0 37.109-6.417-1.395 10.324-1.395 18.415 0 38.784 22.601 71.429zM464.286 427.734q0 33.482-20.368 52.874t-54.129 19.392h-243.862q-33.761 0-54.129-19.392t-20.368-52.874q0-14.788 0.977-28.878t3.906-30.413 7.394-30.273 11.998-27.204 17.299-22.601 23.856-14.927 31.11-5.581q2.79 0 11.998 5.999t20.368 13.393 29.855 13.393 37.667 5.999 37.667-5.999 29.855-13.393 20.368-13.393 11.998-5.999q17.020 0 31.11 5.581t23.856 14.927 17.299 22.601 11.998 27.204 7.394 30.273 3.906 30.413 0.977 28.878zM178.571 71.429q0 29.576-20.926 50.502t-50.502 20.926-50.502-20.926-20.926-50.502 20.926-50.502 50.502-20.926 50.502 20.926 20.926 50.502zM375 178.571q0 44.364-31.39 75.753t-75.753 31.39-75.753-31.39-31.39-75.753 31.39-75.753 75.753-31.39 75.753 31.39 31.39 75.753zM535.714 241.351q0 21.763-15.625 33.063t-38.504 11.3h-37.388q-28.739-34.319-73.94-35.714 22.601-32.645 22.601-71.429 0-8.091-1.395-18.415 18.415 6.417 37.109 6.417 16.462 0 33.203-5.999t27.204-11.858 12.137-5.859q34.598 0 34.598 98.493zM500 71.429q0 29.576-20.926 50.502t-50.502 20.926-50.502-20.926-20.926-50.502 20.926-50.502 50.502-20.926 50.502 20.926 20.926 50.502z" fill="#ffffff" />
</svg>
