<?xml version="1.0" encoding="utf-8"?>
<!DOCTYPE svg PUBLIC "-//W3C//DTD SVG 1.1 Tiny//EN" "http://www.w3.org/Graphics/SVG/1.1/DTD/svg11-tiny.dtd">
<svg version="1.1" baseProfile="tiny" id="Layer_1" xmlns="http://www.w3.org/2000/svg" xmlns:xlink="http://www.w3.org/1999/xlink" x="0px" y="0px" width="16px" height="16px" viewBox="0 0 500 500" xml:space="preserve">
	<path d="M357.143 446.429q0-7.254-5.301-12.556t-12.556-5.301-12.556 5.301-5.301 12.556 5.301 12.556 12.556 5.301 12.556-5.301 5.301-12.556zM392.857 233.259q0-52.734-46.596-52.734-7.254 0-15.625 1.395-4.464-8.371-14.648-13.253t-20.508-4.883-19.252 5.022q-13.951-14.788-33.203-14.788-6.976 0-15.485 2.79t-13.253 6.976v-92.355q0-14.509-10.603-25.112t-25.112-10.603q-14.23 0-24.972 10.882t-10.742 24.833v160.714q-5.581 0-13.532-4.185t-15.346-9.208-18.973-9.208-23.577-4.185q-18.694 0-27.204 12.417t-8.51 32.227q0 6.696 38.784 25.112 12.277 6.696 18.136 10.324 17.857 11.161 40.458 31.25 22.601 19.81 29.576 28.181 15.904 19.252 15.904 39.063v8.929h178.571v-8.929q0-20.089 8.929-46.596t17.857-53.99 8.929-50.083zM428.571 231.864q0 37.109-19.252 89.844-16.462 45.759-16.462 62.221v80.357q0 14.788-10.463 25.251t-25.251 10.463h-178.571q-14.788 0-25.251-10.463t-10.463-25.251v-80.357q0-2.79-1.255-5.999t-3.906-6.557-5.022-6.278-6.278-6.696-5.999-5.72-5.999-5.301-4.743-3.906q-20.647-18.136-35.993-27.902-5.859-3.627-17.299-9.208t-20.089-10.324-17.578-11.3-13.812-15.346-4.883-19.392q0-34.877 18.694-57.617t52.734-22.74q18.973 0 35.714 6.138v-104.353q0-29.018 21.206-50.223t49.944-21.206q29.297 0 50.502 21.066t21.206 50.363v47.154q17.299 1.116 33.203 10.324 5.859-0.837 11.998-0.837 28.181 0 49.665 16.741 38.784-0.279 61.245 23.716t22.461 63.337z" fill="#ffffff" />
</svg>
