<?xml version="1.0" encoding="utf-8"?>
<!DOCTYPE svg PUBLIC "-//W3C//DTD SVG 1.1 Tiny//EN" "http://www.w3.org/Graphics/SVG/1.1/DTD/svg11-tiny.dtd">
<svg version="1.1" baseProfile="tiny" id="Layer_1" xmlns="http://www.w3.org/2000/svg" xmlns:xlink="http://www.w3.org/1999/xlink" x="0px" y="0px" width="16px" height="16px" viewBox="0 0 500 500" xml:space="preserve">
	<path d="M383.929 392.857h8.929v-178.571h-8.929q-9.766 0-18.833-3.348t-17.438-10.324-13.951-12.835-13.672-15.067q-0.558-0.837-0.977-1.255t-1.116-1.255-1.255-1.395q-20.089-22.601-31.25-40.458-3.906-6.138-10.603-18.973-0.279-0.837-2.93-6.278t-5.162-10.044-5.581-9.905-5.999-8.51-5.162-3.208q-19.81 0-32.227 8.51t-12.417 27.204q0 11.998 4.185 23.577t9.208 18.973 9.208 15.346 4.185 13.532h-160.714q-13.951 0-24.833 10.742t-10.882 24.972q0 14.509 10.603 25.112t25.112 10.603h92.355q-4.185 4.743-6.976 13.253t-2.79 15.485q0 19.252 14.788 33.203-5.022 8.929-5.022 19.252t4.883 20.508 13.253 14.648q-1.116 6.696-1.116 15.625 0 23.716 13.532 35.156t37.807 11.44q23.438 0 51.060-8.929t54.129-17.857 46.596-8.929zM464.286 375q0-7.254-5.301-12.556t-12.556-5.301-12.556 5.301-5.301 12.556 5.301 12.556 12.556 5.301 12.556-5.301 5.301-12.556zM500 214.286v178.571q0 14.788-10.463 25.251t-25.251 10.463h-80.357q-16.462 0-62.221 16.462-53.013 19.252-88.449 19.252-39.621 0-64.174-21.624t-24.274-60.687l0.279-1.395q-17.020-21.206-17.020-49.665 0-6.138 0.837-11.998-9.208-15.904-10.324-33.203h-47.154q-29.297 0-50.363-21.206t-21.066-50.502q0-28.739 21.206-49.944t50.223-21.206h104.353q-6.138-16.741-6.138-35.714 0-34.040 22.74-52.734t57.617-18.694q10.603 0 19.392 4.883t15.346 13.812 11.3 17.578 10.324 20.089 9.208 17.299q9.766 15.346 27.902 35.993 0.558 0.837 3.906 4.743t5.301 5.999 5.72 5.999 6.696 6.278 6.278 5.022 6.557 3.906 5.999 1.255h80.357q14.788 0 25.251 10.463t10.463 25.251z" fill="#ffffff" />
</svg>
