<?xml version="1.0" encoding="utf-8"?>
<!DOCTYPE svg PUBLIC "-//W3C//DTD SVG 1.1 Tiny//EN" "http://www.w3.org/Graphics/SVG/1.1/DTD/svg11-tiny.dtd">
<svg version="1.1" baseProfile="tiny" id="Layer_1" xmlns="http://www.w3.org/2000/svg" xmlns:xlink="http://www.w3.org/1999/xlink" x="0px" y="0px" width="16px" height="16px" viewBox="0 0 500 500" xml:space="preserve">
	<path d="M392.857 267.857q0-23.438-8.929-51.060t-17.857-54.129-8.929-46.596v-8.929h-178.571v8.929q0 9.766-3.348 18.833t-10.324 17.438-12.835 13.951-15.067 13.672q-2.511 2.232-3.906 3.348-22.601 20.089-40.458 31.25-6.138 3.906-18.973 10.603-0.837 0.279-6.278 2.93t-10.044 5.162-9.905 5.581-8.51 5.999-3.208 5.162q0 19.81 8.51 32.227t27.204 12.417q11.998 0 23.577-4.185t18.973-9.208 15.346-9.208 13.532-4.185v160.714q0 13.951 10.742 24.833t24.972 10.882q14.509 0 25.112-10.603t10.603-25.112v-92.355q12.835 9.766 28.739 9.766 19.252 0 33.203-14.788 8.929 5.022 19.252 5.022t20.508-4.883 14.648-13.253q6.696 1.116 15.625 1.116 23.716 0 35.156-13.532t11.44-37.807zM357.143 53.571q0-7.254-5.301-12.556t-12.556-5.301-12.556 5.301-5.301 12.556 5.301 12.556 12.556 5.301 12.556-5.301 5.301-12.556zM428.571 266.741q0 39.621-21.624 64.174t-60.687 24.274l-1.395-0.279q-21.206 17.020-49.665 17.020-6.138 0-11.998-0.837-15.067 8.371-33.203 10.324v47.154q0 29.297-21.206 50.363t-50.502 21.066q-28.739 0-49.944-21.206t-21.206-50.223v-104.353q-15.067 6.138-35.714 6.138-33.761 0-52.595-22.74t-18.833-57.617q0-10.603 4.883-19.392t13.812-15.346 17.578-11.3 20.089-10.324 17.299-9.208q15.346-9.766 35.993-27.902 0.837-0.558 4.743-3.906t5.999-5.301 5.999-5.72 6.278-6.696 5.022-6.278 3.906-6.557 1.255-5.999v-80.357q0-14.788 10.463-25.251t25.251-10.463h178.571q14.788 0 25.251 10.463t10.463 25.251v80.357q0 16.462 16.462 62.221 19.252 53.013 19.252 88.449z" fill="#ffffff" />
</svg>
