<?xml version="1.0" encoding="utf-8"?>
<!DOCTYPE svg PUBLIC "-//W3C//DTD SVG 1.1 Tiny//EN" "http://www.w3.org/Graphics/SVG/1.1/DTD/svg11-tiny.dtd">
<svg version="1.1" baseProfile="tiny" id="Layer_1" xmlns="http://www.w3.org/2000/svg" xmlns:xlink="http://www.w3.org/1999/xlink" x="0px" y="0px" width="16px" height="16px" viewBox="0 0 500 500" xml:space="preserve">
	<path d="M71.429 375q0-7.254-5.301-12.556t-12.556-5.301-12.556 5.301-5.301 12.556 5.301 12.556 12.556 5.301 12.556-5.301 5.301-12.556zM464.286 214.286q0-14.23-10.882-24.972t-24.833-10.742h-160.714q0-5.581 4.185-13.532t9.208-15.346 9.208-18.973 4.185-23.577q0-18.694-12.417-27.204t-32.227-8.51q-6.696 0-25.112 38.784-6.696 12.277-10.324 18.136-11.161 17.857-31.25 40.458-19.81 22.601-28.181 29.576-19.252 15.904-39.063 15.904h-8.929v178.571h8.929q20.089 0 46.596 8.929t53.99 17.857 50.083 8.929q52.734 0 52.734-46.596 0-7.254-1.395-15.625 8.371-4.464 13.253-14.648t4.883-20.508-5.022-19.252q14.788-13.951 14.788-33.203 0-6.976-2.79-15.485t-6.976-13.253h92.355q14.509 0 25.112-10.603t10.603-25.112zM500 214.007q0 29.297-21.066 50.502t-50.363 21.206h-47.154q-1.116 17.299-10.324 33.203 0.837 5.859 0.837 11.998 0 28.181-16.741 49.665 0.279 38.784-23.716 61.245t-63.337 22.461q-37.109 0-89.844-19.252-45.759-16.462-62.221-16.462h-80.357q-14.788 0-25.251-10.463t-10.463-25.251v-178.571q0-14.788 10.463-25.251t25.251-10.463h80.357q2.79 0 5.999-1.255t6.557-3.906 6.278-5.022 6.696-6.278 5.72-5.999 5.301-5.999 3.906-4.743q18.136-20.647 27.902-35.993 3.627-5.859 9.208-17.299t10.324-20.089 11.3-17.578 15.346-13.812 19.392-4.883q34.877 0 57.617 18.694t22.74 52.734q0 18.973-6.138 35.714h104.353q29.018 0 50.223 21.206t21.206 49.944z" fill="#ffffff" />
</svg>
