<?xml version="1.0" encoding="utf-8"?>
<!DOCTYPE svg PUBLIC "-//W3C//DTD SVG 1.1 Tiny//EN" "http://www.w3.org/Graphics/SVG/1.1/DTD/svg11-tiny.dtd">
<svg version="1.1" baseProfile="tiny" id="Layer_1" xmlns="http://www.w3.org/2000/svg" xmlns:xlink="http://www.w3.org/1999/xlink" x="0px" y="0px" width="16px" height="16px" viewBox="0 0 500 500" xml:space="preserve">
	<path d="M290.179 339.286q0 9.208-6.557 15.765t-15.765 6.557-15.765-6.557-6.557-15.765 6.557-15.765 15.765-6.557 15.765 6.557 6.557 15.765zM361.607 339.286q0 9.208-6.557 15.765t-15.765 6.557-15.765-6.557-6.557-15.765 6.557-15.765 15.765-6.557 15.765 6.557 6.557 15.765zM392.857 383.929v-89.286q0-3.627-2.651-6.278t-6.278-2.651h-339.286q-3.627 0-6.278 2.651t-2.651 6.278v89.286q0 3.627 2.651 6.278t6.278 2.651h339.286q3.627 0 6.278-2.651t2.651-6.278zM49.665 250h329.241l-43.806-134.487q-1.116-3.627-4.464-5.999t-7.254-2.372h-218.192q-3.906 0-7.254 2.372t-4.464 5.999zM428.571 294.643v89.286q0 18.415-13.114 31.529t-31.529 13.114h-339.286q-18.415 0-31.529-13.114t-13.114-31.529v-89.286q0-6.976 4.464-20.926l54.966-169.085q4.743-14.788 17.578-23.996t28.181-9.208h218.192q15.346 0 28.181 9.208t17.578 23.996l54.966 169.085q4.464 13.951 4.464 20.926z" fill="#ffffff" />
</svg>
