<?xml version="1.0" encoding="utf-8"?>
<!DOCTYPE svg PUBLIC "-//W3C//DTD SVG 1.1 Tiny//EN" "http://www.w3.org/Graphics/SVG/1.1/DTD/svg11-tiny.dtd">
<svg version="1.1" baseProfile="tiny" id="Layer_1" xmlns="http://www.w3.org/2000/svg" xmlns:xlink="http://www.w3.org/1999/xlink" x="0px" y="0px" width="16px" height="16px" viewBox="0 0 500 500" xml:space="preserve">
	<path d="M464.286 247.21q0 46.317-16.741 87.612l-5.581 13.672-51.618 9.208q-6.138 23.159-25.251 38.086t-43.667 14.927v8.929q0 3.906-2.511 6.417t-6.417 2.511h-17.857q-3.906 0-6.417-2.511t-2.511-6.417v-160.714q0-3.906 2.511-6.417t6.417-2.511h17.857q3.906 0 6.417 2.511t2.511 6.417v8.929q19.81 0 36.272 9.905t25.949 26.646l18.973-3.348q8.091-26.507 8.091-53.851 0-41.294-24.554-77.846t-65.988-58.315-88.030-21.763-88.030 21.763-65.988 58.315-24.554 77.846q0 27.344 8.091 53.851l18.973 3.348q9.487-16.741 25.949-26.646t36.272-9.905v-8.929q0-3.906 2.511-6.417t6.417-2.511h17.857q3.906 0 6.417 2.511t2.511 6.417v160.714q0 3.906-2.511 6.417t-6.417 2.511h-17.857q-3.906 0-6.417-2.511t-2.511-6.417v-8.929q-24.554 0-43.667-14.927t-25.251-38.086l-51.618-9.208-5.581-13.672q-16.741-41.294-16.741-87.612 0-42.132 18.694-81.194t49.944-67.662 74.219-45.62 89.286-17.020 89.286 17.020 74.219 45.62 49.944 67.662 18.694 81.194z" fill="#ffffff" />
</svg>
