<?xml version="1.0" encoding="utf-8"?>
<!-- Generated by IcoMoon.io -->
<!DOCTYPE svg PUBLIC "-//W3C//DTD SVG 1.1//EN" "http://www.w3.org/Graphics/SVG/1.1/DTD/svg11.dtd">
<svg version="1.1" xmlns="http://www.w3.org/2000/svg" xmlns:xlink="http://www.w3.org/1999/xlink" width="500" height="500" viewBox="0 0 500 500">
	<path d="M250 464.286q-7.254 0-12.277-5.022l-174.107-167.969q-2.79-2.232-7.673-7.254t-15.485-18.276-18.973-27.204-14.927-33.761-6.557-38.504q0-61.384 35.435-95.982t97.935-34.598q17.299 0 35.296 5.999t33.482 16.183 26.646 19.113 21.206 18.973q10.044-10.044 21.206-18.973t26.646-19.113 33.482-16.183 35.296-5.999q62.5 0 97.935 34.598t35.435 95.982q0 61.663-63.895 125.558l-173.828 167.411q-5.022 5.022-12.277 5.022z" fill="#000000" />
</svg>
