<?xml version="1.0" encoding="utf-8"?>
<!DOCTYPE svg PUBLIC "-//W3C//DTD SVG 1.1 Tiny//EN" "http://www.w3.org/Graphics/SVG/1.1/DTD/svg11-tiny.dtd">
<svg version="1.1" baseProfile="tiny" id="Layer_1" xmlns="http://www.w3.org/2000/svg" xmlns:xlink="http://www.w3.org/1999/xlink" x="0px" y="0px" width="16px" height="16px" viewBox="0 0 500 500" xml:space="preserve">
	<path d="M464.286 166.294q0-22.601-5.999-39.899t-15.346-27.483-22.74-16.602-26.228-8.649-27.344-2.232-31.25 7.115-30.832 17.857-24.135 20.089-16.741 17.16q-5.022 6.138-13.672 6.138t-13.672-6.138q-6.696-7.813-16.741-17.16t-24.135-20.089-30.832-17.857-31.25-7.115-27.344 2.232-26.228 8.649-22.74 16.602-15.346 27.483-5.999 39.899q0 46.875 52.176 99.051l162.109 156.25 161.831-155.971q52.456-52.456 52.456-99.331zM500 166.294q0 61.663-63.895 125.558l-173.828 167.411q-5.022 5.022-12.277 5.022t-12.277-5.022l-174.107-167.969q-2.79-2.232-7.673-7.254t-15.485-18.276-18.973-27.204-14.927-33.761-6.557-38.504q0-61.384 35.435-95.982t97.935-34.598q17.299 0 35.296 5.999t33.482 16.183 26.646 19.113 21.206 18.973q10.044-10.044 21.206-18.973t26.646-19.113 33.482-16.183 35.296-5.999q62.5 0 97.935 34.598t35.435 95.982z" fill="#ffffff" />
</svg>
