<?xml version="1.0" encoding="utf-8"?>
<!DOCTYPE svg PUBLIC "-//W3C//DTD SVG 1.1 Tiny//EN" "http://www.w3.org/Graphics/SVG/1.1/DTD/svg11-tiny.dtd">
<svg version="1.1" baseProfile="tiny" id="Layer_1" xmlns="http://www.w3.org/2000/svg" xmlns:xlink="http://www.w3.org/1999/xlink" x="0px" y="0px" width="16px" height="16px" viewBox="0 0 500 500" xml:space="preserve">
	<path d="M392.857 276.786v133.929q0 7.254-5.301 12.556t-12.556 5.301h-107.143v-107.143h-71.429v107.143h-107.143q-7.254 0-12.556-5.301t-5.301-12.556v-133.929q0-0.279 0.14-0.837t0.14-0.837l160.435-132.254 160.435 132.254q0.279 0.558 0.279 1.674zM455.078 257.534l-17.299 20.647q-2.232 2.511-5.859 3.069h-0.837q-3.627 0-5.859-1.953l-193.081-160.993-193.081 160.993q-3.348 2.232-6.696 1.953-3.627-0.558-5.859-3.069l-17.299-20.647q-2.232-2.79-1.953-6.557t3.069-5.999l200.614-167.132q8.929-7.254 21.206-7.254t21.206 7.254l68.081 56.919v-54.409q0-3.906 2.511-6.417t6.417-2.511h53.571q3.906 0 6.417 2.511t2.511 6.417v113.839l61.105 50.781q2.79 2.232 3.069 5.999t-1.953 6.557z" fill="#ffffff" />
</svg>
