<?xml version="1.0" encoding="utf-8"?>
<!DOCTYPE svg PUBLIC "-//W3C//DTD SVG 1.1 Tiny//EN" "http://www.w3.org/Graphics/SVG/1.1/DTD/svg11-tiny.dtd">
<svg version="1.1" baseProfile="tiny" id="Layer_1" xmlns="http://www.w3.org/2000/svg" xmlns:xlink="http://www.w3.org/1999/xlink" x="0px" y="0px" width="16px" height="16px" viewBox="0 0 500 500" xml:space="preserve">
	<path d="M107.143 366.071v17.857q0 3.627-2.651 6.278t-6.278 2.651h-17.857q-3.627 0-6.278-2.651t-2.651-6.278v-17.857q0-3.627 2.651-6.278t6.278-2.651h17.857q3.627 0 6.278 2.651t2.651 6.278zM107.143 294.643v17.857q0 3.627-2.651 6.278t-6.278 2.651h-17.857q-3.627 0-6.278-2.651t-2.651-6.278v-17.857q0-3.627 2.651-6.278t6.278-2.651h17.857q3.627 0 6.278 2.651t2.651 6.278zM178.571 294.643v17.857q0 3.627-2.651 6.278t-6.278 2.651h-17.857q-3.627 0-6.278-2.651t-2.651-6.278v-17.857q0-3.627 2.651-6.278t6.278-2.651h17.857q3.627 0 6.278 2.651t2.651 6.278zM107.143 223.214v17.857q0 3.627-2.651 6.278t-6.278 2.651h-17.857q-3.627 0-6.278-2.651t-2.651-6.278v-17.857q0-3.627 2.651-6.278t6.278-2.651h17.857q3.627 0 6.278 2.651t2.651 6.278zM321.429 366.071v17.857q0 3.627-2.651 6.278t-6.278 2.651h-17.857q-3.627 0-6.278-2.651t-2.651-6.278v-17.857q0-3.627 2.651-6.278t6.278-2.651h17.857q3.627 0 6.278 2.651t2.651 6.278zM250 294.643v17.857q0 3.627-2.651 6.278t-6.278 2.651h-17.857q-3.627 0-6.278-2.651t-2.651-6.278v-17.857q0-3.627 2.651-6.278t6.278-2.651h17.857q3.627 0 6.278 2.651t2.651 6.278zM178.571 223.214v17.857q0 3.627-2.651 6.278t-6.278 2.651h-17.857q-3.627 0-6.278-2.651t-2.651-6.278v-17.857q0-3.627 2.651-6.278t6.278-2.651h17.857q3.627 0 6.278 2.651t2.651 6.278zM321.429 294.643v17.857q0 3.627-2.651 6.278t-6.278 2.651h-17.857q-3.627 0-6.278-2.651t-2.651-6.278v-17.857q0-3.627 2.651-6.278t6.278-2.651h17.857q3.627 0 6.278 2.651t2.651 6.278zM250 223.214v17.857q0 3.627-2.651 6.278t-6.278 2.651h-17.857q-3.627 0-6.278-2.651t-2.651-6.278v-17.857q0-3.627 2.651-6.278t6.278-2.651h17.857q3.627 0 6.278 2.651t2.651 6.278zM321.429 223.214v17.857q0 3.627-2.651 6.278t-6.278 2.651h-17.857q-3.627 0-6.278-2.651t-2.651-6.278v-17.857q0-3.627 2.651-6.278t6.278-2.651h17.857q3.627 0 6.278 2.651t2.651 6.278zM250 464.286h107.143v-321.429h-71.429v8.929q0 11.161-7.813 18.973t-18.973 7.813h-125q-11.161 0-18.973-7.813t-7.813-18.973v-8.929h-71.429v321.429h107.143v-62.5q0-3.627 2.651-6.278t6.278-2.651h89.286q3.627 0 6.278 2.651t2.651 6.278v62.5zM250 133.929v-89.286q0-3.627-2.651-6.278t-6.278-2.651h-17.857q-3.627 0-6.278 2.651t-2.651 6.278v26.786h-35.714v-26.786q0-3.627-2.651-6.278t-6.278-2.651h-17.857q-3.627 0-6.278 2.651t-2.651 6.278v89.286q0 3.627 2.651 6.278t6.278 2.651h17.857q3.627 0 6.278-2.651t2.651-6.278v-26.786h35.714v26.786q0 3.627 2.651 6.278t6.278 2.651h17.857q3.627 0 6.278-2.651t2.651-6.278zM392.857 125v357.143q0 7.254-5.301 12.556t-12.556 5.301h-357.143q-7.254 0-12.556-5.301t-5.301-12.556v-357.143q0-7.254 5.301-12.556t12.556-5.301h89.286v-80.357q0-11.161 7.813-18.973t18.973-7.813h125q11.161 0 18.973 7.813t7.813 18.973v80.357h89.286q7.254 0 12.556 5.301t5.301 12.556z" fill="#ffffff" />
</svg>
