<?xml version="1.0" encoding="utf-8"?>
<!-- Generator: Adobe Illustrator 16.0.0, SVG Export Plug-In . SVG Version: 6.00 Build 0)  -->
<!DOCTYPE svg PUBLIC "-//W3C//DTD SVG 1.1//EN" "http://www.w3.org/Graphics/SVG/1.1/DTD/svg11.dtd">
<svg version="1.1" id="Layer_1" xmlns="http://www.w3.org/2000/svg" xmlns:xlink="http://www.w3.org/1999/xlink" x="0px" y="0px"
	 width="16px" height="16px" viewBox="0 0 16 16" enable-background="new 0 0 16 16" xml:space="preserve">
<g enable-background="new    ">
	<path fill="#FFFFFF" d="M9.551,2.973c0.695,1.218,1.045,2.948,1.045,5.19c0,2.243-0.35,3.971-1.045,5.183
		c-0.697,1.212-1.911,1.817-3.641,1.817s-2.944-0.605-3.641-1.817s-1.045-2.939-1.045-5.183c0-2.242,0.348-3.973,1.045-5.19
		c0.697-1.219,1.91-1.828,3.641-1.828S8.854,1.754,9.551,2.973z M4.335,11.748c0.256,0.828,0.781,1.241,1.574,1.241
		s1.313-0.413,1.56-1.241c0.247-0.828,0.37-2.022,0.37-3.585c0-1.636-0.123-2.849-0.37-3.636C7.223,3.74,6.703,3.347,5.91,3.347
		S4.591,3.74,4.335,4.527c-0.256,0.787-0.384,2-0.384,3.636C3.951,9.726,4.079,10.92,4.335,11.748z"/>
</g>
</svg>
