<?xml version="1.0" encoding="utf-8"?>
<!-- Generator: Adobe Illustrator 16.0.0, SVG Export Plug-In . SVG Version: 6.00 Build 0)  -->
<!DOCTYPE svg PUBLIC "-//W3C//DTD SVG 1.1//EN" "http://www.w3.org/Graphics/SVG/1.1/DTD/svg11.dtd">
<svg version="1.1" id="Layer_1" xmlns="http://www.w3.org/2000/svg" xmlns:xlink="http://www.w3.org/1999/xlink" x="0px" y="0px"
	 width="16px" height="16px" viewBox="0 0 16 16" enable-background="new 0 0 16 16" xml:space="preserve">
<g enable-background="new    ">
	<path fill="#FFFFFF" d="M3.792,11.19c0.105,0.581,0.308,1.029,0.607,1.345s0.735,0.473,1.309,0.473
		c0.661,0,1.164-0.232,1.509-0.697c0.346-0.466,0.519-1.052,0.519-1.758c0-0.693-0.162-1.278-0.486-1.757
		C6.927,8.318,6.422,8.079,5.736,8.079c-0.324,0-0.604,0.041-0.841,0.122C4.478,8.351,4.163,8.629,3.951,9.035L1.557,8.923
		L2.51,1.417h7.476v2.268H4.437L3.951,6.655c0.412-0.269,0.733-0.447,0.964-0.534c0.387-0.144,0.858-0.216,1.413-0.216
		c1.123,0,2.102,0.378,2.938,1.134s1.254,1.855,1.254,3.299c0,1.256-0.402,2.377-1.207,3.364c-0.805,0.986-2.01,1.48-3.614,1.48
		c-1.292,0-2.353-0.347-3.183-1.04c-0.83-0.694-1.292-1.678-1.386-2.952H3.792z"/>
</g>
</svg>
