<?xml version="1.0" encoding="utf-8"?>
<!-- Generator: Adobe Illustrator 16.0.0, SVG Export Plug-In . SVG Version: 6.00 Build 0)  -->
<!DOCTYPE svg PUBLIC "-//W3C//DTD SVG 1.1//EN" "http://www.w3.org/Graphics/SVG/1.1/DTD/svg11.dtd">
<svg version="1.1" id="Layer_1" xmlns="http://www.w3.org/2000/svg" xmlns:xlink="http://www.w3.org/1999/xlink" x="0px" y="0px"
	 width="16px" height="16px" viewBox="0 0 16 16" enable-background="new 0 0 16 16" xml:space="preserve">
<g enable-background="new    ">
	<path fill="#FFFFFF" d="M2.457,2.48c0.84-0.903,1.932-1.354,3.275-1.354c2.068,0,3.485,0.915,4.255,2.746
		c0.438,1.037,0.656,2.401,0.656,4.095c0,1.644-0.21,3.015-0.629,4.113c-0.799,2.094-2.268,3.14-4.404,3.14
		c-1.019,0-1.934-0.302-2.746-0.904c-0.812-0.603-1.278-1.482-1.396-2.638h2.662c0.062,0.399,0.231,0.725,0.506,0.975
		s0.64,0.375,1.096,0.375c0.881,0,1.5-0.487,1.855-1.462c0.194-0.537,0.315-1.321,0.366-2.353C7.709,9.52,7.45,9.754,7.175,9.916
		c-0.5,0.3-1.115,0.449-1.846,0.449c-1.081,0-2.04-0.373-2.877-1.119C1.615,8.499,1.196,7.423,1.196,6.018
		C1.196,4.562,1.616,3.383,2.457,2.48z M6.95,7.873c0.606-0.388,0.909-1.059,0.909-2.015c0-0.769-0.18-1.378-0.539-1.827
		C6.96,3.581,6.469,3.356,5.844,3.356c-0.457,0-0.847,0.128-1.171,0.384c-0.513,0.4-0.769,1.078-0.769,2.034
		c0,0.806,0.164,1.41,0.492,1.812C4.724,7.99,5.229,8.191,5.91,8.191C6.278,8.191,6.625,8.086,6.95,7.873z"/>
</g>
</svg>
