<?xml version="1.0" encoding="utf-8"?>
<!DOCTYPE svg PUBLIC "-//W3C//DTD SVG 1.1 Tiny//EN" "http://www.w3.org/Graphics/SVG/1.1/DTD/svg11-tiny.dtd">
<svg version="1.1" baseProfile="tiny" id="Layer_1" xmlns="http://www.w3.org/2000/svg" xmlns:xlink="http://www.w3.org/1999/xlink" x="0px" y="0px" width="16px" height="16px" viewBox="0 0 500 500" xml:space="preserve">
	<path d="M285.435 267.857h88.169q-0.279-0.837-0.698-2.232t-0.698-2.232l-59.152-138.393h-197.544l-59.152 138.393q-0.279 0.558-0.698 2.232t-0.698 2.232h88.169l26.507 53.571h89.286zM428.571 276.228v134.487q0 7.254-5.301 12.556t-12.556 5.301h-392.857q-7.254 0-12.556-5.301t-5.301-12.556v-134.487q0-17.299 6.976-34.319l66.406-154.018q2.79-6.976 10.184-11.719t14.648-4.743h232.143q7.254 0 14.648 4.743t10.184 11.719l66.406 154.018q6.976 17.020 6.976 34.319z" fill="#ffffff" />
</svg>
