<?xml version="1.0" encoding="utf-8"?>
<!DOCTYPE svg PUBLIC "-//W3C//DTD SVG 1.1 Tiny//EN" "http://www.w3.org/Graphics/SVG/1.1/DTD/svg11-tiny.dtd">
<svg version="1.1" baseProfile="tiny" id="Layer_1" xmlns="http://www.w3.org/2000/svg" xmlns:xlink="http://www.w3.org/1999/xlink" x="0px" y="0px" width="16px" height="16px" viewBox="0 0 500 500" xml:space="preserve">
	<path d="M285.714 383.929v-44.643q0-3.906-2.511-6.417t-6.417-2.511h-26.786v-142.857q0-3.906-2.511-6.417t-6.417-2.511h-89.286q-3.906 0-6.417 2.511t-2.511 6.417v44.643q0 3.906 2.511 6.417t6.417 2.511h26.786v89.286h-26.786q-3.906 0-6.417 2.511t-2.511 6.417v44.643q0 3.906 2.511 6.417t6.417 2.511h125q3.906 0 6.417-2.511t2.511-6.417zM250 133.929v-44.643q0-3.906-2.511-6.417t-6.417-2.511h-53.571q-3.906 0-6.417 2.511t-2.511 6.417v44.643q0 3.906 2.511 6.417t6.417 2.511h53.571q3.906 0 6.417-2.511t2.511-6.417zM428.571 250q0 58.315-28.739 107.562t-77.985 77.985-107.562 28.739-107.562-28.739-77.985-77.985-28.739-107.562 28.739-107.562 77.985-77.985 107.562-28.739 107.562 28.739 77.985 77.985 28.739 107.562z" fill="#ffffff" />
</svg>
