<?xml version="1.0" encoding="utf-8"?>
<!DOCTYPE svg PUBLIC "-//W3C//DTD SVG 1.1 Tiny//EN" "http://www.w3.org/Graphics/SVG/1.1/DTD/svg11-tiny.dtd">
<svg version="1.1" baseProfile="tiny" id="Layer_1" xmlns="http://www.w3.org/2000/svg" xmlns:xlink="http://www.w3.org/1999/xlink" x="0px" y="0px" width="16px" height="16px" viewBox="0 0 500 500" xml:space="preserve">
	<path d="M250.558 131.138v28.46q0 3.906-2.511 6.417t-6.417 2.511h-46.875q-6.417 40.179-35.993 65.29t-77.009 30.692q46.596 49.665 128.069 149.554 3.906 4.464 1.116 9.487-2.232 5.022-8.091 5.022h-54.409q-4.464 0-6.976-3.348-85.379-102.399-138.951-159.319-2.511-2.511-2.511-6.138v-35.435q0-3.627 2.651-6.278t6.278-2.651h31.25q36.831 0 59.292-11.998t28.599-34.877h-119.141q-3.906 0-6.417-2.511t-2.511-6.417v-28.46q0-3.906 2.511-6.417t6.417-2.511h115.234q-15.904-31.529-74.777-31.529h-40.458q-3.627 0-6.278-2.651t-2.651-6.278v-37.109q0-3.906 2.511-6.417t6.417-2.511h232.143q3.906 0 6.417 2.511t2.511 6.417v28.46q0 3.906-2.511 6.417t-6.417 2.511h-65.011q13.114 17.020 17.857 40.179h47.712q3.906 0 6.417 2.511t2.511 6.417z" fill="#ffffff" />
</svg>
