<?xml version="1.0" encoding="utf-8"?>
<!DOCTYPE svg PUBLIC "-//W3C//DTD SVG 1.1 Tiny//EN" "http://www.w3.org/Graphics/SVG/1.1/DTD/svg11-tiny.dtd">
<svg version="1.1" baseProfile="tiny" id="Layer_1" xmlns="http://www.w3.org/2000/svg" xmlns:xlink="http://www.w3.org/1999/xlink" x="0px" y="0px" width="16px" height="16px" viewBox="0 0 500 500" xml:space="preserve">
	<path d="M380.022 397.879v-180.804h-37.667q5.581 17.578 5.581 36.551 0 35.156-17.857 64.872t-48.549 47.015-66.964 17.299q-54.966 0-94.029-37.807t-39.063-91.378q0-18.973 5.581-36.551h-39.341v180.804q0 7.254 4.883 12.137t12.137 4.883h298.27q6.976 0 11.998-4.883t5.022-12.137zM300.781 249.163q0-34.598-25.251-59.012t-60.965-24.414q-35.435 0-60.687 24.414t-25.251 59.012 25.251 59.012 60.687 24.414q35.714 0 60.965-24.414t25.251-59.012zM380.022 148.716v-46.038q0-7.813-5.581-13.532t-13.672-5.72h-48.549q-8.091 0-13.672 5.72t-5.581 13.532v46.038q0 8.091 5.581 13.672t13.672 5.581h48.549q8.091 0 13.672-5.581t5.581-13.672zM428.571 90.681v318.638q0 22.601-16.183 38.784t-38.784 16.183h-318.638q-22.601 0-38.784-16.183t-16.183-38.784v-318.638q0-22.601 16.183-38.784t38.784-16.183h318.638q22.601 0 38.784 16.183t16.183 38.784z" fill="#ffffff" />
</svg>
