<?xml version="1.0" encoding="utf-8"?>
<!DOCTYPE svg PUBLIC "-//W3C//DTD SVG 1.1 Tiny//EN" "http://www.w3.org/Graphics/SVG/1.1/DTD/svg11-tiny.dtd">
<svg version="1.1" baseProfile="tiny" id="Layer_1" xmlns="http://www.w3.org/2000/svg" xmlns:xlink="http://www.w3.org/1999/xlink" x="0px" y="0px" width="16px" height="16px" viewBox="0 0 500 500" xml:space="preserve">
	<path d="M0 463.728l4.743-23.716q1.116-0.279 21.484-5.581 21.206-5.301 32.366-10.882 8.091-10.324 11.44-28.181l7.534-38.784 15.625-74.777 3.348-17.857q2.232-12.277 4.743-23.577t4.464-18.694 3.488-12.974 2.511-8.51 0.977-3.208l8.091-43.806 4.464-17.578 6.138-37.667 2.232-13.951v-10.603q-11.44-6.138-40.179-7.813-7.813-0.558-10.603-1.116l5.301-28.739 88.449 3.906q10.882 0.558 20.368 0.558 18.415 0 59.71-2.511 9.208-0.558 18.973-1.255t10.044-0.698q-0.558 5.301-1.674 10.603-1.953 8.091-3.627 14.23-15.346 5.301-30.413 8.649-17.857 4.464-28.181 8.649-3.348 8.649-6.696 24.554-2.511 12.277-3.627 22.879-12.277 55.524-18.415 85.379l-17.020 86.774-10.603 44.085-11.998 65.569-3.348 12.556q-0.558 1.953 0.279 7.534 17.857 4.185 33.203 5.859 10.044 1.395 18.415 2.79-0.279 8.091-1.953 16.183-1.953 8.649-2.511 11.44-5.022 0-6.417 0.279-6.696 0.558-11.719 0.558-2.511 0-7.813-0.837-5.301-1.116-40.458-4.743l-55.246-0.558q-11.44-0.279-48.549 3.069-20.647 1.953-27.344 2.511z" fill="#ffffff" />
</svg>
