<?xml version="1.0" encoding="utf-8"?>
<!DOCTYPE svg PUBLIC "-//W3C//DTD SVG 1.1 Tiny//EN" "http://www.w3.org/Graphics/SVG/1.1/DTD/svg11-tiny.dtd">
<svg version="1.1" baseProfile="tiny" id="Layer_1" xmlns="http://www.w3.org/2000/svg" xmlns:xlink="http://www.w3.org/1999/xlink" x="0px" y="0px" width="16px" height="16px" viewBox="0 0 500 500" xml:space="preserve">
	<path d="M168.248 428.571h-47.991q-3.627 0-6.278-2.511t-2.651-6.417v-92.076h-80.357q-3.627 0-6.278-2.511t-2.651-6.417v-28.739q0-3.627 2.651-6.278t6.278-2.651h80.357v-23.716h-80.357q-3.627 0-6.278-2.511t-2.651-6.417v-29.018q0-3.627 2.651-6.278t6.278-2.651h59.71l-89.565-161.272q-2.232-4.464 0-8.929 2.79-4.464 7.813-4.464h54.129q5.301 0 8.091 5.022l59.989 118.583q5.301 10.603 15.625 34.877 2.79-6.696 8.51-18.973t7.673-17.020l53.292-117.187q2.232-5.301 8.091-5.301h53.292q4.743 0 7.534 4.464 2.511 3.906 0.279 8.649l-87.333 161.551h59.989q3.627 0 6.278 2.651t2.651 6.278v29.018q0 3.906-2.651 6.417t-6.278 2.511h-80.915v23.716h80.915q3.627 0 6.278 2.651t2.651 6.278v28.739q0 3.906-2.651 6.417t-6.278 2.511h-80.915v92.076q0 3.627-2.651 6.278t-6.278 2.651z" fill="#ffffff" />
</svg>
