<?xml version="1.0" encoding="utf-8"?>
<!DOCTYPE svg PUBLIC "-//W3C//DTD SVG 1.1 Tiny//EN" "http://www.w3.org/Graphics/SVG/1.1/DTD/svg11-tiny.dtd">
<svg version="1.1" baseProfile="tiny" id="Layer_1" xmlns="http://www.w3.org/2000/svg" xmlns:xlink="http://www.w3.org/1999/xlink" x="0px" y="0px" width="16px" height="16px" viewBox="0 0 500 500" xml:space="preserve">
	<path d="M232.143 142.857q0-22.321-15.625-37.946t-37.946-15.625-37.946 15.625-15.625 37.946q0 11.719 5.301 23.159-11.44-5.301-23.159-5.301-22.321 0-37.946 15.625t-15.625 37.946 15.625 37.946 37.946 15.625 37.946-15.625 15.625-37.946q0-11.719-5.301-23.159 11.44 5.301 23.159 5.301 22.321 0 37.946-15.625t15.625-37.946zM469.587 339.286q0 4.743-13.672 18.415t-18.415 13.672q-2.511 0-7.952-4.464t-10.184-9.208-10.742-11.161-6.836-7.254l-26.786 26.786 61.384 61.384q7.813 7.813 7.813 18.973 0 11.719-10.882 22.601t-22.601 10.882q-11.161 0-18.973-7.813l-187.221-187.221q-49.107 36.551-101.841 36.551-45.48 0-74.079-28.599t-28.599-74.079q0-44.643 26.507-87.333t69.196-69.196 87.333-26.507q45.48 0 74.079 28.599t28.599 74.079q0 52.734-36.551 101.841l99.051 99.051 26.786-26.786q-0.837-0.837-7.254-6.836t-11.161-10.742-9.208-10.184-4.464-7.952q0-4.743 13.672-18.415t18.415-13.672q3.627 0 6.417 2.79 1.674 1.674 12.835 12.417t22.879 22.182 24.135 23.996 20.368 21.763 7.952 11.44z" fill="#ffffff" />
</svg>
