<?xml version="1.0" encoding="utf-8"?>
<!DOCTYPE svg PUBLIC "-//W3C//DTD SVG 1.1 Tiny//EN" "http://www.w3.org/Graphics/SVG/1.1/DTD/svg11-tiny.dtd">
<svg version="1.1" baseProfile="tiny" id="Layer_1" xmlns="http://www.w3.org/2000/svg" xmlns:xlink="http://www.w3.org/1999/xlink" x="0px" y="0px" width="16px" height="16px" viewBox="0 0 500 500" xml:space="preserve">
	<path d="M107.143 325.893v26.786q0 4.464-4.464 4.464h-26.786q-4.464 0-4.464-4.464v-26.786q0-4.464 4.464-4.464h26.786q4.464 0 4.464 4.464zM142.857 254.464v26.786q0 4.464-4.464 4.464h-62.5q-4.464 0-4.464-4.464v-26.786q0-4.464 4.464-4.464h62.5q4.464 0 4.464 4.464zM107.143 183.036v26.786q0 4.464-4.464 4.464h-26.786q-4.464 0-4.464-4.464v-26.786q0-4.464 4.464-4.464h26.786q4.464 0 4.464 4.464zM392.857 325.893v26.786q0 4.464-4.464 4.464h-241.071q-4.464 0-4.464-4.464v-26.786q0-4.464 4.464-4.464h241.071q4.464 0 4.464 4.464zM214.286 254.464v26.786q0 4.464-4.464 4.464h-26.786q-4.464 0-4.464-4.464v-26.786q0-4.464 4.464-4.464h26.786q4.464 0 4.464 4.464zM178.571 183.036v26.786q0 4.464-4.464 4.464h-26.786q-4.464 0-4.464-4.464v-26.786q0-4.464 4.464-4.464h26.786q4.464 0 4.464 4.464zM285.714 254.464v26.786q0 4.464-4.464 4.464h-26.786q-4.464 0-4.464-4.464v-26.786q0-4.464 4.464-4.464h26.786q4.464 0 4.464 4.464zM250 183.036v26.786q0 4.464-4.464 4.464h-26.786q-4.464 0-4.464-4.464v-26.786q0-4.464 4.464-4.464h26.786q4.464 0 4.464 4.464zM357.143 254.464v26.786q0 4.464-4.464 4.464h-26.786q-4.464 0-4.464-4.464v-26.786q0-4.464 4.464-4.464h26.786q4.464 0 4.464 4.464zM464.286 325.893v26.786q0 4.464-4.464 4.464h-26.786q-4.464 0-4.464-4.464v-26.786q0-4.464 4.464-4.464h26.786q4.464 0 4.464 4.464zM321.429 183.036v26.786q0 4.464-4.464 4.464h-26.786q-4.464 0-4.464-4.464v-26.786q0-4.464 4.464-4.464h26.786q4.464 0 4.464 4.464zM392.857 183.036v26.786q0 4.464-4.464 4.464h-26.786q-4.464 0-4.464-4.464v-26.786q0-4.464 4.464-4.464h26.786q4.464 0 4.464 4.464zM464.286 183.036v98.214q0 4.464-4.464 4.464h-62.5q-4.464 0-4.464-4.464v-26.786q0-4.464 4.464-4.464h31.25v-66.964q0-4.464 4.464-4.464h26.786q4.464 0 4.464 4.464zM500 392.857v-250h-464.286v250h464.286zM535.714 142.857v250q0 14.788-10.463 25.251t-25.251 10.463h-464.286q-14.788 0-25.251-10.463t-10.463-25.251v-250q0-14.788 10.463-25.251t25.251-10.463h464.286q14.788 0 25.251 10.463t10.463 25.251z" fill="#ffffff" />
</svg>
