<?xml version="1.0" encoding="utf-8"?>
<!DOCTYPE svg PUBLIC "-//W3C//DTD SVG 1.1 Tiny//EN" "http://www.w3.org/Graphics/SVG/1.1/DTD/svg11-tiny.dtd">
<svg version="1.1" baseProfile="tiny" id="Layer_1" xmlns="http://www.w3.org/2000/svg" xmlns:xlink="http://www.w3.org/1999/xlink" x="0px" y="0px" width="16px" height="16px" viewBox="0 0 500 500" xml:space="preserve">
	<path d="M143.415 333.426l22.601-83.426h-44.364l20.926 83.706q0.279 0.279 0.279 0.837t0.279 0.837q0-0.279 0.14-0.977t0.14-0.977zM175.781 214.286l9.766-35.714h-81.473l8.929 35.714h62.779zM229.353 214.286h38.784l-9.766-35.714h-19.531zM354.632 333.706l21.763-83.706h-45.201l22.601 83.426q0 0.279 0.14 0.977t0.418 0.977q0-0.279 0.14-0.837t0.14-0.837zM385.603 214.286l9.208-35.714h-82.868l9.487 35.714h64.174zM500 223.214v17.857q0 3.906-2.511 6.417t-6.417 2.511h-59.431l-45.759 171.875q-1.953 6.696-8.649 6.696h-44.364q-6.696 0-8.649-6.696l-46.317-171.875h-58.315l-46.596 171.875q-1.953 6.696-8.649 6.696h-44.364q-3.069 0-5.441-1.953t-2.93-4.743l-44.643-171.875h-58.036q-3.906 0-6.417-2.511t-2.511-6.417v-17.857q0-3.906 2.511-6.417t6.417-2.511h48.828l-9.208-35.714h-39.621q-3.906 0-6.417-2.511t-2.511-6.417v-17.857q0-3.906 2.511-6.417t6.417-2.511h30.413l-24.833-95.982q-1.395-4.185 1.395-7.813 2.79-3.348 7.254-3.348h38.226q7.254 0 8.649 6.696l25.112 100.446h100.167l27.065-100.446q1.953-6.696 8.649-6.696h35.156q6.696 0 8.649 6.696l27.344 100.446h101.841l25.949-100.446q1.395-6.696 8.649-6.696h38.226q4.464 0 7.254 3.348 2.79 3.627 1.395 7.813l-25.391 95.982h30.971q3.906 0 6.417 2.511t2.511 6.417v17.857q0 3.906-2.511 6.417t-6.417 2.511h-40.458l-9.487 35.714h49.944q3.906 0 6.417 2.511t2.511 6.417z" fill="#ffffff" />
</svg>
