<?xml version="1.0" encoding="utf-8"?>
<!-- Generated by IcoMoon.io -->
<!DOCTYPE svg PUBLIC "-//W3C//DTD SVG 1.1//EN" "http://www.w3.org/Graphics/SVG/1.1/DTD/svg11.dtd">
<svg version="1.1" xmlns="http://www.w3.org/2000/svg" xmlns:xlink="http://www.w3.org/1999/xlink" width="536" height="500" viewBox="0 0 536 500">
	<path d="M116.071 357.143q-18.415 0-31.529-13.114t-13.114-31.529v-196.429q0-18.415 13.114-31.529t31.529-13.114h303.571q18.415 0 31.529 13.114t13.114 31.529v196.429q0 18.415-13.114 31.529t-31.529 13.114h-303.571zM107.143 116.071v196.429q0 3.627 2.651 6.278t6.278 2.651h303.571q3.627 0 6.278-2.651t2.651-6.278v-196.429q0-3.627-2.651-6.278t-6.278-2.651h-303.571q-3.627 0-6.278 2.651t-2.651 6.278zM491.071 375h44.643v26.786q0 11.161-13.114 18.973t-31.529 7.813h-446.429q-18.415 0-31.529-7.813t-13.114-18.973v-26.786h491.071zM290.179 401.786q4.464 0 4.464-4.464t-4.464-4.464h-44.643q-4.464 0-4.464 4.464t4.464 4.464h44.643z" fill="#000000" />
</svg>
