<?xml version="1.0" encoding="utf-8"?>
<!DOCTYPE svg PUBLIC "-//W3C//DTD SVG 1.1 Tiny//EN" "http://www.w3.org/Graphics/SVG/1.1/DTD/svg11-tiny.dtd">
<svg version="1.1" baseProfile="tiny" id="Layer_1" xmlns="http://www.w3.org/2000/svg" xmlns:xlink="http://www.w3.org/1999/xlink" x="0px" y="0px" width="16px" height="16px" viewBox="0 0 500 500" xml:space="preserve">
	<path d="M357.143 196.429q0-7.254-5.301-12.556t-12.556-5.301q-47.991 0-88.728 13.812t-72.405 37.388-65.708 61.245q-5.301 5.859-5.301 12.556 0 7.254 5.301 12.556t12.556 5.301q6.696 0 12.556-5.301 7.534-6.696 20.647-19.81t18.694-18.415q38.226-34.598 74.917-49.107t87.472-14.509q7.254 0 12.556-5.301t5.301-12.556zM500 141.183q0 26.507-5.581 53.851-12.835 62.5-51.479 106.864t-99.749 74.777q-59.71 30.134-122.21 30.134-41.294 0-79.799-13.114-4.185-1.395-24.554-11.719t-26.786-10.324q-4.464 0-11.021 8.929t-12.556 19.531-14.648 19.531-16.741 8.929q-8.371 0-14.23-3.069t-8.649-6.696-7.534-11.719q-0.558-1.116-1.674-3.069t-1.535-2.79-0.837-2.651-0.418-3.767q0-9.766 8.649-20.508t18.973-18.276 18.973-15.625 8.649-13.393q0-1.116-3.906-10.603t-4.464-12.277q-2.511-14.23-2.511-29.018 0-32.087 12.137-61.384t33.203-51.479 47.573-38.784 56.919-26.646q15.346-5.022 40.458-7.115t50.083-2.511 49.805-1.674 45.62-6.696 31.668-15.765l8.231-8.231t8.231-7.813 7.534-5.581 10.184-4.464 12.137-1.255q10.882 0 19.671 12.835t13.253 31.25 6.696 34.598 2.232 26.786z" fill="#ffffff" />
</svg>
