<?xml version="1.0" encoding="utf-8"?>
<!DOCTYPE svg PUBLIC "-//W3C//DTD SVG 1.1 Tiny//EN" "http://www.w3.org/Graphics/SVG/1.1/DTD/svg11-tiny.dtd">
<svg version="1.1" baseProfile="tiny" id="Layer_1" xmlns="http://www.w3.org/2000/svg" xmlns:xlink="http://www.w3.org/1999/xlink" x="0px" y="0px" width="16px" height="16px" viewBox="0 0 500 500" xml:space="preserve">
	<path d="M392.578 230.469q0-12.277-1.953-31.668t-5.022-26.925q-3.348-8.371-4.743-12.277t-2.511-10.184-1.116-13.532q0-6.417 1.395-19.113t1.395-18.833q0-10.324-2.79-15.346-1.116-0.279-3.627-0.279-5.301 0-16.183 1.255t-16.462 1.255q-16.741 0-49.107-6.696t-48.828-6.696q-11.998 0-26.367 3.208t-23.716 6.557-24.972 9.487q-38.226 15.067-56.362 28.739-26.786 20.368-44.503 52.874t-24.554 65.848-6.836 69.336q0 11.161 3.488 33.482t3.488 33.761q0 6.417-3.069 18.555t-3.069 18.276 3.348 10.184 9.487 4.046q6.696 0 20.229-3.069t20.508-3.069q15.904 0 47.293 4.325t47.293 4.325q50.502 0 79.241-10.044 35.993-12.556 65.708-42.55t46.317-68.499 16.602-76.73zM428.292 229.911q0 46.038-19.531 91.378t-54.688 80.357-78.404 50.363q-34.598 12.277-90.96 12.277-15.904 0-47.433-4.046t-47.154-4.046q-6.696 0-20.229 4.046t-20.508 4.046q-20.368 0-34.458-15.485t-14.090-35.854q0-6.696 3.069-18.973t3.069-18.694q0-11.161-3.488-33.622t-3.488-33.901q0-30.971 5.022-60.687t15.207-58.454 28.042-54.129 41.853-43.527q21.763-16.462 64.732-33.482 54.129-21.763 88.169-21.763 16.741 0 48.968 6.696t48.41 6.696q5.301 0 15.904-1.395t16.183-1.395q22.601 0 32.924 14.090t10.324 37.528q0 6.417-1.395 18.973t-1.395 18.973q0 2.79 0.279 5.162t0.837 4.743 1.116 3.767 1.813 4.464 1.813 4.743q4.464 11.161 6.976 33.063t2.511 38.086z" fill="#ffffff" />
</svg>
