<?xml version="1.0" encoding="utf-8"?>
<!DOCTYPE svg PUBLIC "-//W3C//DTD SVG 1.1 Tiny//EN" "http://www.w3.org/Graphics/SVG/1.1/DTD/svg11-tiny.dtd">
<svg version="1.1" baseProfile="tiny" id="Layer_1" xmlns="http://www.w3.org/2000/svg" xmlns:xlink="http://www.w3.org/1999/xlink" x="0px" y="0px" width="16px" height="16px" viewBox="0 0 500 500" xml:space="preserve">
	<path d="M205.357 160.714q0 3.627-2.651 6.278t-6.278 2.651-6.278-2.651-2.651-6.278q0-12.835-15.067-19.81t-29.576-6.976q-3.627 0-6.278-2.651t-2.651-6.278 2.651-6.278 6.278-2.651q13.951 0 27.762 4.464t24.274 15.067 10.463 25.112zM250 160.714q0-20.089-9.626-37.388t-25.112-28.32-34.319-17.299-38.086-6.278-38.086 6.278-34.319 17.299-25.112 28.32-9.626 37.388q0 28.181 18.973 50.223 2.79 3.069 8.51 9.208t8.51 9.208q35.714 42.69 39.341 83.147h63.616q3.627-40.458 39.341-83.147 2.79-3.069 8.51-9.208t8.51-9.208q18.973-22.042 18.973-50.223zM285.714 160.714q0 43.248-28.739 74.777-12.556 13.672-20.787 24.274t-16.602 26.646-9.487 29.995q13.114 7.813 13.114 22.879 0 10.324-6.976 17.857 6.976 7.534 6.976 17.857 0 14.509-12.556 22.601 3.627 6.417 3.627 13.114 0 12.835-8.789 19.81t-21.624 6.976q-5.581 12.277-16.741 19.531t-24.274 7.254-24.274-7.254-16.741-19.531q-12.835 0-21.624-6.976t-8.789-19.81q0-6.696 3.627-13.114-12.556-8.091-12.556-22.601 0-10.324 6.976-17.857-6.976-7.534-6.976-17.857 0-15.067 13.114-22.879-1.116-13.951-9.487-29.995t-16.602-26.646-20.787-24.274q-28.739-31.529-28.739-74.777 0-27.623 12.417-51.479t32.645-39.621 45.759-24.833 52.037-9.068 52.037 9.068 45.759 24.833 32.645 39.621 12.417 51.479z" fill="#ffffff" />
</svg>
