<?xml version="1.0" encoding="utf-8"?>
<!DOCTYPE svg PUBLIC "-//W3C//DTD SVG 1.1 Tiny//EN" "http://www.w3.org/Graphics/SVG/1.1/DTD/svg11-tiny.dtd">
<svg version="1.1" baseProfile="tiny" id="Layer_1" xmlns="http://www.w3.org/2000/svg" xmlns:xlink="http://www.w3.org/1999/xlink" x="0px" y="0px" width="16px" height="16px" viewBox="0 0 500 500" xml:space="preserve">
	<path d="M66.127 394.531h64.453v-193.638h-64.453v193.638zM134.766 141.183q-0.279-14.509-10.044-23.996t-25.949-9.487-26.367 9.487-10.184 23.996q0 14.23 9.905 23.856t25.809 9.626h0.279q16.462 0 26.507-9.626t10.044-23.856zM297.991 394.531h64.453v-111.049q0-42.969-20.368-65.011t-53.851-22.042q-37.946 0-58.315 32.645h0.558v-28.181h-64.453q0.837 18.415 0 193.638h64.453v-108.259q0-10.603 1.953-15.625 4.185-9.766 12.556-16.602t20.647-6.836q32.366 0 32.366 43.806v103.516zM428.571 116.071v267.857q0 33.203-23.577 56.78t-56.78 23.577h-267.857q-33.203 0-56.78-23.577t-23.577-56.78v-267.857q0-33.203 23.577-56.78t56.78-23.577h267.857q33.203 0 56.78 23.577t23.577 56.78z" fill="#ffffff" />
</svg>
