<?xml version="1.0" encoding="utf-8"?>
<!DOCTYPE svg PUBLIC "-//W3C//DTD SVG 1.1 Tiny//EN" "http://www.w3.org/Graphics/SVG/1.1/DTD/svg11-tiny.dtd">
<svg version="1.1" baseProfile="tiny" id="Layer_1" xmlns="http://www.w3.org/2000/svg" xmlns:xlink="http://www.w3.org/1999/xlink" x="0px" y="0px" width="16px" height="16px" viewBox="0 0 500 500" xml:space="preserve">
	<path d="M406.25 339.286q0-11.161-7.813-18.973l-58.036-58.036q-7.813-7.813-18.973-7.813-11.719 0-20.089 8.929 0.837 0.837 5.301 5.162t5.999 5.999 4.185 5.301 3.627 7.115 0.977 7.673q0 11.161-7.813 18.973t-18.973 7.813q-4.185 0-7.673-0.977t-7.115-3.627-5.301-4.185-5.999-5.999-5.162-5.301q-9.208 8.649-9.208 20.368 0 11.161 7.813 18.973l57.478 57.757q7.534 7.534 18.973 7.534 11.161 0 18.973-7.254l41.016-40.737q7.813-7.813 7.813-18.694zM210.101 142.578q0-11.161-7.813-18.973l-57.478-57.757q-7.813-7.813-18.973-7.813-10.882 0-18.973 7.534l-41.016 40.737q-7.813 7.813-7.813 18.694 0 11.161 7.813 18.973l58.036 58.036q7.534 7.534 18.973 7.534 11.719 0 20.089-8.649-0.837-0.837-5.301-5.162t-5.999-5.999-4.185-5.301-3.627-7.115-0.977-7.673q0-11.161 7.813-18.973t18.973-7.813q4.185 0 7.673 0.977t7.115 3.627 5.301 4.185 5.999 5.999 5.162 5.301q9.208-8.649 9.208-20.368zM459.821 339.286q0 33.482-23.716 56.641l-41.016 40.737q-23.159 23.159-56.641 23.159-33.761 0-56.919-23.716l-57.478-57.757q-23.159-23.159-23.159-56.641 0-34.319 24.554-58.315l-24.554-24.554q-23.996 24.554-58.036 24.554-33.482 0-56.919-23.438l-58.036-58.036q-23.438-23.438-23.438-56.919t23.716-56.641l41.016-40.737q23.159-23.159 56.641-23.159 33.761 0 56.919 23.716l57.478 57.757q23.159 23.159 23.159 56.641 0 34.319-24.554 58.315l24.554 24.554q23.996-24.554 58.036-24.554 33.482 0 56.919 23.438l58.036 58.036q23.438 23.438 23.438 56.919z" fill="#ffffff" />
</svg>
