<?xml version="1.0" encoding="utf-8"?>
<!DOCTYPE svg PUBLIC "-//W3C//DTD SVG 1.1 Tiny//EN" "http://www.w3.org/Graphics/SVG/1.1/DTD/svg11-tiny.dtd">
<svg version="1.1" baseProfile="tiny" id="Layer_1" xmlns="http://www.w3.org/2000/svg" xmlns:xlink="http://www.w3.org/1999/xlink" x="0px" y="0px" width="16px" height="16px" viewBox="0 0 500 500" xml:space="preserve">
	<path d="M97.377 174.386v276.507h-92.076v-276.507h92.076zM103.237 89.007q0.279 20.368-14.090 34.040t-37.807 13.672h-0.558q-22.879 0-36.831-13.672t-13.951-34.040q0-20.647 14.37-34.18t37.528-13.532 37.109 13.532 14.23 34.18zM428.571 292.411v158.482h-91.797v-147.879q0-29.297-11.3-45.898t-35.296-16.602q-17.578 0-29.437 9.626t-17.718 23.856q-3.069 8.371-3.069 22.601v154.297h-91.797q0.558-111.328 0.558-180.524t-0.279-82.589l-0.279-13.393h91.797v40.179h-0.558q5.581-8.929 11.44-15.625t15.765-14.509 24.274-12.137 31.948-4.325q47.712 0 76.73 31.668t29.018 92.773z" fill="#ffffff" />
</svg>
