<?xml version="1.0" encoding="utf-8"?>
<!DOCTYPE svg PUBLIC "-//W3C//DTD SVG 1.1 Tiny//EN" "http://www.w3.org/Graphics/SVG/1.1/DTD/svg11-tiny.dtd">
<svg version="1.1" baseProfile="tiny" id="Layer_1" xmlns="http://www.w3.org/2000/svg" xmlns:xlink="http://www.w3.org/1999/xlink" x="0px" y="0px" width="16px" height="16px" viewBox="0 0 500 500" xml:space="preserve">
	<path d="M184.989 114.676q-3.069 0.279-4.325 2.93t-2.372 2.651q-1.395 0.279-1.395-1.395 0-3.348 5.301-4.185h2.79zM209.263 118.583q-1.116 0.279-3.208-1.813t-4.883-1.255q6.696-3.069 8.929 0.558 0.837 1.674-0.837 2.511zM111.328 237.723q-1.116-0.279-1.674 0.837t-1.255 3.488-1.535 3.767-2.79 3.627q-1.953 2.79-0.279 3.348 1.116 0.279 3.488-1.953t3.488-5.022q0.279-0.837 0.558-1.953t0.558-1.674 0.418-1.255 0.14-1.116v-0.837t-0.279-0.698-0.837-0.558zM349.888 337.891q0-5.022-15.346-11.719 1.116-4.185 2.093-7.673t1.395-7.254 0.837-5.999 0.14-6.278-0.279-5.441-0.977-6.138-1.116-5.72-1.395-6.976-1.535-7.394q-2.79-13.393-13.114-28.739t-20.089-20.926q6.696 5.581 15.904 23.159 24.274 45.201 15.067 77.567-3.069 11.161-13.951 11.719-8.649 1.116-10.742-5.162t-2.232-23.298-3.208-29.855q-2.511-10.882-5.441-19.252t-5.441-12.695-4.325-6.836-3.627-4.185-2.093-1.953q-3.906-17.299-8.649-28.739t-8.231-15.625-6.557-9.208-4.185-11.161q-1.116-5.859 1.674-14.927t1.255-13.812-12.417-6.976q-4.185-0.837-12.417-5.022t-9.905-4.464q-2.232-0.279-3.069-7.254t2.232-14.23 10.044-7.534q10.324-0.837 14.23 8.371t1.116 16.183q-3.069 5.301-0.558 7.394t8.371 0.14q3.627-1.116 3.627-10.044v-10.324q-1.395-8.371-3.767-13.951t-5.859-8.51-6.557-4.185-7.534-2.093q-29.855 2.232-24.833 37.388 0 4.185-0.279 4.185-2.511-2.511-8.231-2.93t-9.208 0.14-4.325-1.395q0.279-15.904-4.464-25.112t-12.556-9.487q-7.534-0.279-11.579 7.673t-4.604 16.602q-0.279 4.185 0.977 10.324t3.627 10.463 4.325 3.767q2.79-0.837 4.464-3.906 1.116-2.511-1.953-2.232-1.953 0-4.325-4.046t-2.651-9.347q-0.279-6.138 2.511-10.324t9.487-3.906q4.743 0 7.534 5.859t2.651 10.882-0.418 6.138q-6.138 4.185-8.649 8.091-2.232 3.348-7.673 6.557t-5.72 3.488q-3.627 3.906-4.325 7.534t2.093 5.022q3.906 2.232 6.976 5.441t4.464 5.301 5.162 3.627 9.905 1.813q13.114 0.558 28.46-4.185 0.558-0.279 6.417-1.953t9.626-2.93 8.231-3.627 5.859-4.883q2.511-3.906 5.581-2.232 1.395 0.837 1.813 2.372t-0.837 3.348-4.604 2.651q-5.581 1.674-15.765 5.999t-12.695 5.441q-12.277 5.301-19.531 6.417-6.976 1.395-22.042-0.558-2.79-0.558-2.511 0.558t4.743 5.301q6.976 6.417 18.694 6.138 4.743-0.279 10.044-1.953t10.044-3.906 9.347-4.883 8.371-4.743 6.836-3.348 4.883-0.698 2.372 3.069q0 0.558-0.279 1.255t-1.116 1.395-1.674 1.255-2.372 1.395-2.511 1.255-2.79 1.395-2.651 1.255q-7.813 3.906-18.833 12.277t-18.555 11.998-13.672 0.279q-5.859-3.069-17.578-20.368-6.138-8.649-6.976-6.138-0.279 0.837-0.279 2.79 0 6.976-4.185 15.765t-8.231 15.485-5.859 16.183 3.208 17.578q-6.417 1.674-17.438 25.112t-13.253 39.341q-0.558 5.022-0.418 19.252t-1.535 16.462q-2.232 6.696-8.091 0.837-8.929-8.649-10.044-26.228-0.558-7.813 1.116-15.625 1.116-5.301-0.279-5.022l-1.116 1.395q-10.044 18.136 2.79 46.317 1.395 3.348 6.976 7.813t6.696 5.581q5.581 6.417 29.018 25.251t25.949 21.345q4.464 4.185 4.883 10.603t-3.906 11.998-12.695 6.417q2.232 4.185 8.091 12.417t7.813 15.067 1.953 19.671q12.835-6.696 1.953-25.669-1.116-2.232-2.93-4.464t-2.651-3.348-0.558-1.674q0.837-1.395 3.627-2.651t5.581 0.698q12.835 14.509 46.317 10.044 37.109-4.185 49.386-24.274 6.417-10.603 9.487-8.371 3.348 1.674 2.79 14.509-0.279 6.976-6.417 25.669-2.511 6.417-1.674 10.463t6.696 4.325q0.837-5.301 4.046-21.484t3.767-25.112q0.558-5.859-1.813-20.508t-2.093-27.065 6.417-19.671q4.185-5.022 14.23-5.022 0.279-10.324 9.626-14.788t20.229-2.93 16.741 6.278zM174.665 107.143q0.837-4.743-0.698-8.371t-3.208-4.185q-2.511-0.558-2.511 1.953 0.558 1.395 1.395 1.674 2.79 0 1.953 4.185-0.837 5.581 2.232 5.581 0.837 0 0.837-0.837zM291.574 162.109q-0.558-2.232-1.813-3.208t-3.627-1.395-4.046-1.535q-1.395-0.837-2.651-2.232t-1.953-2.232-1.535-1.813-1.116-1.116-1.116 0.418q-3.906 4.464 1.953 12.137t10.882 8.789q2.511 0.279 4.046-2.232t0.977-5.581zM241.909 102.679q0-3.069-1.395-5.441t-3.069-3.488-2.511-0.837q-3.906 0.279-1.953 1.953l1.116 0.558q3.906 1.116 5.022 8.649 0 0.837 2.232-0.558zM256.976 37.667q0-0.558-0.698-1.395t-2.511-1.953-2.651-1.674q-4.185-4.185-6.696-4.185-2.511 0.279-3.208 2.093t-0.279 3.627-0.14 3.488q-0.279 1.116-1.674 2.93t-1.674 2.511 0.837 2.372q1.116 0.837 2.232 0t3.069-2.511 4.185-2.511q0.279-0.279 2.511-0.279t4.185-0.558 2.511-1.953zM414.621 411.831q5.581 3.348 8.649 6.836t3.348 6.696-0.698 6.278-4.325 6.138-6.557 5.441-8.371 5.162-8.789 4.604-8.929 4.325-7.534 3.627q-10.603 5.301-23.856 15.625t-21.066 17.857q-4.743 4.464-18.973 5.441t-24.833-4.046q-5.022-2.511-8.231-6.557t-4.604-7.115-6.138-5.441-13.114-2.651q-12.277-0.279-36.272-0.279-5.301 0-15.904 0.418t-16.183 0.698q-12.277 0.279-22.182 4.185t-14.927 8.371-12.137 7.952-14.927 3.208q-8.091-0.279-30.971-8.649t-40.737-11.998q-5.301-1.116-14.23-2.651t-13.951-2.511-11.021-2.651-9.347-4.046-4.743-5.441q-2.79-6.417 1.953-18.555t5.022-15.207q0.279-4.464-1.116-11.161t-2.79-11.858-1.255-10.184 2.93-7.534q3.906-3.348 15.904-3.906t16.741-3.348q8.371-5.022 11.719-9.766t3.348-14.23q5.859 20.368-8.929 29.576-8.929 5.581-23.159 4.185-9.487-0.837-11.998 2.79-3.627 4.185 1.395 15.904 0.558 1.674 2.232 5.022t2.372 5.022 1.255 4.743 0.279 6.138q0 4.185-4.743 13.672t-3.906 13.393q0.837 4.743 10.324 7.254 5.581 1.674 23.577 5.162t27.762 5.72q6.696 1.674 20.647 6.138t23.019 6.417 15.485 1.116q11.998-1.674 17.997-7.813t6.417-13.393-2.093-16.323-5.301-14.509-5.581-10.184q-33.761-53.013-47.154-67.522-18.973-20.647-31.529-11.161-3.069 2.511-4.185-4.185-0.837-4.464-0.558-10.603 0.279-8.091 2.79-14.509t6.696-13.114 6.138-11.719q2.232-5.859 7.394-20.089t8.231-21.763 8.371-17.020 10.882-15.067q30.692-39.899 34.598-54.409-3.348-31.25-4.464-86.496-0.558-25.112 6.696-42.271t29.576-29.157q10.882-5.859 29.018-5.859 14.788-0.279 29.576 3.767t24.833 11.579q15.904 11.719 25.53 33.901t8.231 41.155q-1.395 26.507 8.371 59.71 9.487 31.529 37.109 60.826 15.346 16.462 27.762 45.48t16.602 53.292q2.232 13.672 1.395 23.577t-3.348 15.485-5.581 6.138q-2.79 0.558-6.557 5.301t-7.534 9.905-11.3 9.347-17.020 3.906q-5.022-0.279-8.789-1.395t-6.278-3.767-3.767-4.325-3.208-5.72-2.511-5.441q-6.138-10.324-11.44-8.371t-7.813 13.672 1.953 27.065q5.581 19.531 0.279 54.409-2.79 18.136 5.022 28.042t20.368 9.208 23.716-9.905q16.462-13.672 24.972-18.555t28.878-11.858q14.788-5.022 21.484-10.184t5.162-9.626-6.976-7.952-14.37-6.557q-9.208-3.069-13.812-13.393t-4.185-20.229 4.325-13.253q0.279 8.649 2.232 15.765t4.046 11.3 5.72 7.952 5.859 5.301 5.999 3.627 4.604 2.651z" fill="#ffffff" />
</svg>
