<?xml version="1.0" encoding="utf-8"?>
<!-- Generated by IcoMoon.io -->
<!DOCTYPE svg PUBLIC "-//W3C//DTD SVG 1.1//EN" "http://www.w3.org/Graphics/SVG/1.1/DTD/svg11.dtd">
<svg version="1.1" xmlns="http://www.w3.org/2000/svg" xmlns:xlink="http://www.w3.org/1999/xlink" width="500" height="500" viewBox="0 0 500 500">
	<path d="M107.143 330.357v17.857q0 3.627-2.651 6.278t-6.278 2.651h-17.857q-3.627 0-6.278-2.651t-2.651-6.278v-17.857q0-3.627 2.651-6.278t6.278-2.651h17.857q3.627 0 6.278 2.651t2.651 6.278zM107.143 258.929v17.857q0 3.627-2.651 6.278t-6.278 2.651h-17.857q-3.627 0-6.278-2.651t-2.651-6.278v-17.857q0-3.627 2.651-6.278t6.278-2.651h17.857q3.627 0 6.278 2.651t2.651 6.278zM107.143 187.5v17.857q0 3.627-2.651 6.278t-6.278 2.651h-17.857q-3.627 0-6.278-2.651t-2.651-6.278v-17.857q0-3.627 2.651-6.278t6.278-2.651h17.857q3.627 0 6.278 2.651t2.651 6.278zM428.571 330.357v17.857q0 3.627-2.651 6.278t-6.278 2.651h-267.857q-3.627 0-6.278-2.651t-2.651-6.278v-17.857q0-3.627 2.651-6.278t6.278-2.651h267.857q3.627 0 6.278 2.651t2.651 6.278zM428.571 258.929v17.857q0 3.627-2.651 6.278t-6.278 2.651h-267.857q-3.627 0-6.278-2.651t-2.651-6.278v-17.857q0-3.627 2.651-6.278t6.278-2.651h267.857q3.627 0 6.278 2.651t2.651 6.278zM428.571 187.5v17.857q0 3.627-2.651 6.278t-6.278 2.651h-267.857q-3.627 0-6.278-2.651t-2.651-6.278v-17.857q0-3.627 2.651-6.278t6.278-2.651h267.857q3.627 0 6.278 2.651t2.651 6.278zM464.286 383.929v-232.143q0-3.627-2.651-6.278t-6.278-2.651h-410.714q-3.627 0-6.278 2.651t-2.651 6.278v232.143q0 3.627 2.651 6.278t6.278 2.651h410.714q3.627 0 6.278-2.651t2.651-6.278zM500 80.357v303.571q0 18.415-13.114 31.529t-31.529 13.114h-410.714q-18.415 0-31.529-13.114t-13.114-31.529v-303.571q0-18.415 13.114-31.529t31.529-13.114h410.714q18.415 0 31.529 13.114t13.114 31.529z" fill="#000000" />
</svg>
