<?xml version="1.0" encoding="utf-8"?>
<!DOCTYPE svg PUBLIC "-//W3C//DTD SVG 1.1 Tiny//EN" "http://www.w3.org/Graphics/SVG/1.1/DTD/svg11-tiny.dtd">
<svg version="1.1" baseProfile="tiny" id="Layer_1" xmlns="http://www.w3.org/2000/svg" xmlns:xlink="http://www.w3.org/1999/xlink" x="0px" y="0px" width="16px" height="16px" viewBox="0 0 500 500" xml:space="preserve">
	<path d="M71.429 366.071v53.571q0 3.627-2.651 6.278t-6.278 2.651h-53.571q-3.627 0-6.278-2.651t-2.651-6.278v-53.571q0-3.627 2.651-6.278t6.278-2.651h53.571q3.627 0 6.278 2.651t2.651 6.278zM71.429 258.929v53.571q0 3.627-2.651 6.278t-6.278 2.651h-53.571q-3.627 0-6.278-2.651t-2.651-6.278v-53.571q0-3.627 2.651-6.278t6.278-2.651h53.571q3.627 0 6.278 2.651t2.651 6.278zM71.429 151.786v53.571q0 3.627-2.651 6.278t-6.278 2.651h-53.571q-3.627 0-6.278-2.651t-2.651-6.278v-53.571q0-3.627 2.651-6.278t6.278-2.651h53.571q3.627 0 6.278 2.651t2.651 6.278zM500 366.071v53.571q0 3.627-2.651 6.278t-6.278 2.651h-375q-3.627 0-6.278-2.651t-2.651-6.278v-53.571q0-3.627 2.651-6.278t6.278-2.651h375q3.627 0 6.278 2.651t2.651 6.278zM71.429 44.643v53.571q0 3.627-2.651 6.278t-6.278 2.651h-53.571q-3.627 0-6.278-2.651t-2.651-6.278v-53.571q0-3.627 2.651-6.278t6.278-2.651h53.571q3.627 0 6.278 2.651t2.651 6.278zM500 258.929v53.571q0 3.627-2.651 6.278t-6.278 2.651h-375q-3.627 0-6.278-2.651t-2.651-6.278v-53.571q0-3.627 2.651-6.278t6.278-2.651h375q3.627 0 6.278 2.651t2.651 6.278zM500 151.786v53.571q0 3.627-2.651 6.278t-6.278 2.651h-375q-3.627 0-6.278-2.651t-2.651-6.278v-53.571q0-3.627 2.651-6.278t6.278-2.651h375q3.627 0 6.278 2.651t2.651 6.278zM500 44.643v53.571q0 3.627-2.651 6.278t-6.278 2.651h-375q-3.627 0-6.278-2.651t-2.651-6.278v-53.571q0-3.627 2.651-6.278t6.278-2.651h375q3.627 0 6.278 2.651t2.651 6.278z" fill="#ffffff" />
</svg>
