<?xml version="1.0" encoding="utf-8"?>
<!DOCTYPE svg PUBLIC "-//W3C//DTD SVG 1.1 Tiny//EN" "http://www.w3.org/Graphics/SVG/1.1/DTD/svg11-tiny.dtd">
<svg version="1.1" baseProfile="tiny" id="Layer_1" xmlns="http://www.w3.org/2000/svg" xmlns:xlink="http://www.w3.org/1999/xlink" x="0px" y="0px" width="16px" height="16px" viewBox="0 0 500 500" xml:space="preserve">
	<path d="M106.306 452.009q0 22.321-15.207 35.156t-37.807 12.835q-29.576 0-47.991-18.415l15.904-24.554q13.672 12.556 29.576 12.556 8.091 0 14.090-4.046t5.999-11.858q0-17.857-29.297-15.625l-7.254-15.625q2.232-2.79 9.068-12.137t11.858-15.067 10.324-10.742v-0.279q-4.464 0-13.532 0.279t-13.532 0.279v14.788h-29.576v-42.411h92.913v24.554l-26.507 32.087q14.23 3.348 22.601 13.672t8.371 24.554zM106.864 277.065v44.364h-101.004q-1.674-10.044-1.674-15.067 0-14.23 6.557-25.949t15.765-18.973 18.415-13.253 15.765-12.137 6.557-12.556q0-6.976-4.046-10.742t-11.021-3.767q-12.835 0-22.601 16.183l-23.716-16.462q6.696-14.23 19.95-22.182t29.437-7.952q20.368 0 34.319 11.579t13.951 31.39q0 13.951-9.487 25.53t-20.926 17.997-21.066 14.090-9.905 14.648h35.435v-16.741h29.297zM500 366.071v53.571q0 3.627-2.651 6.278t-6.278 2.651h-339.286q-3.627 0-6.278-2.651t-2.651-6.278v-53.571q0-3.906 2.511-6.417t6.417-2.511h339.286q3.627 0 6.278 2.651t2.651 6.278zM107.143 115.234v27.623h-93.471v-27.623h29.855q0-11.44 0.14-34.040t0.14-33.761v-3.348h-0.558q-2.232 4.743-13.951 15.067l-19.81-21.206 37.946-35.435h29.576v112.723h30.134zM500 223.214v53.571q0 3.627-2.651 6.278t-6.278 2.651h-339.286q-3.627 0-6.278-2.651t-2.651-6.278v-53.571q0-3.906 2.511-6.417t6.417-2.511h339.286q3.627 0 6.278 2.651t2.651 6.278zM500 80.357v53.571q0 3.627-2.651 6.278t-6.278 2.651h-339.286q-3.627 0-6.278-2.651t-2.651-6.278v-53.571q0-3.627 2.651-6.278t6.278-2.651h339.286q3.627 0 6.278 2.651t2.651 6.278z" fill="#ffffff" />
</svg>
