<?xml version="1.0" encoding="utf-8"?>
<!DOCTYPE svg PUBLIC "-//W3C//DTD SVG 1.1 Tiny//EN" "http://www.w3.org/Graphics/SVG/1.1/DTD/svg11-tiny.dtd">
<svg version="1.1" baseProfile="tiny" id="Layer_1" xmlns="http://www.w3.org/2000/svg" xmlns:xlink="http://www.w3.org/1999/xlink" x="0px" y="0px" width="16px" height="16px" viewBox="0 0 500 500" xml:space="preserve">
	<path d="M89.286 214.286h142.857v-53.571q0-29.576-20.926-50.502t-50.502-20.926-50.502 20.926-20.926 50.502v53.571zM321.429 241.071v160.714q0 11.161-7.813 18.973t-18.973 7.813h-267.857q-11.161 0-18.973-7.813t-7.813-18.973v-160.714q0-11.161 7.813-18.973t18.973-7.813h8.929v-53.571q0-51.339 36.831-88.169t88.169-36.831 88.169 36.831 36.831 88.169v53.571h8.929q11.161 0 18.973 7.813t7.813 18.973z" fill="#ffffff" />
</svg>
