<?xml version="1.0" encoding="utf-8"?>
<!-- Generated by IcoMoon.io -->
<!DOCTYPE svg PUBLIC "-//W3C//DTD SVG 1.1//EN" "http://www.w3.org/Graphics/SVG/1.1/DTD/svg11.dtd">
<svg version="1.1" xmlns="http://www.w3.org/2000/svg" xmlns:xlink="http://www.w3.org/1999/xlink" width="464" height="500" viewBox="0 0 464 500">
	<path d="M332.031 162.109l81.752-81.752-29.855-29.855-81.752 81.752zM456.752 80.357q0 7.534-5.022 12.556l-358.817 358.817q-5.022 5.022-12.556 5.022t-12.556-5.022l-55.246-55.246q-5.022-5.022-5.022-12.556t5.022-12.556l358.817-358.817q5.022-5.022 12.556-5.022t12.556 5.022l55.246 55.246q5.022 5.022 5.022 12.556zM79.799 27.344l27.344 8.371-27.344 8.371-8.371 27.344-8.371-27.344-27.344-8.371 27.344-8.371 8.371-27.344zM177.456 72.544l54.688 16.741-54.688 16.741-16.741 54.688-16.741-54.687-54.688-16.741 54.688-16.741 16.741-54.688zM436.942 205.915l27.344 8.371-27.344 8.371-8.371 27.344-8.371-27.344-27.344-8.371 27.344-8.371 8.371-27.344zM258.371 27.344l27.344 8.371-27.344 8.371-8.371 27.344-8.371-27.344-27.344-8.371 27.344-8.371 8.371-27.344z" fill="#000000" />
</svg>
