<?xml version="1.0" encoding="utf-8"?>
<!DOCTYPE svg PUBLIC "-//W3C//DTD SVG 1.1 Tiny//EN" "http://www.w3.org/Graphics/SVG/1.1/DTD/svg11-tiny.dtd">
<svg version="1.1" baseProfile="tiny" id="Layer_1" xmlns="http://www.w3.org/2000/svg" xmlns:xlink="http://www.w3.org/1999/xlink" x="0px" y="0px" width="16px" height="16px" viewBox="0 0 500 500" xml:space="preserve">
	<path d="M428.571 232.143v35.714q0 56.083-27.483 101.004t-76.451 70.173-110.352 25.251-110.352-25.251-76.451-70.173-27.483-101.004v-35.714q0-7.254 5.301-12.556t12.556-5.301h107.143q7.254 0 12.556 5.301t5.301 12.556v35.714q0 14.509 6.557 25.112t14.927 15.904 19.81 8.371 17.857 3.627 12.277 0.558 12.277-0.558 17.857-3.627 19.81-8.371 14.927-15.904 6.557-25.112v-35.714q0-7.254 5.301-12.556t12.556-5.301h107.143q7.254 0 12.556 5.301t5.301 12.556zM142.857 53.571v107.143q0 7.254-5.301 12.556t-12.556 5.301h-107.143q-7.254 0-12.556-5.301t-5.301-12.556v-107.143q0-7.254 5.301-12.556t12.556-5.301h107.143q7.254 0 12.556 5.301t5.301 12.556zM428.571 53.571v107.143q0 7.254-5.301 12.556t-12.556 5.301h-107.143q-7.254 0-12.556-5.301t-5.301-12.556v-107.143q0-7.254 5.301-12.556t12.556-5.301h107.143q7.254 0 12.556 5.301t5.301 12.556z" fill="#ffffff" />
</svg>
