<?xml version="1.0" encoding="utf-8"?>
<!DOCTYPE svg PUBLIC "-//W3C//DTD SVG 1.1 Tiny//EN" "http://www.w3.org/Graphics/SVG/1.1/DTD/svg11-tiny.dtd">
<svg version="1.1" baseProfile="tiny" id="Layer_1" xmlns="http://www.w3.org/2000/svg" xmlns:xlink="http://www.w3.org/1999/xlink" x="0px" y="0px" width="16px" height="16px" viewBox="0 0 500 500" xml:space="preserve">
	<path d="M500 312.5q0 46.317-35.435 125.837-0.837 1.953-2.93 6.696t-3.767 8.371-3.627 6.138q-3.348 4.743-7.813 4.743-4.185 0-6.557-2.79t-2.372-6.976q0-2.511 0.698-7.394t0.698-6.557q1.395-18.973 1.395-34.319 0-28.181-4.883-50.502t-13.532-38.644-22.321-28.181-29.437-19.392-37.109-11.858-42.969-5.999-48.968-1.674h-62.5v71.429q0 7.254-5.301 12.556t-12.556 5.301-12.556-5.301l-142.857-142.857q-5.301-5.301-5.301-12.556t5.301-12.556l142.857-142.857q5.301-5.301 12.556-5.301t12.556 5.301 5.301 12.556v71.429h62.5q198.94 0 244.141 112.444 14.788 37.388 14.788 92.913z" fill="#ffffff" />
</svg>
