<?xml version="1.0" encoding="utf-8"?>
<!DOCTYPE svg PUBLIC "-//W3C//DTD SVG 1.1 Tiny//EN" "http://www.w3.org/Graphics/SVG/1.1/DTD/svg11-tiny.dtd">
<svg version="1.1" baseProfile="tiny" id="Layer_1" xmlns="http://www.w3.org/2000/svg" xmlns:xlink="http://www.w3.org/1999/xlink" x="0px" y="0px" width="16px" height="16px" viewBox="0 0 500 500" xml:space="preserve">
	<path d="M500 178.571q0 7.254-5.301 12.556l-142.857 142.857q-5.301 5.301-12.556 5.301t-12.556-5.301-5.301-12.556v-71.429h-62.5q-27.344 0-48.968 1.674t-42.969 5.999-37.109 11.858-29.437 19.392-22.321 28.181-13.532 38.644-4.883 50.502q0 15.346 1.395 34.319 0 1.674 0.698 6.557t0.698 7.394q0 4.185-2.372 6.976t-6.557 2.79q-4.464 0-7.813-4.743-1.953-2.511-3.627-6.138t-3.767-8.371-2.93-6.696q-35.435-79.52-35.435-125.837 0-55.524 14.788-92.913 45.201-112.444 244.141-112.444h62.5v-71.429q0-7.254 5.301-12.556t12.556-5.301 12.556 5.301l142.857 142.857q5.301 5.301 5.301 12.556z" fill="#ffffff" />
</svg>
