<?xml version="1.0" encoding="utf-8"?>
<!DOCTYPE svg PUBLIC "-//W3C//DTD SVG 1.1 Tiny//EN" "http://www.w3.org/Graphics/SVG/1.1/DTD/svg11-tiny.dtd">
<svg version="1.1" baseProfile="tiny" id="Layer_1" xmlns="http://www.w3.org/2000/svg" xmlns:xlink="http://www.w3.org/1999/xlink" x="0px" y="0px" width="16px" height="16px" viewBox="0 0 500 500" xml:space="preserve">
	<path d="M178.571 301.897v19.531q0 11.719-10.882 16.462-3.627 1.395-6.976 1.395-7.534 0-12.556-5.301l-142.857-142.857q-5.301-5.301-5.301-12.556t5.301-12.556l142.857-142.857q8.091-8.649 19.531-3.906 10.882 4.743 10.882 16.462v19.252l-110.77 111.049q-5.301 5.301-5.301 12.556t5.301 12.556zM500 312.5q0 16.183-4.743 37.249t-10.742 38.504-13.393 34.877-11.3 25.251l-5.581 11.161q-2.232 4.743-7.813 4.743-1.674 0-2.511-0.279-6.976-2.232-6.417-9.487 11.998-111.607-29.576-157.645-17.857-19.81-47.573-30.832t-74.637-14.648v70.034q0 11.719-10.882 16.462-3.627 1.395-6.976 1.395-7.534 0-12.556-5.301l-142.857-142.857q-5.301-5.301-5.301-12.556t5.301-12.556l142.857-142.857q8.091-8.649 19.531-3.906 10.882 4.743 10.882 16.462v73.103q114.676 7.813 167.132 61.663 47.154 48.27 47.154 142.020z" fill="#ffffff" />
</svg>
