<?xml version="1.0" encoding="utf-8"?>
<!DOCTYPE svg PUBLIC "-//W3C//DTD SVG 1.1 Tiny//EN" "http://www.w3.org/Graphics/SVG/1.1/DTD/svg11-tiny.dtd">
<svg version="1.1" baseProfile="tiny" id="Layer_1" xmlns="http://www.w3.org/2000/svg" xmlns:xlink="http://www.w3.org/1999/xlink" x="0px" y="0px" width="16px" height="16px" viewBox="0 0 500 500" xml:space="preserve">
	<path d="M285.714 196.429v116.071q0 11.161-7.813 18.973t-18.973 7.813-18.973-7.813-7.813-18.973v-98.214h-17.857v254.464q0 12.835-9.208 22.042t-22.042 9.208-22.042-9.208-9.208-22.042v-129.464h-17.857v129.464q0 12.835-9.208 22.042t-22.042 9.208-22.042-9.208-9.208-22.042v-254.464h-17.857v98.214q0 11.161-7.813 18.973t-18.973 7.813-18.973-7.813-7.813-18.973v-116.071q0-22.321 15.625-37.946t37.946-15.625h178.571q22.321 0 37.946 15.625t15.625 37.946zM205.357 71.429q0 25.949-18.276 44.224t-44.224 18.276-44.224-18.276-18.276-44.224 18.276-44.224 44.224-18.276 44.224 18.276 18.276 44.224z" fill="#ffffff" />
</svg>
