<?xml version="1.0" encoding="utf-8"?>
<!DOCTYPE svg PUBLIC "-//W3C//DTD SVG 1.1 Tiny//EN" "http://www.w3.org/Graphics/SVG/1.1/DTD/svg11-tiny.dtd">
<svg version="1.1" baseProfile="tiny" id="Layer_1" xmlns="http://www.w3.org/2000/svg" xmlns:xlink="http://www.w3.org/1999/xlink" x="0px" y="0px" width="16px" height="16px" viewBox="0 0 500 500" xml:space="preserve">
	<path d="M321.429 303.571q0 7.254-5.301 12.556t-12.556 5.301h-178.571q-7.254 0-12.556-5.301t-5.301-12.556 5.301-12.556 12.556-5.301h178.571q7.254 0 12.556 5.301t5.301 12.556zM178.571 178.571q0 14.788-10.463 25.251t-25.251 10.463-25.251-10.463-10.463-25.251 10.463-25.251 25.251-10.463 25.251 10.463 10.463 25.251zM321.429 178.571q0 14.788-10.463 25.251t-25.251 10.463-25.251-10.463-10.463-25.251 10.463-25.251 25.251-10.463 25.251 10.463 10.463 25.251zM392.857 250q0-36.272-14.23-69.336t-38.086-56.919-56.919-38.086-69.336-14.23-69.336 14.23-56.919 38.086-38.086 56.919-14.23 69.336 14.23 69.336 38.086 56.919 56.919 38.086 69.336 14.23 69.336-14.23 56.919-38.086 38.086-56.919 14.23-69.336zM428.571 250q0 58.315-28.739 107.562t-77.985 77.985-107.562 28.739-107.562-28.739-77.985-77.985-28.739-107.562 28.739-107.562 77.985-77.985 107.562-28.739 107.562 28.739 77.985 77.985 28.739 107.562z" fill="#ffffff" />
</svg>
