<?xml version="1.0" encoding="utf-8"?>
<!DOCTYPE svg PUBLIC "-//W3C//DTD SVG 1.1 Tiny//EN" "http://www.w3.org/Graphics/SVG/1.1/DTD/svg11-tiny.dtd">
<svg version="1.1" baseProfile="tiny" id="Layer_1" xmlns="http://www.w3.org/2000/svg" xmlns:xlink="http://www.w3.org/1999/xlink" x="0px" y="0px" width="16px" height="16px" viewBox="0 0 500 500" xml:space="preserve">
	<path d="M321.429 196.429v35.714q0 61.663-41.155 107.282t-101.702 52.316v36.831h71.429q7.254 0 12.556 5.301t5.301 12.556-5.301 12.556-12.556 5.301h-178.571q-7.254 0-12.556-5.301t-5.301-12.556 5.301-12.556 12.556-5.301h71.429v-36.831q-60.547-6.696-101.702-52.316t-41.155-107.282v-35.714q0-7.254 5.301-12.556t12.556-5.301 12.556 5.301 5.301 12.556v35.714q0 51.618 36.691 88.309t88.309 36.691 88.309-36.691 36.691-88.309v-35.714q0-7.254 5.301-12.556t12.556-5.301 12.556 5.301 5.301 12.556zM250 89.286v142.857q0 36.831-26.228 63.058t-63.058 26.228-63.058-26.228-26.228-63.058v-142.857q0-36.831 26.228-63.058t63.058-26.228 63.058 26.228 26.228 63.058z" fill="#ffffff" />
</svg>
