<?xml version="1.0" encoding="utf-8"?>
<!DOCTYPE svg PUBLIC "-//W3C//DTD SVG 1.1 Tiny//EN" "http://www.w3.org/Graphics/SVG/1.1/DTD/svg11-tiny.dtd">
<svg version="1.1" baseProfile="tiny" id="Layer_1" xmlns="http://www.w3.org/2000/svg" xmlns:xlink="http://www.w3.org/1999/xlink" x="0px" y="0px" width="16px" height="16px" viewBox="0 0 500 500" xml:space="preserve">
	<path d="M75.614 263.672l-28.181 28.181q-11.719-28.739-11.719-59.71v-35.714q0-7.254 5.301-12.556t12.556-5.301 12.556 5.301 5.301 12.556v35.714q0 14.788 4.185 31.529zM386.44 95.703l-100.726 100.726v35.714q0 36.831-26.228 63.058t-63.058 26.228q-15.346 0-30.413-5.301l-26.786 26.786q27.065 14.23 57.199 14.23 51.618 0 88.309-36.691t36.691-88.309v-35.714q0-7.254 5.301-12.556t12.556-5.301 12.556 5.301 5.301 12.556v35.714q0 61.663-41.155 107.282t-101.702 52.316v36.831h71.429q7.254 0 12.556 5.301t5.301 12.556-5.301 12.556-12.556 5.301h-178.571q-7.254 0-12.556-5.301t-5.301-12.556 5.301-12.556 12.556-5.301h71.429v-36.831q-34.877-3.627-65.569-22.601l-70.871 70.871q-2.79 2.79-6.417 2.79t-6.417-2.79l-22.879-22.879q-2.79-2.79-2.79-6.417t2.79-6.417l344.308-344.308q2.79-2.79 6.417-2.79t6.417 2.79l22.879 22.879q2.79 2.79 2.79 6.417t-2.79 6.417zM280.413 58.873l-173.27 173.27v-142.857q0-36.831 26.228-63.058t63.058-26.228q28.46 0 51.479 16.462t32.505 42.411z" fill="#ffffff" />
</svg>
