<?xml version="1.0" encoding="utf-8"?>
<!DOCTYPE svg PUBLIC "-//W3C//DTD SVG 1.1 Tiny//EN" "http://www.w3.org/Graphics/SVG/1.1/DTD/svg11-tiny.dtd">
<svg version="1.1" baseProfile="tiny" id="Layer_1" xmlns="http://www.w3.org/2000/svg" xmlns:xlink="http://www.w3.org/1999/xlink" x="0px" y="0px" width="16px" height="16px" viewBox="0 0 500 500" xml:space="preserve">
	<path d="M129.464 392.857q0-9.208-6.557-15.765t-15.765-6.557-15.765 6.557-6.557 15.765 6.557 15.765 15.765 6.557 15.765-6.557 6.557-15.765zM187.5 348.214v-196.429q0-3.627-2.651-6.278t-6.278-2.651h-142.857q-3.627 0-6.278 2.651t-2.651 6.278v196.429q0 3.627 2.651 6.278t6.278 2.651h142.857q3.627 0 6.278-2.651t2.651-6.278zM133.929 111.607q0-4.464-4.464-4.464h-44.643q-4.464 0-4.464 4.464t4.464 4.464h44.643q4.464 0 4.464-4.464zM214.286 107.143v285.714q0 14.509-10.603 25.112t-25.112 10.603h-142.857q-14.509 0-25.112-10.603t-10.603-25.112v-285.714q0-14.509 10.603-25.112t25.112-10.603h142.857q14.509 0 25.112 10.603t10.603 25.112z" fill="#ffffff" />
</svg>
