<?xml version="1.0" encoding="utf-8"?>
<!DOCTYPE svg PUBLIC "-//W3C//DTD SVG 1.1 Tiny//EN" "http://www.w3.org/Graphics/SVG/1.1/DTD/svg11-tiny.dtd">
<svg version="1.1" baseProfile="tiny" id="Layer_1" xmlns="http://www.w3.org/2000/svg" xmlns:xlink="http://www.w3.org/1999/xlink" x="0px" y="0px" width="16px" height="16px" viewBox="0 0 500 500" xml:space="preserve">
	<path d="M214.286 321.429h107.143v-26.786h-35.714v-125h-31.808l-41.294 38.226 21.484 22.321q11.719-10.324 15.346-15.904h0.558v80.357h-35.714v26.786zM357.143 250q0 19.531-5.859 39.621t-16.602 37.388-28.32 28.181-38.504 10.882-38.504-10.882-28.32-28.181-16.602-37.388-5.859-39.621 5.859-39.621 16.602-37.388 28.32-28.181 38.504-10.882 38.504 10.882 28.32 28.181 16.602 37.388 5.859 39.621zM500 321.429v-142.857q-29.576 0-50.502-20.926t-20.926-50.502h-321.429q0 29.576-20.926 50.502t-50.502 20.926v142.857q29.576 0 50.502 20.926t20.926 50.502h321.429q0-29.576 20.926-50.502t50.502-20.926zM535.714 89.286v321.429q0 7.254-5.301 12.556t-12.556 5.301h-500q-7.254 0-12.556-5.301t-5.301-12.556v-321.429q0-7.254 5.301-12.556t12.556-5.301h500q7.254 0 12.556 5.301t5.301 12.556z" fill="#ffffff" />
</svg>
