<?xml version="1.0" encoding="utf-8"?>
<!DOCTYPE svg PUBLIC "-//W3C//DTD SVG 1.1 Tiny//EN" "http://www.w3.org/Graphics/SVG/1.1/DTD/svg11-tiny.dtd">
<svg version="1.1" baseProfile="tiny" id="Layer_1" xmlns="http://www.w3.org/2000/svg" xmlns:xlink="http://www.w3.org/1999/xlink" x="0px" y="0px" width="16px" height="16px" viewBox="0 0 500 500" xml:space="preserve">
	<path d="M352.121 363.56q-15.067 2.511-30.692 2.511-50.781 0-94.029-25.112t-68.359-68.359-25.112-94.029q0-53.571 29.018-99.609-56.083 16.741-91.657 63.895t-35.575 107.143q0 36.272 14.23 69.336t38.086 56.919 56.919 38.086 69.336 14.23q40.179 0 76.312-17.16t61.523-47.852zM408.761 339.844q-26.228 56.641-79.102 90.542t-115.374 33.901q-43.527 0-83.147-17.020t-68.359-45.759-45.759-68.359-17.020-83.147q0-42.69 16.043-81.613t43.527-67.383 65.708-45.898 80.915-19.113q12.277-0.558 17.020 10.882 5.022 11.44-4.185 20.089-23.996 21.763-36.691 50.642t-12.695 60.965q0 41.294 20.368 76.172t55.246 55.246 76.172 20.368q32.924 0 63.616-14.23 11.44-5.022 20.089 3.627 3.906 3.906 4.883 9.487t-1.255 10.603z" fill="#ffffff" />
</svg>
