<?xml version="1.0" encoding="utf-8"?>
<!DOCTYPE svg PUBLIC "-//W3C//DTD SVG 1.1 Tiny//EN" "http://www.w3.org/Graphics/SVG/1.1/DTD/svg11-tiny.dtd">
<svg version="1.1" baseProfile="tiny" id="Layer_1" xmlns="http://www.w3.org/2000/svg" xmlns:xlink="http://www.w3.org/1999/xlink" x="0px" y="0px" width="16px" height="16px" viewBox="0 0 500 500" xml:space="preserve">
	<path d="M428.571 62.5v312.5q0 13.951-9.487 24.833t-23.996 16.88-28.878 8.929-26.925 2.93-26.925-2.93-28.878-8.929-23.996-16.88-9.487-24.833 9.487-24.833 23.996-16.88 28.878-8.929 26.925-2.93q29.297 0 53.571 10.882v-149.833l-214.286 66.127v197.824q0 13.951-9.487 24.833t-23.996 16.88-28.878 8.929-26.925 2.93-26.925-2.93-28.878-8.929-23.996-16.88-9.487-24.833 9.487-24.833 23.996-16.88 28.878-8.929 26.925-2.93q29.297 0 53.571 10.882v-269.81q0-8.649 5.301-15.765t13.672-9.905l232.143-71.429q3.348-1.116 7.813-1.116 11.161 0 18.973 7.813t7.813 18.973z" fill="#ffffff" />
</svg>
