<?xml version="1.0" encoding="utf-8"?>
<!DOCTYPE svg PUBLIC "-//W3C//DTD SVG 1.1 Tiny//EN" "http://www.w3.org/Graphics/SVG/1.1/DTD/svg11-tiny.dtd">
<svg version="1.1" baseProfile="tiny" id="Layer_1" xmlns="http://www.w3.org/2000/svg" xmlns:xlink="http://www.w3.org/1999/xlink" x="0px" y="0px" width="16px" height="16px" viewBox="0 0 500 500" xml:space="preserve">
	<path d="M391.183 307.757q-8.929 22.321-21.206 38.504t-25.391 24.693-27.623 12.974-28.32 4.046-26.925-2.372-24.135-6.138-19.392-7.673-12.835-6.278l-4.743-2.79q-31.529 63.616-80.776 100.307t-107.282 36.97q-5.301 0-8.929-3.627t-3.627-8.929 3.627-8.789 8.929-3.488q48.27-0.279 89.983-29.995t70.173-82.171q-10.044 3.906-20.089 6.417t-23.159 3.627-25.391-0.698-25.949-7.952-25.669-16.462-23.577-27.902-20.787-40.737q31.808-13.114 59.71-15.904t46.735 2.093 34.738 15.765 24.693 21.484 15.765 22.879q14.788-36.551 22.042-81.194-1.953 0.279-5.022 0.698t-12.974 0.698-19.392-0.14-22.74-2.79-24.693-6.417-23.438-11.858-20.926-18.136-15.207-26.367-7.952-35.575q19.531-7.813 37.249-10.184t31.39 0.279 25.669 8.371 20.508 13.951 15.625 17.020 11.719 17.578 7.673 15.625 4.464 11.021l1.116 4.464q3.348-34.040 3.348-54.409-2.232-1.674-5.999-4.464t-13.672-12.417-17.718-19.95-15.067-25.949-9.208-31.39 3.348-35.435 19.531-38.644q20.368 6.976 35.575 17.16t23.577 21.345 13.393 23.716 5.72 24.833-0.14 23.856-3.627 21.345-5.301 17.299-4.743 11.719l-1.953 4.185q0.279 1.395 0.279 14.090t-0.279 19.95q0.837-1.953 2.79-5.162t8.51-11.998 14.090-16.183 19.81-15.485 25.53-12.417 31.25-4.046 36.97 6.696q-0.558 21.763-5.999 39.481t-13.951 29.157-19.392 19.95-22.74 12.695-23.577 6.696-22.321 2.651-18.833-0.279-12.974-1.255l-4.743-0.837q-6.417 41.016-20.368 78.962 1.674-1.953 5.022-5.162t13.812-11.44 21.624-14.648 27.762-11.719 32.785-5.581 35.993 6.557 38.226 21.624z" fill="#ffffff" />
</svg>
