<?xml version="1.0" encoding="utf-8"?>
<!DOCTYPE svg PUBLIC "-//W3C//DTD SVG 1.1 Tiny//EN" "http://www.w3.org/Graphics/SVG/1.1/DTD/svg11-tiny.dtd">
<svg version="1.1" baseProfile="tiny" id="Layer_1" xmlns="http://www.w3.org/2000/svg" xmlns:xlink="http://www.w3.org/1999/xlink" x="0px" y="0px" width="16px" height="16px" viewBox="0 0 500 500" xml:space="preserve">
	<path d="M391.741 386.44q0 32.645-22.042 54.688t-54.688 22.042q-37.667 0-65.569-27.902l-216.797-216.518q-31.529-32.087-31.529-75.614 0-44.364 30.692-75.335t75.056-30.971q44.085 0 76.172 31.529l168.806 169.085q2.79 2.79 2.79 6.138 0 4.464-8.51 12.974t-12.974 8.51q-3.627 0-6.417-2.79l-169.085-169.364q-22.042-21.484-50.502-21.484-29.576 0-49.944 20.926t-20.368 50.502q0 29.297 21.206 50.502l216.518 216.797q17.578 17.578 40.458 17.578 17.857 0 29.576-11.719t11.719-29.576q0-22.879-17.578-40.458l-162.109-162.109q-7.254-6.696-16.741-6.696-8.091 0-13.393 5.301t-5.301 13.393q0 8.929 6.976 16.462l114.397 114.397q2.79 2.79 2.79 6.138 0 4.464-8.649 13.114t-13.114 8.649q-3.348 0-6.138-2.79l-114.397-114.397q-17.578-17.020-17.578-41.574 0-22.879 15.904-38.784t38.784-15.904q24.554 0 41.574 17.578l162.109 162.109q27.902 27.344 27.902 65.569z" fill="#ffffff" />
</svg>
