<?xml version="1.0" encoding="utf-8"?>
<!DOCTYPE svg PUBLIC "-//W3C//DTD SVG 1.1 Tiny//EN" "http://www.w3.org/Graphics/SVG/1.1/DTD/svg11-tiny.dtd">
<svg version="1.1" baseProfile="tiny" id="Layer_1" xmlns="http://www.w3.org/2000/svg" xmlns:xlink="http://www.w3.org/1999/xlink" x="0px" y="0px" width="16px" height="16px" viewBox="0 0 500 500" xml:space="preserve">
	<path d="M112.723 309.152l42.411 42.411-14.509 14.509h-15.625v-26.786h-26.786v-15.625zM228.237 200.335q3.906 3.627-0.837 8.371l-81.194 81.194q-4.743 4.743-8.371 0.837-3.906-3.627 0.837-8.371l81.194-81.194q4.743-4.743 8.371-0.837zM151.786 392.857l151.786-151.786-80.357-80.357-151.786 151.786v80.357h80.357zM321.429 223.214l25.669-25.669q7.813-7.813 7.813-18.973t-7.813-18.973l-42.411-42.411q-7.813-7.813-18.973-7.813t-18.973 7.813l-25.669 25.669zM428.571 116.071v267.857q0 33.203-23.577 56.78t-56.78 23.577h-267.857q-33.203 0-56.78-23.577t-23.577-56.78v-267.857q0-33.203 23.577-56.78t56.78-23.577h267.857q33.203 0 56.78 23.577t23.577 56.78z" fill="#ffffff" />
</svg>
