<?xml version="1.0" encoding="utf-8"?>
<!DOCTYPE svg PUBLIC "-//W3C//DTD SVG 1.1 Tiny//EN" "http://www.w3.org/Graphics/SVG/1.1/DTD/svg11-tiny.dtd">
<svg version="1.1" baseProfile="tiny" id="Layer_1" xmlns="http://www.w3.org/2000/svg" xmlns:xlink="http://www.w3.org/1999/xlink" x="0px" y="0px" width="16px" height="16px" viewBox="0 0 500 500" xml:space="preserve">
	<path d="M101.284 428.571l25.391-25.391-65.569-65.569-25.391 25.391v29.855h35.714v35.714h29.855zM247.21 169.643q0-6.138-6.138-6.138-2.79 0-4.743 1.953l-151.228 151.228q-1.953 1.953-1.953 4.743 0 6.138 6.138 6.138 2.79 0 4.743-1.953l151.228-151.228q1.953-1.953 1.953-4.743zM232.143 116.071l116.071 116.071-232.143 232.143h-116.071v-116.071zM422.712 142.857q0 14.788-10.324 25.112l-46.317 46.317-116.071-116.071 46.317-46.038q10.044-10.603 25.112-10.603 14.788 0 25.391 10.603l65.569 65.29q10.324 10.882 10.324 25.391z" fill="#ffffff" />
</svg>
