<?xml version="1.0" encoding="utf-8"?>
<!DOCTYPE svg PUBLIC "-//W3C//DTD SVG 1.1 Tiny//EN" "http://www.w3.org/Graphics/SVG/1.1/DTD/svg11-tiny.dtd">
<svg version="1.1" baseProfile="tiny" id="Layer_1" xmlns="http://www.w3.org/2000/svg" xmlns:xlink="http://www.w3.org/1999/xlink" x="0px" y="0px" width="16px" height="16px" viewBox="0 0 500 500" xml:space="preserve">
	<path d="M357.143 332.868q0-3.069-0.558-4.464-0.837-2.232-10.742-8.231t-24.693-13.812l-14.788-8.091q-1.395-0.837-5.301-3.627t-6.976-4.185-5.859-1.395q-5.022 0-13.114 9.068t-15.904 18.276-12.277 9.208q-1.953 0-4.604-0.977t-4.325-1.813-4.743-2.651-3.906-2.372q-27.623-15.346-47.573-35.296t-35.296-47.573q-0.558-0.837-2.372-3.906t-2.651-4.743-1.813-4.325-0.977-4.604q0-3.627 5.72-9.347t12.556-10.742 12.556-11.021 5.72-10.184q0-2.79-1.395-5.859t-4.185-6.976-3.627-5.301q-0.837-1.674-4.185-7.952t-6.976-12.695-7.394-13.253-6.976-11.3-4.604-5.022-4.464-0.558q-13.393 0-28.181 6.138-12.835 5.859-22.321 26.367t-9.487 36.412q0 4.464 0.698 9.487t1.395 8.51 2.511 9.208 2.79 8.231 3.488 9.208 3.069 8.371q16.741 45.759 60.407 89.425t89.425 60.407q1.674 0.558 8.371 3.069t9.208 3.488 8.231 2.79 9.208 2.511 8.51 1.395 9.487 0.698q15.904 0 36.412-9.487t26.367-22.321q6.138-14.788 6.138-28.181zM428.571 116.071v267.857q0 33.203-23.577 56.78t-56.78 23.577h-267.857q-33.203 0-56.78-23.577t-23.577-56.78v-267.857q0-33.203 23.577-56.78t56.78-23.577h267.857q33.203 0 56.78 23.577t23.577 56.78z" fill="#ffffff" />
</svg>
