<?xml version="1.0" encoding="utf-8"?>
<!DOCTYPE svg PUBLIC "-//W3C//DTD SVG 1.1 Tiny//EN" "http://www.w3.org/Graphics/SVG/1.1/DTD/svg11-tiny.dtd">
<svg version="1.1" baseProfile="tiny" id="Layer_1" xmlns="http://www.w3.org/2000/svg" xmlns:xlink="http://www.w3.org/1999/xlink" x="0px" y="0px" width="16px" height="16px" viewBox="0 0 500 500" xml:space="preserve">
	<path d="M392.857 345.982q0 7.534-2.79 19.671t-5.859 19.113q-5.859 13.951-34.040 29.576-26.228 14.23-51.897 14.23-7.534 0-14.648-0.977t-16.043-3.488-13.253-4.046-15.485-5.72-13.672-5.022q-27.344-9.766-48.828-23.159-35.714-22.042-73.8-60.128t-60.128-73.8q-13.393-21.484-23.159-48.828-0.837-2.511-5.022-13.672t-5.72-15.485-4.046-13.253-3.488-16.043-0.977-14.648q0-25.669 14.23-51.897 15.625-28.181 29.576-34.040 6.976-3.069 19.113-5.859t19.671-2.79q3.906 0 5.859 0.837 5.022 1.674 14.788 21.206 3.069 5.301 8.371 15.067t9.766 17.718 8.649 14.927q0.837 1.116 4.883 6.976t5.999 9.905 1.953 7.952q0 5.581-7.952 13.951t-17.299 15.346-17.299 14.788-7.952 12.835q0 2.511 1.395 6.278t2.372 5.72 3.906 6.696 3.208 5.301q21.206 38.226 48.549 65.569t65.569 48.549q0.558 0.279 5.301 3.208t6.696 3.906 5.72 2.372 6.278 1.395q5.022 0 12.835-7.952t14.788-17.299 15.346-17.299 13.951-7.952q3.906 0 7.952 1.953t9.905 5.999 6.976 4.883q6.976 4.185 14.927 8.649t17.718 9.766 15.067 8.371q19.531 9.766 21.206 14.788 0.837 1.953 0.837 5.859z" fill="#ffffff" />
</svg>
