<?xml version="1.0" encoding="utf-8"?>
<!-- Generated by IcoMoon.io -->
<!DOCTYPE svg PUBLIC "-//W3C//DTD SVG 1.1//EN" "http://www.w3.org/Graphics/SVG/1.1/DTD/svg11.dtd">
<svg version="1.1" xmlns="http://www.w3.org/2000/svg" xmlns:xlink="http://www.w3.org/1999/xlink" width="536" height="500" viewBox="0 0 536 500">
	<path d="M178.571 160.714q0 22.321-15.625 37.946t-37.946 15.625-37.946-15.625-15.625-37.946 15.625-37.946 37.946-15.625 37.946 15.625 15.625 37.946zM464.286 267.857v125h-392.857v-53.571l89.286-89.286 44.643 44.643 142.857-142.857zM491.071 71.429h-446.429q-3.627 0-6.278 2.651t-2.651 6.278v339.286q0 3.627 2.651 6.278t6.278 2.651h446.429q3.627 0 6.278-2.651t2.651-6.278v-339.286q0-3.627-2.651-6.278t-6.278-2.651zM535.714 80.357v339.286q0 18.415-13.114 31.529t-31.529 13.114h-446.429q-18.415 0-31.529-13.114t-13.114-31.529v-339.286q0-18.415 13.114-31.529t31.529-13.114h446.429q18.415 0 31.529 13.114t13.114 31.529z" fill="#000000" />
</svg>
