<?xml version="1.0" encoding="utf-8"?>
<!DOCTYPE svg PUBLIC "-//W3C//DTD SVG 1.1 Tiny//EN" "http://www.w3.org/Graphics/SVG/1.1/DTD/svg11-tiny.dtd">
<svg version="1.1" baseProfile="tiny" id="Layer_1" xmlns="http://www.w3.org/2000/svg" xmlns:xlink="http://www.w3.org/1999/xlink" x="0px" y="0px" width="16px" height="16px" viewBox="0 0 500 500" xml:space="preserve">
	<path d="M348.214 35.714q33.203 0 56.78 23.577t23.577 56.78v267.857q0 33.203-23.577 56.78t-56.78 23.577h-202.288q23.716-34.040 30.134-58.594 2.511-9.487 14.788-58.315 5.859 10.882 20.508 18.694t31.39 7.813q50.502 0 82.45-41.155t31.948-104.213q0-23.438-9.766-45.34t-26.925-38.784-42.55-27.065-54.966-10.184q-29.018 0-54.269 7.952t-42.69 21.345-29.995 30.552-18.555 35.714-5.999 36.97q0 28.46 11.021 50.223t32.505 30.692q3.627 1.395 6.557 0t4.046-5.301q2.79-12.277 4.185-17.020 1.674-6.417-3.069-11.719-13.951-17.299-13.951-41.853 0-41.853 28.878-71.568t75.474-29.715q41.574 0 64.872 22.601t23.298 58.594q0 46.875-18.833 79.799t-48.41 32.924q-16.741 0-27.065-12.137t-6.417-28.878q2.232-9.487 7.394-25.809t8.231-28.46 3.069-20.787q0-13.672-7.394-22.74t-21.066-9.068q-17.020 0-28.878 15.765t-11.858 38.923q0 20.089 6.696 33.761l-27.344 115.513q-6.696 27.902-1.953 70.871h-51.060q-33.203 0-56.78-23.577t-23.577-56.78v-267.857q0-33.203 23.577-56.78t56.78-23.577h267.857z" fill="#ffffff" />
</svg>
