<?xml version="1.0" encoding="utf-8"?>
<!DOCTYPE svg PUBLIC "-//W3C//DTD SVG 1.1 Tiny//EN" "http://www.w3.org/Graphics/SVG/1.1/DTD/svg11-tiny.dtd">
<svg version="1.1" baseProfile="tiny" id="Layer_1" xmlns="http://www.w3.org/2000/svg" xmlns:xlink="http://www.w3.org/1999/xlink" x="0px" y="0px" width="16px" height="16px" viewBox="0 0 500 500" xml:space="preserve">
	<path d="M428.571 250q0 58.315-28.739 107.562t-77.985 77.985-107.562 28.739q-30.971 0-60.826-8.929 16.462-25.949 21.763-45.759 2.511-9.487 15.067-58.873 5.581 10.882 20.368 18.833t31.808 7.952q33.761 0 60.268-19.113t41.016-52.595 14.509-75.335q0-31.808-16.602-59.71t-48.13-45.48-71.149-17.578q-29.297 0-54.688 8.091t-43.108 21.484-30.413 30.832-18.694 36.133-5.999 37.388q0 29.018 11.161 51.060t32.645 30.971q8.371 3.348 10.603-5.581 0.558-1.953 2.232-8.649t2.232-8.371q1.674-6.417-3.069-11.998-14.23-17.020-14.23-42.132 0-42.132 29.157-72.405t76.312-30.273q42.132 0 65.708 22.879t23.577 59.431q0 47.433-19.113 80.636t-48.968 33.203q-17.020 0-27.344-12.137t-6.417-29.157q2.232-9.766 7.394-26.088t8.371-28.739 3.208-21.066q0-13.951-7.534-23.159t-21.484-9.208q-17.299 0-29.297 15.904t-11.998 39.621q0 20.368 6.976 34.040l-27.623 116.629q-4.743 19.531-3.627 49.386-57.478-25.391-92.913-78.404t-35.435-118.024q0-58.315 28.739-107.562t77.985-77.985 107.562-28.739 107.562 28.739 77.985 77.985 28.739 107.562z" fill="#ffffff" />
</svg>
