<?xml version="1.0" encoding="utf-8"?>
<!DOCTYPE svg PUBLIC "-//W3C//DTD SVG 1.1 Tiny//EN" "http://www.w3.org/Graphics/SVG/1.1/DTD/svg11-tiny.dtd">
<svg version="1.1" baseProfile="tiny" id="Layer_1" xmlns="http://www.w3.org/2000/svg" xmlns:xlink="http://www.w3.org/1999/xlink" x="0px" y="0px" width="16px" height="16px" viewBox="0 0 500 500" xml:space="preserve">
	<path d="M383.929 44.643q12.277 14.509 3.348 41.294t-30.134 47.991l-44.922 44.922 44.643 194.196q1.395 5.301-3.348 9.208l-35.714 26.786q-1.953 1.674-5.301 1.674-1.116 0-1.953-0.279-4.185-0.837-5.859-4.464l-77.846-141.741-72.266 72.266 14.788 54.129q1.395 4.743-2.232 8.649l-26.786 26.786q-2.511 2.511-6.417 2.511h-0.558q-4.185-0.558-6.696-3.627l-52.734-70.313-70.313-52.734q-3.069-1.953-3.627-6.417-0.279-3.627 2.511-6.976l26.786-27.065q2.511-2.511 6.417-2.511 1.674 0 2.232 0.279l54.129 14.788 72.266-72.266-141.741-77.846q-3.906-2.232-4.743-6.696-0.558-4.464 2.511-7.534l35.714-35.714q3.906-3.627 8.371-2.232l185.547 44.364 44.643-44.643q21.206-21.206 47.991-30.134t41.294 3.348z" fill="#ffffff" />
</svg>
