<?xml version="1.0" encoding="utf-8"?>
<!DOCTYPE svg PUBLIC "-//W3C//DTD SVG 1.1 Tiny//EN" "http://www.w3.org/Graphics/SVG/1.1/DTD/svg11-tiny.dtd">
<svg version="1.1" baseProfile="tiny" id="Layer_1" xmlns="http://www.w3.org/2000/svg" xmlns:xlink="http://www.w3.org/1999/xlink" x="0px" y="0px" width="16px" height="16px" viewBox="0 0 500 500" xml:space="preserve">
	<path d="M330.357 250q0 10.324-8.929 15.346l-151.786 89.286q-4.185 2.511-8.929 2.511-4.464 0-8.929-2.232-8.929-5.301-8.929-15.625v-178.571q0-10.324 8.929-15.625 9.208-5.022 17.857 0.279l151.786 89.286q8.929 5.022 8.929 15.346zM366.071 250q0-41.294-20.368-76.172t-55.246-55.246-76.172-20.368-76.172 20.368-55.246 55.246-20.368 76.172 20.368 76.172 55.246 55.246 76.172 20.368 76.172-20.368 55.246-55.246 20.368-76.172zM428.571 250q0 58.315-28.739 107.562t-77.985 77.985-107.562 28.739-107.562-28.739-77.985-77.985-28.739-107.562 28.739-107.562 77.985-77.985 107.562-28.739 107.562 28.739 77.985 77.985 28.739 107.562z" fill="#ffffff" />
</svg>
