<?xml version="1.0" encoding="utf-8"?>
<!DOCTYPE svg PUBLIC "-//W3C//DTD SVG 1.1 Tiny//EN" "http://www.w3.org/Graphics/SVG/1.1/DTD/svg11-tiny.dtd">
<svg version="1.1" baseProfile="tiny" id="Layer_1" xmlns="http://www.w3.org/2000/svg" xmlns:xlink="http://www.w3.org/1999/xlink" x="0px" y="0px" width="16px" height="16px" viewBox="0 0 500 500" xml:space="preserve">
	<path d="M214.286 35.714q58.315 0 107.562 28.739t77.985 77.985 28.739 107.562-28.739 107.562-77.985 77.985-107.562 28.739-107.562-28.739-77.985-77.985-28.739-107.562 28.739-107.562 77.985-77.985 107.562-28.739zM321.429 265.346q8.929-5.022 8.929-15.346t-8.929-15.346l-151.786-89.286q-8.649-5.301-17.857-0.279-8.929 5.301-8.929 15.625v178.571q0 10.324 8.929 15.625 4.464 2.232 8.929 2.232 4.743 0 8.929-2.511z" fill="#ffffff" />
</svg>
