<?xml version="1.0" encoding="utf-8"?>
<!DOCTYPE svg PUBLIC "-//W3C//DTD SVG 1.1 Tiny//EN" "http://www.w3.org/Graphics/SVG/1.1/DTD/svg11-tiny.dtd">
<svg version="1.1" baseProfile="tiny" id="Layer_1" xmlns="http://www.w3.org/2000/svg" xmlns:xlink="http://www.w3.org/1999/xlink" x="0px" y="0px" width="16px" height="16px" viewBox="0 0 500 500" xml:space="preserve">
	<path d="M428.571 250q0 43.527-17.020 83.147t-45.759 68.359-68.359 45.759-83.147 17.020-83.147-17.020-68.359-45.759-45.759-68.359-17.020-83.147q0-50.781 22.461-95.703t63.198-75.335q11.998-8.929 26.646-6.976t23.298 13.951q8.929 11.719 6.836 26.367t-13.812 23.577q-27.344 20.647-42.271 50.502t-14.927 63.616q0 29.018 11.3 55.385t30.552 45.62 45.62 30.552 55.385 11.3 55.385-11.3 45.62-30.552 30.552-45.62 11.3-55.385q0-33.761-14.927-63.616t-42.271-50.502q-11.719-8.929-13.812-23.577t6.836-26.367q8.649-11.998 23.438-13.951t26.507 6.976q40.737 30.413 63.198 75.335t22.461 95.703zM250 35.714v178.571q0 14.509-10.603 25.112t-25.112 10.603-25.112-10.603-10.603-25.112v-178.571q0-14.509 10.603-25.112t25.112-10.603 25.112 10.603 10.603 25.112z" fill="#ffffff" />
</svg>
