<?xml version="1.0" encoding="utf-8"?>
<!DOCTYPE svg PUBLIC "-//W3C//DTD SVG 1.1 Tiny//EN" "http://www.w3.org/Graphics/SVG/1.1/DTD/svg11-tiny.dtd">
<svg version="1.1" baseProfile="tiny" id="Layer_1" xmlns="http://www.w3.org/2000/svg" xmlns:xlink="http://www.w3.org/1999/xlink" x="0px" y="0px" width="16px" height="16px" viewBox="0 0 500 500" xml:space="preserve">
	<path d="M107.143 428.571h250v-71.429h-250v71.429zM107.143 250h250v-107.143h-44.643q-11.161 0-18.973-7.813t-7.813-18.973v-44.643h-178.571v178.571zM428.571 267.857q0-7.254-5.301-12.556t-12.556-5.301-12.556 5.301-5.301 12.556 5.301 12.556 12.556 5.301 12.556-5.301 5.301-12.556zM464.286 267.857v116.071q0 3.627-2.651 6.278t-6.278 2.651h-62.5v44.643q0 11.161-7.813 18.973t-18.973 7.813h-267.857q-11.161 0-18.973-7.813t-7.813-18.973v-44.643h-62.5q-3.627 0-6.278-2.651t-2.651-6.278v-116.071q0-22.042 15.765-37.807t37.807-15.765h17.857v-151.786q0-11.161 7.813-18.973t18.973-7.813h187.5q11.161 0 24.554 5.581t21.206 13.393l42.411 42.411q7.813 7.813 13.393 21.206t5.581 24.554v71.429h17.857q22.042 0 37.807 15.765t15.765 37.807z" fill="#ffffff" />
</svg>
