<?xml version="1.0" encoding="utf-8"?>
<!DOCTYPE svg PUBLIC "-//W3C//DTD SVG 1.1 Tiny//EN" "http://www.w3.org/Graphics/SVG/1.1/DTD/svg11-tiny.dtd">
<svg version="1.1" baseProfile="tiny" id="Layer_1" xmlns="http://www.w3.org/2000/svg" xmlns:xlink="http://www.w3.org/1999/xlink" x="0px" y="0px" width="16px" height="16px" viewBox="0 0 500 500" xml:space="preserve">
	<path d="M464.286 306.362q0 22.601-12.417 37.667t-34.458 15.067q-11.44 0-21.624-4.883t-16.462-10.603-15.765-10.603-19.81-4.883q-30.692 0-30.692 34.598 0 10.882 4.464 32.087t4.185 32.087v1.395q-6.138 0-9.208 0.279-9.487 0.837-27.204 3.208t-32.227 3.767-27.344 1.395q-17.020 0-28.739-7.394t-11.719-23.298q0-10.324 4.883-19.81t10.603-15.765 10.603-16.462 4.883-21.624q0-22.042-15.067-34.458t-37.667-12.417q-23.438 0-39.899 12.695t-16.462 35.575q0 11.998 4.185 23.159t9.347 17.997 9.347 14.788 4.185 14.090q0 12.556-12.835 24.833-10.324 9.766-32.645 9.766-26.507 0-68.359-6.696-2.511-0.558-7.673-1.116t-7.673-1.116l-3.627-0.558q-0.279 0-0.837-0.279-0.558 0-0.558-0.279v-285.714q0.558 0.279 4.883 0.977t9.487 1.395 5.999 0.977q41.853 6.696 68.359 6.696 22.321 0 32.645-9.766 12.835-12.277 12.835-24.833 0-6.138-4.185-14.090t-9.347-14.788-9.347-17.997-4.185-23.159q0-22.879 16.462-35.575t40.179-12.695q22.321 0 37.388 12.417t15.067 34.458q0 11.44-4.883 21.624t-10.603 16.462-10.603 15.765-4.883 19.81q0 15.904 11.719 23.298t28.739 7.394q17.857 0 50.223-4.185t45.48-4.743v0.558q-0.279 0.558-0.977 4.883t-1.395 9.487-0.977 5.999q-6.696 41.853-6.696 68.359 0 22.321 9.766 32.645 12.277 12.835 24.833 12.835 6.138 0 14.090-4.185t14.788-9.347 17.997-9.347 23.159-4.185q22.879 0 35.575 16.462t12.695 39.899z" fill="#ffffff" />
</svg>
