<?xml version="1.0" encoding="utf-8"?>
<!DOCTYPE svg PUBLIC "-//W3C//DTD SVG 1.1 Tiny//EN" "http://www.w3.org/Graphics/SVG/1.1/DTD/svg11-tiny.dtd">
<svg version="1.1" baseProfile="tiny" id="Layer_1" xmlns="http://www.w3.org/2000/svg" xmlns:xlink="http://www.w3.org/1999/xlink" x="0px" y="0px" width="16px" height="16px" viewBox="0 0 500 500" xml:space="preserve">
	<path d="M107.143 321.429v35.714h-35.714v-35.714h35.714zM107.143 107.143v35.714h-35.714v-35.714h35.714zM321.429 107.143v35.714h-35.714v-35.714h35.714zM35.714 392.578h107.143v-106.864h-107.143v106.864zM35.714 178.571h107.143v-107.143h-107.143v107.143zM250 178.571h107.143v-107.143h-107.143v107.143zM178.571 250v178.571h-178.571v-178.571h178.571zM321.429 392.857v35.714h-35.714v-35.714h35.714zM392.857 392.857v35.714h-35.714v-35.714h35.714zM392.857 250v107.143h-107.143v-35.714h-35.714v107.143h-35.714v-178.571h107.143v35.714h35.714v-35.714h35.714zM178.571 35.714v178.571h-178.571v-178.571h178.571zM392.857 35.714v178.571h-178.571v-178.571h178.571z" fill="#ffffff" />
</svg>
