<?xml version="1.0" encoding="utf-8"?>
<!DOCTYPE svg PUBLIC "-//W3C//DTD SVG 1.1 Tiny//EN" "http://www.w3.org/Graphics/SVG/1.1/DTD/svg11-tiny.dtd">
<svg version="1.1" baseProfile="tiny" id="Layer_1" xmlns="http://www.w3.org/2000/svg" xmlns:xlink="http://www.w3.org/1999/xlink" x="0px" y="0px" width="16px" height="16px" viewBox="0 0 500 500" xml:space="preserve">
	<path d="M250 383.929v-53.571q0-3.906-2.511-6.417t-6.417-2.511h-53.571q-3.906 0-6.417 2.511t-2.511 6.417v53.571q0 3.906 2.511 6.417t6.417 2.511h53.571q3.906 0 6.417-2.511t2.511-6.417zM321.429 196.429q0-24.554-15.485-45.48t-38.644-32.366-47.433-11.44q-67.801 0-103.516 59.431-4.185 6.696 2.232 11.719l36.831 27.902q1.953 1.674 5.301 1.674 4.464 0 6.976-3.348 14.788-18.973 23.996-25.669 9.487-6.696 23.996-6.696 13.393 0 23.856 7.254t10.463 16.462q0 10.603-5.581 17.020t-18.973 12.556q-17.578 7.813-32.227 24.135t-14.648 35.017v10.044q0 3.906 2.511 6.417t6.417 2.511h53.571q3.906 0 6.417-2.511t2.511-6.417q0-5.301 5.999-13.812t15.207-13.812q8.929-5.022 13.672-7.952t12.835-9.766 12.417-13.393 7.813-16.88 3.488-22.601zM428.571 250q0 58.315-28.739 107.562t-77.985 77.985-107.562 28.739-107.562-28.739-77.985-77.985-28.739-107.562 28.739-107.562 77.985-77.985 107.562-28.739 107.562 28.739 77.985 77.985 28.739 107.562z" fill="#ffffff" />
</svg>
