<?xml version="1.0" encoding="utf-8"?>
<!DOCTYPE svg PUBLIC "-//W3C//DTD SVG 1.1 Tiny//EN" "http://www.w3.org/Graphics/SVG/1.1/DTD/svg11-tiny.dtd">
<svg version="1.1" baseProfile="tiny" id="Layer_1" xmlns="http://www.w3.org/2000/svg" xmlns:xlink="http://www.w3.org/1999/xlink" x="0px" y="0px" width="16px" height="16px" viewBox="0 0 500 500" xml:space="preserve">
	<path d="M196.429 350.446v66.964q0 4.464-3.348 7.813t-7.813 3.348h-66.964q-4.464 0-7.813-3.348t-3.348-7.813v-66.964q0-4.464 3.348-7.813t7.813-3.348h66.964q4.464 0 7.813 3.348t3.348 7.813zM284.598 183.036q0 15.067-4.325 28.181t-9.766 21.345-15.346 16.602-16.043 12.137-17.020 9.905q-11.44 6.417-19.113 18.136t-7.673 18.694q0 4.743-3.348 9.068t-7.813 4.325h-66.964q-4.185 0-7.115-5.162t-2.93-10.463v-12.556q0-23.159 18.136-43.667t39.899-30.273q16.462-7.534 23.438-15.625t6.976-21.206q0-11.719-12.974-20.647t-29.995-8.929q-18.136 0-30.134 8.091-9.766 6.976-29.855 32.087-3.627 4.464-8.649 4.464-3.348 0-6.976-2.232l-45.759-34.877q-3.627-2.79-4.325-6.976t1.535-7.813q44.643-74.219 129.464-74.219 22.321 0 44.922 8.649t40.737 23.159 29.576 35.575 11.44 44.224z" fill="#ffffff" />
</svg>
