<?xml version="1.0" encoding="utf-8"?>
<!DOCTYPE svg PUBLIC "-//W3C//DTD SVG 1.1 Tiny//EN" "http://www.w3.org/Graphics/SVG/1.1/DTD/svg11-tiny.dtd">
<svg version="1.1" baseProfile="tiny" id="Layer_1" xmlns="http://www.w3.org/2000/svg" xmlns:xlink="http://www.w3.org/1999/xlink" x="0px" y="0px" width="16px" height="16px" viewBox="0 0 500 500" xml:space="preserve">
	<path d="M214.286 267.857v107.143q0 22.321-15.625 37.946t-37.946 15.625h-107.143q-22.321 0-37.946-15.625t-15.625-37.946v-196.429q0-29.018 11.3-55.385t30.552-45.62 45.62-30.552 55.385-11.3h17.857q7.254 0 12.556 5.301t5.301 12.556v35.714q0 7.254-5.301 12.556t-12.556 5.301h-17.857q-29.576 0-50.502 20.926t-20.926 50.502v8.929q0 11.161 7.813 18.973t18.973 7.813h62.5q22.321 0 37.946 15.625t15.625 37.946zM464.286 267.857v107.143q0 22.321-15.625 37.946t-37.946 15.625h-107.143q-22.321 0-37.946-15.625t-15.625-37.946v-196.429q0-29.018 11.3-55.385t30.552-45.62 45.62-30.552 55.385-11.3h17.857q7.254 0 12.556 5.301t5.301 12.556v35.714q0 7.254-5.301 12.556t-12.556 5.301h-17.857q-29.576 0-50.502 20.926t-20.926 50.502v8.929q0 11.161 7.813 18.973t18.973 7.813h62.5q22.321 0 37.946 15.625t15.625 37.946z" fill="#ffffff" />
</svg>
