<?xml version="1.0" encoding="utf-8"?>
<!DOCTYPE svg PUBLIC "-//W3C//DTD SVG 1.1 Tiny//EN" "http://www.w3.org/Graphics/SVG/1.1/DTD/svg11-tiny.dtd">
<svg version="1.1" baseProfile="tiny" id="Layer_1" xmlns="http://www.w3.org/2000/svg" xmlns:xlink="http://www.w3.org/1999/xlink" x="0px" y="0px" width="16px" height="16px" viewBox="0 0 500 500" xml:space="preserve">
	<path d="M214.286 89.286v196.429q0 29.018-11.3 55.385t-30.552 45.62-45.62 30.552-55.385 11.3h-17.857q-7.254 0-12.556-5.301t-5.301-12.556v-35.714q0-7.254 5.301-12.556t12.556-5.301h17.857q29.576 0 50.502-20.926t20.926-50.502v-8.929q0-11.161-7.813-18.973t-18.973-7.813h-62.5q-22.321 0-37.946-15.625t-15.625-37.946v-107.143q0-22.321 15.625-37.946t37.946-15.625h107.143q22.321 0 37.946 15.625t15.625 37.946zM464.286 89.286v196.429q0 29.018-11.3 55.385t-30.552 45.62-45.62 30.552-55.385 11.3h-17.857q-7.254 0-12.556-5.301t-5.301-12.556v-35.714q0-7.254 5.301-12.556t12.556-5.301h17.857q29.576 0 50.502-20.926t20.926-50.502v-8.929q0-11.161-7.813-18.973t-18.973-7.813h-62.5q-22.321 0-37.946-15.625t-15.625-37.946v-107.143q0-22.321 15.625-37.946t37.946-15.625h107.143q22.321 0 37.946 15.625t15.625 37.946z" fill="#ffffff" />
</svg>
