<?xml version="1.0" encoding="utf-8"?>
<!DOCTYPE svg PUBLIC "-//W3C//DTD SVG 1.1 Tiny//EN" "http://www.w3.org/Graphics/SVG/1.1/DTD/svg11-tiny.dtd">
<svg version="1.1" baseProfile="tiny" id="Layer_1" xmlns="http://www.w3.org/2000/svg" xmlns:xlink="http://www.w3.org/1999/xlink" x="0px" y="0px" width="16px" height="16px" viewBox="0 0 500 500" xml:space="preserve">
	<path d="M185.826 134.208q-16.741 25.669-38.226 76.172-6.138-12.556-10.324-20.229t-11.3-17.718-14.23-15.765-17.578-9.766-22.74-4.046h-62.5q-3.906 0-6.417-2.511t-2.511-6.417v-53.571q0-3.906 2.511-6.417t6.417-2.511h62.5q69.754 0 114.397 62.779zM500 357.143q0 3.906-2.511 6.417l-89.286 89.286q-2.511 2.511-6.417 2.511-3.627 0-6.278-2.651t-2.651-6.278v-53.571q-8.929 0-23.716 0.14t-22.601 0.279-20.368-0.279-19.81-1.395-17.857-2.93-17.578-5.162-16.183-7.952-16.462-11.161-15.346-14.927-15.625-19.392q16.462-25.949 37.946-76.172 6.138 12.556 10.324 20.229t11.3 17.718 14.23 15.765 17.578 9.766 22.74 4.046h71.429v-53.571q0-3.906 2.511-6.417t6.417-2.511q3.348 0 6.696 2.79l89.007 89.007q2.511 2.511 2.511 6.417zM500 107.143q0 3.906-2.511 6.417l-89.286 89.286q-2.511 2.511-6.417 2.511-3.627 0-6.278-2.651t-2.651-6.278v-53.571h-71.429q-13.393 0-24.274 4.185t-19.252 12.556-14.23 17.16-12.556 21.624q-8.929 17.299-21.763 47.712-8.091 18.415-13.812 30.971t-15.067 29.297-17.857 27.902-20.647 23.159-25.112 19.113-29.715 11.719-35.714 4.604h-62.5q-3.906 0-6.417-2.511t-2.511-6.417v-53.571q0-3.906 2.511-6.417t6.417-2.511h62.5q13.393 0 24.274-4.185t19.252-12.556 14.23-17.16 12.556-21.624q8.929-17.299 21.763-47.712 8.091-18.415 13.812-30.971t15.067-29.297 17.857-27.902 20.647-23.159 25.112-19.113 29.715-11.719 35.714-4.604h71.429v-53.571q0-3.906 2.511-6.417t6.417-2.511q3.348 0 6.696 2.79l89.007 89.007q2.511 2.511 2.511 6.417z" fill="#ffffff" />
</svg>
