<?xml version="1.0" encoding="utf-8"?>
<!DOCTYPE svg PUBLIC "-//W3C//DTD SVG 1.1 Tiny//EN" "http://www.w3.org/Graphics/SVG/1.1/DTD/svg11-tiny.dtd">
<svg version="1.1" baseProfile="tiny" id="Layer_1" xmlns="http://www.w3.org/2000/svg" xmlns:xlink="http://www.w3.org/1999/xlink" x="0px" y="0px" width="16px" height="16px" viewBox="0 0 500 500" xml:space="preserve">
	<path d="M421.596 294.643q0 1.395-0.279 1.953-17.857 74.777-74.777 121.233t-133.371 46.457q-40.737 0-78.823-15.346t-67.941-43.806l-35.993 35.993q-5.301 5.301-12.556 5.301t-12.556-5.301-5.301-12.556v-125q0-7.254 5.301-12.556t12.556-5.301h125q7.254 0 12.556 5.301t5.301 12.556-5.301 12.556l-38.226 38.226q19.81 18.415 44.922 28.46t52.176 10.044q37.388 0 69.754-18.136t51.897-49.944q3.069-4.743 14.788-32.645 2.232-6.417 8.371-6.417h53.571q3.627 0 6.278 2.651t2.651 6.278zM428.571 71.429v125q0 7.254-5.301 12.556t-12.556 5.301h-125q-7.254 0-12.556-5.301t-5.301-12.556 5.301-12.556l38.504-38.504q-41.294-38.226-97.377-38.226-37.388 0-69.754 18.136t-51.897 49.944q-3.069 4.743-14.788 32.645-2.232 6.417-8.371 6.417h-55.524q-3.627 0-6.278-2.651t-2.651-6.278v-1.953q18.136-74.777 75.335-121.233t133.929-46.457q40.737 0 79.241 15.485t68.359 43.667l36.272-35.993q5.301-5.301 12.556-5.301t12.556 5.301 5.301 12.556z" fill="#ffffff" />
</svg>
