<?xml version="1.0" encoding="utf-8"?>
<!DOCTYPE svg PUBLIC "-//W3C//DTD SVG 1.1 Tiny//EN" "http://www.w3.org/Graphics/SVG/1.1/DTD/svg11-tiny.dtd">
<svg version="1.1" baseProfile="tiny" id="Layer_1" xmlns="http://www.w3.org/2000/svg" xmlns:xlink="http://www.w3.org/1999/xlink" x="0px" y="0px" width="16px" height="16px" viewBox="0 0 500 500" xml:space="preserve">
	<path d="M357.143 419.643q0 3.627-2.651 6.278t-6.278 2.651h-267.857q-2.232 0-3.767-0.558t-2.511-1.953-1.535-2.232-0.837-3.208-0.279-3.208v-167.411h-53.571q-7.254 0-12.556-5.301t-5.301-12.556q0-6.696 4.185-11.44l89.286-107.143q5.301-6.138 13.672-6.138t13.672 6.138l89.286 107.143q4.185 4.743 4.185 11.44 0 7.254-5.301 12.556t-12.556 5.301h-53.571v107.143h160.714q4.464 0 6.976 3.069l44.643 53.571q1.953 3.069 1.953 5.859zM535.714 303.571q0 6.696-4.185 11.44l-89.286 107.143q-5.581 6.417-13.672 6.417t-13.672-6.417l-89.286-107.143q-4.185-4.743-4.185-11.44 0-7.254 5.301-12.556t12.556-5.301h53.571v-107.143h-160.714q-4.464 0-6.976-3.348l-44.643-53.571q-1.953-2.511-1.953-5.581 0-3.627 2.651-6.278t6.278-2.651h267.857q2.232 0 3.767 0.558t2.511 1.953 1.535 2.232 0.837 3.208 0.279 3.208v167.411h53.571q7.254 0 12.556 5.301t5.301 12.556z" fill="#ffffff" />
</svg>
