<?xml version="1.0" encoding="utf-8"?>
<!DOCTYPE svg PUBLIC "-//W3C//DTD SVG 1.1 Tiny//EN" "http://www.w3.org/Graphics/SVG/1.1/DTD/svg11-tiny.dtd">
<svg version="1.1" baseProfile="tiny" id="Layer_1" xmlns="http://www.w3.org/2000/svg" xmlns:xlink="http://www.w3.org/1999/xlink" x="0px" y="0px" width="16px" height="16px" viewBox="0 0 500 500" xml:space="preserve">
	<path d="M309.989 277.902v-1.116l-6.696-89.286q-0.279-3.627-3.069-6.278t-6.417-2.651h-51.897q-3.627 0-6.417 2.651t-3.069 6.278l-6.696 89.286v1.116q-0.279 3.348 2.232 5.581t5.859 2.232h68.081q3.348 0 5.859-2.232t2.232-5.581zM521.763 408.203q0 20.368-12.835 20.368h-196.429q3.627 0 6.138-2.651t2.232-6.278l-5.581-71.429q-0.279-3.627-3.069-6.278t-6.417-2.651h-75.893q-3.627 0-6.417 2.651t-3.069 6.278l-5.581 71.429q-0.279 3.627 2.232 6.278t6.138 2.651h-196.429q-12.835 0-12.835-20.368 0-15.067 7.254-32.366l116.351-291.294q2.232-5.301 7.254-9.208t10.603-3.906h94.587q-3.627 0-6.417 2.651t-3.069 6.278l-4.185 53.571q-0.279 3.906 2.232 6.417t6.138 2.511h46.317q3.627 0 6.138-2.511t2.232-6.417l-4.185-53.571q-0.279-3.627-3.069-6.278t-6.417-2.651h94.587q5.581 0 10.603 3.906t7.254 9.208l116.351 291.294q7.254 17.299 7.254 32.366z" fill="#ffffff" />
</svg>
