<?xml version="1.0" encoding="utf-8"?>
<!DOCTYPE svg PUBLIC "-//W3C//DTD SVG 1.1 Tiny//EN" "http://www.w3.org/Graphics/SVG/1.1/DTD/svg11-tiny.dtd">
<svg version="1.1" baseProfile="tiny" id="Layer_1" xmlns="http://www.w3.org/2000/svg" xmlns:xlink="http://www.w3.org/1999/xlink" x="0px" y="0px" width="16px" height="16px" viewBox="0 0 500 500" xml:space="preserve">
	<path d="M401.786 125q0-11.161-7.813-18.973t-18.973-7.813-18.973 7.813-7.813 18.973 7.813 18.973 18.973 7.813 18.973-7.813 7.813-18.973zM464.286 44.643q0 69.476-21.066 120.117t-70.731 100.586q-22.601 22.321-54.409 49.107l-5.581 105.748q-0.558 4.464-4.464 7.254l-107.143 62.5q-1.953 1.116-4.464 1.116-3.348 0-6.417-2.511l-17.857-17.857q-3.627-3.906-2.232-8.929l23.716-77.009-78.404-78.404-77.009 23.716q-0.837 0.279-2.511 0.279-3.906 0-6.417-2.511l-17.857-17.857q-4.743-5.301-1.395-10.882l62.5-107.143q2.79-3.906 7.254-4.464l105.748-5.581q26.786-31.808 49.107-54.409 52.456-52.176 99.888-71.987t120.257-19.81q3.906 0 6.696 2.651t2.79 6.278z" fill="#ffffff" />
</svg>
