<?xml version="1.0" encoding="utf-8"?>
<!DOCTYPE svg PUBLIC "-//W3C//DTD SVG 1.1 Tiny//EN" "http://www.w3.org/Graphics/SVG/1.1/DTD/svg11-tiny.dtd">
<svg version="1.1" baseProfile="tiny" id="Layer_1" xmlns="http://www.w3.org/2000/svg" xmlns:xlink="http://www.w3.org/1999/xlink" x="0px" y="0px" width="16px" height="16px" viewBox="0 0 500 500" xml:space="preserve">
	<path d="M428.571 71.429v125q0 7.254-5.301 12.556t-12.556 5.301h-125q-11.719 0-16.462-11.161-4.743-10.882 3.906-19.252l38.504-38.504q-41.294-38.226-97.377-38.226-29.018 0-55.385 11.3t-45.62 30.552-30.552 45.62-11.3 55.385 11.3 55.385 30.552 45.62 45.62 30.552 55.385 11.3q33.203 0 62.779-14.509t49.944-41.016q1.953-2.79 6.417-3.348 3.906 0 6.976 2.511l38.226 38.504q2.511 2.232 2.651 5.72t-2.093 6.278q-30.413 36.831-73.661 57.059t-91.239 20.229q-43.527 0-83.147-17.020t-68.359-45.759-45.759-68.359-17.020-83.147 17.020-83.147 45.759-68.359 68.359-45.759 83.147-17.020q41.016 0 79.38 15.485t68.22 43.667l36.272-35.993q8.091-8.649 19.531-3.906 10.882 4.743 10.882 16.462z" fill="#ffffff" />
</svg>
