<?xml version="1.0" encoding="utf-8"?>
<!DOCTYPE svg PUBLIC "-//W3C//DTD SVG 1.1 Tiny//EN" "http://www.w3.org/Graphics/SVG/1.1/DTD/svg11-tiny.dtd">
<svg version="1.1" baseProfile="tiny" id="Layer_1" xmlns="http://www.w3.org/2000/svg" xmlns:xlink="http://www.w3.org/1999/xlink" x="0px" y="0px" width="16px" height="16px" viewBox="0 0 500 500" xml:space="preserve">
	<path d="M142.857 357.143q0-14.788-10.463-25.251t-25.251-10.463-25.251 10.463-10.463 25.251 10.463 25.251 25.251 10.463 25.251-10.463 10.463-25.251zM240.792 383.371q-3.627-64.732-49.386-110.491t-110.491-49.386q-3.906-0.279-6.696 2.511t-2.79 6.417v35.714q0 3.627 2.372 6.138t5.999 2.79q42.969 3.069 73.661 33.761t33.761 73.661q0.279 3.627 2.79 5.999t6.138 2.372h35.714q3.627 0 6.417-2.79t2.511-6.696zM347.935 383.649q-1.395-42.969-15.625-83.008t-38.923-72.544-57.199-57.199-72.544-38.923-83.008-15.625q-3.906-0.279-6.417 2.511-2.79 2.79-2.79 6.417v35.714q0 3.627 2.511 6.138t6.138 2.79q56.919 1.953 105.469 31.11t77.707 77.707 31.11 105.469q0.279 3.627 2.79 6.138t6.138 2.511h35.714q3.627 0 6.417-2.79 3.069-2.511 2.511-6.417zM428.571 116.071v267.857q0 33.203-23.577 56.78t-56.78 23.577h-267.857q-33.203 0-56.78-23.577t-23.577-56.78v-267.857q0-33.203 23.577-56.78t56.78-23.577h267.857q33.203 0 56.78 23.577t23.577 56.78z" fill="#ffffff" />
</svg>
