<?xml version="1.0" encoding="utf-8"?>
<!DOCTYPE svg PUBLIC "-//W3C//DTD SVG 1.1 Tiny//EN" "http://www.w3.org/Graphics/SVG/1.1/DTD/svg11-tiny.dtd">
<svg version="1.1" baseProfile="tiny" id="Layer_1" xmlns="http://www.w3.org/2000/svg" xmlns:xlink="http://www.w3.org/1999/xlink" x="0px" y="0px" width="16px" height="16px" viewBox="0 0 500 500" xml:space="preserve">
	<path d="M107.143 375q0 22.321-15.625 37.946t-37.946 15.625-37.946-15.625-15.625-37.946 15.625-37.946 37.946-15.625 37.946 15.625 15.625 37.946zM250 409.319q0.558 7.813-4.743 13.393-5.022 5.859-13.114 5.859h-37.667q-6.976 0-11.998-4.604t-5.581-11.579q-6.138-63.895-51.479-109.235t-109.235-51.479q-6.976-0.558-11.579-5.581t-4.604-11.998v-37.667q0-8.091 5.859-13.114 4.743-4.743 11.998-4.743h1.395q44.643 3.627 85.379 22.461t72.266 50.642q31.808 31.529 50.642 72.266t22.461 85.379zM392.857 409.877q0.558 7.534-5.022 13.114-5.022 5.581-12.835 5.581h-39.899q-7.254 0-12.417-4.883t-5.441-11.858q-3.348-59.989-28.181-113.979t-64.593-93.75-93.75-64.593-113.979-28.46q-6.976-0.279-11.858-5.441t-4.883-12.137v-39.899q0-7.813 5.581-12.835 5.022-5.022 12.277-5.022h0.837q73.103 3.627 139.927 33.482t118.722 82.031q52.176 51.897 82.031 118.722t33.482 139.927z" fill="#ffffff" />
</svg>
