<?xml version="1.0" encoding="utf-8"?>
<!DOCTYPE svg PUBLIC "-//W3C//DTD SVG 1.1 Tiny//EN" "http://www.w3.org/Graphics/SVG/1.1/DTD/svg11-tiny.dtd">
<svg version="1.1" baseProfile="tiny" id="Layer_1" xmlns="http://www.w3.org/2000/svg" xmlns:xlink="http://www.w3.org/1999/xlink" x="0px" y="0px" width="16px" height="16px" viewBox="0 0 500 500" xml:space="preserve">
	<path d="M291.016 157.645q0-27.902-18.136-45.201t-47.712-17.299h-89.286v125h89.286q29.576 0 47.712-17.299t18.136-45.201zM357.143 157.645q0 53.851-35.296 87.891t-91.099 34.040h-94.866v32.924h140.904q3.906 0 6.417 2.511t2.511 6.417v35.714q0 3.906-2.511 6.417t-6.417 2.511h-140.904v53.571q0 3.906-2.651 6.417t-6.278 2.511h-46.596q-3.906 0-6.417-2.511t-2.511-6.417v-53.571h-62.5q-3.906 0-6.417-2.511t-2.511-6.417v-35.714q0-3.906 2.511-6.417t6.417-2.511h62.5v-32.924h-62.5q-3.906 0-6.417-2.511t-2.511-6.417v-41.574q0-3.627 2.511-6.278t6.417-2.651h62.5v-175.502q0-3.906 2.511-6.417t6.417-2.511h150.391q55.804 0 91.099 34.040t35.296 87.891z" fill="#ffffff" />
</svg>
