<?xml version="1.0" encoding="utf-8"?>
<!DOCTYPE svg PUBLIC "-//W3C//DTD SVG 1.1 Tiny//EN" "http://www.w3.org/Graphics/SVG/1.1/DTD/svg11-tiny.dtd">
<svg version="1.1" baseProfile="tiny" id="Layer_1" xmlns="http://www.w3.org/2000/svg" xmlns:xlink="http://www.w3.org/1999/xlink" x="0px" y="0px" width="16px" height="16px" viewBox="0 0 500 500" xml:space="preserve">
	<path d="M107.143 428.571h214.286v-107.143h-214.286v107.143zM357.143 428.571h35.714v-250q0-3.906-2.79-10.742t-5.581-9.626l-78.404-78.404q-2.79-2.79-9.487-5.581t-10.882-2.79v116.071q0 11.161-7.813 18.973t-18.973 7.813h-160.714q-11.161 0-18.973-7.813t-7.813-18.973v-116.071h-35.714v357.143h35.714v-116.071q0-11.161 7.813-18.973t18.973-7.813h232.143q11.161 0 18.973 7.813t7.813 18.973v116.071zM250 169.643v-89.286q0-3.627-2.651-6.278t-6.278-2.651h-53.571q-3.627 0-6.278 2.651t-2.651 6.278v89.286q0 3.627 2.651 6.278t6.278 2.651h53.571q3.627 0 6.278-2.651t2.651-6.278zM428.571 178.571v258.929q0 11.161-7.813 18.973t-18.973 7.813h-375q-11.161 0-18.973-7.813t-7.813-18.973v-375q0-11.161 7.813-18.973t18.973-7.813h258.929q11.161 0 24.554 5.581t21.206 13.393l78.125 78.125q7.813 7.813 13.393 21.206t5.581 24.554z" fill="#ffffff" />
</svg>
