<?xml version="1.0" encoding="utf-8"?>
<!DOCTYPE svg PUBLIC "-//W3C//DTD SVG 1.1 Tiny//EN" "http://www.w3.org/Graphics/SVG/1.1/DTD/svg11-tiny.dtd">
<svg version="1.1" baseProfile="tiny" id="Layer_1" xmlns="http://www.w3.org/2000/svg" xmlns:xlink="http://www.w3.org/1999/xlink" x="0px" y="0px" width="16px" height="16px" viewBox="0 0 500 500" xml:space="preserve">
	<path d="M267.857 250q7.254 0 12.556 5.301t5.301 12.556-5.301 12.556-12.556 5.301-12.556-5.301-5.301-12.556 5.301-12.556 12.556-5.301zM351.563 267.857l141.462 111.049q7.813 5.581 6.976 15.625-1.395 9.766-9.766 14.23l-35.714 17.857q-3.627 1.953-8.091 1.953-4.743 0-8.649-2.232l-192.522-107.98-30.692 18.415q-2.232 1.116-3.348 1.395 3.906 13.672 2.79 27.065-1.953 21.484-15.625 41.155t-36.831 34.458q-36.831 23.438-77.288 23.438-37.946 0-61.942-21.763-25.112-23.438-22.042-57.757 1.953-21.206 15.625-41.016t36.551-34.598q36.831-23.438 77.567-23.438 23.159 0 42.132 8.649 2.511-3.627 6.138-6.138l34.040-20.368-34.040-20.368q-3.627-2.511-6.138-6.138-18.973 8.649-42.132 8.649-40.737 0-77.567-23.438-22.879-14.788-36.551-34.598t-15.625-41.016q-1.395-16.462 4.325-31.529t17.718-25.949q23.716-22.042 61.942-22.042 40.458 0 77.288 23.438 23.159 14.509 36.831 34.319t15.625 41.294q1.116 13.393-2.79 27.065 1.116 0.279 3.348 1.395l30.692 18.415 192.522-107.98q3.906-2.232 8.649-2.232 4.464 0 8.091 1.953l35.714 17.857q8.371 4.464 9.766 14.23 0.837 10.044-6.976 15.625zM161.551 195.313q12.835-11.719 5.859-30.134t-29.576-32.645q-25.669-16.462-53.571-16.462-20.647 0-31.529 10.044-12.835 11.719-5.859 30.134t29.576 32.645q25.669 16.462 53.571 16.462 20.647 0 31.529-10.044zM137.835 403.181q22.601-14.23 29.576-32.645t-5.859-30.134q-10.882-10.044-31.529-10.044-27.902 0-53.571 16.462-22.601 14.23-29.576 32.645t5.859 30.134q10.882 10.044 31.529 10.044 27.902 0 53.571-16.462zM187.5 232.143l26.786 16.183v-3.069q0-10.044 9.208-15.625l3.906-2.232-22.042-13.114-7.254 7.254q-0.837 0.837-2.79 3.069t-3.348 3.348q-0.558 0.558-1.116 0.977t-0.837 0.698zM250 294.643l26.786 8.929 205.357-160.714-35.714-17.857-214.286 120.257v31.529l-44.643 26.786 2.511 2.232q0.558 0.558 1.953 1.674 1.116 1.116 3.069 3.348t3.069 3.348l7.254 7.254zM446.429 410.714l35.714-17.857-145.089-113.839-49.386 38.504q-0.558 0.837-3.627 1.953z" fill="#ffffff" />
</svg>
