<?xml version="1.0" encoding="utf-8"?>
<!DOCTYPE svg PUBLIC "-//W3C//DTD SVG 1.1 Tiny//EN" "http://www.w3.org/Graphics/SVG/1.1/DTD/svg11-tiny.dtd">
<svg version="1.1" baseProfile="tiny" id="Layer_1" xmlns="http://www.w3.org/2000/svg" xmlns:xlink="http://www.w3.org/1999/xlink" x="0px" y="0px" width="16px" height="16px" viewBox="0 0 500 500" xml:space="preserve">
	<path d="M285.714 223.214v17.857q0 3.627-2.651 6.278t-6.278 2.651h-160.714q-3.627 0-6.278-2.651t-2.651-6.278v-17.857q0-3.627 2.651-6.278t6.278-2.651h160.714q3.627 0 6.278 2.651t2.651 6.278zM321.429 232.143q0-51.618-36.691-88.309t-88.309-36.691-88.309 36.691-36.691 88.309 36.691 88.309 88.309 36.691 88.309-36.691 36.691-88.309zM464.286 464.286q0 14.788-10.463 25.251t-25.251 10.463q-15.067 0-25.112-10.603l-95.703-95.424q-49.944 34.598-111.328 34.598-39.899 0-76.312-15.485t-62.779-41.853-41.853-62.779-15.485-76.312 15.485-76.312 41.853-62.779 62.779-41.853 76.312-15.485 76.312 15.485 62.779 41.853 41.853 62.779 15.485 76.312q0 61.384-34.598 111.328l95.703 95.703q10.324 10.324 10.324 25.112z" fill="#ffffff" />
</svg>
