<?xml version="1.0" encoding="utf-8"?>
<!DOCTYPE svg PUBLIC "-//W3C//DTD SVG 1.1 Tiny//EN" "http://www.w3.org/Graphics/SVG/1.1/DTD/svg11-tiny.dtd">
<svg version="1.1" baseProfile="tiny" id="Layer_1" xmlns="http://www.w3.org/2000/svg" xmlns:xlink="http://www.w3.org/1999/xlink" x="0px" y="0px" width="16px" height="16px" viewBox="0 0 500 500" xml:space="preserve">
	<path d="M392.857 275.949v72.266q0 33.203-23.577 56.78t-56.78 23.577h-232.143q-33.203 0-56.78-23.577t-23.577-56.78v-232.143q0-33.203 23.577-56.78t56.78-23.577h71.149q3.627 0 6.278 2.651t2.651 6.278q0 7.534-7.254 8.929-21.484 7.254-37.109 16.741-2.79 1.116-4.464 1.116h-31.25q-18.415 0-31.529 13.114t-13.114 31.529v232.143q0 18.415 13.114 31.529t31.529 13.114h232.143q18.415 0 31.529-13.114t13.114-31.529v-59.71q0-5.301 5.022-8.091 7.813-3.627 15.067-10.324 4.464-4.464 9.766-2.232 5.859 2.511 5.859 8.091zM458.984 137.556l-107.143 107.143q-5.022 5.301-12.556 5.301-3.348 0-6.976-1.395-10.882-4.743-10.882-16.462v-53.571h-44.643q-90.123 0-122.21 36.551-33.203 38.226-20.647 131.976 0.837 6.417-5.581 9.487-2.232 0.558-3.348 0.558-4.464 0-7.254-3.627-2.79-3.906-5.859-8.649t-11.021-19.113-13.812-27.762-10.742-31.808-4.883-34.040q0-13.672 0.977-25.391t3.906-25.112 7.813-24.554 13.114-22.74 19.113-20.647 26.367-17.16 34.738-13.532 44.503-8.51 54.827-3.069h44.643v-53.571q0-11.719 10.882-16.462 3.627-1.395 6.976-1.395 7.254 0 12.556 5.301l107.143 107.143q5.301 5.301 5.301 12.556t-5.301 12.556z" fill="#ffffff" />
</svg>
