<?xml version="1.0" encoding="utf-8"?>
<!DOCTYPE svg PUBLIC "-//W3C//DTD SVG 1.1 Tiny//EN" "http://www.w3.org/Graphics/SVG/1.1/DTD/svg11-tiny.dtd">
<svg version="1.1" baseProfile="tiny" id="Layer_1" xmlns="http://www.w3.org/2000/svg" xmlns:xlink="http://www.w3.org/1999/xlink" x="0px" y="0px" width="16px" height="16px" viewBox="0 0 500 500" xml:space="preserve">
	<path d="M280.413 307.199l98.214-98.214q5.301-5.301 5.301-12.556t-5.301-12.556l-98.214-98.214q-8.371-8.649-19.252-3.906-11.161 4.743-11.161 16.462v44.643q-33.203 0-60.268 5.441t-45.34 14.23-31.808 22.042-21.345 26.646-12.417 30.413-5.999 31.11-1.395 30.832q0 50.502 46.596 112.723 2.79 3.348 6.976 3.348 1.953 0 3.627-0.837 6.138-2.511 5.301-9.208-12.277-98.772 17.299-131.976 12.835-14.509 36.272-21.066t62.5-6.557v44.643q0 11.719 11.161 16.462 3.348 1.395 6.696 1.395 7.254 0 12.556-5.301zM428.571 116.071v267.857q0 33.203-23.577 56.78t-56.78 23.577h-267.857q-33.203 0-56.78-23.577t-23.577-56.78v-267.857q0-33.203 23.577-56.78t56.78-23.577h267.857q33.203 0 56.78 23.577t23.577 56.78z" fill="#ffffff" />
</svg>
