<?xml version="1.0" encoding="utf-8"?>
<!DOCTYPE svg PUBLIC "-//W3C//DTD SVG 1.1 Tiny//EN" "http://www.w3.org/Graphics/SVG/1.1/DTD/svg11-tiny.dtd">
<svg version="1.1" baseProfile="tiny" id="Layer_1" xmlns="http://www.w3.org/2000/svg" xmlns:xlink="http://www.w3.org/1999/xlink" x="0px" y="0px" width="16px" height="16px" viewBox="0 0 500 500" xml:space="preserve">
	<path d="M303.571 267.857v-178.571h-125v317.243q33.203-17.578 59.431-38.226 65.569-51.339 65.569-100.446zM357.143 53.571v214.286q0 23.996-9.347 47.573t-23.159 41.853-32.924 35.575-35.296 28.739-33.761 21.624-24.972 13.812-11.858 5.581q-3.348 1.674-7.254 1.674t-7.254-1.674q-4.464-1.953-11.858-5.581t-24.972-13.812-33.761-21.624-35.296-28.739-32.924-35.575-23.159-41.853-9.347-47.573v-214.286q0-7.254 5.301-12.556t12.556-5.301h321.429q7.254 0 12.556 5.301t5.301 12.556z" fill="#ffffff" />
</svg>
