<?xml version="1.0" encoding="utf-8"?>
<!DOCTYPE svg PUBLIC "-//W3C//DTD SVG 1.1 Tiny//EN" "http://www.w3.org/Graphics/SVG/1.1/DTD/svg11-tiny.dtd">
<svg version="1.1" baseProfile="tiny" id="Layer_1" xmlns="http://www.w3.org/2000/svg" xmlns:xlink="http://www.w3.org/1999/xlink" x="0px" y="0px" width="16px" height="16px" viewBox="0 0 500 500" xml:space="preserve">
	<path d="M178.571 428.571q0 14.788-10.463 25.251t-25.251 10.463-25.251-10.463-10.463-25.251 10.463-25.251 25.251-10.463 25.251 10.463 10.463 25.251zM428.571 428.571q0 14.788-10.463 25.251t-25.251 10.463-25.251-10.463-10.463-25.251 10.463-25.251 25.251-10.463 25.251 10.463 10.463 25.251zM464.286 125v142.857q0 6.696-4.464 11.858t-11.44 5.999l-291.294 34.040q0.279 1.953 1.255 5.999t1.674 7.394 0.698 6.138q0 4.464-6.696 17.857h256.696q7.254 0 12.556 5.301t5.301 12.556-5.301 12.556-12.556 5.301h-285.714q-7.254 0-12.556-5.301t-5.301-12.556q0-3.906 3.069-11.021t8.231-16.602 5.72-10.603l-49.386-229.632h-56.919q-7.254 0-12.556-5.301t-5.301-12.556 5.301-12.556 12.556-5.301h71.429q4.464 0 7.952 1.813t5.581 4.325 3.627 6.836 2.093 7.394 1.535 8.231 1.255 7.115h335.101q7.254 0 12.556 5.301t5.301 12.556z" fill="#ffffff" />
</svg>
