<?xml version="1.0" encoding="utf-8"?>
<!DOCTYPE svg PUBLIC "-//W3C//DTD SVG 1.1 Tiny//EN" "http://www.w3.org/Graphics/SVG/1.1/DTD/svg11-tiny.dtd">
<svg version="1.1" baseProfile="tiny" id="Layer_1" xmlns="http://www.w3.org/2000/svg" xmlns:xlink="http://www.w3.org/1999/xlink" x="0px" y="0px" width="16px" height="16px" viewBox="0 0 500 500" xml:space="preserve">
	<path d="M178.571 401.786q0 1.116 0.279 5.581t0.14 7.394-0.837 6.557-2.79 5.441-5.72 1.813h-89.286q-33.203 0-56.78-23.577t-23.577-56.78v-196.429q0-33.203 23.577-56.78t56.78-23.577h89.286q3.627 0 6.278 2.651t2.651 6.278q0 1.116 0.279 5.581t0.14 7.394-0.837 6.557-2.79 5.441-5.72 1.813h-89.286q-18.415 0-31.529 13.114t-13.114 31.529v196.429q0 18.415 13.114 31.529t31.529 13.114h87.054t3.208 0.279 3.208 0.837 2.232 1.535 1.953 2.511 0.558 3.767zM437.5 250q0 7.254-5.301 12.556l-151.786 151.786q-5.301 5.301-12.556 5.301t-12.556-5.301-5.301-12.556v-80.357h-125q-7.254 0-12.556-5.301t-5.301-12.556v-107.143q0-7.254 5.301-12.556t12.556-5.301h125v-80.357q0-7.254 5.301-12.556t12.556-5.301 12.556 5.301l151.786 151.786q5.301 5.301 5.301 12.556z" fill="#ffffff" />
</svg>
