<?xml version="1.0" encoding="utf-8"?>
<!DOCTYPE svg PUBLIC "-//W3C//DTD SVG 1.1 Tiny//EN" "http://www.w3.org/Graphics/SVG/1.1/DTD/svg11-tiny.dtd">
<svg version="1.1" baseProfile="tiny" id="Layer_1" xmlns="http://www.w3.org/2000/svg" xmlns:xlink="http://www.w3.org/1999/xlink" x="0px" y="0px" width="16px" height="16px" viewBox="0 0 500 500" xml:space="preserve">
	<path d="M71.429 401.786v53.571q0 3.906-2.511 6.417t-6.417 2.511h-53.571q-3.906 0-6.417-2.511t-2.511-6.417v-53.571q0-3.906 2.511-6.417t6.417-2.511h53.571q3.906 0 6.417 2.511t2.511 6.417zM178.571 366.071v89.286q0 3.906-2.511 6.417t-6.417 2.511h-53.571q-3.906 0-6.417-2.511t-2.511-6.417v-89.286q0-3.906 2.511-6.417t6.417-2.511h53.571q3.906 0 6.417 2.511t2.511 6.417zM285.714 294.643v160.714q0 3.906-2.511 6.417t-6.417 2.511h-53.571q-3.906 0-6.417-2.511t-2.511-6.417v-160.714q0-3.906 2.511-6.417t6.417-2.511h53.571q3.906 0 6.417 2.511t2.511 6.417zM392.857 187.5v267.857q0 3.906-2.511 6.417t-6.417 2.511h-53.571q-3.906 0-6.417-2.511t-2.511-6.417v-267.857q0-3.906 2.511-6.417t6.417-2.511h53.571q3.906 0 6.417 2.511t2.511 6.417zM500 44.643v410.714q0 3.906-2.511 6.417t-6.417 2.511h-53.571q-3.906 0-6.417-2.511t-2.511-6.417v-410.714q0-3.906 2.511-6.417t6.417-2.511h53.571q3.906 0 6.417 2.511t2.511 6.417z" fill="#ffffff" />
</svg>
