<?xml version="1.0" encoding="utf-8"?>
<!DOCTYPE svg PUBLIC "-//W3C//DTD SVG 1.1 Tiny//EN" "http://www.w3.org/Graphics/SVG/1.1/DTD/svg11-tiny.dtd">
<svg version="1.1" baseProfile="tiny" id="Layer_1" xmlns="http://www.w3.org/2000/svg" xmlns:xlink="http://www.w3.org/1999/xlink" x="0px" y="0px" width="16px" height="16px" viewBox="0 0 500 500" xml:space="preserve">
	<path d="M327.288 296.596q0-13.951-5.441-25.53t-13.532-19.113-20.368-13.672-23.019-9.487-24.414-6.417l-29.018-6.696q-8.371-1.953-12.277-2.93t-9.766-3.208-8.371-4.464-4.604-5.859-2.093-8.371q0-21.484 40.179-21.484 11.998 0 21.484 3.348t15.067 7.952 10.603 9.347 11.161 8.091 13.393 3.348q13.114 0 21.066-8.929t7.952-21.484q0-15.346-15.625-27.762t-39.621-18.833-50.781-6.417q-18.973 0-36.831 4.325t-33.343 13.114-24.833 24.274-9.347 35.854q0 17.020 5.301 29.715t15.625 21.066 22.321 13.532 28.739 9.068l40.737 10.044q25.112 6.138 31.25 10.044 8.929 5.581 8.929 16.741 0 10.882-11.161 17.997t-29.297 7.115q-14.23 0-25.53-4.464t-18.136-10.742-12.695-12.556-12.835-10.742-15.067-4.464q-13.951 0-21.066 8.371t-7.115 20.926q0 25.669 34.040 43.945t81.194 18.276q20.368 0 39.062-5.162t34.18-14.927 24.693-26.088 9.208-36.691zM428.571 357.143q0 44.364-31.39 75.753t-75.753 31.39q-36.272 0-65.29-22.321-21.484 4.464-41.853 4.464-39.899 0-76.312-15.485t-62.779-41.853-41.853-62.779-15.485-76.312q0-20.368 4.464-41.853-22.321-29.018-22.321-65.29 0-44.364 31.39-75.753t75.753-31.39q36.272 0 65.29 22.321 21.484-4.464 41.853-4.464 39.899 0 76.312 15.485t62.779 41.853 41.853 62.779 15.485 76.312q0 20.368-4.464 41.853 22.321 29.018 22.321 65.29z" fill="#ffffff" />
</svg>
