<?xml version="1.0" encoding="utf-8"?>
<!DOCTYPE svg PUBLIC "-//W3C//DTD SVG 1.1 Tiny//EN" "http://www.w3.org/Graphics/SVG/1.1/DTD/svg11-tiny.dtd">
<svg version="1.1" baseProfile="tiny" id="Layer_1" xmlns="http://www.w3.org/2000/svg" xmlns:xlink="http://www.w3.org/1999/xlink" x="0px" y="0px" width="16px" height="16px" viewBox="0 0 500 500" xml:space="preserve">
	<path d="M375.558 366.351q0-17.578-12.277-32.366t-28.739-14.788q-14.509 0-23.159 10.324t-8.649 26.228 10.184 26.507 29.157 10.603q13.951 0 23.716-7.534t9.766-18.973zM205.357 401.786q0 3.348-2.79 6.696l-89.007 89.007q-2.79 2.511-6.417 2.511-3.348 0-6.417-2.511l-89.286-89.286q-4.185-4.464-1.953-9.766 2.232-5.581 8.371-5.581h53.571v-383.929q0-3.906 2.511-6.417t6.417-2.511h53.571q3.906 0 6.417 2.511t2.511 6.417v383.929h53.571q3.906 0 6.417 2.511t2.511 6.417zM414.621 382.534q0 17.299-3.627 33.901t-11.44 31.808-18.973 26.646-27.483 18.276-35.575 6.836q-17.299 0-30.134-4.464-6.696-2.232-11.719-4.185l10.882-31.529q4.185 1.953 8.649 3.069 10.324 3.627 20.926 3.627 23.438 0 37.528-16.323t18.555-40.597h-0.558q-5.859 6.417-17.16 10.324t-23.577 3.906q-29.576 0-48.27-19.95t-18.694-48.13q0-29.297 20.089-49.665t50.502-20.368q34.319 0 57.199 26.367t22.879 70.452zM406.25 182.478v31.808h-130.859v-31.808h46.596v-120.536q0-1.953 0.14-5.301t0.14-4.743v-4.464h-0.558l-1.953 3.348q-2.232 3.627-7.254 8.649l-17.299 16.183-22.879-23.996 53.571-51.618h34.319v182.478h46.038z" fill="#ffffff" />
</svg>
