<?xml version="1.0" encoding="utf-8"?>
<!DOCTYPE svg PUBLIC "-//W3C//DTD SVG 1.1 Tiny//EN" "http://www.w3.org/Graphics/SVG/1.1/DTD/svg11-tiny.dtd">
<svg version="1.1" baseProfile="tiny" id="Layer_1" xmlns="http://www.w3.org/2000/svg" xmlns:xlink="http://www.w3.org/1999/xlink" x="0px" y="0px" width="16px" height="16px" viewBox="0 0 500 500" xml:space="preserve">
	<path d="M205.357 401.786q0 3.348-2.79 6.696l-89.007 89.007q-2.79 2.511-6.417 2.511-3.348 0-6.417-2.511l-89.286-89.286q-4.185-4.464-1.953-9.766 2.232-5.581 8.371-5.581h53.571v-383.929q0-3.906 2.511-6.417t6.417-2.511h53.571q3.906 0 6.417 2.511t2.511 6.417v383.929h53.571q3.906 0 6.417 2.511t2.511 6.417zM500 437.5v53.571q0 3.906-2.511 6.417t-6.417 2.511h-232.143q-3.906 0-6.417-2.511t-2.511-6.417v-53.571q0-3.906 2.511-6.417t6.417-2.511h232.143q3.906 0 6.417 2.511t2.511 6.417zM446.429 294.643v53.571q0 3.906-2.511 6.417t-6.417 2.511h-178.571q-3.906 0-6.417-2.511t-2.511-6.417v-53.571q0-3.906 2.511-6.417t6.417-2.511h178.571q3.906 0 6.417 2.511t2.511 6.417zM392.857 151.786v53.571q0 3.906-2.511 6.417t-6.417 2.511h-125q-3.906 0-6.417-2.511t-2.511-6.417v-53.571q0-3.906 2.511-6.417t6.417-2.511h125q3.906 0 6.417 2.511t2.511 6.417zM339.286 8.929v53.571q0 3.906-2.511 6.417t-6.417 2.511h-71.429q-3.906 0-6.417-2.511t-2.511-6.417v-53.571q0-3.906 2.511-6.417t6.417-2.511h71.429q3.906 0 6.417 2.511t2.511 6.417z" fill="#ffffff" />
</svg>
