<?xml version="1.0" encoding="utf-8"?>
<!DOCTYPE svg PUBLIC "-//W3C//DTD SVG 1.1 Tiny//EN" "http://www.w3.org/Graphics/SVG/1.1/DTD/svg11-tiny.dtd">
<svg version="1.1" baseProfile="tiny" id="Layer_1" xmlns="http://www.w3.org/2000/svg" xmlns:xlink="http://www.w3.org/1999/xlink" x="0px" y="0px" width="16px" height="16px" viewBox="0 0 500 500" xml:space="preserve">
	<path d="M332.31 399.554h49.386l-20.089-60.826-3.348-13.114q-0.558-4.464-0.558-5.581h-1.116l-0.837 5.581q0 0.279-0.977 5.022t-2.093 8.091zM205.357 401.786q0 3.348-2.79 6.696l-89.007 89.007q-2.79 2.511-6.417 2.511-3.348 0-6.417-2.511l-89.286-89.286q-4.185-4.464-1.953-9.766 2.232-5.581 8.371-5.581h53.571v-383.929q0-3.906 2.511-6.417t6.417-2.511h53.571q3.906 0 6.417 2.511t2.511 6.417v383.929h53.571q3.906 0 6.417 2.511t2.511 6.417zM463.449 470.424v29.576h-80.357v-29.576h20.926l-13.114-40.179h-67.801l-13.114 40.179h20.926v29.576h-80.078v-29.576h19.531l64.174-184.71h45.201l64.174 184.71h19.531zM438.616 149.274v65.011h-162.946v-25.112l102.958-147.601q3.348-5.022 5.859-7.534l3.069-2.511v-0.837q-0.558 0-1.813 0.14t-2.093 0.14q-3.348 0.837-8.371 0.837h-64.732v32.087h-33.482v-63.895h158.203v24.833l-102.958 147.879q-1.674 2.232-5.859 7.254l-3.069 2.79v0.837l3.906-0.837q2.511-0.279 8.371-0.279h69.196v-33.203h33.761z" fill="#ffffff" />
</svg>
