<?xml version="1.0" encoding="utf-8"?>
<!-- Generated by IcoMoon.io -->
<!DOCTYPE svg PUBLIC "-//W3C//DTD SVG 1.1//EN" "http://www.w3.org/Graphics/SVG/1.1/DTD/svg11.dtd">
<svg version="1.1" xmlns="http://www.w3.org/2000/svg" xmlns:xlink="http://www.w3.org/1999/xlink" width="286" height="500" viewBox="0 0 286 500">
	<path d="M285.714 303.571q0 7.254-5.301 12.556l-125 125q-5.301 5.301-12.556 5.301t-12.556-5.301l-125-125q-5.301-5.301-5.301-12.556t5.301-12.556 12.556-5.301h250q7.254 0 12.556 5.301t5.301 12.556zM285.714 196.429q0 7.254-5.301 12.556t-12.556 5.301h-250q-7.254 0-12.556-5.301t-5.301-12.556 5.301-12.556l125-125q5.301-5.301 12.556-5.301t12.556 5.301l125 125q5.301 5.301 5.301 12.556z" fill="#000000" />
</svg>
