<?xml version="1.0" encoding="utf-8"?>
<!DOCTYPE svg PUBLIC "-//W3C//DTD SVG 1.1 Tiny//EN" "http://www.w3.org/Graphics/SVG/1.1/DTD/svg11-tiny.dtd">
<svg version="1.1" baseProfile="tiny" id="Layer_1" xmlns="http://www.w3.org/2000/svg" xmlns:xlink="http://www.w3.org/1999/xlink" x="0px" y="0px" width="16px" height="16px" viewBox="0 0 500 500" xml:space="preserve">
	<path d="M138.393 375q0 16.741-11.858 28.46t-28.32 11.719q-16.741 0-28.46-11.719t-11.719-28.46 11.719-28.46 28.46-11.719q16.462 0 28.32 11.719t11.858 28.46zM258.929 428.571q0 14.788-10.463 25.251t-25.251 10.463-25.251-10.463-10.463-25.251 10.463-25.251 25.251-10.463 25.251 10.463 10.463 25.251zM89.286 250q0 18.415-13.114 31.529t-31.529 13.114-31.529-13.114-13.114-31.529 13.114-31.529 31.529-13.114 31.529 13.114 13.114 31.529zM379.464 375q0 12.835-9.208 22.042t-22.042 9.208-22.042-9.208-9.208-22.042 9.208-22.042 22.042-9.208 22.042 9.208 9.208 22.042zM147.321 125q0 20.368-14.37 34.738t-34.738 14.37-34.738-14.37-14.37-34.738 14.37-34.738 34.738-14.37 34.738 14.37 14.37 34.738zM276.786 71.429q0 22.321-15.625 37.946t-37.946 15.625-37.946-15.625-15.625-37.946 15.625-37.946 37.946-15.625 37.946 15.625 15.625 37.946zM428.571 250q0 11.161-7.813 18.973t-18.973 7.813-18.973-7.813-7.813-18.973 7.813-18.973 18.973-7.813 18.973 7.813 7.813 18.973zM370.536 125q0 9.208-6.557 15.765t-15.765 6.557-15.765-6.557-6.557-15.765 6.557-15.765 15.765-6.557 15.765 6.557 6.557 15.765z" fill="#ffffff" />
</svg>
