<?xml version="1.0" encoding="utf-8"?>
<!-- Generated by IcoMoon.io -->
<!DOCTYPE svg PUBLIC "-//W3C//DTD SVG 1.1//EN" "http://www.w3.org/Graphics/SVG/1.1/DTD/svg11.dtd">
<svg version="1.1" xmlns="http://www.w3.org/2000/svg" xmlns:xlink="http://www.w3.org/1999/xlink" width="393" height="500" viewBox="0 0 393 500">
	<path d="M312.5 71.429h-232.143q-18.415 0-31.529 13.114t-13.114 31.529v232.143q0 18.415 13.114 31.529t31.529 13.114h232.143q18.415 0 31.529-13.114t13.114-31.529v-232.143q0-18.415-13.114-31.529t-31.529-13.114zM392.857 116.071v232.143q0 33.203-23.577 56.78t-56.78 23.577h-232.143q-33.203 0-56.78-23.577t-23.577-56.78v-232.143q0-33.203 23.577-56.78t56.78-23.577h232.143q33.203 0 56.78 23.577t23.577 56.78z" fill="#000000" />
</svg>
