<?xml version="1.0" encoding="utf-8"?>
<!DOCTYPE svg PUBLIC "-//W3C//DTD SVG 1.1 Tiny//EN" "http://www.w3.org/Graphics/SVG/1.1/DTD/svg11-tiny.dtd">
<svg version="1.1" baseProfile="tiny" id="Layer_1" xmlns="http://www.w3.org/2000/svg" xmlns:xlink="http://www.w3.org/1999/xlink" x="0px" y="0px" width="16px" height="16px" viewBox="0 0 500 500" xml:space="preserve">
	<path d="M258.929 390.904v42.132l-197.266 0.279v-42.132zM326.172 294.364v195.591l-0.279 9.766v0.279l-325.893-0.279v-205.357h33.761v172.433h258.929v-172.433h33.482zM67.243 318.917l196.429 18.136-3.627 41.853-196.708-18.136zM86.216 230.748l190.569 51.060-10.882 40.737-190.569-51.060zM131.696 133.371l169.922 100.446-21.484 36.272-169.922-100.446zM232.143 41.016l111.049 163.226-34.598 23.716-111.328-162.946zM358.538 0l33.761 194.476-41.574 7.254-33.761-194.476z" fill="#ffffff" />
</svg>
