<?xml version="1.0" encoding="utf-8"?>
<!DOCTYPE svg PUBLIC "-//W3C//DTD SVG 1.1 Tiny//EN" "http://www.w3.org/Graphics/SVG/1.1/DTD/svg11-tiny.dtd">
<svg version="1.1" baseProfile="tiny" id="Layer_1" xmlns="http://www.w3.org/2000/svg" xmlns:xlink="http://www.w3.org/1999/xlink" x="0px" y="0px" width="16px" height="16px" viewBox="0 0 500 500" xml:space="preserve">
	<path d="M330.915 267.020l71.708-69.754-117.746-17.299-8.371-16.741-44.364-89.844v268.694l16.462 8.649 88.728 46.875-16.741-99.051-3.348-18.415zM457.031 193.917l-101.284 98.772 23.996 139.509q1.395 9.208-1.674 14.37t-9.487 5.162q-4.743 0-11.161-3.348l-125.279-65.848-125.279 65.848q-6.417 3.348-11.161 3.348-6.417 0-9.487-5.162t-1.674-14.37l23.996-139.509-101.563-98.772q-8.929-8.929-6.417-16.602t15.067-9.626l140.067-20.368 62.779-126.953q5.581-11.44 13.672-11.44 7.813 0 13.672 11.44l62.779 126.953 140.067 20.368q12.556 1.953 15.067 9.626t-6.696 16.602z" fill="#ffffff" />
</svg>
