<?xml version="1.0" encoding="utf-8"?>
<!DOCTYPE svg PUBLIC "-//W3C//DTD SVG 1.1 Tiny//EN" "http://www.w3.org/Graphics/SVG/1.1/DTD/svg11-tiny.dtd">
<svg version="1.1" baseProfile="tiny" id="Layer_1" xmlns="http://www.w3.org/2000/svg" xmlns:xlink="http://www.w3.org/1999/xlink" x="0px" y="0px" width="16px" height="16px" viewBox="0 0 500 500" xml:space="preserve">
	<path d="M317.243 280.134l85.379-82.868-117.746-17.299-52.734-106.585-52.734 106.585-117.746 17.299 85.379 82.868-20.368 117.466 105.469-55.524 105.19 55.524zM464.286 180.524q0 6.138-7.254 13.393l-101.284 98.772 23.996 139.509q0.279 1.953 0.279 5.581 0 13.951-11.44 13.951-5.301 0-11.161-3.348l-125.279-65.848-125.279 65.848q-6.138 3.348-11.161 3.348-5.859 0-8.789-4.046t-2.93-9.905q0-1.674 0.558-5.581l23.996-139.509-101.563-98.772q-6.976-7.534-6.976-13.393 0-10.324 15.625-12.835l140.067-20.368 62.779-126.953q5.301-11.44 13.672-11.44t13.672 11.44l62.779 126.953 140.067 20.368q15.625 2.511 15.625 12.835z" fill="#ffffff" />
</svg>
