<?xml version="1.0" encoding="utf-8"?>
<!DOCTYPE svg PUBLIC "-//W3C//DTD SVG 1.1 Tiny//EN" "http://www.w3.org/Graphics/SVG/1.1/DTD/svg11-tiny.dtd">
<svg version="1.1" baseProfile="tiny" id="Layer_1" xmlns="http://www.w3.org/2000/svg" xmlns:xlink="http://www.w3.org/1999/xlink" x="0px" y="0px" width="16px" height="16px" viewBox="0 0 500 500" xml:space="preserve">
	<path d="M357.143 196.429q0-7.254-5.301-12.556t-12.556-5.301-12.556 5.301-5.301 12.556 5.301 12.556 12.556 5.301 12.556-5.301 5.301-12.556zM392.857 196.429q0 17.299-9.905 30.971t-25.809 19.531v110.212q0 44.364-36.691 75.753t-88.309 31.39-88.309-31.39-36.691-75.753v-36.831q-45.759-5.581-76.451-35.714t-30.692-70.313v-142.857q0-7.254 5.301-12.556t12.556-5.301q1.674 0 4.464 0.558 4.743-8.371 13.114-13.393t18.136-5.022q14.788 0 25.251 10.463t10.463 25.251-10.463 25.251-25.251 10.463q-9.208 0-17.857-5.022v112.165q0 29.576 26.228 50.502t63.058 20.926 63.058-20.926 26.228-50.502v-112.165q-8.649 5.022-17.857 5.022-14.788 0-25.251-10.463t-10.463-25.251 10.463-25.251 25.251-10.463q9.766 0 18.136 5.022t13.114 13.393q2.79-0.558 4.464-0.558 7.254 0 12.556 5.301t5.301 12.556v142.857q0 40.179-30.692 70.313t-76.451 35.714v36.831q0 29.576 26.228 50.502t63.058 20.926 63.058-20.926 26.228-50.502v-110.212q-15.904-5.859-25.809-19.531t-9.905-30.971q0-22.321 15.625-37.946t37.946-15.625 37.946 15.625 15.625 37.946z" fill="#ffffff" />
</svg>
