<?xml version="1.0" encoding="utf-8"?>
<!DOCTYPE svg PUBLIC "-//W3C//DTD SVG 1.1 Tiny//EN" "http://www.w3.org/Graphics/SVG/1.1/DTD/svg11-tiny.dtd">
<svg version="1.1" baseProfile="tiny" id="Layer_1" xmlns="http://www.w3.org/2000/svg" xmlns:xlink="http://www.w3.org/1999/xlink" x="0px" y="0px" width="16px" height="16px" viewBox="0 0 500 500" xml:space="preserve">
	<path d="M491.071 250q3.906 0 6.417 2.511t2.511 6.417v17.857q0 3.906-2.511 6.417t-6.417 2.511h-482.143q-3.906 0-6.417-2.511t-2.511-6.417v-17.857q0-3.906 2.511-6.417t6.417-2.511h482.143zM134.766 232.143q-7.813-9.766-14.23-22.321-13.393-27.065-13.393-52.456 0-50.502 37.388-86.216 37.109-35.435 109.654-35.435 13.951 0 46.596 5.301 18.415 3.348 49.386 13.393 2.79 10.603 5.859 32.924 3.906 34.319 3.906 51.060 0 5.022-1.395 12.556l-3.348 0.837-23.438-1.674-3.906-0.558q-13.951-41.574-28.739-57.199-24.554-25.391-58.594-25.391-31.808 0-50.781 16.462-18.694 16.183-18.694 40.737 0 20.368 18.415 39.063t77.846 35.993q19.252 5.581 48.27 18.415 16.183 7.813 26.507 14.509h-207.31zM276.228 303.571h114.676q1.953 10.882 1.953 25.669 0 30.971-11.44 59.152-6.417 15.346-19.81 29.018-10.324 9.766-30.413 22.601-22.321 13.393-42.69 18.415-22.321 5.859-56.641 5.859-31.808 0-54.409-6.417l-39.063-11.161q-15.904-4.464-20.089-7.813-2.232-2.232-2.232-6.138v-3.627q0-30.134-0.558-43.527-0.279-8.371 0-18.973l0.558-10.324v-12.277l28.46-0.558q4.185 9.487 8.371 19.81t6.278 15.625 3.488 7.534q9.766 15.904 22.321 26.228 11.998 10.044 29.297 15.904 16.462 6.138 36.831 6.138 17.857 0 38.784-7.534 21.484-7.254 34.040-23.996 13.114-17.020 13.114-35.993 0-23.438-22.601-43.806-9.487-8.091-38.226-19.81z" fill="#ffffff" />
</svg>
