<?xml version="1.0" encoding="utf-8"?>
<!DOCTYPE svg PUBLIC "-//W3C//DTD SVG 1.1 Tiny//EN" "http://www.w3.org/Graphics/SVG/1.1/DTD/svg11-tiny.dtd">
<svg version="1.1" baseProfile="tiny" id="Layer_1" xmlns="http://www.w3.org/2000/svg" xmlns:xlink="http://www.w3.org/1999/xlink" x="0px" y="0px" width="16px" height="16px" viewBox="0 0 500 500" xml:space="preserve">
	<path d="M178.571 107.143h142.857v-35.714h-142.857v35.714zM80.357 107.143v357.143h-17.857q-25.669 0-44.085-18.415t-18.415-44.085v-232.143q0-25.669 18.415-44.085t44.085-18.415h17.857zM392.857 107.143v357.143h-285.714v-357.143h35.714v-44.643q0-11.161 7.813-18.973t18.973-7.813h160.714q11.161 0 18.973 7.813t7.813 18.973v44.643h35.714zM500 169.643v232.143q0 25.669-18.415 44.085t-44.085 18.415h-17.857v-357.143h17.857q25.669 0 44.085 18.415t18.415 44.085z" fill="#ffffff" />
</svg>
