<?xml version="1.0" encoding="utf-8"?>
<!DOCTYPE svg PUBLIC "-//W3C//DTD SVG 1.1 Tiny//EN" "http://www.w3.org/Graphics/SVG/1.1/DTD/svg11-tiny.dtd">
<svg version="1.1" baseProfile="tiny" id="Layer_1" xmlns="http://www.w3.org/2000/svg" xmlns:xlink="http://www.w3.org/1999/xlink" x="0px" y="0px" width="16px" height="16px" viewBox="0 0 500 500" xml:space="preserve">
	<path d="M410.714 250q0-32.645-12.695-62.36t-34.319-51.339-51.339-34.319-62.36-12.695-62.36 12.695-51.339 34.319-34.319 51.339-12.695 62.36 12.695 62.36 34.319 51.339 51.339 34.319 62.36 12.695 62.36-12.695 51.339-34.319 34.319-51.339 12.695-62.36zM487.723 327.288q-1.116 4.185-5.581 5.581l-81.473 26.786v85.379q0 4.464-3.627 7.254-4.185 2.79-8.091 1.116l-81.473-26.228-50.223 69.196q-2.79 3.627-7.254 3.627t-7.254-3.627l-50.223-69.196-81.473 26.228q-3.906 1.674-8.091-1.116-3.627-2.79-3.627-7.254v-85.379l-81.473-26.786q-4.464-1.395-5.581-5.581-1.395-4.743 1.116-8.091l50.223-69.196-50.223-69.196q-2.511-3.627-1.116-8.091 1.116-4.185 5.581-5.581l81.473-26.786v-85.379q0-4.464 3.627-7.254 4.185-2.79 8.091-1.116l81.473 26.228 50.223-69.196q2.511-3.348 7.254-3.348t7.254 3.348l50.223 69.196 81.473-26.228q3.906-1.674 8.091 1.116 3.627 2.79 3.627 7.254v85.379l81.473 26.786q4.464 1.395 5.581 5.581 1.395 4.464-1.116 8.091l-50.223 69.196 50.223 69.196q2.511 3.348 1.116 8.091z" fill="#ffffff" />
</svg>
