<?xml version="1.0" encoding="utf-8"?>
<!DOCTYPE svg PUBLIC "-//W3C//DTD SVG 1.1 Tiny//EN" "http://www.w3.org/Graphics/SVG/1.1/DTD/svg11-tiny.dtd">
<svg version="1.1" baseProfile="tiny" id="Layer_1" xmlns="http://www.w3.org/2000/svg" xmlns:xlink="http://www.w3.org/1999/xlink" x="0px" y="0px" width="16px" height="16px" viewBox="0 0 500 500" xml:space="preserve">
	<path d="M250.279 381.976v46.596h-69.196l-44.364-70.313-6.696-11.719q-2.232-2.511-3.069-5.859h-0.837l-2.511 5.859q-2.79 5.581-6.976 12.277l-43.248 69.754h-71.987v-46.596h35.714l54.966-81.194-51.618-75.893h-38.226v-46.875h77.009l38.784 63.616q0.558 1.116 6.417 11.719 2.232 2.511 3.069 5.859h0.837q0.837-2.511 3.069-5.859l6.976-11.719 39.063-63.616h71.708v46.875h-34.877l-51.339 74.498 56.919 82.589h30.413zM428.013 192.522v57.478h-143.415l-0.837-7.534q-1.116-7.813-1.116-12.835 0-17.857 7.254-32.645t18.136-24.135 23.438-18.136 23.438-15.207 18.136-15.067 7.254-17.857q0-10.603-8.231-17.438t-19.671-6.836q-14.23 0-27.065 10.882-3.906 3.069-10.044 10.603l-29.297-25.669q7.254-10.324 17.578-18.415 23.159-18.136 52.456-18.136 30.692 0 49.665 16.602t18.973 44.224q0 15.625-6.836 28.739t-17.299 21.345-22.74 16.323-22.879 14.090-18.276 14.37-8.51 17.578h64.732v-22.321h35.156z" fill="#ffffff" />
</svg>
