<?xml version="1.0" encoding="utf-8"?>
<!DOCTYPE svg PUBLIC "-//W3C//DTD SVG 1.1 Tiny//EN" "http://www.w3.org/Graphics/SVG/1.1/DTD/svg11-tiny.dtd">
<svg version="1.1" baseProfile="tiny" id="Layer_1" xmlns="http://www.w3.org/2000/svg" xmlns:xlink="http://www.w3.org/1999/xlink" x="0px" y="0px" width="16px" height="16px" viewBox="0 0 500 500" xml:space="preserve">
	<path d="M178.571 392.857q0-7.254-5.301-12.556t-12.556-5.301-12.556 5.301-5.301 12.556 5.301 12.556 12.556 5.301 12.556-5.301 5.301-12.556zM285.714 348.214v-267.857q0-3.627-2.651-6.278t-6.278-2.651h-232.143q-3.627 0-6.278 2.651t-2.651 6.278v267.857q0 3.627 2.651 6.278t6.278 2.651h232.143q3.627 0 6.278-2.651t2.651-6.278zM321.429 80.357v303.571q0 18.415-13.114 31.529t-31.529 13.114h-232.143q-18.415 0-31.529-13.114t-13.114-31.529v-303.571q0-18.415 13.114-31.529t31.529-13.114h232.143q18.415 0 31.529 13.114t13.114 31.529z" fill="#ffffff" />
</svg>
