<?xml version="1.0" encoding="utf-8"?>
<!DOCTYPE svg PUBLIC "-//W3C//DTD SVG 1.1 Tiny//EN" "http://www.w3.org/Graphics/SVG/1.1/DTD/svg11-tiny.dtd">
<svg version="1.1" baseProfile="tiny" id="Layer_1" xmlns="http://www.w3.org/2000/svg" xmlns:xlink="http://www.w3.org/1999/xlink" x="0px" y="0px" width="16px" height="16px" viewBox="0 0 500 500" xml:space="preserve">
	<path d="M142.857 383.929v-53.571q0-3.906-2.511-6.417t-6.417-2.511h-89.286q-3.906 0-6.417 2.511t-2.511 6.417v53.571q0 3.906 2.511 6.417t6.417 2.511h89.286q3.906 0 6.417-2.511t2.511-6.417zM142.857 276.786v-53.571q0-3.906-2.511-6.417t-6.417-2.511h-89.286q-3.906 0-6.417 2.511t-2.511 6.417v53.571q0 3.906 2.511 6.417t6.417 2.511h89.286q3.906 0 6.417-2.511t2.511-6.417zM285.714 383.929v-53.571q0-3.906-2.511-6.417t-6.417-2.511h-89.286q-3.906 0-6.417 2.511t-2.511 6.417v53.571q0 3.906 2.511 6.417t6.417 2.511h89.286q3.906 0 6.417-2.511t2.511-6.417zM142.857 169.643v-53.571q0-3.906-2.511-6.417t-6.417-2.511h-89.286q-3.906 0-6.417 2.511t-2.511 6.417v53.571q0 3.906 2.511 6.417t6.417 2.511h89.286q3.906 0 6.417-2.511t2.511-6.417zM285.714 276.786v-53.571q0-3.906-2.511-6.417t-6.417-2.511h-89.286q-3.906 0-6.417 2.511t-2.511 6.417v53.571q0 3.906 2.511 6.417t6.417 2.511h89.286q3.906 0 6.417-2.511t2.511-6.417zM428.571 383.929v-53.571q0-3.906-2.511-6.417t-6.417-2.511h-89.286q-3.906 0-6.417 2.511t-2.511 6.417v53.571q0 3.906 2.511 6.417t6.417 2.511h89.286q3.906 0 6.417-2.511t2.511-6.417zM285.714 169.643v-53.571q0-3.906-2.511-6.417t-6.417-2.511h-89.286q-3.906 0-6.417 2.511t-2.511 6.417v53.571q0 3.906 2.511 6.417t6.417 2.511h89.286q3.906 0 6.417-2.511t2.511-6.417zM428.571 276.786v-53.571q0-3.906-2.511-6.417t-6.417-2.511h-89.286q-3.906 0-6.417 2.511t-2.511 6.417v53.571q0 3.906 2.511 6.417t6.417 2.511h89.286q3.906 0 6.417-2.511t2.511-6.417zM428.571 169.643v-53.571q0-3.906-2.511-6.417t-6.417-2.511h-89.286q-3.906 0-6.417 2.511t-2.511 6.417v53.571q0 3.906 2.511 6.417t6.417 2.511h89.286q3.906 0 6.417-2.511t2.511-6.417zM464.286 80.357v303.571q0 18.415-13.114 31.529t-31.529 13.114h-375q-18.415 0-31.529-13.114t-13.114-31.529v-303.571q0-18.415 13.114-31.529t31.529-13.114h375q18.415 0 31.529 13.114t13.114 31.529z" fill="#ffffff" />
</svg>
