<?xml version="1.0" encoding="utf-8"?>
<!DOCTYPE svg PUBLIC "-//W3C//DTD SVG 1.1 Tiny//EN" "http://www.w3.org/Graphics/SVG/1.1/DTD/svg11-tiny.dtd">
<svg version="1.1" baseProfile="tiny" id="Layer_1" xmlns="http://www.w3.org/2000/svg" xmlns:xlink="http://www.w3.org/1999/xlink" x="0px" y="0px" width="16px" height="16px" viewBox="0 0 500 500" xml:space="preserve">
	<path d="M125 125q0-14.788-10.463-25.251t-25.251-10.463-25.251 10.463-10.463 25.251 10.463 25.251 25.251 10.463 25.251-10.463 10.463-25.251zM422.712 285.714q0 14.788-10.324 25.112l-136.998 137.277q-10.882 10.324-25.391 10.324-14.788 0-25.112-10.324l-199.498-199.777q-10.603-10.324-17.997-28.181t-7.394-32.645v-116.071q0-14.509 10.603-25.112t25.112-10.603h116.071q14.788 0 32.645 7.394t28.46 17.997l199.498 199.219q10.324 10.882 10.324 25.391z" fill="#ffffff" />
</svg>
