<?xml version="1.0" encoding="utf-8"?>
<!DOCTYPE svg PUBLIC "-//W3C//DTD SVG 1.1 Tiny//EN" "http://www.w3.org/Graphics/SVG/1.1/DTD/svg11-tiny.dtd">
<svg version="1.1" baseProfile="tiny" id="Layer_1" xmlns="http://www.w3.org/2000/svg" xmlns:xlink="http://www.w3.org/1999/xlink" x="0px" y="0px" width="16px" height="16px" viewBox="0 0 500 500" xml:space="preserve">
	<path d="M22.601 35.993l15.067 7.534q5.581 1.395 58.873 1.395h36.272l5.301-0.837 32.087-0.279 59.989 0.279h81.752l9.487 0.558q3.906 0.279 7.813-1.953t5.859-4.464l1.953-2.232 11.719-0.279q4.185 0 7.813 0.279v29.157t0.279 36.691l0.279 27.902-0.279 16.183q0 8.929-1.116 14.23-10.882 4.185-18.973 5.022-6.976-11.998-15.067-35.714-2.232-6.696-4.325-17.438t-3.208-18.276-1.674-8.091q-3.627-4.185-7.534-5.301-1.953-0.558-11.858-0.558t-28.878 0.279-30.971 0.279q-9.487 0-18.694 1.395-2.79 27.065-2.232 37.946l0.279 42.411v92.634l0.837 100.167-0.279 41.016q-0.279 12.835 3.069 23.716 13.672 6.976 24.833 8.929 0.558 0 5.022 1.395t12.277 3.627 11.998 3.348q8.371 2.232 13.951 5.022 1.395 12.556 1.395 13.951 0 2.79-0.837 8.091-3.906 0.279-9.487 0.279-30.692 0-52.176-2.79-20.089-2.232-66.406-2.232-24.554 0-65.011 3.906-13.393 1.116-19.531 1.116-0.558-6.138-0.558-7.254l-0.279-7.254v-2.511q5.859-9.208 22.042-13.672 38.784-10.603 44.364-13.951 2.511-5.859 3.348-15.625 2.232-53.571 1.674-120.815l-1.395-119.419q-0.279-17.299-0.14-33.063t0.14-28.599-0.558-15.904-1.674-4.185q-1.674-1.395-3.906-1.674-10.603-1.674-41.294-1.674-11.998 0-27.902 3.767t-20.368 6.836q-3.627 2.511-6.138 9.208t-6.138 20.926-6.696 23.438q-1.674 5.301-5.441 8.929t-5.72 3.627q-12.277-7.534-15.625-12.277v-106.864zM486.607 392.857q9.208 0 11.719 5.162t-3.069 12.417l-35.156 45.201q-5.581 7.254-13.672 7.254t-13.672-7.254l-35.156-45.201q-5.581-7.254-3.069-12.417t11.719-5.162h22.321v-285.714h-22.321q-9.208 0-11.719-5.162t3.069-12.417l35.156-45.201q5.581-7.254 13.672-7.254t13.672 7.254l35.156 45.201q5.581 7.254 3.069 12.417t-11.719 5.162h-22.321v285.714h22.321z" fill="#ffffff" />
</svg>
