<?xml version="1.0" encoding="utf-8"?>
<!DOCTYPE svg PUBLIC "-//W3C//DTD SVG 1.1 Tiny//EN" "http://www.w3.org/Graphics/SVG/1.1/DTD/svg11-tiny.dtd">
<svg version="1.1" baseProfile="tiny" id="Layer_1" xmlns="http://www.w3.org/2000/svg" xmlns:xlink="http://www.w3.org/1999/xlink" x="0px" y="0px" width="16px" height="16px" viewBox="0 0 500 500" xml:space="preserve">
	<path d="M214.286 285.714v107.143q0 14.509-10.603 25.112t-25.112 10.603h-142.857q-14.509 0-25.112-10.603t-10.603-25.112v-107.143q0-14.509 10.603-25.112t25.112-10.603h142.857q14.509 0 25.112 10.603t10.603 25.112zM214.286 71.429v107.143q0 14.509-10.603 25.112t-25.112 10.603h-142.857q-14.509 0-25.112-10.603t-10.603-25.112v-107.143q0-14.509 10.603-25.112t25.112-10.603h142.857q14.509 0 25.112 10.603t10.603 25.112zM464.286 285.714v107.143q0 14.509-10.603 25.112t-25.112 10.603h-142.857q-14.509 0-25.112-10.603t-10.603-25.112v-107.143q0-14.509 10.603-25.112t25.112-10.603h142.857q14.509 0 25.112 10.603t10.603 25.112zM464.286 71.429v107.143q0 14.509-10.603 25.112t-25.112 10.603h-142.857q-14.509 0-25.112-10.603t-10.603-25.112v-107.143q0-14.509 10.603-25.112t25.112-10.603h142.857q14.509 0 25.112 10.603t10.603 25.112z" fill="#ffffff" />
</svg>
