<?xml version="1.0" encoding="utf-8"?>
<!-- Generated by IcoMoon.io -->
<!DOCTYPE svg PUBLIC "-//W3C//DTD SVG 1.1//EN" "http://www.w3.org/Graphics/SVG/1.1/DTD/svg11.dtd">
<svg version="1.1" xmlns="http://www.w3.org/2000/svg" xmlns:xlink="http://www.w3.org/1999/xlink" width="464" height="500" viewBox="0 0 464 500">
	<path d="M214.286 285.714v107.143q0 14.509-10.603 25.112t-25.112 10.603h-142.857q-14.509 0-25.112-10.603t-10.603-25.112v-107.143q0-14.509 10.603-25.112t25.112-10.603h142.857q14.509 0 25.112 10.603t10.603 25.112zM214.286 71.429v107.143q0 14.509-10.603 25.112t-25.112 10.603h-142.857q-14.509 0-25.112-10.603t-10.603-25.112v-107.143q0-14.509 10.603-25.112t25.112-10.603h142.857q14.509 0 25.112 10.603t10.603 25.112zM464.286 285.714v107.143q0 14.509-10.603 25.112t-25.112 10.603h-142.857q-14.509 0-25.112-10.603t-10.603-25.112v-107.143q0-14.509 10.603-25.112t25.112-10.603h142.857q14.509 0 25.112 10.603t10.603 25.112zM464.286 71.429v107.143q0 14.509-10.603 25.112t-25.112 10.603h-142.857q-14.509 0-25.112-10.603t-10.603-25.112v-107.143q0-14.509 10.603-25.112t25.112-10.603h142.857q14.509 0 25.112 10.603t10.603 25.112z" fill="#000000" />
</svg>
