<?xml version="1.0" encoding="utf-8"?>
<!DOCTYPE svg PUBLIC "-//W3C//DTD SVG 1.1 Tiny//EN" "http://www.w3.org/Graphics/SVG/1.1/DTD/svg11-tiny.dtd">
<svg version="1.1" baseProfile="tiny" id="Layer_1" xmlns="http://www.w3.org/2000/svg" xmlns:xlink="http://www.w3.org/1999/xlink" x="0px" y="0px" width="16px" height="16px" viewBox="0 0 500 500" xml:space="preserve">
	<path d="M71.429 160.714q0 7.254-5.301 12.556t-12.556 5.301q-7.534 0-12.695-5.301t-5.162-12.556q0-7.534 5.162-12.695t12.695-5.162q7.254 0 12.556 5.162t5.301 12.695zM116.071 303.571v-178.571q0-7.254-5.301-12.556t-12.556-5.301h-80.357q-7.254 0-12.556 5.301t-5.301 12.556v178.571q0 7.254 5.301 12.556t12.556 5.301h80.357q7.254 0 12.556-5.301t5.301-12.556zM431.083 261.998q15.346 17.020 15.346 41.574-0.279 21.763-16.043 37.667t-37.528 15.904h-77.288q1.116 3.906 2.232 6.696t3.069 6.138 2.79 5.022q5.022 10.324 7.534 15.904t5.301 16.323 2.79 21.345q0 6.696-0.14 10.882t-1.395 12.556-3.348 13.951-6.696 12.556-11.161 11.3-16.741 7.254-23.019 2.93q-7.254 0-12.556-5.301-5.581-5.581-9.487-13.951t-5.441-14.509-3.488-17.020q-2.511-11.719-3.767-16.88t-4.883-13.532-8.649-13.393q-9.208-9.208-28.181-33.482-13.672-17.857-28.181-33.761t-21.206-16.462q-6.976-0.558-11.998-5.72t-5.022-12.137v-178.851q0-7.254 5.301-12.417t12.556-5.441q9.766-0.279 44.085-12.277 21.484-7.254 33.622-11.021t33.901-8.091 40.179-4.325h35.993q37.109 0.558 54.966 21.763 16.183 19.252 13.672 50.502 10.882 10.324 15.067 26.228 4.743 17.020 0 32.645 12.835 17.020 11.998 38.226 0 8.929-4.185 21.206z" fill="#ffffff" />
</svg>
