<?xml version="1.0" encoding="utf-8"?>
<!DOCTYPE svg PUBLIC "-//W3C//DTD SVG 1.1 Tiny//EN" "http://www.w3.org/Graphics/SVG/1.1/DTD/svg11-tiny.dtd">
<svg version="1.1" baseProfile="tiny" id="Layer_1" xmlns="http://www.w3.org/2000/svg" xmlns:xlink="http://www.w3.org/1999/xlink" x="0px" y="0px" width="16px" height="16px" viewBox="0 0 500 500" xml:space="preserve">
	<path d="M133.929 241.071v-125q0-3.906-2.511-6.417t-6.417-2.511-6.417 2.511-2.511 6.417v125q0 3.906 2.511 6.417t6.417 2.511 6.417-2.511 2.511-6.417zM321.429 339.286q0 7.254-5.301 12.556t-12.556 5.301h-119.699l-14.23 134.766q-0.558 3.348-2.93 5.72t-5.72 2.372h-0.279q-7.534 0-8.929-7.534l-21.206-135.324h-112.723q-7.254 0-12.556-5.301t-5.301-12.556q0-34.319 21.903-61.802t49.526-27.483v-142.857q-14.509 0-25.112-10.603t-10.603-25.112 10.603-25.112 25.112-10.603h178.571q14.509 0 25.112 10.603t10.603 25.112-10.603 25.112-25.112 10.603v142.857q27.623 0 49.526 27.483t21.903 61.802z" fill="#ffffff" />
</svg>
