<?xml version="1.0" encoding="utf-8"?>
<!DOCTYPE svg PUBLIC "-//W3C//DTD SVG 1.1 Tiny//EN" "http://www.w3.org/Graphics/SVG/1.1/DTD/svg11-tiny.dtd">
<svg version="1.1" baseProfile="tiny" id="Layer_1" xmlns="http://www.w3.org/2000/svg" xmlns:xlink="http://www.w3.org/1999/xlink" x="0px" y="0px" width="16px" height="16px" viewBox="0 0 500 500" xml:space="preserve">
	<path d="M71.429 125q0-7.254-5.301-12.556t-12.556-5.301-12.556 5.301-5.301 12.556 5.301 12.556 12.556 5.301 12.556-5.301 5.301-12.556zM392.857 285.714q0-9.766-5.999-22.601t-14.927-13.114q4.185-4.743 6.976-13.253t2.79-15.485q0-19.252-14.788-33.203 5.022-8.929 5.022-19.252t-4.883-20.508-13.253-14.648q1.395-8.371 1.395-15.625 0-23.716-13.672-35.156t-37.946-11.44h-35.714q-36.551 0-95.424 20.368-1.395 0.558-8.091 2.93t-9.905 3.488-9.766 3.208-10.603 3.069-9.208 1.813-8.789 0.837h-8.929v178.571h8.929q4.464 0 9.905 2.511t11.161 7.534 10.742 9.905 11.161 12.277 9.626 11.858 8.789 11.44 6.417 8.371q15.346 18.973 21.484 25.391 11.44 11.998 16.602 30.552t8.51 35.017 10.603 23.716q26.786 0 35.714-13.114t8.929-40.458q0-16.462-13.393-44.782t-13.393-44.503h98.214q13.951 0 24.833-10.742t10.882-24.972zM428.571 285.993q0 28.739-21.206 49.944t-50.223 21.206h-49.107q13.393 27.623 13.393 53.571 0 32.924-9.766 51.897-9.766 19.252-28.46 28.32t-42.132 9.068q-14.23 0-25.112-10.324-9.487-9.208-15.067-22.879t-7.115-25.251-4.883-23.577-8.649-17.857q-13.393-13.951-29.855-35.435-28.181-36.551-38.226-43.248h-76.451q-14.788 0-25.251-10.463t-10.463-25.251v-178.571q0-14.788 10.463-25.251t25.251-10.463h80.357q6.138 0 38.504-11.161 35.714-12.277 62.221-18.415t55.804-6.138h31.25q39.063 0 63.198 22.042t23.856 60.268v1.395q16.741 21.484 16.741 49.665 0 6.138-0.837 11.998 10.603 18.694 10.603 40.179 0 10.044-2.511 19.252 13.672 20.647 13.672 45.48z" fill="#ffffff" />
</svg>
