<?xml version="1.0" encoding="utf-8"?>
<!DOCTYPE svg PUBLIC "-//W3C//DTD SVG 1.1 Tiny//EN" "http://www.w3.org/Graphics/SVG/1.1/DTD/svg11-tiny.dtd">
<svg version="1.1" baseProfile="tiny" id="Layer_1" xmlns="http://www.w3.org/2000/svg" xmlns:xlink="http://www.w3.org/1999/xlink" x="0px" y="0px" width="16px" height="16px" viewBox="0 0 500 500" xml:space="preserve">
	<path d="M71.429 375q0-7.254-5.301-12.556t-12.556-5.301q-7.534 0-12.695 5.301t-5.162 12.556q0 7.534 5.162 12.695t12.695 5.162q7.254 0 12.556-5.162t5.301-12.695zM116.071 232.143v178.571q0 7.254-5.301 12.556t-12.556 5.301h-80.357q-7.254 0-12.556-5.301t-5.301-12.556v-178.571q0-7.254 5.301-12.556t12.556-5.301h80.357q7.254 0 12.556 5.301t5.301 12.556zM446.429 232.143q0 23.996-15.346 41.574 4.185 12.277 4.185 21.206 0.837 21.206-11.998 38.226 4.743 15.625 0 32.645-4.185 15.904-15.067 26.228 2.511 31.25-13.672 50.502-17.857 21.206-54.966 21.763h-35.993q-18.415 0-40.179-4.325t-33.901-8.091-33.622-11.021q-34.319-11.998-44.085-12.277-7.254-0.279-12.556-5.441t-5.301-12.417v-178.851q0-6.976 5.022-12.137t11.998-5.72q6.696-0.558 21.206-16.462t28.181-33.761q18.973-24.274 28.181-33.482 5.022-5.022 8.649-13.393t4.883-13.532 3.767-16.88q1.953-10.882 3.488-17.020t5.441-14.509 9.487-13.951q5.301-5.301 12.556-5.301 12.835 0 23.019 2.93t16.741 7.254 11.161 11.3 6.696 12.556 3.348 13.951 1.395 12.556 0.14 10.882q0 10.603-2.651 21.206t-5.301 16.741-7.673 15.625q-0.837 1.674-2.79 5.022t-3.069 6.138-2.232 6.696h77.288q21.763 0 37.667 15.904t15.904 37.667z" fill="#ffffff" />
</svg>
