<?xml version="1.0" encoding="utf-8"?>
<!DOCTYPE svg PUBLIC "-//W3C//DTD SVG 1.1 Tiny//EN" "http://www.w3.org/Graphics/SVG/1.1/DTD/svg11-tiny.dtd">
<svg version="1.1" baseProfile="tiny" id="Layer_1" xmlns="http://www.w3.org/2000/svg" xmlns:xlink="http://www.w3.org/1999/xlink" x="0px" y="0px" width="16px" height="16px" viewBox="0 0 500 500" xml:space="preserve">
	<path d="M71.429 375q0-7.254-5.301-12.556t-12.556-5.301-12.556 5.301-5.301 12.556 5.301 12.556 12.556 5.301 12.556-5.301 5.301-12.556zM392.857 214.286q0-14.23-10.882-24.972t-24.833-10.742h-98.214q0-16.183 13.393-44.503t13.393-44.782q0-27.344-8.929-40.458t-35.714-13.114q-7.254 7.254-10.603 23.716t-8.51 35.017-16.602 30.552q-6.138 6.417-21.484 25.391-1.116 1.395-6.417 8.371t-8.789 11.44-9.626 11.858-11.161 12.277-10.742 9.905-11.161 7.534-9.905 2.511h-8.929v178.571h8.929q3.627 0 8.789 0.837t9.208 1.813 10.603 3.069 9.766 3.208 9.905 3.488 8.091 2.93q58.873 20.368 95.424 20.368h33.761q53.571 0 53.571-46.596 0-7.254-1.395-15.625 8.371-4.464 13.253-14.648t4.883-20.508-5.022-19.252q14.788-13.951 14.788-33.203 0-6.976-2.79-15.485t-6.976-13.253q8.929-0.279 14.927-13.114t5.999-22.601zM428.571 214.007q0 24.833-13.672 45.48 2.511 9.208 2.511 19.252 0 21.484-10.603 40.179 0.837 5.859 0.837 11.998 0 28.181-16.741 49.665 0.279 38.784-23.716 61.245t-63.337 22.461h-35.993q-26.786 0-52.874-6.278t-60.407-18.276q-32.366-11.161-38.504-11.161h-80.357q-14.788 0-25.251-10.463t-10.463-25.251v-178.571q0-14.788 10.463-25.251t25.251-10.463h76.451q10.044-6.696 38.226-43.248 16.183-20.926 29.855-35.714 6.696-6.976 9.905-23.856t8.51-35.296 17.299-30.134q10.882-10.324 25.112-10.324 23.438 0 42.132 9.068t28.46 28.32 9.766 51.897q0 25.949-13.393 53.571h49.107q29.018 0 50.223 21.206t21.206 49.944z" fill="#ffffff" />
</svg>
