<?xml version="1.0" encoding="utf-8"?>
<!DOCTYPE svg PUBLIC "-//W3C//DTD SVG 1.1 Tiny//EN" "http://www.w3.org/Graphics/SVG/1.1/DTD/svg11-tiny.dtd">
<svg version="1.1" baseProfile="tiny" id="Layer_1" xmlns="http://www.w3.org/2000/svg" xmlns:xlink="http://www.w3.org/1999/xlink" x="0px" y="0px" width="16px" height="16px" viewBox="0 0 500 500" xml:space="preserve">
	<path d="M285.714 126.116l88.169 88.169-159.598 159.598-88.169-88.169zM226.841 399.274l172.433-172.433q5.301-5.301 5.301-12.556t-5.301-12.556l-101.004-101.004q-5.022-5.022-12.556-5.022t-12.556 5.022l-172.433 172.433q-5.301 5.301-5.301 12.556t5.301 12.556l101.004 101.004q5.022 5.022 12.556 5.022t12.556-5.022zM474.888 221.54l-253.069 253.348q-10.324 10.324-25.251 10.324t-25.251-10.324l-35.156-35.156q15.625-15.625 15.625-37.946t-15.625-37.946-37.946-15.625-37.946 15.625l-34.877-35.156q-10.324-10.324-10.324-25.251t10.324-25.251l253.069-252.79q10.324-10.324 25.251-10.324t25.251 10.324l34.877 34.877q-15.625 15.625-15.625 37.946t15.625 37.946 37.946 15.625 37.946-15.625l35.156 34.877q10.324 10.324 10.324 25.251t-10.324 25.251z" fill="#ffffff" />
</svg>
