<?xml version="1.0" encoding="utf-8"?>
<!-- Generated by IcoMoon.io -->
<!DOCTYPE svg PUBLIC "-//W3C//DTD SVG 1.1//EN" "http://www.w3.org/Graphics/SVG/1.1/DTD/svg11.dtd">
<svg version="1.1" xmlns="http://www.w3.org/2000/svg" xmlns:xlink="http://www.w3.org/1999/xlink" width="393" height="500" viewBox="0 0 393 500">
	<path d="M362.165 368.862q0 11.161-7.813 18.973l-37.946 37.946q-7.813 7.813-18.973 7.813t-18.973-7.813l-82.031-82.031-82.031 82.031q-7.813 7.813-18.973 7.813t-18.973-7.813l-37.946-37.946q-7.813-7.813-7.813-18.973t7.813-18.973l82.031-82.031-82.031-82.031q-7.813-7.813-7.813-18.973t7.813-18.973l37.946-37.946q7.813-7.813 18.973-7.813t18.973 7.813l82.031 82.031 82.031-82.031q7.813-7.813 18.973-7.813t18.973 7.813l37.946 37.946q7.813 7.813 7.813 18.973t-7.813 18.973l-82.031 82.031 82.031 82.031q7.813 7.813 7.813 18.973z" fill="#000000" />
</svg>
