<?xml version="1.0" encoding="utf-8"?>
<!DOCTYPE svg PUBLIC "-//W3C//DTD SVG 1.1 Tiny//EN" "http://www.w3.org/Graphics/SVG/1.1/DTD/svg11-tiny.dtd">
<svg version="1.1" baseProfile="tiny" id="Layer_1" xmlns="http://www.w3.org/2000/svg" xmlns:xlink="http://www.w3.org/1999/xlink" x="0px" y="0px" width="16px" height="16px" viewBox="0 0 500 500" xml:space="preserve">
	<path d="M362.165 368.862q0 11.161-7.813 18.973l-37.946 37.946q-7.813 7.813-18.973 7.813t-18.973-7.813l-82.031-82.031-82.031 82.031q-7.813 7.813-18.973 7.813t-18.973-7.813l-37.946-37.946q-7.813-7.813-7.813-18.973t7.813-18.973l82.031-82.031-82.031-82.031q-7.813-7.813-7.813-18.973t7.813-18.973l37.946-37.946q7.813-7.813 18.973-7.813t18.973 7.813l82.031 82.031 82.031-82.031q7.813-7.813 18.973-7.813t18.973 7.813l37.946 37.946q7.813 7.813 7.813 18.973t-7.813 18.973l-82.031 82.031 82.031 82.031q7.813 7.813 7.813 18.973z" fill="#ffffff" />
</svg>
