<?xml version="1.0" encoding="utf-8"?>
<!DOCTYPE svg PUBLIC "-//W3C//DTD SVG 1.1 Tiny//EN" "http://www.w3.org/Graphics/SVG/1.1/DTD/svg11-tiny.dtd">
<svg version="1.1" baseProfile="tiny" id="Layer_1" xmlns="http://www.w3.org/2000/svg" xmlns:xlink="http://www.w3.org/1999/xlink" x="0px" y="0px" width="16px" height="16px" viewBox="0 0 500 500" xml:space="preserve">
	<path d="M142.857 321.429q0-10.044-5.581-19.252-0.279-0.279-4.325-6.278t-7.115-10.603-6.976-12.277-5.859-14.090q-1.116-4.464-5.859-4.464t-5.859 4.464q-1.953 6.417-5.859 14.090t-6.976 12.277-7.115 10.603-4.325 6.278q-5.581 9.208-5.581 19.252 0 14.788 10.463 25.251t25.251 10.463 25.251-10.463 10.463-25.251zM285.714 285.714q0 59.152-41.853 101.004t-101.004 41.853-101.004-41.853-41.853-101.004q0-40.458 22.601-76.73 1.674-2.511 17.438-25.251t28.181-42.132 27.762-49.665 23.159-56.222q2.511-8.371 9.487-13.114t14.23-4.743 14.37 4.743 9.347 13.114q7.813 25.949 23.159 56.222t27.762 49.665 28.181 42.132 17.438 25.251q22.601 35.435 22.601 76.73z" fill="#ffffff" />
</svg>
