<?xml version="1.0" encoding="utf-8"?>
<!-- Generated by IcoMoon.io -->
<!DOCTYPE svg PUBLIC "-//W3C//DTD SVG 1.1//EN" "http://www.w3.org/Graphics/SVG/1.1/DTD/svg11.dtd">
<svg version="1.1" xmlns="http://www.w3.org/2000/svg" xmlns:xlink="http://www.w3.org/1999/xlink" width="500" height="500" viewBox="0 0 500 500">
	<path d="M303.571 250q0 9.208-7.534 14.509l-125 89.286q-8.649 6.417-18.415 1.395-9.766-4.743-9.766-15.904v-178.571q0-11.161 9.766-15.904 9.766-5.022 18.415 1.395l125 89.286q7.534 5.301 7.534 14.509zM357.143 383.929v-267.857q0-3.906-2.511-6.417t-6.417-2.511h-267.857q-3.906 0-6.417 2.511t-2.511 6.417v267.857q0 3.906 2.511 6.417t6.417 2.511h267.857q3.906 0 6.417-2.511t2.511-6.417zM428.571 116.071v267.857q0 33.203-23.577 56.78t-56.78 23.577h-267.857q-33.203 0-56.78-23.577t-23.577-56.78v-267.857q0-33.203 23.577-56.78t56.78-23.577h267.857q33.203 0 56.78 23.577t23.577 56.78z" fill="#000000" />
</svg>
