<?xml version="1.0" encoding="utf-8"?>
<!-- Generated by IcoMoon.io -->
<!DOCTYPE svg PUBLIC "-//W3C//DTD SVG 1.1//EN" "http://www.w3.org/Graphics/SVG/1.1/DTD/svg11.dtd">
<svg version="1.1" xmlns="http://www.w3.org/2000/svg" xmlns:xlink="http://www.w3.org/1999/xlink" width="500" height="500" viewBox="0 0 500 500">
	<path d="M319.476 188.337q5.022 9.766-1.395 18.415l-89.286 125q-5.301 7.534-14.509 7.534t-14.509-7.534l-89.286-125q-6.417-8.649-1.395-18.415 4.743-9.766 15.904-9.766h178.571q11.161 0 15.904 9.766zM357.143 383.929v-267.857q0-3.627-2.651-6.278t-6.278-2.651h-267.857q-3.627 0-6.278 2.651t-2.651 6.278v267.857q0 3.627 2.651 6.278t6.278 2.651h267.857q3.627 0 6.278-2.651t2.651-6.278zM428.571 116.071v267.857q0 33.203-23.577 56.78t-56.78 23.577h-267.857q-33.203 0-56.78-23.577t-23.577-56.78v-267.857q0-33.203 23.577-56.78t56.78-23.577h267.857q33.203 0 56.78 23.577t23.577 56.78z" fill="#000000" />
</svg>
