<?xml version="1.0" encoding="utf-8"?>
<!DOCTYPE svg PUBLIC "-//W3C//DTD SVG 1.1 Tiny//EN" "http://www.w3.org/Graphics/SVG/1.1/DTD/svg11-tiny.dtd">
<svg version="1.1" baseProfile="tiny" id="Layer_1" xmlns="http://www.w3.org/2000/svg" xmlns:xlink="http://www.w3.org/1999/xlink" x="0px" y="0px" width="16px" height="16px" viewBox="0 0 500 500" xml:space="preserve">
	<path d="M285.714 160.714v178.571q0 7.254-5.301 12.556t-12.556 5.301q-5.581 0-10.324-3.348l-125-89.286q-7.534-5.301-7.534-14.509t7.534-14.509l125-89.286q4.743-3.348 10.324-3.348 7.254 0 12.556 5.301t5.301 12.556zM357.143 383.929v-267.857q0-3.627-2.651-6.278t-6.278-2.651h-267.857q-3.627 0-6.278 2.651t-2.651 6.278v267.857q0 3.627 2.651 6.278t6.278 2.651h267.857q3.627 0 6.278-2.651t2.651-6.278zM428.571 116.071v267.857q0 33.203-23.577 56.78t-56.78 23.577h-267.857q-33.203 0-56.78-23.577t-23.577-56.78v-267.857q0-33.203 23.577-56.78t56.78-23.577h267.857q33.203 0 56.78 23.577t23.577 56.78z" fill="#ffffff" />
</svg>
