<?xml version="1.0" encoding="utf-8"?>
<!DOCTYPE svg PUBLIC "-//W3C//DTD SVG 1.1 Tiny//EN" "http://www.w3.org/Graphics/SVG/1.1/DTD/svg11-tiny.dtd">
<svg version="1.1" baseProfile="tiny" id="Layer_1" xmlns="http://www.w3.org/2000/svg" xmlns:xlink="http://www.w3.org/1999/xlink" x="0px" y="0px" width="16px" height="16px" viewBox="0 0 500 500" xml:space="preserve">
	<path d="M142.857 205.357v160.714q0 3.906-2.511 6.417t-6.417 2.511h-17.857q-3.906 0-6.417-2.511t-2.511-6.417v-160.714q0-3.906 2.511-6.417t6.417-2.511h17.857q3.906 0 6.417 2.511t2.511 6.417zM214.286 205.357v160.714q0 3.906-2.511 6.417t-6.417 2.511h-17.857q-3.906 0-6.417-2.511t-2.511-6.417v-160.714q0-3.906 2.511-6.417t6.417-2.511h17.857q3.906 0 6.417 2.511t2.511 6.417zM285.714 205.357v160.714q0 3.906-2.511 6.417t-6.417 2.511h-17.857q-3.906 0-6.417-2.511t-2.511-6.417v-160.714q0-3.906 2.511-6.417t6.417-2.511h17.857q3.906 0 6.417 2.511t2.511 6.417zM321.429 407.366v-264.509h-250v264.509q0 6.138 1.953 11.3t4.046 7.534 2.93 2.372h232.143q0.837 0 2.93-2.372t4.046-7.534 1.953-11.3zM133.929 107.143h125l-13.393-32.645q-1.953-2.511-4.743-3.069h-88.449q-2.79 0.558-4.743 3.069zM392.857 116.071v17.857q0 3.906-2.511 6.417t-6.417 2.511h-26.786v264.509q0 23.159-13.114 40.039t-31.529 16.88h-232.143q-18.415 0-31.529-16.323t-13.114-39.481v-265.625h-26.786q-3.906 0-6.417-2.511t-2.511-6.417v-17.857q0-3.906 2.511-6.417t6.417-2.511h86.216l19.531-46.596q4.185-10.324 15.067-17.578t22.042-7.254h89.286q11.161 0 22.042 7.254t15.067 17.578l19.531 46.596h86.216q3.906 0 6.417 2.511t2.511 6.417z" fill="#ffffff" />
</svg>
