<?xml version="1.0" encoding="utf-8"?>
<!DOCTYPE svg PUBLIC "-//W3C//DTD SVG 1.1 Tiny//EN" "http://www.w3.org/Graphics/SVG/1.1/DTD/svg11-tiny.dtd">
<svg version="1.1" baseProfile="tiny" id="Layer_1" xmlns="http://www.w3.org/2000/svg" xmlns:xlink="http://www.w3.org/1999/xlink" x="0px" y="0px" width="16px" height="16px" viewBox="0 0 500 500" xml:space="preserve">
	<path d="M196.429 375v-285.714q0-3.906-2.511-6.417t-6.417-2.511h-133.929q-3.906 0-6.417 2.511t-2.511 6.417v285.714q0 3.906 2.511 6.417t6.417 2.511h133.929q3.906 0 6.417-2.511t2.511-6.417zM383.929 267.857v-178.571q0-3.906-2.511-6.417t-6.417-2.511h-133.929q-3.906 0-6.417 2.511t-2.511 6.417v178.571q0 3.906 2.511 6.417t6.417 2.511h133.929q3.906 0 6.417-2.511t2.511-6.417zM428.571 53.571v392.857q0 7.254-5.301 12.556t-12.556 5.301h-392.857q-7.254 0-12.556-5.301t-5.301-12.556v-392.857q0-7.254 5.301-12.556t12.556-5.301h392.857q7.254 0 12.556 5.301t5.301 12.556z" fill="#ffffff" />
</svg>
