<?xml version="1.0" encoding="utf-8"?>
<!DOCTYPE svg PUBLIC "-//W3C//DTD SVG 1.1 Tiny//EN" "http://www.w3.org/Graphics/SVG/1.1/DTD/svg11-tiny.dtd">
<svg version="1.1" baseProfile="tiny" id="Layer_1" xmlns="http://www.w3.org/2000/svg" xmlns:xlink="http://www.w3.org/1999/xlink" x="0px" y="0px" width="16px" height="16px" viewBox="0 0 500 500" xml:space="preserve">
	<path d="M178.571 392.857q0-14.509-10.603-25.112t-25.112-10.603-25.112 10.603-10.603 25.112 10.603 25.112 25.112 10.603 25.112-10.603 10.603-25.112zM71.429 250h107.143v-71.429h-44.085q-3.627 0-6.138 2.511l-54.409 54.409q-2.511 2.511-2.511 6.138v8.371zM428.571 392.857q0-14.509-10.603-25.112t-25.112-10.603-25.112 10.603-10.603 25.112 10.603 25.112 25.112 10.603 25.112-10.603 10.603-25.112zM500 89.286v285.714q0 4.185-1.116 7.394t-3.767 5.162-4.604 3.208-6.557 1.674-6.278 0.558-7.115 0-6.278-0.14q0 29.576-20.926 50.502t-50.502 20.926-50.502-20.926-20.926-50.502h-107.143q0 29.576-20.926 50.502t-50.502 20.926-50.502-20.926-20.926-50.502h-17.857q-0.837 0-6.278 0.14t-7.115 0-6.278-0.558-6.557-1.674-4.604-3.208-3.767-5.162-1.116-7.394q0-7.254 5.301-12.556t12.556-5.301v-89.286q0-2.232-0.14-9.766t0-10.603 0.698-9.626 1.813-10.324 3.906-8.51 6.278-8.371l55.246-55.246q5.301-5.301 14.090-8.929t16.323-3.627h44.643v-53.571q0-7.254 5.301-12.556t12.556-5.301h285.714q7.254 0 12.556 5.301t5.301 12.556z" fill="#ffffff" />
</svg>
