<?xml version="1.0" encoding="utf-8"?>
<!DOCTYPE svg PUBLIC "-//W3C//DTD SVG 1.1 Tiny//EN" "http://www.w3.org/Graphics/SVG/1.1/DTD/svg11-tiny.dtd">
<svg version="1.1" baseProfile="tiny" id="Layer_1" xmlns="http://www.w3.org/2000/svg" xmlns:xlink="http://www.w3.org/1999/xlink" x="0px" y="0px" width="16px" height="16px" viewBox="0 0 500 500" xml:space="preserve">
	<path d="M313.337 393.136v-50.502q-24.554 15.625-48.549 15.625-14.23 0-24.554-6.417-8.091-4.743-10.882-12.556-3.069-8.371-3.069-35.993v-82.31h76.451v-50.502h-76.451v-81.194h-45.759q-3.069 25.112-11.161 41.016t-21.763 27.623q-13.393 11.161-32.366 17.578v45.48h35.435v112.723q0 21.763 4.743 33.761 4.743 11.719 16.462 21.763 11.998 10.324 29.018 15.904 17.299 5.581 39.063 5.581 18.694 0 35.993-3.906 15.904-3.627 37.388-13.672zM428.571 116.071v267.857q0 33.203-23.577 56.78t-56.78 23.577h-267.857q-33.203 0-56.78-23.577t-23.577-56.78v-267.857q0-33.203 23.577-56.78t56.78-23.577h267.857q33.203 0 56.78 23.577t23.577 56.78z" fill="#ffffff" />
</svg>
