<?xml version="1.0" encoding="utf-8"?>
<!DOCTYPE svg PUBLIC "-//W3C//DTD SVG 1.1 Tiny//EN" "http://www.w3.org/Graphics/SVG/1.1/DTD/svg11-tiny.dtd">
<svg version="1.1" baseProfile="tiny" id="Layer_1" xmlns="http://www.w3.org/2000/svg" xmlns:xlink="http://www.w3.org/1999/xlink" x="0px" y="0px" width="16px" height="16px" viewBox="0 0 500 500" xml:space="preserve">
	<path d="M108.817 35.714h61.105v108.259h101.563v67.243h-101.563v109.933q0 37.946 3.906 47.991 3.627 10.324 14.509 16.741 13.951 8.649 32.645 8.649 32.645 0 64.732-21.206v67.522q-28.46 13.393-49.665 18.136-21.484 5.301-48.27 5.301-29.297 0-51.897-7.534-21.763-6.976-38.504-20.926-16.183-14.23-22.042-29.297-6.138-15.067-6.138-44.922v-150.391h-47.433v-60.547q25.391-8.371 43.248-23.437 17.857-15.346 28.739-36.831t15.067-54.688z" fill="#ffffff" />
</svg>
