<?xml version="1.0" encoding="utf-8"?>
<!DOCTYPE svg PUBLIC "-//W3C//DTD SVG 1.1 Tiny//EN" "http://www.w3.org/Graphics/SVG/1.1/DTD/svg11-tiny.dtd">
<svg version="1.1" baseProfile="tiny" id="Layer_1" xmlns="http://www.w3.org/2000/svg" xmlns:xlink="http://www.w3.org/1999/xlink" x="0px" y="0px" width="16px" height="16px" viewBox="0 0 500 500" xml:space="preserve">
	<path d="M321.429 232.143q0 53.292-26.367 98.493t-71.568 71.568-98.493 26.367h-44.643q-3.906 0-6.417-2.511t-2.511-6.417v-170.48l-59.989 18.415q-0.837 0.279-2.511 0.279-2.79 0-5.301-1.674-3.627-2.79-3.627-7.254v-35.714q0-6.417 6.417-8.649l65.011-19.81v-25.949l-59.989 18.415q-0.837 0.279-2.511 0.279-2.79 0-5.301-1.674-3.627-2.79-3.627-7.254v-35.714q0-6.417 6.417-8.649l65.011-19.81v-69.754q0-3.906 2.511-6.417t6.417-2.511h44.643q3.906 0 6.417 2.511t2.511 6.417v50.502l104.632-32.366q4.185-1.395 7.813 1.395t3.627 7.254v35.714q0 6.417-6.417 8.649l-109.654 33.761v25.949l104.632-32.366q4.185-1.395 7.813 1.395t3.627 7.254v35.714q0 6.417-6.417 8.649l-109.654 33.761v135.882q52.456-3.627 88.728-42.132t36.272-91.518q0-3.906 2.511-6.417t6.417-2.511h44.643q3.906 0 6.417 2.511t2.511 6.417z" fill="#ffffff" />
</svg>
