<?xml version="1.0" encoding="utf-8"?>
<!DOCTYPE svg PUBLIC "-//W3C//DTD SVG 1.1 Tiny//EN" "http://www.w3.org/Graphics/SVG/1.1/DTD/svg11-tiny.dtd">
<svg version="1.1" baseProfile="tiny" id="Layer_1" xmlns="http://www.w3.org/2000/svg" xmlns:xlink="http://www.w3.org/1999/xlink" x="0px" y="0px" width="16px" height="16px" viewBox="0 0 500 500" xml:space="preserve">
	<path d="M357.143 170.201q-15.625 6.976-33.761 9.487 18.973-11.161 25.949-32.645-18.136 10.603-37.388 14.23-17.020-18.415-42.69-18.415-24.274 0-41.434 17.16t-17.16 41.434q0 8.091 1.395 13.393-35.993-1.953-67.522-18.136t-53.571-43.248q-8.091 13.951-8.091 29.576 0 31.808 25.391 48.828-13.114-0.279-27.902-7.254v0.558q0 20.926 13.951 37.249t34.319 20.229q-8.091 2.232-14.23 2.232-3.627 0-10.882-1.116 5.859 17.578 20.787 29.018t33.901 11.719q-32.366 25.112-72.824 25.112-7.254 0-13.951-0.837 41.294 26.228 89.844 26.228 31.25 0 58.594-9.905t46.875-26.507 33.622-38.226 20.926-45.201 6.836-47.015q0-5.022-0.279-7.534 17.578-12.556 29.297-30.413zM428.571 116.071v267.857q0 33.203-23.577 56.78t-56.78 23.577h-267.857q-33.203 0-56.78-23.577t-23.577-56.78v-267.857q0-33.203 23.577-56.78t56.78-23.577h267.857q33.203 0 56.78 23.577t23.577 56.78z" fill="#ffffff" />
</svg>
