<?xml version="1.0" encoding="utf-8"?>
<!DOCTYPE svg PUBLIC "-//W3C//DTD SVG 1.1 Tiny//EN" "http://www.w3.org/Graphics/SVG/1.1/DTD/svg11-tiny.dtd">
<svg version="1.1" baseProfile="tiny" id="Layer_1" xmlns="http://www.w3.org/2000/svg" xmlns:xlink="http://www.w3.org/1999/xlink" x="0px" y="0px" width="16px" height="16px" viewBox="0 0 500 500" xml:space="preserve">
	<path d="M452.009 113.839q-18.694 27.344-45.201 46.596 0.279 3.906 0.279 11.719 0 36.272-10.603 72.405t-32.227 69.336-51.479 58.733-71.987 40.737-90.123 15.207q-75.614 0-138.393-40.458 9.766 1.116 21.763 1.116 62.779 0 111.886-38.504-29.297-0.558-52.456-17.997t-31.808-44.503q9.208 1.395 17.020 1.395 11.998 0 23.716-3.069-31.25-6.417-51.758-31.11t-20.508-57.338v-1.116q18.973 10.603 40.737 11.44-18.415-12.277-29.297-32.087t-10.882-42.969q0-24.554 12.277-45.48 33.761 41.574 82.171 66.546t103.655 27.762q-2.232-10.603-2.232-20.647 0-37.388 26.367-63.755t63.755-26.367q39.063 0 65.848 28.46 30.413-5.859 57.199-21.763-10.324 32.087-39.621 49.665 25.949-2.79 51.897-13.951z" fill="#ffffff" />
</svg>
