<?xml version="1.0" encoding="utf-8"?>
<!DOCTYPE svg PUBLIC "-//W3C//DTD SVG 1.1 Tiny//EN" "http://www.w3.org/Graphics/SVG/1.1/DTD/svg11-tiny.dtd">
<svg version="1.1" baseProfile="tiny" id="Layer_1" xmlns="http://www.w3.org/2000/svg" xmlns:xlink="http://www.w3.org/1999/xlink" x="0px" y="0px" width="16px" height="16px" viewBox="0 0 500 500" xml:space="preserve">
	<path d="M250 231.027v161.831q0 29.018-21.206 50.223t-50.223 21.206-50.223-21.206-21.206-50.223q0-7.254 5.301-12.556t12.556-5.301 12.556 5.301 5.301 12.556q0 13.951 10.882 24.833t24.833 10.882 24.833-10.882 10.882-24.833v-161.831q9.208-3.069 17.857-3.069t17.857 3.069zM464.286 238.56q0 3.627-2.651 6.278t-6.278 2.651q-3.069 0-6.417-2.79-13.672-12.835-25.949-19.252t-28.46-6.417q-18.973 0-35.714 10.324t-28.739 27.065q-1.953 2.79-4.883 7.813t-4.046 6.696q-3.069 4.743-7.813 4.743-5.022 0-8.091-4.743-1.116-1.674-4.046-6.696t-4.883-7.813q-11.998-16.741-28.599-27.065t-35.575-10.324-35.575 10.324-28.599 27.065q-1.953 2.79-4.883 7.813t-4.046 6.696q-3.069 4.743-8.091 4.743-4.743 0-7.813-4.743-1.116-1.674-4.046-6.696t-4.883-7.813q-11.998-16.741-28.739-27.065t-35.714-10.324q-16.183 0-28.46 6.417t-25.949 19.252q-3.348 2.79-6.417 2.79-3.627 0-6.278-2.651t-2.651-6.278q0-1.395 0.279-1.953 12.556-51.060 48.13-89.146t83.147-57.059 100.586-18.973q39.063 0 76.59 11.161t68.778 31.668 54.269 52.176 32.227 70.173q0.279 0.558 0.279 1.953zM250 35.714v27.344q-11.719-0.558-17.857-0.558t-17.857 0.558v-27.344q0-7.254 5.301-12.556t12.556-5.301 12.556 5.301 5.301 12.556z" fill="#ffffff" />
</svg>
