<?xml version="1.0" encoding="utf-8"?>
<!DOCTYPE svg PUBLIC "-//W3C//DTD SVG 1.1 Tiny//EN" "http://www.w3.org/Graphics/SVG/1.1/DTD/svg11-tiny.dtd">
<svg version="1.1" baseProfile="tiny" id="Layer_1" xmlns="http://www.w3.org/2000/svg" xmlns:xlink="http://www.w3.org/1999/xlink" x="0px" y="0px" width="16px" height="16px" viewBox="0 0 500 500" xml:space="preserve">
	<path d="M13.393 62.221q-10.324-0.558-12.556-1.116l-0.837-24.554q3.627-0.279 11.161-0.279 16.741 0 31.25 1.116 36.831 1.953 46.317 1.953 23.996 0 46.875-0.837 32.366-1.116 40.737-1.395 15.625 0 23.996-0.558l-0.279 3.906 0.558 17.857v2.511q-16.741 2.511-34.598 2.511-16.741 0-22.042 6.976-3.627 3.906-3.627 36.831 0 3.627 0.14 9.068t0.14 7.115l0.279 63.895 3.906 78.125q1.674 34.598 14.23 56.362 9.766 16.462 26.786 25.669 24.554 13.114 49.386 13.114 29.018 0 53.292-7.813 15.625-5.022 27.623-14.23 13.393-10.044 18.136-17.857 10.044-15.625 14.788-31.808 5.859-20.368 5.859-63.895 0-22.042-0.977-35.714t-3.069-34.18-3.767-44.503l-1.116-16.462q-1.395-18.694-6.696-24.554-9.487-9.766-21.484-9.487l-27.902 0.558-3.906-0.837 0.558-23.996h23.438l57.199 2.79q21.206 0.837 54.688-2.79l5.022 0.558q1.674 10.603 1.674 14.23 0 1.953-1.116 8.649-12.556 3.348-23.438 3.627-20.368 3.069-22.042 4.743-4.185 4.185-4.185 11.44 0 1.953 0.418 7.534t0.418 8.649q2.232 5.301 6.138 110.491 1.674 54.409-4.185 84.821-4.185 21.206-11.44 34.040-10.603 18.136-31.25 34.319-20.926 15.904-50.781 24.833-30.413 9.208-71.149 9.208-46.596 0-79.241-12.835-33.203-13.114-49.944-34.040-17.020-21.206-23.159-54.409-4.464-22.321-4.464-66.127v-92.913q0-52.456-4.743-59.431-6.976-10.044-41.016-10.882zM428.571 455.357v-17.857q0-3.906-2.511-6.417t-6.417-2.511h-410.714q-3.906 0-6.417 2.511t-2.511 6.417v17.857q0 3.906 2.511 6.417t6.417 2.511h410.714q3.906 0 6.417-2.511t2.511-6.417z" fill="#ffffff" />
</svg>
