<?xml version="1.0" encoding="utf-8"?>
<!DOCTYPE svg PUBLIC "-//W3C//DTD SVG 1.1 Tiny//EN" "http://www.w3.org/Graphics/SVG/1.1/DTD/svg11-tiny.dtd">
<svg version="1.1" baseProfile="tiny" id="Layer_1" xmlns="http://www.w3.org/2000/svg" xmlns:xlink="http://www.w3.org/1999/xlink" x="0px" y="0px" width="16px" height="16px" viewBox="0 0 500 500" xml:space="preserve">
	<path d="M428.571 250q0 43.527-17.020 83.147t-45.759 68.359-68.359 45.759-83.147 17.020q-47.991 0-91.239-20.229t-73.661-57.059q-1.953-2.79-1.813-6.278t2.372-5.72l38.226-38.504q2.79-2.511 6.976-2.511 4.464 0.558 6.417 3.348 20.368 26.507 49.944 41.016t62.779 14.509q29.018 0 55.385-11.3t45.62-30.552 30.552-45.62 11.3-55.385-11.3-55.385-30.552-45.62-45.62-30.552-55.385-11.3q-27.344 0-52.456 9.905t-44.643 28.32l38.226 38.504q8.649 8.371 3.906 19.252-4.743 11.161-16.462 11.161h-125q-7.254 0-12.556-5.301t-5.301-12.556v-125q0-11.719 11.161-16.462 10.882-4.743 19.252 3.906l36.272 35.993q29.855-28.181 68.22-43.667t79.38-15.485q43.527 0 83.147 17.020t68.359 45.759 45.759 68.359 17.020 83.147z" fill="#ffffff" />
</svg>
