<?xml version="1.0" encoding="utf-8"?>
<!DOCTYPE svg PUBLIC "-//W3C//DTD SVG 1.1 Tiny//EN" "http://www.w3.org/Graphics/SVG/1.1/DTD/svg11-tiny.dtd">
<svg version="1.1" baseProfile="tiny" id="Layer_1" xmlns="http://www.w3.org/2000/svg" xmlns:xlink="http://www.w3.org/1999/xlink" x="0px" y="0px" width="16px" height="16px" viewBox="0 0 500 500" xml:space="preserve">
	<path d="M122.489 354.632l-71.429 71.429q-2.79 2.511-6.417 2.511-3.348 0-6.417-2.511-2.511-2.79-2.511-6.417t2.511-6.417l71.429-71.429q2.79-2.511 6.417-2.511t6.417 2.511q2.511 2.79 2.511 6.417t-2.511 6.417zM169.643 366.071v89.286q0 3.906-2.511 6.417t-6.417 2.511-6.417-2.511-2.511-6.417v-89.286q0-3.906 2.511-6.417t6.417-2.511 6.417 2.511 2.511 6.417zM107.143 303.571q0 3.906-2.511 6.417t-6.417 2.511h-89.286q-3.906 0-6.417-2.511t-2.511-6.417 2.511-6.417 6.417-2.511h89.286q3.906 0 6.417 2.511t2.511 6.417zM459.821 339.286q0 33.482-23.716 56.641l-41.016 40.737q-23.159 23.159-56.641 23.159-33.761 0-56.919-23.716l-93.192-93.471q-5.859-5.859-11.719-15.625l66.685-5.022 76.172 76.451q7.534 7.534 18.973 7.673t18.973-7.394l41.016-40.737q7.813-7.813 7.813-18.694 0-11.161-7.813-18.973l-76.451-76.73 5.022-66.685q9.766 5.859 15.625 11.719l93.75 93.75q23.438 23.996 23.438 56.919zM287.667 137.277l-66.685 5.022-76.172-76.451q-7.813-7.813-18.973-7.813-10.882 0-18.973 7.534l-41.016 40.737q-7.813 7.813-7.813 18.694 0 11.161 7.813 18.973l76.451 76.451-5.022 66.964q-9.766-5.859-15.625-11.719l-93.75-93.75q-23.438-23.996-23.438-56.919 0-33.482 23.716-56.641l41.016-40.737q23.159-23.159 56.641-23.159 33.761 0 56.919 23.716l93.192 93.471q5.859 5.859 11.719 15.625zM464.286 160.714q0 3.906-2.511 6.417t-6.417 2.511h-89.286q-3.906 0-6.417-2.511t-2.511-6.417 2.511-6.417 6.417-2.511h89.286q3.906 0 6.417 2.511t2.511 6.417zM312.5 8.929v89.286q0 3.906-2.511 6.417t-6.417 2.511-6.417-2.511-2.511-6.417v-89.286q0-3.906 2.511-6.417t6.417-2.511 6.417 2.511 2.511 6.417zM426.060 51.060l-71.429 71.429q-3.069 2.511-6.417 2.511t-6.417-2.511q-2.511-2.79-2.511-6.417t2.511-6.417l71.429-71.429q2.79-2.511 6.417-2.511t6.417 2.511q2.511 2.79 2.511 6.417t-2.511 6.417z" fill="#ffffff" />
</svg>
