<?xml version="1.0" encoding="utf-8"?>
<!-- Generated by IcoMoon.io -->
<!DOCTYPE svg PUBLIC "-//W3C//DTD SVG 1.1//EN" "http://www.w3.org/Graphics/SVG/1.1/DTD/svg11.dtd">
<svg version="1.1" xmlns="http://www.w3.org/2000/svg" xmlns:xlink="http://www.w3.org/1999/xlink" width="464" height="500" viewBox="0 0 464 500">
	<path d="M357.143 410.714q0-7.254-5.301-12.556t-12.556-5.301-12.556 5.301-5.301 12.556 5.301 12.556 12.556 5.301 12.556-5.301 5.301-12.556zM428.571 410.714q0-7.254-5.301-12.556t-12.556-5.301-12.556 5.301-5.301 12.556 5.301 12.556 12.556 5.301 12.556-5.301 5.301-12.556zM464.286 348.214v89.286q0 11.161-7.813 18.973t-18.973 7.813h-410.714q-11.161 0-18.973-7.813t-7.813-18.973v-89.286q0-11.161 7.813-18.973t18.973-7.813h119.141q5.859 15.625 19.671 25.669t30.832 10.044h71.429q17.020 0 30.832-10.044t19.671-25.669h119.141q11.161 0 18.973 7.813t7.813 18.973zM373.605 167.411q-4.743 11.161-16.462 11.161h-71.429v125q0 7.254-5.301 12.556t-12.556 5.301h-71.429q-7.254 0-12.556-5.301t-5.301-12.556v-125h-71.429q-11.719 0-16.462-11.161-4.743-10.882 3.906-19.252l125-125q5.022-5.301 12.556-5.301t12.556 5.301l125 125q8.649 8.371 3.906 19.252z" fill="#000000" />
</svg>
