<?xml version="1.0" encoding="utf-8"?>
<!DOCTYPE svg PUBLIC "-//W3C//DTD SVG 1.1 Tiny//EN" "http://www.w3.org/Graphics/SVG/1.1/DTD/svg11-tiny.dtd">
<svg version="1.1" baseProfile="tiny" id="Layer_1" xmlns="http://www.w3.org/2000/svg" xmlns:xlink="http://www.w3.org/1999/xlink" x="0px" y="0px" width="16px" height="16px" viewBox="0 0 500 500" xml:space="preserve">
	<path d="M272.879 330.636q0 42.69-27.762 73.521t-72.126 38.086v48.828q0 3.906-2.511 6.417t-6.417 2.511h-37.667q-3.627 0-6.278-2.651t-2.651-6.278v-48.828q-18.415-2.511-35.575-8.649t-28.32-12.417-20.647-13.393-12.974-10.463-4.883-5.022q-4.743-5.859-0.558-11.44l28.739-37.667q1.953-2.79 6.417-3.348 4.185-0.558 6.696 2.511l0.558 0.558q31.529 27.623 67.801 34.877 10.324 2.232 20.647 2.232 22.601 0 39.76-11.998t17.16-34.040q0-7.813-4.185-14.788t-9.347-11.719-16.323-10.463-18.415-8.929-22.321-9.068q-10.882-4.464-17.16-6.976t-17.16-7.394-17.438-8.649-15.765-9.905-14.927-11.858-12.137-13.672-9.905-16.183-5.859-18.555-2.372-21.763q0-38.504 27.344-67.522t71.149-37.388v-50.223q0-3.627 2.651-6.278t6.278-2.651h37.667q3.906 0 6.417 2.511t2.511 6.417v49.107q15.904 1.674 30.832 6.417t24.274 9.347 17.718 10.463 10.882 8.091 4.185 3.906q4.743 5.022 1.395 10.603l-22.601 40.737q-2.232 4.185-6.417 4.464-3.906 0.837-7.534-1.953-0.837-0.837-4.046-3.348t-10.882-7.394-16.323-8.929-20.787-7.254-23.856-3.208q-26.507 0-43.248 11.998t-16.741 30.971q0 7.254 2.372 13.393t8.231 11.579 11.021 9.208 15.625 8.649 16.88 7.534 19.531 7.673q14.788 5.581 22.601 8.789t21.206 9.766 21.066 11.858 17.299 13.951 14.788 17.718 8.789 21.345 3.627 26.228z" fill="#ffffff" />
</svg>
