<?xml version="1.0" encoding="utf-8"?>
<!DOCTYPE svg PUBLIC "-//W3C//DTD SVG 1.1 Tiny//EN" "http://www.w3.org/Graphics/SVG/1.1/DTD/svg11-tiny.dtd">
<svg version="1.1" baseProfile="tiny" id="Layer_1" xmlns="http://www.w3.org/2000/svg" xmlns:xlink="http://www.w3.org/1999/xlink" x="0px" y="0px" width="16px" height="16px" viewBox="0 0 500 500" xml:space="preserve">
	<path d="M107.143 375q0 7.254-5.301 12.556t-12.556 5.301-12.556-5.301-5.301-12.556 5.301-12.556 12.556-5.301 12.556 5.301 5.301 12.556zM392.857 392.020q0 33.761-20.368 53.013t-54.129 19.252h-243.862q-33.761 0-54.129-19.252t-20.368-53.013q0-18.973 1.535-36.551t6.696-38.504 13.253-36.97 22.601-28.739 33.482-16.88q-6.138 14.509-6.138 33.482v56.641q-16.183 5.581-25.949 19.531t-9.766 30.971q0 22.321 15.625 37.946t37.946 15.625 37.946-15.625 15.625-37.946q0-17.020-9.905-30.971t-25.809-19.531v-56.641q0-17.299 6.976-25.949 36.831 29.018 82.31 29.018t82.31-29.018q6.976 8.649 6.976 25.949v17.857q-29.576 0-50.502 20.926t-20.926 50.502v24.833q-8.929 8.091-8.929 19.81 0 11.161 7.813 18.973t18.973 7.813 18.973-7.813 7.813-18.973q0-11.719-8.929-19.81v-24.833q0-14.509 10.603-25.112t25.112-10.603 25.112 10.603 10.603 25.112v24.833q-8.929 8.091-8.929 19.81 0 11.161 7.813 18.973t18.973 7.813 18.973-7.813 7.813-18.973q0-11.719-8.929-19.81v-24.833q0-18.973-9.626-35.575t-26.088-26.088q0-2.79 0.14-11.858t0-13.393-0.698-11.579-1.953-13.114-3.627-11.161q18.973 4.185 33.482 16.88t22.601 28.739 13.253 36.97 6.696 38.504 1.535 36.551zM303.571 142.857q0 44.364-31.39 75.753t-75.753 31.39-75.753-31.39-31.39-75.753 31.39-75.753 75.753-31.39 75.753 31.39 31.39 75.753z" fill="#ffffff" />
</svg>
