<?xml version="1.0" encoding="utf-8"?>
<!-- Generated by IcoMoon.io -->
<!DOCTYPE svg PUBLIC "-//W3C//DTD SVG 1.1//EN" "http://www.w3.org/Graphics/SVG/1.1/DTD/svg11.dtd">
<svg version="1.1" xmlns="http://www.w3.org/2000/svg" xmlns:xlink="http://www.w3.org/1999/xlink" width="393" height="500" viewBox="0 0 393 500">
	<path d="M392.857 392.020q0 33.482-20.368 52.874t-54.129 19.392h-243.862q-33.761 0-54.129-19.392t-20.368-52.874q0-14.788 0.977-28.878t3.906-30.413 7.394-30.273 11.998-27.204 17.299-22.601 23.856-14.927 31.11-5.581q2.511 0 11.719 5.999t20.787 13.393 30.134 13.393 37.249 5.999 37.249-5.999 30.134-13.393 20.787-13.393 11.719-5.999q17.020 0 31.11 5.581t23.856 14.927 17.299 22.601 11.998 27.204 7.394 30.273 3.906 30.413 0.977 28.878zM303.571 142.857q0 44.364-31.39 75.753t-75.753 31.39-75.753-31.39-31.39-75.753 31.39-75.753 75.753-31.39 75.753 31.39 31.39 75.753z" fill="#000000" />
</svg>
