<?xml version="1.0" encoding="utf-8"?>
<!DOCTYPE svg PUBLIC "-//W3C//DTD SVG 1.1 Tiny//EN" "http://www.w3.org/Graphics/SVG/1.1/DTD/svg11-tiny.dtd">
<svg version="1.1" baseProfile="tiny" id="Layer_1" xmlns="http://www.w3.org/2000/svg" xmlns:xlink="http://www.w3.org/1999/xlink" x="0px" y="0px" width="16px" height="16px" viewBox="0 0 500 500" xml:space="preserve">
	<path d="M500 98.214v303.571q0 11.719-10.882 16.462-3.627 1.395-6.976 1.395-7.534 0-12.556-5.301l-112.444-112.444v46.317q0 33.203-23.577 56.78t-56.78 23.577h-196.429q-33.203 0-56.78-23.577t-23.577-56.78v-196.429q0-33.203 23.577-56.78t56.78-23.577h196.429q33.203 0 56.78 23.577t23.577 56.78v46.038l112.444-112.165q5.022-5.301 12.556-5.301 3.348 0 6.976 1.395 10.882 4.743 10.882 16.462z" fill="#ffffff" />
</svg>
