<?xml version="1.0" encoding="utf-8"?>
<!DOCTYPE svg PUBLIC "-//W3C//DTD SVG 1.1 Tiny//EN" "http://www.w3.org/Graphics/SVG/1.1/DTD/svg11-tiny.dtd">
<svg version="1.1" baseProfile="tiny" id="Layer_1" xmlns="http://www.w3.org/2000/svg" xmlns:xlink="http://www.w3.org/1999/xlink" x="0px" y="0px" width="16px" height="16px" viewBox="0 0 500 500" xml:space="preserve">
	<path d="M349.888 177.734q4.464-23.716-5.859-36.831-14.509-18.136-52.176-12.556-4.743 0.837-11.44 3.488t-16.043 8.51-17.997 13.532-16.602 19.531-12.417 25.53q22.321-1.953 31.668 4.464t7.394 27.623q-1.395 14.509-14.509 39.899-11.998 21.763-19.81 27.623-12.277 8.929-24.274-3.906-6.417-6.696-10.463-17.997t-5.301-20.368-2.79-23.438-2.372-19.95q-6.417-35.993-9.487-45.759-3.348-10.324-9.905-19.252t-14.090-11.161q-15.904-4.464-35.435 6.976-15.067 8.929-38.086 29.576t-34.18 28.46v1.953q4.464 2.232 7.115 7.254t5.999 5.581q5.859 0.837 15.207-2.372t16.183-2.93 11.579 8.371q3.069 5.022 5.162 10.742t4.185 13.393 3.488 11.3q4.743 12.835 14.788 52.176 10.044 40.737 15.904 54.966 11.719 27.623 28.739 34.877 11.998 3.348 23.716 0.418t21.206-8.789q36.551-21.484 69.754-66.127 29.018-38.784 48.13-81.613t23.019-63.198zM428.571 116.071v267.857q0 33.203-23.577 56.78t-56.78 23.577h-267.857q-33.203 0-56.78-23.577t-23.577-56.78v-267.857q0-33.203 23.577-56.78t56.78-23.577h267.857q33.203 0 56.78 23.577t23.577 56.78z" fill="#ffffff" />
</svg>
