<?xml version="1.0" encoding="utf-8"?>
<!DOCTYPE svg PUBLIC "-//W3C//DTD SVG 1.1 Tiny//EN" "http://www.w3.org/Graphics/SVG/1.1/DTD/svg11-tiny.dtd">
<svg version="1.1" baseProfile="tiny" id="Layer_1" xmlns="http://www.w3.org/2000/svg" xmlns:xlink="http://www.w3.org/1999/xlink" x="0px" y="0px" width="16px" height="16px" viewBox="0 0 500 500" xml:space="preserve">
	<path d="M534.877 145.089q6.417 17.857-41.853 82.031-6.696 8.929-18.136 23.716-21.763 27.902-25.112 36.551-4.743 11.44 3.906 22.601 4.743 5.859 22.601 22.879h0.279l1.116 1.116q39.341 36.551 53.292 61.663 0.837 1.395 1.813 3.488t1.953 7.394-0.14 9.487-6.976 7.673-16.462 3.488l-71.429 1.116q-6.696 1.395-15.625-1.395t-14.509-6.138l-5.581-3.348q-8.371-5.859-19.531-17.857t-19.113-21.624-17.020-16.183-15.765-4.325q-0.837 0.279-2.232 0.977t-4.743 4.046-5.999 8.231-4.743 14.509-1.813 21.624q0 4.185-0.977 7.673t-2.093 5.162l-1.116 1.395q-5.022 5.301-14.788 6.138h-32.087q-19.81 1.116-40.737-4.604t-36.691-14.788-28.739-18.415-19.671-16.043l-6.976-6.696q-2.79-2.79-7.673-8.371t-19.95-25.391-29.576-42.132-34.18-58.873-36.412-75.893q-1.674-4.464-1.674-7.534t0.837-4.464l1.116-1.674q4.185-5.301 15.904-5.301l76.451-0.558q3.348 0.558 6.417 1.813t4.464 2.372l1.395 0.837q4.464 3.069 6.696 8.929 5.581 13.951 12.835 28.878t11.44 22.74l4.464 8.091q8.091 16.741 15.625 29.018t13.532 19.113 11.579 10.742 9.487 3.906 7.534-1.395q0.558-0.279 1.395-1.395t3.348-6.138 3.767-13.114 2.651-22.601 0-34.877q-0.558-11.161-2.511-20.368t-3.906-12.835l-1.674-3.348q-6.976-9.487-23.716-11.998-3.627-0.558 1.395-6.696 4.743-5.301 10.603-8.371 14.788-7.254 66.685-6.696 22.879 0.279 37.667 3.627 5.581 1.395 9.347 3.767t5.72 6.696 2.93 8.929 0.977 12.695-0.279 15.346-0.698 19.671-0.418 23.019q0 3.069-0.279 11.719t-0.14 13.393 0.977 11.3 3.208 10.882 6.278 6.836q2.232 0.558 4.743 1.116t7.254-3.069 10.603-9.626 14.509-18.694 18.973-29.995q16.741-29.018 29.855-62.779 1.116-2.79 2.79-4.883t3.069-2.93l1.116-0.837 1.395-0.698t3.627-0.837 5.581-0.14l80.357-0.558q10.882-1.395 17.857 0.698t8.649 4.604z" fill="#ffffff" />
</svg>
