<?xml version="1.0" encoding="utf-8"?>
<!DOCTYPE svg PUBLIC "-//W3C//DTD SVG 1.1 Tiny//EN" "http://www.w3.org/Graphics/SVG/1.1/DTD/svg11-tiny.dtd">
<svg version="1.1" baseProfile="tiny" id="Layer_1" xmlns="http://www.w3.org/2000/svg" xmlns:xlink="http://www.w3.org/1999/xlink" x="0px" y="0px" width="16px" height="16px" viewBox="0 0 500 500" xml:space="preserve">
	<path d="M316.127 438.058q-47.712 26.228-102.679 26.228-54.688 0-102.399-26.228 38.504-24.274 65.708-58.873t36.691-74.777q9.766 40.179 36.97 74.777t65.708 58.873zM178.013 39.621v135.324q0 70.313-35.296 128.208t-92.215 85.519q-50.502-59.989-50.502-138.114 0-52.176 23.298-97.517t64.035-75.195 90.681-38.226zM428.571 250.558q0 78.125-50.502 138.114-56.919-27.623-92.215-85.519t-35.296-128.208v-135.324q49.944 8.371 90.681 38.226t64.035 75.195 23.298 97.517z" fill="#ffffff" />
</svg>
