<?xml version="1.0" encoding="utf-8"?>
<!DOCTYPE svg PUBLIC "-//W3C//DTD SVG 1.1 Tiny//EN" "http://www.w3.org/Graphics/SVG/1.1/DTD/svg11-tiny.dtd">
<svg version="1.1" baseProfile="tiny" id="Layer_1" xmlns="http://www.w3.org/2000/svg" xmlns:xlink="http://www.w3.org/1999/xlink" x="0px" y="0px" width="16px" height="16px" viewBox="0 0 500 500" xml:space="preserve">
	<path d="M214.286 98.214v303.571q0 7.254-5.301 12.556t-12.556 5.301-12.556-5.301l-92.913-92.913h-73.103q-7.254 0-12.556-5.301t-5.301-12.556v-107.143q0-7.254 5.301-12.556t12.556-5.301h73.103l92.913-92.913q5.301-5.301 12.556-5.301t12.556 5.301 5.301 12.556zM321.429 250q0 21.206-11.858 39.481t-31.39 26.088q-2.79 1.395-6.976 1.395-7.254 0-12.556-5.162t-5.301-12.695q0-5.859 3.348-9.905t8.091-6.976 9.487-6.417 8.091-9.905 3.348-15.904-3.348-15.904-8.091-9.905-9.487-6.417-8.091-6.976-3.348-9.905q0-7.534 5.301-12.695t12.556-5.162q4.185 0 6.976 1.395 19.531 7.534 31.39 25.949t11.858 39.621zM392.857 250q0 42.69-23.716 78.823t-62.779 52.595q-3.627 1.395-6.976 1.395-7.534 0-12.835-5.301t-5.301-12.556q0-10.882 10.882-16.462 15.625-8.091 21.206-12.277 20.647-15.067 32.227-37.807t11.579-48.41-11.579-48.41-32.227-37.807q-5.581-4.185-21.206-12.277-10.882-5.581-10.882-16.462 0-7.254 5.301-12.556t12.556-5.301q3.627 0 7.254 1.395 39.063 16.462 62.779 52.595t23.716 78.823zM464.286 250q0 64.174-35.435 117.885t-94.308 79.102q-3.627 1.395-7.254 1.395-7.254 0-12.556-5.301t-5.301-12.556q0-10.044 10.882-16.462 1.953-1.116 6.278-2.93t6.278-2.93q12.835-6.976 22.879-14.23 34.319-25.391 53.571-63.337t19.252-80.636-19.252-80.636-53.571-63.337q-10.044-7.254-22.879-14.23-1.953-1.116-6.278-2.93t-6.278-2.93q-10.882-6.417-10.882-16.462 0-7.254 5.301-12.556t12.556-5.301q3.627 0 7.254 1.395 58.873 25.391 94.308 79.102t35.435 117.885z" fill="#ffffff" />
</svg>
