<?xml version="1.0" encoding="utf-8"?>
<!DOCTYPE svg PUBLIC "-//W3C//DTD SVG 1.1 Tiny//EN" "http://www.w3.org/Graphics/SVG/1.1/DTD/svg11-tiny.dtd">
<svg version="1.1" baseProfile="tiny" id="Layer_1" xmlns="http://www.w3.org/2000/svg" xmlns:xlink="http://www.w3.org/1999/xlink" x="0px" y="0px" width="16px" height="16px" viewBox="0 0 500 500" xml:space="preserve">
	<path d="M214.286 98.214v303.571q0 7.254-5.301 12.556t-12.556 5.301-12.556-5.301l-92.913-92.913h-73.103q-7.254 0-12.556-5.301t-5.301-12.556v-107.143q0-7.254 5.301-12.556t12.556-5.301h73.103l92.913-92.913q5.301-5.301 12.556-5.301t12.556 5.301 5.301 12.556zM321.429 250q0 21.206-11.858 39.481t-31.39 26.088q-2.79 1.395-6.976 1.395-7.254 0-12.556-5.162t-5.301-12.695q0-5.859 3.348-9.905t8.091-6.976 9.487-6.417 8.091-9.905 3.348-15.904-3.348-15.904-8.091-9.905-9.487-6.417-8.091-6.976-3.348-9.905q0-7.534 5.301-12.695t12.556-5.162q4.185 0 6.976 1.395 19.531 7.534 31.39 25.949t11.858 39.621z" fill="#ffffff" />
</svg>
