<?xml version="1.0" encoding="utf-8"?>
<!DOCTYPE svg PUBLIC "-//W3C//DTD SVG 1.1 Tiny//EN" "http://www.w3.org/Graphics/SVG/1.1/DTD/svg11-tiny.dtd">
<svg version="1.1" baseProfile="tiny" id="Layer_1" xmlns="http://www.w3.org/2000/svg" xmlns:xlink="http://www.w3.org/1999/xlink" x="0px" y="0px" width="16px" height="16px" viewBox="0 0 500 500" xml:space="preserve">
	<path d="M188.337 358.259q5.859-9.487 3.069-19.252t-12.556-13.951q-9.487-3.906-20.368-0.279t-16.741 12.835q-6.138 9.487-3.627 19.113t11.998 14.090 20.787 0.698 17.438-13.253zM214.565 324.498q2.232-3.627 0.977-7.394t-4.883-5.162q-3.906-1.395-7.952 0.14t-5.999 5.162q-4.743 8.649 3.627 12.556 3.906 1.395 8.091-0.14t6.138-5.162zM263.114 354.353q-12.556 28.46-44.085 41.853t-62.5 3.348q-29.855-9.487-41.155-35.296t1.813-52.316q13.114-25.949 42.271-38.784t58.733-5.301q30.971 8.091 44.224 33.343t0.698 53.153zM350.167 309.71q-2.511-26.786-24.833-47.433t-58.175-30.413-76.59-5.859q-62.221 6.417-103.097 39.481t-36.97 73.8q2.511 26.786 24.833 47.433t58.175 30.413 76.59 5.859q62.221-6.417 103.097-39.481t36.97-73.8zM436.105 310.826q0 18.973-10.324 38.923t-30.413 38.226-47.015 32.785-63.058 23.159-75.474 8.649-76.73-9.347-67.104-25.949-47.852-42.132-18.136-55.664q0-32.087 19.392-68.359t55.106-71.987q47.154-47.154 95.285-65.848t68.778 1.953q18.136 17.857 5.581 58.315-1.116 3.906-0.279 5.581t2.79 1.953 4.046-0.14 3.767-0.977l1.674-0.558q38.784-16.462 68.638-16.462t42.69 17.020q12.556 17.578 0 49.665-0.558 3.627-1.255 5.581t1.255 3.488 3.348 2.093 4.743 1.674q15.904 5.022 28.739 13.114t22.321 22.74 9.487 32.505zM415.458 136.719q11.719 13.114 15.207 30.273t-1.813 32.785q-2.232 6.417-8.231 9.487t-12.417 1.116q-6.417-2.232-9.487-8.231t-1.116-12.417q5.581-17.578-6.696-30.971t-29.855-9.766q-6.696 1.395-12.556-2.232t-6.976-10.324q-1.395-6.696 2.232-12.417t10.324-7.115q16.741-3.627 33.203 1.535t28.181 18.276zM465.96 91.239q24.274 26.786 31.39 62.082t-3.767 67.383q-2.511 7.534-9.487 11.161t-14.509 1.116-11.161-9.487-1.395-14.509q7.813-22.879 2.79-47.991t-22.321-44.085q-17.299-19.252-41.294-26.646t-48.27-2.372q-7.813 1.674-14.509-2.651t-8.371-12.137 2.651-14.37 12.137-8.231q34.319-7.254 68.081 3.208t58.036 37.528z" fill="#ffffff" />
</svg>
