<?xml version="1.0" encoding="utf-8"?>
<!DOCTYPE svg PUBLIC "-//W3C//DTD SVG 1.1 Tiny//EN" "http://www.w3.org/Graphics/SVG/1.1/DTD/svg11-tiny.dtd">
<svg version="1.1" baseProfile="tiny" id="Layer_1" xmlns="http://www.w3.org/2000/svg" xmlns:xlink="http://www.w3.org/1999/xlink" x="0px" y="0px" width="16px" height="16px" viewBox="0 0 500 500" xml:space="preserve">
	<path d="M285.435 331.194l28.46 56.919q-16.183 49.944-58.594 80.915t-94.587 30.971q-43.527 0-80.497-21.624t-58.594-58.594-21.624-80.497q0-50.502 29.157-92.076t76.59-58.873l4.743 36.551q-34.040 15.067-54.409 46.177t-20.368 68.22q0 51.618 36.691 88.309t88.309 36.691q35.156 0 64.872-18.136t46.038-48.968 13.812-65.988zM438.337 359.096l16.183 31.808-71.429 35.714q-3.627 1.953-8.091 1.953-11.161 0-15.904-9.766l-66.685-133.091h-131.696q-6.696 0-11.858-4.604t-5.999-11.3l-26.786-217.355q-0.558-4.464 1.674-11.719 3.906-14.23 15.904-23.019t27.065-8.789q18.415 0 31.529 13.114t13.114 31.529q0 19.252-14.509 32.785t-33.482 11.579l10.324 80.636h118.024v35.714h-113.56l4.464 35.714h126.953q11.161 0 15.904 9.766l63.616 126.953z" fill="#ffffff" />
</svg>
