<?xml version="1.0" encoding="utf-8"?>
<!DOCTYPE svg PUBLIC "-//W3C//DTD SVG 1.1 Tiny//EN" "http://www.w3.org/Graphics/SVG/1.1/DTD/svg11-tiny.dtd">
<svg version="1.1" baseProfile="tiny" id="Layer_1" xmlns="http://www.w3.org/2000/svg" xmlns:xlink="http://www.w3.org/1999/xlink" x="0px" y="0px" width="16px" height="16px" viewBox="0 0 500 500" xml:space="preserve">
	<path d="M107.143 410.714q0-7.254-5.301-12.556t-12.556-5.301-12.556 5.301-5.301 12.556 5.301 12.556 12.556 5.301 12.556-5.301 5.301-12.556zM286.831 293.527l-190.29 190.29q-10.324 10.324-25.112 10.324-14.509 0-25.391-10.324l-29.576-30.134q-10.603-10.044-10.603-25.112 0-14.788 10.603-25.391l190.011-190.011q10.882 27.344 31.948 48.41t48.41 31.948zM463.728 172.154q0 10.882-6.417 29.576-13.114 37.388-45.898 60.687t-72.126 23.298q-51.618 0-88.309-36.691t-36.691-88.309 36.691-88.309 88.309-36.691q16.183 0 33.901 4.604t29.995 12.974q4.464 3.069 4.464 7.813t-4.464 7.813l-81.752 47.154v62.5l53.851 29.855q1.395-0.837 22.042-13.532t37.807-22.601 19.671-9.905q4.185 0 6.557 2.79t2.372 6.976z" fill="#ffffff" />
</svg>
