<?xml version="1.0" encoding="utf-8"?>
<!DOCTYPE svg PUBLIC "-//W3C//DTD SVG 1.1 Tiny//EN" "http://www.w3.org/Graphics/SVG/1.1/DTD/svg11-tiny.dtd">
<svg version="1.1" baseProfile="tiny" id="Layer_1" xmlns="http://www.w3.org/2000/svg" xmlns:xlink="http://www.w3.org/1999/xlink" x="0px" y="0px" width="16px" height="16px" viewBox="0 0 500 500" xml:space="preserve">
	<path d="M166.574 186.105q-2.79 5.022-71.708 127.232-7.534 12.835-18.136 12.835h-66.685q-5.859 0-8.649-4.743t0-10.044l70.591-125q0.279 0 0-0.279l-44.922-77.846q-3.348-6.138-0.279-10.324 2.511-4.185 8.929-4.185h66.685q11.161 0 18.415 12.556zM391.462 6.976q3.069 4.464 0 10.324l-147.321 260.603v0.279l93.75 171.596q3.069 5.581 0.279 10.324-2.79 4.185-8.929 4.185h-66.685q-11.719 0-18.415-12.556l-94.587-173.549q5.022-8.929 148.159-262.835 6.976-12.556 17.857-12.556h67.243q6.138 0 8.649 4.185z" fill="#ffffff" />
</svg>
