<?xml version="1.0" encoding="utf-8"?>
<!DOCTYPE svg PUBLIC "-//W3C//DTD SVG 1.1 Tiny//EN" "http://www.w3.org/Graphics/SVG/1.1/DTD/svg11-tiny.dtd">
<svg version="1.1" baseProfile="tiny" id="Layer_1" xmlns="http://www.w3.org/2000/svg" xmlns:xlink="http://www.w3.org/1999/xlink" x="0px" y="0px" width="16px" height="16px" viewBox="0 0 500 500" xml:space="preserve">
	<path d="M191.127 213.449q0-0.279-35.156-61.942-5.859-9.487-14.509-9.487h-51.339q-5.022 0-7.254 3.069-1.953 3.348 0.279 8.091l34.877 60.268v0.279l-54.688 96.54q-2.511 3.906 0 7.813 2.232 3.627 6.696 3.627h51.618q8.649 0 13.951-10.044zM365.234 74.777q-1.953-3.348-6.696-3.348h-52.176q-8.371 0-13.672 9.766l-114.676 203.404q0.279 0.558 73.103 134.208 5.581 9.766 14.509 9.766h51.339q5.022 0 6.976-3.348 2.232-3.627-0.279-7.813l-72.544-132.813v-0.279l114.118-201.73q2.232-4.464 0-7.813zM428.571 116.071v267.857q0 33.203-23.577 56.78t-56.78 23.577h-267.857q-33.203 0-56.78-23.577t-23.577-56.78v-267.857q0-33.203 23.577-56.78t56.78-23.577h267.857q33.203 0 56.78 23.577t23.577 56.78z" fill="#ffffff" />
</svg>
