<?xml version="1.0" encoding="utf-8"?>
<!DOCTYPE svg PUBLIC "-//W3C//DTD SVG 1.1 Tiny//EN" "http://www.w3.org/Graphics/SVG/1.1/DTD/svg11-tiny.dtd">
<svg version="1.1" baseProfile="tiny" id="Layer_1" xmlns="http://www.w3.org/2000/svg" xmlns:xlink="http://www.w3.org/1999/xlink" x="0px" y="0px" width="16px" height="16px" viewBox="0 0 500 500" xml:space="preserve">
	<path d="M270.926 347.098v58.873q0 18.694-10.882 18.694-6.417 0-12.556-6.138v-83.984q6.138-6.138 12.556-6.138 10.882 0 10.882 18.694zM365.234 347.377v12.835h-25.112v-12.835q0-18.973 12.556-18.973t12.556 18.973zM95.703 286.551h29.855v-26.228h-87.054v26.228h29.297v158.761h27.902v-158.761zM176.060 445.313h24.833v-137.835h-24.833v105.469q-8.371 11.719-15.904 11.719-5.022 0-5.859-5.859-0.279-0.837-0.279-9.766v-101.563h-24.833v109.096q0 13.672 2.232 20.368 3.348 10.324 16.183 10.324 13.393 0 28.46-17.020v15.067zM295.759 404.018v-54.966q0-20.368-2.511-27.623-4.743-15.625-19.81-15.625-13.951 0-25.949 15.067v-60.547h-24.833v184.989h24.833v-13.393q12.556 15.346 25.949 15.346 15.067 0 19.81-15.346 2.511-7.534 2.511-27.902zM390.067 401.228v-3.627h-25.391q0 14.23-0.558 17.020-1.953 10.044-11.161 10.044-12.835 0-12.835-19.252v-24.274h49.944v-28.739q0-22.042-7.534-32.366-10.882-14.23-29.576-14.23-18.973 0-29.855 14.23-7.813 10.324-7.813 32.366v48.27q0 22.042 8.091 32.366 10.882 14.23 30.134 14.23 20.089 0 30.134-14.788 5.022-7.534 5.859-15.067 0.558-2.511 0.558-16.183zM220.424 146.484v-58.594q0-19.252-11.998-19.252t-11.998 19.252v58.594q0 19.531 11.998 19.531t11.998-19.531zM421.038 356.027q0 65.29-7.254 97.656-3.906 16.462-16.183 27.623t-28.46 12.835q-51.339 5.859-154.855 5.859t-154.855-5.859q-16.183-1.674-28.599-12.835t-16.043-27.623q-7.254-31.25-7.254-97.656 0-65.29 7.254-97.656 3.906-16.462 16.183-27.623t28.739-13.114q51.060-5.581 154.576-5.581t154.855 5.581q16.183 1.953 28.599 13.114t16.043 27.623q7.254 31.25 7.254 97.656zM142.578 0h28.46l-33.761 111.328v75.614h-27.902v-75.614q-3.906-20.647-17.020-59.152-10.324-28.739-18.136-52.176h29.576l19.81 73.382zM245.815 92.913v48.828q0 22.601-7.813 32.924-10.324 14.23-29.576 14.23-18.694 0-29.297-14.23-7.813-10.603-7.813-32.924v-48.828q0-22.321 7.813-32.645 10.603-14.23 29.297-14.23 19.252 0 29.576 14.23 7.813 10.324 7.813 32.645zM339.286 47.712v139.23h-25.391v-15.346q-14.788 17.299-28.739 17.299-12.835 0-16.462-10.324-2.232-6.696-2.232-20.926v-109.933h25.391v102.399q0 9.208 0.279 9.766 0.837 6.138 5.859 6.138 7.534 0 15.904-11.998v-106.306h25.391z" fill="#ffffff" />
</svg>
