<?xml version="1.0" encoding="utf-8"?>
<!DOCTYPE svg PUBLIC "-//W3C//DTD SVG 1.1 Tiny//EN" "http://www.w3.org/Graphics/SVG/1.1/DTD/svg11-tiny.dtd">
<svg version="1.1" baseProfile="tiny" id="Layer_1" xmlns="http://www.w3.org/2000/svg" xmlns:xlink="http://www.w3.org/1999/xlink" x="0px" y="0px" width="16px" height="16px" viewBox="0 0 500 500" xml:space="preserve">
	<path d="M256.417 363.56v-43.806q0-13.951-8.091-13.951-4.743 0-9.208 4.464v62.5q4.464 4.464 9.208 4.464 8.091 0 8.091-13.672zM307.757 329.52h18.415v-9.487q0-14.23-9.208-14.23t-9.208 14.23v9.487zM148.438 255.301v19.531h-22.321v118.024h-20.647v-118.024h-21.763v-19.531h64.732zM204.52 290.458v102.399h-18.694v-11.161q-10.882 12.556-21.206 12.556-9.208 0-11.719-7.813-1.674-4.464-1.674-15.067v-80.915h18.415v75.335q0 6.696 0.279 7.254 0.279 4.185 4.185 4.185 5.581 0 11.719-8.649v-78.125h18.694zM274.833 321.429v40.737q0 14.509-1.953 20.368-3.348 11.719-14.788 11.719-9.766 0-18.973-11.44v10.044h-18.694v-137.556h18.694v44.922q8.929-11.161 18.973-11.161 11.44 0 14.788 11.719 1.953 5.859 1.953 20.647zM344.866 357.422v2.511q0 8.091-0.558 11.998-0.837 6.138-4.185 11.161-7.534 11.161-22.321 11.161-14.509 0-22.601-10.603-5.859-7.534-5.859-23.996v-35.993q0-16.462 5.581-23.996 8.091-10.603 22.321-10.603t21.763 10.603q5.859 7.813 5.859 23.996v21.206h-37.109v18.136q0 14.23 9.487 14.23 6.696 0 8.371-7.254 0-0.279 0.14-1.953t0.14-4.604v-5.999h18.973zM219.029 127.511v43.527q0 14.23-8.929 14.23t-8.929-14.23v-43.527q0-14.509 8.929-14.509t8.929 14.509zM367.746 326.451q0-49.386-5.301-72.544-2.79-12.277-11.998-20.508t-21.206-9.626q-37.946-4.185-114.956-4.185-76.73 0-114.676 4.185-12.277 1.395-21.345 9.626t-11.858 20.508q-5.581 24.274-5.581 72.544 0 49.107 5.581 72.544 2.79 11.998 11.858 20.368t21.066 9.766q38.226 4.185 114.956 4.185t114.956-4.185q11.998-1.395 21.066-9.766t11.858-20.368q5.581-23.438 5.581-72.544zM157.087 144.81l25.112-82.589h-20.926l-14.23 54.409-14.788-54.409h-21.763l6.696 19.252t6.417 19.252q9.766 28.739 12.835 44.085v56.083h20.647v-56.083zM237.723 167.411v-36.272q0-16.183-5.859-24.274-8.091-10.603-21.763-10.603-14.23 0-21.763 10.603-5.859 8.091-5.859 24.274v36.272q0 16.183 5.859 24.274 7.534 10.603 21.763 10.603 13.672 0 21.763-10.603 5.859-7.534 5.859-24.274zM288.226 200.893h18.694v-103.237h-18.694v78.962q-6.138 8.649-11.719 8.649-4.185 0-4.464-4.464-0.279-0.558-0.279-7.254v-75.893h-18.694v81.752q0 10.324 1.674 15.346 3.069 7.534 11.998 7.534 10.044 0 21.484-12.556v11.161zM428.571 116.071v267.857q0 33.203-23.577 56.78t-56.78 23.577h-267.857q-33.203 0-56.78-23.577t-23.577-56.78v-267.857q0-33.203 23.577-56.78t56.78-23.577h267.857q33.203 0 56.78 23.577t23.577 56.78z" fill="#ffffff" />
</svg>
