<?xml version="1.0" encoding="utf-8"?>
<!DOCTYPE svg PUBLIC "-//W3C//DTD SVG 1.1 Tiny//EN" "http://www.w3.org/Graphics/SVG/1.1/DTD/svg11-tiny.dtd">
<svg version="1.1" baseProfile="tiny" id="Layer_1" xmlns="http://www.w3.org/2000/svg" xmlns:xlink="http://www.w3.org/1999/xlink" x="0px" y="0px" width="16px" height="16px" viewBox="0 0 500 500" xml:space="preserve">
	<path d="M357.143 250q0-10.324-8.371-15.067l-142.857-89.286q-8.649-5.581-18.136-0.558-9.208 5.022-9.208 15.625v178.571q0 10.603 9.208 15.625 4.464 2.232 8.649 2.232 5.581 0 9.487-2.79l142.857-89.286q8.371-4.743 8.371-15.067zM500 250q0 26.786-0.279 41.853t-2.372 38.086-6.278 41.155q-4.464 20.368-19.252 34.319t-34.598 16.183q-61.942 6.976-187.221 6.976t-187.221-6.976q-19.81-2.232-34.738-16.183t-19.392-34.319q-3.906-18.136-5.999-41.155t-2.372-38.086-0.279-41.853 0.279-41.853 2.372-38.086 6.278-41.155q4.464-20.368 19.252-34.319t34.598-16.183q61.942-6.976 187.221-6.976t187.221 6.976q19.81 2.232 34.738 16.183t19.392 34.319q3.906 18.136 5.999 41.155t2.372 38.086 0.279 41.853z" fill="#ffffff" />
</svg>
